solid OpenSCAD_Model
  facet normal 0 1 -0
    outer loop
      vertex 40 30 0
      vertex 34.9 30 3.5
      vertex 40 30 3.5
    endloop
  endfacet
  facet normal 0 1 0
    outer loop
      vertex 34.9 30 3.5
      vertex 40 30 0
      vertex 32.1 30 3.5
    endloop
  endfacet
  facet normal 0 1 0
    outer loop
      vertex 26.5 30 0
      vertex 32.1 30 3.5
      vertex 40 30 0
    endloop
  endfacet
  facet normal 0 1 0
    outer loop
      vertex 32.1 30 3.5
      vertex 26.5 30 0
      vertex 26.5 30 3.5
    endloop
  endfacet
  facet normal 0 1 -0
    outer loop
      vertex 34.9 30 3.5
      vertex 32.1 30 7
      vertex 34.9 30 7
    endloop
  endfacet
  facet normal 0 1 0
    outer loop
      vertex 32.1 30 7
      vertex 34.9 30 3.5
      vertex 32.1 30 3.5
    endloop
  endfacet
  facet normal 0.624695 0.780869 -0
    outer loop
      vertex 47.5 24 0
      vertex 40 30 3.5
      vertex 47.5 24 3.5
    endloop
  endfacet
  facet normal 0.624695 0.780869 0
    outer loop
      vertex 40 30 3.5
      vertex 47.5 24 0
      vertex 40 30 0
    endloop
  endfacet
  facet normal 0 0 -1
    outer loop
      vertex 26.5 -30 0
      vertex 47.5 -24 0
      vertex 40 -30 0
    endloop
  endfacet
  facet normal -0 0 -1
    outer loop
      vertex 47.5 -24 0
      vertex 26.5 -30 0
      vertex 47.5 24 0
    endloop
  endfacet
  facet normal 0 0 -1
    outer loop
      vertex 26.5 30 0
      vertex 47.5 24 0
      vertex 26.5 -30 0
    endloop
  endfacet
  facet normal 0 0 -1
    outer loop
      vertex 47.5 24 0
      vertex 26.5 30 0
      vertex 40 30 0
    endloop
  endfacet
  facet normal 0 0 -1
    outer loop
      vertex 2.5 -16 0
      vertex 26.5 30 0
      vertex 26.5 -30 0
    endloop
  endfacet
  facet normal 0 0 -1
    outer loop
      vertex 26.5 30 0
      vertex 2.5 -16 0
      vertex 2.5 16 0
    endloop
  endfacet
  facet normal 1 0 0
    outer loop
      vertex 47.5 -16.6 7
      vertex 47.5 -19.4 7
      vertex 47.5 -16.6 3.5
    endloop
  endfacet
  facet normal 1 0 0
    outer loop
      vertex 47.5 1.4 7
      vertex 47.5 -1.4 7
      vertex 47.5 1.4 3.5
    endloop
  endfacet
  facet normal 1 0 0
    outer loop
      vertex 47.5 19.4 7
      vertex 47.5 16.6 7
      vertex 47.5 19.4 3.5
    endloop
  endfacet
  facet normal 1 -0 0
    outer loop
      vertex 47.5 19.4 3.5
      vertex 47.5 24 0
      vertex 47.5 24 3.5
    endloop
  endfacet
  facet normal 1 0 0
    outer loop
      vertex 47.5 16.6 3.5
      vertex 47.5 19.4 3.5
      vertex 47.5 16.6 7
    endloop
  endfacet
  facet normal 1 -0 0
    outer loop
      vertex 47.5 16.6 3.5
      vertex 47.5 24 0
      vertex 47.5 19.4 3.5
    endloop
  endfacet
  facet normal 1 -0 0
    outer loop
      vertex 47.5 1.4 3.5
      vertex 47.5 24 0
      vertex 47.5 16.6 3.5
    endloop
  endfacet
  facet normal 1 0 0
    outer loop
      vertex 47.5 -1.4 3.5
      vertex 47.5 1.4 3.5
      vertex 47.5 -1.4 7
    endloop
  endfacet
  facet normal 1 -0 0
    outer loop
      vertex 47.5 -1.4 3.5
      vertex 47.5 24 0
      vertex 47.5 1.4 3.5
    endloop
  endfacet
  facet normal 1 0 0
    outer loop
      vertex 47.5 -24 0
      vertex 47.5 -1.4 3.5
      vertex 47.5 -16.6 3.5
    endloop
  endfacet
  facet normal 1 0 0
    outer loop
      vertex 47.5 -19.4 3.5
      vertex 47.5 -16.6 3.5
      vertex 47.5 -19.4 7
    endloop
  endfacet
  facet normal 1 0 0
    outer loop
      vertex 47.5 -24 0
      vertex 47.5 -16.6 3.5
      vertex 47.5 -19.4 3.5
    endloop
  endfacet
  facet normal 1 0 0
    outer loop
      vertex 47.5 -24 0
      vertex 47.5 -19.4 3.5
      vertex 47.5 -24 3.5
    endloop
  endfacet
  facet normal 1 0 0
    outer loop
      vertex 47.5 -1.4 3.5
      vertex 47.5 -24 0
      vertex 47.5 24 0
    endloop
  endfacet
  facet normal 0 0 -1
    outer loop
      vertex 17.7124 -24.88 3.5
      vertex 15.2965 -23.4646 3.5
      vertex 17.7151 -24.8755 3.5
    endloop
  endfacet
  facet normal 0 -0 -1
    outer loop
      vertex 15.2965 -23.4646 3.5
      vertex 17.7124 -24.88 3.5
      vertex 15.2876 -23.48 3.5
    endloop
  endfacet
  facet normal 0 0 1
    outer loop
      vertex 47.5 24 3.5
      vertex 46.5 19.4 3.5
      vertex 47.5 19.4 3.5
    endloop
  endfacet
  facet normal 0 0 1
    outer loop
      vertex 30.4 14.5 3.5
      vertex 46.5 16.6 3.5
      vertex 46.5 19.4 3.5
    endloop
  endfacet
  facet normal 0 0 1
    outer loop
      vertex 46.5 16.6 3.5
      vertex 34.9 9 3.5
      vertex 46.5 1.4 3.5
    endloop
  endfacet
  facet normal 0 0 1
    outer loop
      vertex 46.5 1.4 3.5
      vertex 34.9 9 3.5
      vertex 46.5 -1.4 3.5
    endloop
  endfacet
  facet normal 0 0 1
    outer loop
      vertex 27.4 -14 3.5
      vertex 46.5 -1.4 3.5
      vertex 34.9 9 3.5
    endloop
  endfacet
  facet normal -0 0 1
    outer loop
      vertex 34.9 29 3.5
      vertex 46.5 19.4 3.5
      vertex 40 30 3.5
    endloop
  endfacet
  facet normal 0 0 1
    outer loop
      vertex 40 30 3.5
      vertex 46.5 19.4 3.5
      vertex 47.5 24 3.5
    endloop
  endfacet
  facet normal -0 0 1
    outer loop
      vertex 46.5 16.6 3.5
      vertex 47.5 1.4 3.5
      vertex 47.5 16.6 3.5
    endloop
  endfacet
  facet normal 0 0 1
    outer loop
      vertex 47.5 1.4 3.5
      vertex 46.5 16.6 3.5
      vertex 46.5 1.4 3.5
    endloop
  endfacet
  facet normal -0 0 1
    outer loop
      vertex 46.5 -1.4 3.5
      vertex 47.5 -16.6 3.5
      vertex 47.5 -1.4 3.5
    endloop
  endfacet
  facet normal 0 0 1
    outer loop
      vertex 47.5 -16.6 3.5
      vertex 46.5 -1.4 3.5
      vertex 46.5 -16.6 3.5
    endloop
  endfacet
  facet normal -0 0 1
    outer loop
      vertex 46.5 -19.4 3.5
      vertex 47.5 -24 3.5
      vertex 47.5 -19.4 3.5
    endloop
  endfacet
  facet normal 0 0 1
    outer loop
      vertex 46.5 -19.4 3.5
      vertex 40 -30 3.5
      vertex 47.5 -24 3.5
    endloop
  endfacet
  facet normal 0 0 1
    outer loop
      vertex 46.5 -1.4 3.5
      vertex 27.4 -14 3.5
      vertex 46.5 -16.6 3.5
    endloop
  endfacet
  facet normal 0 0 1
    outer loop
      vertex 34.9 29 3.5
      vertex 40 30 3.5
      vertex 34.9 30 3.5
    endloop
  endfacet
  facet normal 0 0 1
    outer loop
      vertex 46.5 19.4 3.5
      vertex 34.9 29 3.5
      vertex 30.4 14.5 3.5
    endloop
  endfacet
  facet normal 0 0 1
    outer loop
      vertex 46.5 -16.6 3.5
      vertex 27.4 -14 3.5
      vertex 46.5 -19.4 3.5
    endloop
  endfacet
  facet normal 0 -0 1
    outer loop
      vertex 34.9 -29 3.5
      vertex 46.5 -19.4 3.5
      vertex 27.4 -14 3.5
    endloop
  endfacet
  facet normal 0 0 1
    outer loop
      vertex 40 -30 3.5
      vertex 34.9 -29 3.5
      vertex 34.9 -30 3.5
    endloop
  endfacet
  facet normal 0 0 1
    outer loop
      vertex 15.7876 22.614 3.5
      vertex 2.5 16 3.5
      vertex 3.5 13.4 3.5
    endloop
  endfacet
  facet normal 0 0 1
    outer loop
      vertex 3.5 13.4 3.5
      vertex 2.5 16 3.5
      vertex 2.5 13.4 3.5
    endloop
  endfacet
  facet normal 0 0 1
    outer loop
      vertex 26.5 30 3.5
      vertex 17.7151 24.8755 3.5
      vertex 18.2124 24.014 3.5
    endloop
  endfacet
  facet normal -0 0 1
    outer loop
      vertex 26.5 30 3.5
      vertex 32.1 29 3.5
      vertex 32.1 30 3.5
    endloop
  endfacet
  facet normal 0 0 1
    outer loop
      vertex 32.1 29 3.5
      vertex 26.5 30 3.5
      vertex 30.4 14.5 3.5
    endloop
  endfacet
  facet normal -0 0 1
    outer loop
      vertex 18.2124 24.014 3.5
      vertex 30.4 14.5 3.5
      vertex 26.5 30 3.5
    endloop
  endfacet
  facet normal -0 0 1
    outer loop
      vertex 15.7876 22.614 3.5
      vertex 30.4 14.5 3.5
      vertex 18.2124 24.014 3.5
    endloop
  endfacet
  facet normal 0 0 1
    outer loop
      vertex 2.5 16 3.5
      vertex 15.7876 22.614 3.5
      vertex 15.2965 23.4646 3.5
    endloop
  endfacet
  facet normal 0 0 1
    outer loop
      vertex 3.5 10.6 3.5
      vertex 15.7876 22.614 3.5
      vertex 3.5 13.4 3.5
    endloop
  endfacet
  facet normal 0 0 1
    outer loop
      vertex 15.7876 22.614 3.5
      vertex 3.5 10.6 3.5
      vertex 30.4 14.5 3.5
    endloop
  endfacet
  facet normal -0 0 1
    outer loop
      vertex 3.5 10.6 3.5
      vertex 2.5 6.03036 3.5
      vertex 30.4 14.5 3.5
    endloop
  endfacet
  facet normal 0 0 1
    outer loop
      vertex 2.5 6.03036 3.5
      vertex 3.5 10.6 3.5
      vertex 2.5 10.6 3.5
    endloop
  endfacet
  facet normal 0 0 1
    outer loop
      vertex 46.5 -19.4 3.5
      vertex 34.9 -29 3.5
      vertex 40 -30 3.5
    endloop
  endfacet
  facet normal 0 0 1
    outer loop
      vertex 34.9 -29 3.5
      vertex 27.4 -14 3.5
      vertex 32.1 -29 3.5
    endloop
  endfacet
  facet normal 0 0 1
    outer loop
      vertex 26.5 -30 3.5
      vertex 32.1 -29 3.5
      vertex 27.4 -14 3.5
    endloop
  endfacet
  facet normal 0 0 1
    outer loop
      vertex 32.1 -29 3.5
      vertex 26.5 -30 3.5
      vertex 32.1 -30 3.5
    endloop
  endfacet
  facet normal 0 0 1
    outer loop
      vertex 27.4 -14 3.5
      vertex 18.2124 -24.014 3.5
      vertex 26.5 -30 3.5
    endloop
  endfacet
  facet normal 0 0 1
    outer loop
      vertex 27.4 -14 3.5
      vertex 15.7876 -22.614 3.5
      vertex 18.2124 -24.014 3.5
    endloop
  endfacet
  facet normal -0 0 1
    outer loop
      vertex 3.5 -13.4 3.5
      vertex 15.7876 -22.614 3.5
      vertex 3.5 -10.6 3.5
    endloop
  endfacet
  facet normal 0 0 1
    outer loop
      vertex 27.4 -14 3.5
      vertex 3.5 -10.6 3.5
      vertex 15.7876 -22.614 3.5
    endloop
  endfacet
  facet normal 0 0 1
    outer loop
      vertex 2.5 -6.032 3.5
      vertex 3.5 -10.6 3.5
      vertex 27.4 -14 3.5
    endloop
  endfacet
  facet normal 0 0 1
    outer loop
      vertex 3.5 -10.6 3.5
      vertex 2.5 -6.032 3.5
      vertex 2.5 -10.6 3.5
    endloop
  endfacet
  facet normal 0 0 1
    outer loop
      vertex 30.4 14.5 3.5
      vertex 34.9 29 3.5
      vertex 32.1 29 3.5
    endloop
  endfacet
  facet normal 0 0 1
    outer loop
      vertex 46.5 16.6 3.5
      vertex 30.4 14.5 3.5
      vertex 34.9 9 3.5
    endloop
  endfacet
  facet normal 0 0 1
    outer loop
      vertex 26.5 -30 3.5
      vertex 18.2124 -24.014 3.5
      vertex 17.7151 -24.8755 3.5
    endloop
  endfacet
  facet normal -0 0 1
    outer loop
      vertex 2.5 -16 3.5
      vertex 15.7876 -22.614 3.5
      vertex 3.5 -13.4 3.5
    endloop
  endfacet
  facet normal 0 0 1
    outer loop
      vertex 2.5 -16 3.5
      vertex 3.5 -13.4 3.5
      vertex 2.5 -13.4 3.5
    endloop
  endfacet
  facet normal 0 0 1
    outer loop
      vertex 15.7876 -22.614 3.5
      vertex 2.5 -16 3.5
      vertex 15.2965 -23.4646 3.5
    endloop
  endfacet
  facet normal 0 0 -1
    outer loop
      vertex 15.2965 23.4646 3.5
      vertex 17.7124 24.88 3.5
      vertex 17.7151 24.8755 3.5
    endloop
  endfacet
  facet normal 0 0 -1
    outer loop
      vertex 17.7124 24.88 3.5
      vertex 15.2965 23.4646 3.5
      vertex 15.2876 23.48 3.5
    endloop
  endfacet
  facet normal 0.624695 -0.780869 0
    outer loop
      vertex 40 -30 0
      vertex 47.5 -24 3.5
      vertex 40 -30 3.5
    endloop
  endfacet
  facet normal 0.624695 -0.780869 0
    outer loop
      vertex 47.5 -24 3.5
      vertex 40 -30 0
      vertex 47.5 -24 0
    endloop
  endfacet
  facet normal 0 -1 0
    outer loop
      vertex 26.5 -30 0
      vertex 32.1 -30 3.5
      vertex 26.5 -30 3.5
    endloop
  endfacet
  facet normal 0 -1 0
    outer loop
      vertex 40 -30 0
      vertex 32.1 -30 3.5
      vertex 26.5 -30 0
    endloop
  endfacet
  facet normal 0 -1 0
    outer loop
      vertex 32.1 -30 3.5
      vertex 40 -30 0
      vertex 34.9 -30 3.5
    endloop
  endfacet
  facet normal 0 -1 0
    outer loop
      vertex 34.9 -30 3.5
      vertex 40 -30 0
      vertex 40 -30 3.5
    endloop
  endfacet
  facet normal 0 -1 0
    outer loop
      vertex 32.1 -30 3.5
      vertex 34.9 -30 7
      vertex 32.1 -30 7
    endloop
  endfacet
  facet normal 0 -1 -0
    outer loop
      vertex 34.9 -30 7
      vertex 32.1 -30 3.5
      vertex 34.9 -30 3.5
    endloop
  endfacet
  facet normal -0.50387 -0.86378 0
    outer loop
      vertex 2.5 -16 0
      vertex 15.2965 -23.4646 3.5
      vertex 2.5 -16 3.5
    endloop
  endfacet
  facet normal -0.503871 -0.863779 6.16985e-06
    outer loop
      vertex 26.5 -30 0
      vertex 15.2965 -23.4646 3.5
      vertex 2.5 -16 0
    endloop
  endfacet
  facet normal -0.503884 -0.863771 -5.099e-05
    outer loop
      vertex 15.2965 -23.4646 3.5
      vertex 26.5 -30 0
      vertex 17.7151 -24.8755 3.5
    endloop
  endfacet
  facet normal -0.503869 -0.86378 0
    outer loop
      vertex 17.7151 -24.8755 3.5
      vertex 26.5 -30 0
      vertex 26.5 -30 3.5
    endloop
  endfacet
  facet normal -1 0 0
    outer loop
      vertex 2.5 16 0
      vertex 2.5 13.4 3.5
      vertex 2.5 16 3.5
    endloop
  endfacet
  facet normal -1 0 0
    outer loop
      vertex 2.5 13.4 3.5
      vertex 2.5 10.6 3.5
      vertex 2.5 13.4 7
    endloop
  endfacet
  facet normal -1 0 0
    outer loop
      vertex 2.5 16 0
      vertex 2.5 10.6 3.5
      vertex 2.5 13.4 3.5
    endloop
  endfacet
  facet normal -1 0 0
    outer loop
      vertex 2.5 16 0
      vertex 2.5 6.03036 2
      vertex 2.5 10.6 3.5
    endloop
  endfacet
  facet normal -1 0 0
    outer loop
      vertex 2.5 16 0
      vertex 2.5 -6.032 2
      vertex 2.5 6.03036 2
    endloop
  endfacet
  facet normal -1 0 0
    outer loop
      vertex 2.5 -6.032 2
      vertex 2.5 -10.6 3.5
      vertex 2.5 -6.032 3.5
    endloop
  endfacet
  facet normal -1 0 0
    outer loop
      vertex 2.5 -10.6 3.5
      vertex 2.5 -13.4 3.5
      vertex 2.5 -10.6 7
    endloop
  endfacet
  facet normal -1 0 0
    outer loop
      vertex 2.5 -16 0
      vertex 2.5 -10.6 3.5
      vertex 2.5 -6.032 2
    endloop
  endfacet
  facet normal -1 0 0
    outer loop
      vertex 2.5 -16 0
      vertex 2.5 -6.032 2
      vertex 2.5 16 0
    endloop
  endfacet
  facet normal -1 -0 0
    outer loop
      vertex 2.5 -10.6 3.5
      vertex 2.5 -16 0
      vertex 2.5 -13.4 3.5
    endloop
  endfacet
  facet normal -1 -0 0
    outer loop
      vertex 2.5 -13.4 3.5
      vertex 2.5 -16 0
      vertex 2.5 -16 3.5
    endloop
  endfacet
  facet normal -1 -0 0
    outer loop
      vertex 2.5 13.4 7
      vertex 2.5 10.6 3.5
      vertex 2.5 10.6 7
    endloop
  endfacet
  facet normal -1 -0 0
    outer loop
      vertex 2.5 10.6 3.5
      vertex 2.5 6.03036 2
      vertex 2.5 6.03036 3.5
    endloop
  endfacet
  facet normal -1 -0 0
    outer loop
      vertex 2.5 -10.6 7
      vertex 2.5 -13.4 3.5
      vertex 2.5 -13.4 7
    endloop
  endfacet
  facet normal -0.503869 0.86378 0
    outer loop
      vertex 26.5 30 0
      vertex 17.7151 24.8755 3.5
      vertex 26.5 30 3.5
    endloop
  endfacet
  facet normal -0.503884 0.863771 -5.099e-05
    outer loop
      vertex 17.7151 24.8755 3.5
      vertex 26.5 30 0
      vertex 15.2965 23.4646 3.5
    endloop
  endfacet
  facet normal -0.503871 0.863779 6.16985e-06
    outer loop
      vertex 2.5 16 0
      vertex 15.2965 23.4646 3.5
      vertex 26.5 30 0
    endloop
  endfacet
  facet normal -0.50387 0.86378 0
    outer loop
      vertex 15.2965 23.4646 3.5
      vertex 2.5 16 0
      vertex 2.5 16 3.5
    endloop
  endfacet
  facet normal 0.304776 0.952424 -0
    outer loop
      vertex 27.4 -14 2
      vertex 2.5 -6.032 3.5
      vertex 27.4 -14 3.5
    endloop
  endfacet
  facet normal 0.304776 0.952424 0
    outer loop
      vertex 2.5 -6.032 3.5
      vertex 27.4 -14 2
      vertex 2.5 -6.032 2
    endloop
  endfacet
  facet normal -0.95073 0.310021 0
    outer loop
      vertex 27.4 -14 2
      vertex 34.9 9 3.5
      vertex 34.9 9 2
    endloop
  endfacet
  facet normal -0.95073 0.310021 0
    outer loop
      vertex 34.9 9 3.5
      vertex 27.4 -14 2
      vertex 27.4 -14 3.5
    endloop
  endfacet
  facet normal -0.773957 -0.633238 0
    outer loop
      vertex 34.9 9 2
      vertex 30.4 14.5 3.5
      vertex 30.4 14.5 2
    endloop
  endfacet
  facet normal -0.773957 -0.633238 0
    outer loop
      vertex 30.4 14.5 3.5
      vertex 34.9 9 2
      vertex 34.9 9 3.5
    endloop
  endfacet
  facet normal 0.290482 -0.956881 0
    outer loop
      vertex 2.5 6.03036 2
      vertex 30.4 14.5 3.5
      vertex 2.5 6.03036 3.5
    endloop
  endfacet
  facet normal 0.290482 -0.956881 0
    outer loop
      vertex 30.4 14.5 3.5
      vertex 2.5 6.03036 2
      vertex 30.4 14.5 2
    endloop
  endfacet
  facet normal 0 0 1
    outer loop
      vertex 30.4 14.5 2
      vertex 27.4 -14 2
      vertex 34.9 9 2
    endloop
  endfacet
  facet normal -0 0 1
    outer loop
      vertex 2.5 6.03036 2
      vertex 27.4 -14 2
      vertex 30.4 14.5 2
    endloop
  endfacet
  facet normal 0 0 1
    outer loop
      vertex 27.4 -14 2
      vertex 2.5 6.03036 2
      vertex 2.5 -6.032 2
    endloop
  endfacet
  facet normal 0 1 0
    outer loop
      vertex 3.5 13.4 5.5
      vertex 3.5 13.4 7
      vertex 4.5 13.4 6.5
    endloop
  endfacet
  facet normal 0 1 0
    outer loop
      vertex 3.5 13.4 7
      vertex 3.5 13.4 5.5
      vertex 2.5 13.4 7
    endloop
  endfacet
  facet normal 0 1 0
    outer loop
      vertex 2.5 13.4 3.5
      vertex 3.5 13.4 5.5
      vertex 3.5 13.4 3.5
    endloop
  endfacet
  facet normal 0 1 0
    outer loop
      vertex 3.5 13.4 5.5
      vertex 2.5 13.4 3.5
      vertex 2.5 13.4 7
    endloop
  endfacet
  facet normal 0 -1 0
    outer loop
      vertex 3.5 10.6 5.5
      vertex 3.5 10.6 7
      vertex 2.5 10.6 7
    endloop
  endfacet
  facet normal 0 -1 0
    outer loop
      vertex 3.5 10.6 7
      vertex 3.5 10.6 5.5
      vertex 4.5 10.6 6.5
    endloop
  endfacet
  facet normal 0 -1 0
    outer loop
      vertex 2.5 10.6 3.5
      vertex 3.5 10.6 5.5
      vertex 2.5 10.6 7
    endloop
  endfacet
  facet normal 0 -1 -0
    outer loop
      vertex 3.5 10.6 5.5
      vertex 2.5 10.6 3.5
      vertex 3.5 10.6 3.5
    endloop
  endfacet
  facet normal 1 -0 0
    outer loop
      vertex 3.5 10.6 5.5
      vertex 3.5 13.4 3.5
      vertex 3.5 13.4 5.5
    endloop
  endfacet
  facet normal 1 0 0
    outer loop
      vertex 3.5 13.4 3.5
      vertex 3.5 10.6 5.5
      vertex 3.5 10.6 3.5
    endloop
  endfacet
  facet normal 0.707107 0 -0.707107
    outer loop
      vertex 4.5 10.6 6.5
      vertex 3.5 13.4 5.5
      vertex 4.5 13.4 6.5
    endloop
  endfacet
  facet normal 0.707107 0 -0.707107
    outer loop
      vertex 3.5 13.4 5.5
      vertex 4.5 10.6 6.5
      vertex 3.5 10.6 5.5
    endloop
  endfacet
  facet normal 0.447214 0 0.894427
    outer loop
      vertex 3.5 13.4 7
      vertex 4.5 10.6 6.5
      vertex 4.5 13.4 6.5
    endloop
  endfacet
  facet normal 0.447214 0 0.894427
    outer loop
      vertex 4.5 10.6 6.5
      vertex 3.5 13.4 7
      vertex 3.5 10.6 7
    endloop
  endfacet
  facet normal -0 0 1
    outer loop
      vertex 2.5 13.4 7
      vertex 3.5 10.6 7
      vertex 3.5 13.4 7
    endloop
  endfacet
  facet normal 0 0 1
    outer loop
      vertex 3.5 10.6 7
      vertex 2.5 13.4 7
      vertex 2.5 10.6 7
    endloop
  endfacet
  facet normal 0 1 0
    outer loop
      vertex 3.5 -10.6 5.5
      vertex 3.5 -10.6 7
      vertex 4.5 -10.6 6.5
    endloop
  endfacet
  facet normal 0 1 0
    outer loop
      vertex 3.5 -10.6 7
      vertex 3.5 -10.6 5.5
      vertex 2.5 -10.6 7
    endloop
  endfacet
  facet normal 0 1 0
    outer loop
      vertex 2.5 -10.6 3.5
      vertex 3.5 -10.6 5.5
      vertex 3.5 -10.6 3.5
    endloop
  endfacet
  facet normal 0 1 0
    outer loop
      vertex 3.5 -10.6 5.5
      vertex 2.5 -10.6 3.5
      vertex 2.5 -10.6 7
    endloop
  endfacet
  facet normal 0 -1 0
    outer loop
      vertex 3.5 -13.4 5.5
      vertex 3.5 -13.4 7
      vertex 2.5 -13.4 7
    endloop
  endfacet
  facet normal 0 -1 0
    outer loop
      vertex 3.5 -13.4 7
      vertex 3.5 -13.4 5.5
      vertex 4.5 -13.4 6.5
    endloop
  endfacet
  facet normal 0 -1 0
    outer loop
      vertex 2.5 -13.4 3.5
      vertex 3.5 -13.4 5.5
      vertex 2.5 -13.4 7
    endloop
  endfacet
  facet normal 0 -1 -0
    outer loop
      vertex 3.5 -13.4 5.5
      vertex 2.5 -13.4 3.5
      vertex 3.5 -13.4 3.5
    endloop
  endfacet
  facet normal 1 -0 0
    outer loop
      vertex 3.5 -13.4 5.5
      vertex 3.5 -10.6 3.5
      vertex 3.5 -10.6 5.5
    endloop
  endfacet
  facet normal 1 0 0
    outer loop
      vertex 3.5 -10.6 3.5
      vertex 3.5 -13.4 5.5
      vertex 3.5 -13.4 3.5
    endloop
  endfacet
  facet normal 0.707107 0 -0.707107
    outer loop
      vertex 4.5 -13.4 6.5
      vertex 3.5 -10.6 5.5
      vertex 4.5 -10.6 6.5
    endloop
  endfacet
  facet normal 0.707107 0 -0.707107
    outer loop
      vertex 3.5 -10.6 5.5
      vertex 4.5 -13.4 6.5
      vertex 3.5 -13.4 5.5
    endloop
  endfacet
  facet normal 0.447214 0 0.894427
    outer loop
      vertex 3.5 -10.6 7
      vertex 4.5 -13.4 6.5
      vertex 4.5 -10.6 6.5
    endloop
  endfacet
  facet normal 0.447214 0 0.894427
    outer loop
      vertex 4.5 -13.4 6.5
      vertex 3.5 -10.6 7
      vertex 3.5 -13.4 7
    endloop
  endfacet
  facet normal -0 0 1
    outer loop
      vertex 2.5 -10.6 7
      vertex 3.5 -13.4 7
      vertex 3.5 -10.6 7
    endloop
  endfacet
  facet normal 0 0 1
    outer loop
      vertex 3.5 -13.4 7
      vertex 2.5 -10.6 7
      vertex 2.5 -13.4 7
    endloop
  endfacet
  facet normal 0 -1 0
    outer loop
      vertex 46.5 16.6 5.5
      vertex 46.5 16.6 7
      vertex 45.5 16.6 6.5
    endloop
  endfacet
  facet normal 0 -1 0
    outer loop
      vertex 46.5 16.6 7
      vertex 46.5 16.6 5.5
      vertex 47.5 16.6 7
    endloop
  endfacet
  facet normal 0 -1 0
    outer loop
      vertex 47.5 16.6 3.5
      vertex 46.5 16.6 5.5
      vertex 46.5 16.6 3.5
    endloop
  endfacet
  facet normal 0 -1 0
    outer loop
      vertex 46.5 16.6 5.5
      vertex 47.5 16.6 3.5
      vertex 47.5 16.6 7
    endloop
  endfacet
  facet normal 0 1 0
    outer loop
      vertex 46.5 19.4 5.5
      vertex 46.5 19.4 7
      vertex 47.5 19.4 7
    endloop
  endfacet
  facet normal 0 1 0
    outer loop
      vertex 46.5 19.4 7
      vertex 46.5 19.4 5.5
      vertex 45.5 19.4 6.5
    endloop
  endfacet
  facet normal 0 1 -0
    outer loop
      vertex 47.5 19.4 3.5
      vertex 46.5 19.4 5.5
      vertex 47.5 19.4 7
    endloop
  endfacet
  facet normal 0 1 0
    outer loop
      vertex 46.5 19.4 5.5
      vertex 47.5 19.4 3.5
      vertex 46.5 19.4 3.5
    endloop
  endfacet
  facet normal -1 0 0
    outer loop
      vertex 46.5 16.6 3.5
      vertex 46.5 19.4 5.5
      vertex 46.5 19.4 3.5
    endloop
  endfacet
  facet normal -1 -0 0
    outer loop
      vertex 46.5 19.4 5.5
      vertex 46.5 16.6 3.5
      vertex 46.5 16.6 5.5
    endloop
  endfacet
  facet normal -0.707107 0 -0.707107
    outer loop
      vertex 46.5 16.6 5.5
      vertex 45.5 19.4 6.5
      vertex 46.5 19.4 5.5
    endloop
  endfacet
  facet normal -0.707107 -0 -0.707107
    outer loop
      vertex 45.5 19.4 6.5
      vertex 46.5 16.6 5.5
      vertex 45.5 16.6 6.5
    endloop
  endfacet
  facet normal -0.447214 0 0.894427
    outer loop
      vertex 45.5 19.4 6.5
      vertex 46.5 16.6 7
      vertex 46.5 19.4 7
    endloop
  endfacet
  facet normal -0.447214 0 0.894427
    outer loop
      vertex 46.5 16.6 7
      vertex 45.5 19.4 6.5
      vertex 45.5 16.6 6.5
    endloop
  endfacet
  facet normal -0 0 1
    outer loop
      vertex 46.5 19.4 7
      vertex 47.5 16.6 7
      vertex 47.5 19.4 7
    endloop
  endfacet
  facet normal 0 0 1
    outer loop
      vertex 47.5 16.6 7
      vertex 46.5 19.4 7
      vertex 46.5 16.6 7
    endloop
  endfacet
  facet normal 0 -1 0
    outer loop
      vertex 46.5 -1.4 5.5
      vertex 46.5 -1.4 7
      vertex 45.5 -1.4 6.5
    endloop
  endfacet
  facet normal 0 -1 0
    outer loop
      vertex 46.5 -1.4 7
      vertex 46.5 -1.4 5.5
      vertex 47.5 -1.4 7
    endloop
  endfacet
  facet normal 0 -1 0
    outer loop
      vertex 47.5 -1.4 3.5
      vertex 46.5 -1.4 5.5
      vertex 46.5 -1.4 3.5
    endloop
  endfacet
  facet normal 0 -1 0
    outer loop
      vertex 46.5 -1.4 5.5
      vertex 47.5 -1.4 3.5
      vertex 47.5 -1.4 7
    endloop
  endfacet
  facet normal 0 1 0
    outer loop
      vertex 46.5 1.4 5.5
      vertex 46.5 1.4 7
      vertex 47.5 1.4 7
    endloop
  endfacet
  facet normal 0 1 0
    outer loop
      vertex 46.5 1.4 7
      vertex 46.5 1.4 5.5
      vertex 45.5 1.4 6.5
    endloop
  endfacet
  facet normal 0 1 -0
    outer loop
      vertex 47.5 1.4 3.5
      vertex 46.5 1.4 5.5
      vertex 47.5 1.4 7
    endloop
  endfacet
  facet normal 0 1 0
    outer loop
      vertex 46.5 1.4 5.5
      vertex 47.5 1.4 3.5
      vertex 46.5 1.4 3.5
    endloop
  endfacet
  facet normal -1 0 0
    outer loop
      vertex 46.5 -1.4 3.5
      vertex 46.5 1.4 5.5
      vertex 46.5 1.4 3.5
    endloop
  endfacet
  facet normal -1 -0 0
    outer loop
      vertex 46.5 1.4 5.5
      vertex 46.5 -1.4 3.5
      vertex 46.5 -1.4 5.5
    endloop
  endfacet
  facet normal -0.707107 0 -0.707107
    outer loop
      vertex 46.5 -1.4 5.5
      vertex 45.5 1.4 6.5
      vertex 46.5 1.4 5.5
    endloop
  endfacet
  facet normal -0.707107 -0 -0.707107
    outer loop
      vertex 45.5 1.4 6.5
      vertex 46.5 -1.4 5.5
      vertex 45.5 -1.4 6.5
    endloop
  endfacet
  facet normal -0.447214 0 0.894427
    outer loop
      vertex 45.5 1.4 6.5
      vertex 46.5 -1.4 7
      vertex 46.5 1.4 7
    endloop
  endfacet
  facet normal -0.447214 0 0.894427
    outer loop
      vertex 46.5 -1.4 7
      vertex 45.5 1.4 6.5
      vertex 45.5 -1.4 6.5
    endloop
  endfacet
  facet normal -0 0 1
    outer loop
      vertex 46.5 1.4 7
      vertex 47.5 -1.4 7
      vertex 47.5 1.4 7
    endloop
  endfacet
  facet normal 0 0 1
    outer loop
      vertex 47.5 -1.4 7
      vertex 46.5 1.4 7
      vertex 46.5 -1.4 7
    endloop
  endfacet
  facet normal 0 -1 0
    outer loop
      vertex 46.5 -19.4 5.5
      vertex 46.5 -19.4 7
      vertex 45.5 -19.4 6.5
    endloop
  endfacet
  facet normal 0 -1 0
    outer loop
      vertex 46.5 -19.4 7
      vertex 46.5 -19.4 5.5
      vertex 47.5 -19.4 7
    endloop
  endfacet
  facet normal 0 -1 0
    outer loop
      vertex 47.5 -19.4 3.5
      vertex 46.5 -19.4 5.5
      vertex 46.5 -19.4 3.5
    endloop
  endfacet
  facet normal 0 -1 0
    outer loop
      vertex 46.5 -19.4 5.5
      vertex 47.5 -19.4 3.5
      vertex 47.5 -19.4 7
    endloop
  endfacet
  facet normal 0 1 0
    outer loop
      vertex 46.5 -16.6 5.5
      vertex 46.5 -16.6 7
      vertex 47.5 -16.6 7
    endloop
  endfacet
  facet normal 0 1 0
    outer loop
      vertex 46.5 -16.6 7
      vertex 46.5 -16.6 5.5
      vertex 45.5 -16.6 6.5
    endloop
  endfacet
  facet normal 0 1 -0
    outer loop
      vertex 47.5 -16.6 3.5
      vertex 46.5 -16.6 5.5
      vertex 47.5 -16.6 7
    endloop
  endfacet
  facet normal 0 1 0
    outer loop
      vertex 46.5 -16.6 5.5
      vertex 47.5 -16.6 3.5
      vertex 46.5 -16.6 3.5
    endloop
  endfacet
  facet normal -1 0 0
    outer loop
      vertex 46.5 -19.4 3.5
      vertex 46.5 -16.6 5.5
      vertex 46.5 -16.6 3.5
    endloop
  endfacet
  facet normal -1 -0 0
    outer loop
      vertex 46.5 -16.6 5.5
      vertex 46.5 -19.4 3.5
      vertex 46.5 -19.4 5.5
    endloop
  endfacet
  facet normal -0.707107 0 -0.707107
    outer loop
      vertex 46.5 -19.4 5.5
      vertex 45.5 -16.6 6.5
      vertex 46.5 -16.6 5.5
    endloop
  endfacet
  facet normal -0.707107 -0 -0.707107
    outer loop
      vertex 45.5 -16.6 6.5
      vertex 46.5 -19.4 5.5
      vertex 45.5 -19.4 6.5
    endloop
  endfacet
  facet normal -0.447214 0 0.894427
    outer loop
      vertex 45.5 -16.6 6.5
      vertex 46.5 -19.4 7
      vertex 46.5 -16.6 7
    endloop
  endfacet
  facet normal -0.447214 0 0.894427
    outer loop
      vertex 46.5 -19.4 7
      vertex 45.5 -16.6 6.5
      vertex 45.5 -19.4 6.5
    endloop
  endfacet
  facet normal -0 0 1
    outer loop
      vertex 46.5 -16.6 7
      vertex 47.5 -19.4 7
      vertex 47.5 -16.6 7
    endloop
  endfacet
  facet normal 0 0 1
    outer loop
      vertex 47.5 -19.4 7
      vertex 46.5 -16.6 7
      vertex 46.5 -19.4 7
    endloop
  endfacet
  facet normal 1 0 0
    outer loop
      vertex 34.9 29 7
      vertex 34.9 28 6.5
      vertex 34.9 29 5.5
    endloop
  endfacet
  facet normal 1 0 0
    outer loop
      vertex 34.9 29 5.5
      vertex 34.9 30 7
      vertex 34.9 29 7
    endloop
  endfacet
  facet normal 1 0 0
    outer loop
      vertex 34.9 30 7
      vertex 34.9 29 5.5
      vertex 34.9 30 3.5
    endloop
  endfacet
  facet normal 1 0 0
    outer loop
      vertex 34.9 30 3.5
      vertex 34.9 29 5.5
      vertex 34.9 29 3.5
    endloop
  endfacet
  facet normal -1 0 0
    outer loop
      vertex 32.1 29 5.5
      vertex 32.1 30 3.5
      vertex 32.1 29 3.5
    endloop
  endfacet
  facet normal -1 0 0
    outer loop
      vertex 32.1 30 3.5
      vertex 32.1 29 5.5
      vertex 32.1 30 7
    endloop
  endfacet
  facet normal -1 0 0
    outer loop
      vertex 32.1 29 5.5
      vertex 32.1 29 7
      vertex 32.1 30 7
    endloop
  endfacet
  facet normal -1 0 -0
    outer loop
      vertex 32.1 29 7
      vertex 32.1 29 5.5
      vertex 32.1 28 6.5
    endloop
  endfacet
  facet normal 0 -1 0
    outer loop
      vertex 32.1 29 3.5
      vertex 34.9 29 5.5
      vertex 32.1 29 5.5
    endloop
  endfacet
  facet normal 0 -1 -0
    outer loop
      vertex 34.9 29 5.5
      vertex 32.1 29 3.5
      vertex 34.9 29 3.5
    endloop
  endfacet
  facet normal 0 -0.707107 -0.707107
    outer loop
      vertex 32.1 29 5.5
      vertex 34.9 28 6.5
      vertex 32.1 28 6.5
    endloop
  endfacet
  facet normal 0 -0.707107 -0.707107
    outer loop
      vertex 34.9 28 6.5
      vertex 32.1 29 5.5
      vertex 34.9 29 5.5
    endloop
  endfacet
  facet normal 0 -0.447214 0.894427
    outer loop
      vertex 32.1 29 7
      vertex 34.9 28 6.5
      vertex 34.9 29 7
    endloop
  endfacet
  facet normal 0 -0.447214 0.894427
    outer loop
      vertex 34.9 28 6.5
      vertex 32.1 29 7
      vertex 32.1 28 6.5
    endloop
  endfacet
  facet normal -0 0 1
    outer loop
      vertex 32.1 30 7
      vertex 34.9 29 7
      vertex 34.9 30 7
    endloop
  endfacet
  facet normal 0 0 1
    outer loop
      vertex 34.9 29 7
      vertex 32.1 30 7
      vertex 32.1 29 7
    endloop
  endfacet
  facet normal -1 0 0
    outer loop
      vertex 32.1 -30 3.5
      vertex 32.1 -29 5.5
      vertex 32.1 -29 3.5
    endloop
  endfacet
  facet normal -1 0 0
    outer loop
      vertex 32.1 -30 7
      vertex 32.1 -29 5.5
      vertex 32.1 -30 3.5
    endloop
  endfacet
  facet normal -1 0 0
    outer loop
      vertex 32.1 -29 5.5
      vertex 32.1 -30 7
      vertex 32.1 -29 7
    endloop
  endfacet
  facet normal -1 -0 0
    outer loop
      vertex 32.1 -28 6.5
      vertex 32.1 -29 5.5
      vertex 32.1 -29 7
    endloop
  endfacet
  facet normal 1 0 0
    outer loop
      vertex 34.9 -29 7
      vertex 34.9 -29 5.5
      vertex 34.9 -28 6.5
    endloop
  endfacet
  facet normal 1 -0 0
    outer loop
      vertex 34.9 -30 7
      vertex 34.9 -29 5.5
      vertex 34.9 -29 7
    endloop
  endfacet
  facet normal 1 0 0
    outer loop
      vertex 34.9 -30 3.5
      vertex 34.9 -29 5.5
      vertex 34.9 -30 7
    endloop
  endfacet
  facet normal 1 0 0
    outer loop
      vertex 34.9 -29 5.5
      vertex 34.9 -30 3.5
      vertex 34.9 -29 3.5
    endloop
  endfacet
  facet normal 0 1 -0
    outer loop
      vertex 34.9 -29 3.5
      vertex 32.1 -29 5.5
      vertex 34.9 -29 5.5
    endloop
  endfacet
  facet normal 0 1 0
    outer loop
      vertex 32.1 -29 5.5
      vertex 34.9 -29 3.5
      vertex 32.1 -29 3.5
    endloop
  endfacet
  facet normal 0 0.707107 -0.707107
    outer loop
      vertex 34.9 -29 5.5
      vertex 32.1 -28 6.5
      vertex 34.9 -28 6.5
    endloop
  endfacet
  facet normal 0 0.707107 -0.707107
    outer loop
      vertex 32.1 -28 6.5
      vertex 34.9 -29 5.5
      vertex 32.1 -29 5.5
    endloop
  endfacet
  facet normal -0 0.447214 0.894427
    outer loop
      vertex 32.1 -28 6.5
      vertex 34.9 -29 7
      vertex 34.9 -28 6.5
    endloop
  endfacet
  facet normal 0 0.447214 0.894427
    outer loop
      vertex 34.9 -29 7
      vertex 32.1 -28 6.5
      vertex 32.1 -29 7
    endloop
  endfacet
  facet normal -0 0 1
    outer loop
      vertex 32.1 -29 7
      vertex 34.9 -30 7
      vertex 34.9 -29 7
    endloop
  endfacet
  facet normal 0 0 1
    outer loop
      vertex 34.9 -30 7
      vertex 32.1 -29 7
      vertex 32.1 -30 7
    endloop
  endfacet
  facet normal 0.866044 0.499968 0
    outer loop
      vertex 18.2124 24.014 7
      vertex 18.7124 23.1479 6.5
      vertex 18.2124 24.014 5.5
    endloop
  endfacet
  facet normal 0.866019 0.500011 0
    outer loop
      vertex 18.2124 24.014 5.5
      vertex 17.7124 24.88 3.5
      vertex 17.7124 24.88 7
    endloop
  endfacet
  facet normal 0.866019 0.500011 -0
    outer loop
      vertex 18.2124 24.014 5.5
      vertex 17.7124 24.88 7
      vertex 18.2124 24.014 7
    endloop
  endfacet
  facet normal 0.857463 0.514478 0.00840313
    outer loop
      vertex 17.7124 24.88 3.5
      vertex 18.2124 24.014 5.5
      vertex 17.7151 24.8755 3.5
    endloop
  endfacet
  facet normal 0.866063 0.499934 0
    outer loop
      vertex 17.7151 24.8755 3.5
      vertex 18.2124 24.014 5.5
      vertex 18.2124 24.014 3.5
    endloop
  endfacet
  facet normal -0.865811 -0.500371 -0.00020802
    outer loop
      vertex 15.7876 22.614 5.5
      vertex 15.2876 23.48 3.5
      vertex 15.2965 23.4646 3.5
    endloop
  endfacet
  facet normal -0.866023 -0.500004 -0
    outer loop
      vertex 15.7876 22.614 5.5
      vertex 15.2965 23.4646 3.5
      vertex 15.7876 22.614 3.5
    endloop
  endfacet
  facet normal -0.866019 -0.500011 0
    outer loop
      vertex 15.2876 23.48 3.5
      vertex 15.7876 22.614 5.5
      vertex 15.2876 23.48 7
    endloop
  endfacet
  facet normal -0.866019 -0.500011 0
    outer loop
      vertex 15.2876 23.48 7
      vertex 15.7876 22.614 5.5
      vertex 15.7876 22.614 7
    endloop
  endfacet
  facet normal -0.866044 -0.499968 0
    outer loop
      vertex 16.2876 21.7479 6.5
      vertex 15.7876 22.614 7
      vertex 15.7876 22.614 5.5
    endloop
  endfacet
  facet normal 0.500011 -0.866019 0
    outer loop
      vertex 15.7876 22.614 3.5
      vertex 18.2124 24.014 5.5
      vertex 15.7876 22.614 5.5
    endloop
  endfacet
  facet normal 0.500011 -0.866019 0
    outer loop
      vertex 18.2124 24.014 5.5
      vertex 15.7876 22.614 3.5
      vertex 18.2124 24.014 3.5
    endloop
  endfacet
  facet normal 0.35355 -0.612348 -0.70713
    outer loop
      vertex 16.2876 21.7479 6.5
      vertex 18.2124 24.014 5.5
      vertex 18.7124 23.1479 6.5
    endloop
  endfacet
  facet normal 0.35355 -0.612348 -0.70713
    outer loop
      vertex 18.2124 24.014 5.5
      vertex 16.2876 21.7479 6.5
      vertex 15.7876 22.614 5.5
    endloop
  endfacet
  facet normal 0.2236 -0.387275 0.894439
    outer loop
      vertex 18.2124 24.014 7
      vertex 16.2876 21.7479 6.5
      vertex 18.7124 23.1479 6.5
    endloop
  endfacet
  facet normal 0.2236 -0.387275 0.894439
    outer loop
      vertex 16.2876 21.7479 6.5
      vertex 18.2124 24.014 7
      vertex 15.7876 22.614 7
    endloop
  endfacet
  facet normal 0 0 1
    outer loop
      vertex 17.7124 24.88 7
      vertex 15.7876 22.614 7
      vertex 18.2124 24.014 7
    endloop
  endfacet
  facet normal 0 -0 1
    outer loop
      vertex 15.7876 22.614 7
      vertex 17.7124 24.88 7
      vertex 15.2876 23.48 7
    endloop
  endfacet
  facet normal -0.500011 0.866019 0
    outer loop
      vertex 17.7124 24.88 3.5
      vertex 15.2876 23.48 7
      vertex 17.7124 24.88 7
    endloop
  endfacet
  facet normal -0.500011 0.866019 0
    outer loop
      vertex 15.2876 23.48 7
      vertex 17.7124 24.88 3.5
      vertex 15.2876 23.48 3.5
    endloop
  endfacet
  facet normal -0.866044 0.499968 0
    outer loop
      vertex 15.7876 -22.614 7
      vertex 16.2876 -21.7479 6.5
      vertex 15.7876 -22.614 5.5
    endloop
  endfacet
  facet normal -0.866023 0.500004 0
    outer loop
      vertex 15.2965 -23.4646 3.5
      vertex 15.7876 -22.614 5.5
      vertex 15.7876 -22.614 3.5
    endloop
  endfacet
  facet normal -0.865811 0.500371 -0.00020802
    outer loop
      vertex 15.2876 -23.48 3.5
      vertex 15.7876 -22.614 5.5
      vertex 15.2965 -23.4646 3.5
    endloop
  endfacet
  facet normal -0.866019 0.500011 0
    outer loop
      vertex 15.7876 -22.614 5.5
      vertex 15.2876 -23.48 3.5
      vertex 15.2876 -23.48 7
    endloop
  endfacet
  facet normal -0.866019 0.500011 0
    outer loop
      vertex 15.7876 -22.614 5.5
      vertex 15.2876 -23.48 7
      vertex 15.7876 -22.614 7
    endloop
  endfacet
  facet normal 0.866019 -0.500011 0
    outer loop
      vertex 17.7124 -24.88 7
      vertex 18.2124 -24.014 5.5
      vertex 18.2124 -24.014 7
    endloop
  endfacet
  facet normal 0.866063 -0.499934 0
    outer loop
      vertex 18.2124 -24.014 5.5
      vertex 17.7151 -24.8755 3.5
      vertex 18.2124 -24.014 3.5
    endloop
  endfacet
  facet normal 0.866019 -0.500011 0
    outer loop
      vertex 17.7124 -24.88 3.5
      vertex 18.2124 -24.014 5.5
      vertex 17.7124 -24.88 7
    endloop
  endfacet
  facet normal 0.857463 -0.514478 0.00840313
    outer loop
      vertex 18.2124 -24.014 5.5
      vertex 17.7124 -24.88 3.5
      vertex 17.7151 -24.8755 3.5
    endloop
  endfacet
  facet normal 0.866044 -0.499968 0
    outer loop
      vertex 18.7124 -23.1479 6.5
      vertex 18.2124 -24.014 7
      vertex 18.2124 -24.014 5.5
    endloop
  endfacet
  facet normal 0.500011 0.866019 -0
    outer loop
      vertex 18.2124 -24.014 3.5
      vertex 15.7876 -22.614 5.5
      vertex 18.2124 -24.014 5.5
    endloop
  endfacet
  facet normal 0.500011 0.866019 0
    outer loop
      vertex 15.7876 -22.614 5.5
      vertex 18.2124 -24.014 3.5
      vertex 15.7876 -22.614 3.5
    endloop
  endfacet
  facet normal 0.35355 0.612348 -0.70713
    outer loop
      vertex 18.2124 -24.014 5.5
      vertex 16.2876 -21.7479 6.5
      vertex 18.7124 -23.1479 6.5
    endloop
  endfacet
  facet normal 0.35355 0.612348 -0.70713
    outer loop
      vertex 16.2876 -21.7479 6.5
      vertex 18.2124 -24.014 5.5
      vertex 15.7876 -22.614 5.5
    endloop
  endfacet
  facet normal 0.2236 0.387275 0.894439
    outer loop
      vertex 16.2876 -21.7479 6.5
      vertex 18.2124 -24.014 7
      vertex 18.7124 -23.1479 6.5
    endloop
  endfacet
  facet normal 0.2236 0.387275 0.894439
    outer loop
      vertex 18.2124 -24.014 7
      vertex 16.2876 -21.7479 6.5
      vertex 15.7876 -22.614 7
    endloop
  endfacet
  facet normal 0 0 1
    outer loop
      vertex 15.7876 -22.614 7
      vertex 17.7124 -24.88 7
      vertex 18.2124 -24.014 7
    endloop
  endfacet
  facet normal 0 0 1
    outer loop
      vertex 17.7124 -24.88 7
      vertex 15.7876 -22.614 7
      vertex 15.2876 -23.48 7
    endloop
  endfacet
  facet normal -0.500011 -0.866019 0
    outer loop
      vertex 15.2876 -23.48 3.5
      vertex 17.7124 -24.88 7
      vertex 15.2876 -23.48 7
    endloop
  endfacet
  facet normal -0.500011 -0.866019 -0
    outer loop
      vertex 17.7124 -24.88 7
      vertex 15.2876 -23.48 3.5
      vertex 17.7124 -24.88 3.5
    endloop
  endfacet
  facet normal 0 1 -0
    outer loop
      vertex -26.5 30 0
      vertex -32 30 3.5
      vertex -26.5 30 3.5
    endloop
  endfacet
  facet normal 0 1 0
    outer loop
      vertex -32 30 3.5
      vertex -26.5 30 0
      vertex -32 30 0
    endloop
  endfacet
  facet normal 0 1 -0
    outer loop
      vertex -35 30 0
      vertex -40 30 3.5
      vertex -35 30 3.5
    endloop
  endfacet
  facet normal 0 1 0
    outer loop
      vertex -40 30 3.5
      vertex -35 30 0
      vertex -40 30 0
    endloop
  endfacet
  facet normal -0.624695 0.780869 0
    outer loop
      vertex -40 30 0
      vertex -47.5 24 3.5
      vertex -40 30 3.5
    endloop
  endfacet
  facet normal -0.624695 0.780869 0
    outer loop
      vertex -47.5 24 3.5
      vertex -40 30 0
      vertex -47.5 24 0
    endloop
  endfacet
  facet normal 0 0 -1
    outer loop
      vertex -26.5 -30 0
      vertex -17.93 -24.7032 0
      vertex -17.8014 -24.9258 0
    endloop
  endfacet
  facet normal 0 0 -1
    outer loop
      vertex -32 -27.9 0
      vertex -18.849 -23.1114 0
      vertex -26.5 -30 0
    endloop
  endfacet
  facet normal -0 0 -1
    outer loop
      vertex -18.2763 -24.1033 0
      vertex -26.5 -30 0
      vertex -18.849 -23.1114 0
    endloop
  endfacet
  facet normal -0 0 -1
    outer loop
      vertex -17.93 -24.7032 0
      vertex -26.5 -30 0
      vertex -18.2763 -24.1033 0
    endloop
  endfacet
  facet normal 0 0 -1
    outer loop
      vertex -2.5 -16 0
      vertex -4.59999 -13.5 0
      vertex -2.5 -13.5 0
    endloop
  endfacet
  facet normal 0 0 -1
    outer loop
      vertex -16.251 -21.6114 0
      vertex -4.59999 -10.5 0
      vertex -4.59999 -13.5 0
    endloop
  endfacet
  facet normal -0 0 -1
    outer loop
      vertex -4.59999 -10.5 0
      vertex -16.251 -21.6114 0
      vertex -4.59999 10.5 0
    endloop
  endfacet
  facet normal -0 0 -1
    outer loop
      vertex -2.5 -16 0
      vertex -15.3319 -23.2032 0
      vertex -4.59999 -13.5 0
    endloop
  endfacet
  facet normal 0 0 -1
    outer loop
      vertex -15.3319 -23.2032 0
      vertex -2.5 -16 0
      vertex -15.2101 -23.4142 0
    endloop
  endfacet
  facet normal 0 0 -1
    outer loop
      vertex -4.59999 -10.5 0
      vertex -2.5 10.5 0
      vertex -2.5 -10.5 0
    endloop
  endfacet
  facet normal -0 0 -1
    outer loop
      vertex -2.5 10.5 0
      vertex -4.59999 -10.5 0
      vertex -4.59999 10.5 0
    endloop
  endfacet
  facet normal 0 0 -1
    outer loop
      vertex -4.59999 13.5 0
      vertex -2.5 16 0
      vertex -2.5 13.5 0
    endloop
  endfacet
  facet normal 0 0 -1
    outer loop
      vertex -15.3319 23.2032 0
      vertex -2.5 16 0
      vertex -4.59999 13.5 0
    endloop
  endfacet
  facet normal 0 0 -1
    outer loop
      vertex -15.6782 -22.6033 0
      vertex -4.59999 -13.5 0
      vertex -15.3319 -23.2032 0
    endloop
  endfacet
  facet normal 0 0 -1
    outer loop
      vertex -16.251 -21.6114 0
      vertex -4.59999 -13.5 0
      vertex -15.6782 -22.6033 0
    endloop
  endfacet
  facet normal 0 0 -1
    outer loop
      vertex -2.5 16 0
      vertex -15.3319 23.2032 0
      vertex -15.2101 23.4142 0
    endloop
  endfacet
  facet normal 0 0 -1
    outer loop
      vertex -16.251 21.6114 0
      vertex -4.59999 10.5 0
      vertex -16.251 -21.6114 0
    endloop
  endfacet
  facet normal 0 0 -1
    outer loop
      vertex -4.59999 13.5 0
      vertex -15.6782 22.6033 0
      vertex -15.3319 23.2032 0
    endloop
  endfacet
  facet normal 0 0 -1
    outer loop
      vertex -4.59999 10.5 0
      vertex -16.251 21.6114 0
      vertex -4.59999 13.5 0
    endloop
  endfacet
  facet normal 0 0 -1
    outer loop
      vertex -4.59999 13.5 0
      vertex -16.251 21.6114 0
      vertex -15.6782 22.6033 0
    endloop
  endfacet
  facet normal 0 0 -1
    outer loop
      vertex -18.849 -23.1114 0
      vertex -16.251 21.6114 0
      vertex -16.251 -21.6114 0
    endloop
  endfacet
  facet normal -0 0 -1
    outer loop
      vertex -16.251 21.6114 0
      vertex -18.849 -23.1114 0
      vertex -18.849 23.1114 0
    endloop
  endfacet
  facet normal 0 0 -1
    outer loop
      vertex -26.5 30 0
      vertex -17.93 24.7032 0
      vertex -18.2763 24.1033 0
    endloop
  endfacet
  facet normal 0 0 -1
    outer loop
      vertex -17.93 24.7032 0
      vertex -26.5 30 0
      vertex -17.8014 24.9258 0
    endloop
  endfacet
  facet normal 0 0 -1
    outer loop
      vertex -18.849 23.1114 0
      vertex -26.5 30 0
      vertex -18.2763 24.1033 0
    endloop
  endfacet
  facet normal -0 0 -1
    outer loop
      vertex -18.849 -23.1114 0
      vertex -32 -27.9 0
      vertex -45.4 -1.5 0
    endloop
  endfacet
  facet normal 0 0 -1
    outer loop
      vertex -32 -27.9 0
      vertex -26.5 -30 0
      vertex -32 -30 0
    endloop
  endfacet
  facet normal 0 0 -1
    outer loop
      vertex -45.4 -1.5 0
      vertex -32 -27.9 0
      vertex -35 -27.9 0
    endloop
  endfacet
  facet normal 0 0 -1
    outer loop
      vertex -18.849 23.1114 0
      vertex -32 27.9 0
      vertex -26.5 30 0
    endloop
  endfacet
  facet normal -0 0 -1
    outer loop
      vertex -26.5 30 0
      vertex -32 27.9 0
      vertex -32 30 0
    endloop
  endfacet
  facet normal 0 0 -1
    outer loop
      vertex -47.5 1.5 0
      vertex -45.4 16.5 0
      vertex -45.4 1.5 0
    endloop
  endfacet
  facet normal -0 0 -1
    outer loop
      vertex -45.4 16.5 0
      vertex -47.5 1.5 0
      vertex -47.5 16.5 0
    endloop
  endfacet
  facet normal 0 0 -1
    outer loop
      vertex -47.5 -16.5 0
      vertex -45.4 -1.5 0
      vertex -45.4 -16.5 0
    endloop
  endfacet
  facet normal -0 0 -1
    outer loop
      vertex -45.4 -1.5 0
      vertex -47.5 -16.5 0
      vertex -47.5 -1.5 0
    endloop
  endfacet
  facet normal 0 0 -1
    outer loop
      vertex -40 -30 0
      vertex -35 -27.9 0
      vertex -35 -30 0
    endloop
  endfacet
  facet normal 0 0 -1
    outer loop
      vertex -45.4 1.5 0
      vertex -18.849 23.1114 0
      vertex -45.4 -1.5 0
    endloop
  endfacet
  facet normal -0 0 -1
    outer loop
      vertex -35 -27.9 0
      vertex -40 -30 0
      vertex -45.4 -19.5 0
    endloop
  endfacet
  facet normal 0 0 -1
    outer loop
      vertex -45.4 16.5 0
      vertex -18.849 23.1114 0
      vertex -45.4 1.5 0
    endloop
  endfacet
  facet normal 0 0 -1
    outer loop
      vertex -35 -27.9 0
      vertex -45.4 -19.5 0
      vertex -45.4 -16.5 0
    endloop
  endfacet
  facet normal 0 0 -1
    outer loop
      vertex -47.5 -24 0
      vertex -45.4 -19.5 0
      vertex -40 -30 0
    endloop
  endfacet
  facet normal -0 0 -1
    outer loop
      vertex -45.4 -19.5 0
      vertex -47.5 -24 0
      vertex -47.5 -19.5 0
    endloop
  endfacet
  facet normal 0 0 -1
    outer loop
      vertex -18.849 -23.1114 0
      vertex -45.4 -1.5 0
      vertex -18.849 23.1114 0
    endloop
  endfacet
  facet normal 0 0 -1
    outer loop
      vertex -18.849 23.1114 0
      vertex -35 27.9 0
      vertex -32 27.9 0
    endloop
  endfacet
  facet normal 0 0 -1
    outer loop
      vertex -35 -27.9 0
      vertex -45.4 -16.5 0
      vertex -45.4 -1.5 0
    endloop
  endfacet
  facet normal -0 0 -1
    outer loop
      vertex -18.849 23.1114 0
      vertex -45.4 16.5 0
      vertex -35 27.9 0
    endloop
  endfacet
  facet normal 0 0 -1
    outer loop
      vertex -45.4 19.5 0
      vertex -35 27.9 0
      vertex -45.4 16.5 0
    endloop
  endfacet
  facet normal 0 -0 -1
    outer loop
      vertex -40 30 0
      vertex -35 27.9 0
      vertex -45.4 19.5 0
    endloop
  endfacet
  facet normal 0 0 -1
    outer loop
      vertex -35 27.9 0
      vertex -40 30 0
      vertex -35 30 0
    endloop
  endfacet
  facet normal 0 0 -1
    outer loop
      vertex -47.5 24 0
      vertex -45.4 19.5 0
      vertex -47.5 19.5 0
    endloop
  endfacet
  facet normal 0 0 -1
    outer loop
      vertex -45.4 19.5 0
      vertex -47.5 24 0
      vertex -40 30 0
    endloop
  endfacet
  facet normal -1 0 0
    outer loop
      vertex -47.5 19.5 0
      vertex -47.5 24 3.5
      vertex -47.5 24 0
    endloop
  endfacet
  facet normal -1 -0 0
    outer loop
      vertex -47.5 24 3.5
      vertex -47.5 19.5 0
      vertex -47.5 19.5 3.5
    endloop
  endfacet
  facet normal -1 0 0
    outer loop
      vertex -47.5 -24 0
      vertex -47.5 -19.5 3.5
      vertex -47.5 -19.5 0
    endloop
  endfacet
  facet normal -1 -0 0
    outer loop
      vertex -47.5 -19.5 3.5
      vertex -47.5 -24 0
      vertex -47.5 -24 3.5
    endloop
  endfacet
  facet normal -1 0 0
    outer loop
      vertex -47.5 1.5 0
      vertex -47.5 16.5 3.5
      vertex -47.5 16.5 0
    endloop
  endfacet
  facet normal -1 -0 0
    outer loop
      vertex -47.5 16.5 3.5
      vertex -47.5 1.5 0
      vertex -47.5 1.5 3.5
    endloop
  endfacet
  facet normal -1 0 0
    outer loop
      vertex -47.5 -16.5 0
      vertex -47.5 -1.5 3.5
      vertex -47.5 -1.5 0
    endloop
  endfacet
  facet normal -1 -0 0
    outer loop
      vertex -47.5 -1.5 3.5
      vertex -47.5 -16.5 0
      vertex -47.5 -16.5 3.5
    endloop
  endfacet
  facet normal 0 0 1
    outer loop
      vertex -17.8014 24.9258 3.5
      vertex -26.5 30 3.5
      vertex -18.349 23.9774 3.5
    endloop
  endfacet
  facet normal 0 0 1
    outer loop
      vertex -2.5 16 3.5
      vertex -3.59999 13.5 3.5
      vertex -2.5 13.5 3.5
    endloop
  endfacet
  facet normal 0 0 1
    outer loop
      vertex -2.5 16 3.5
      vertex -15.751 22.4774 3.5
      vertex -3.59999 13.5 3.5
    endloop
  endfacet
  facet normal -0 0 1
    outer loop
      vertex -15.751 22.4774 3.5
      vertex -2.5 16 3.5
      vertex -15.2101 23.4142 3.5
    endloop
  endfacet
  facet normal -0 0 1
    outer loop
      vertex -3.59999 10.5 3.5
      vertex -2.5 6.03036 3.5
      vertex -2.5 10.5 3.5
    endloop
  endfacet
  facet normal 0 0 1
    outer loop
      vertex -3.59999 13.5 3.5
      vertex -15.751 22.4774 3.5
      vertex -3.59999 10.5 3.5
    endloop
  endfacet
  facet normal -0 0 1
    outer loop
      vertex -30.4 14.5 3.5
      vertex -3.59999 10.5 3.5
      vertex -15.751 22.4774 3.5
    endloop
  endfacet
  facet normal 0 0 1
    outer loop
      vertex -30.4 14.5 3.5
      vertex -15.751 22.4774 3.5
      vertex -18.349 23.9774 3.5
    endloop
  endfacet
  facet normal 0 0 1
    outer loop
      vertex -30.4 14.5 3.5
      vertex -18.349 23.9774 3.5
      vertex -26.5 30 3.5
    endloop
  endfacet
  facet normal 0 0 1
    outer loop
      vertex -3.59999 10.5 3.5
      vertex -30.4 14.5 3.5
      vertex -2.5 6.03036 3.5
    endloop
  endfacet
  facet normal 0 0 1
    outer loop
      vertex -32 28.9 3.5
      vertex -26.5 30 3.5
      vertex -32 30 3.5
    endloop
  endfacet
  facet normal 0 0 1
    outer loop
      vertex -26.5 30 3.5
      vertex -32 28.9 3.5
      vertex -30.4 14.5 3.5
    endloop
  endfacet
  facet normal -0 0 1
    outer loop
      vertex -35 28.9 3.5
      vertex -30.4 14.5 3.5
      vertex -32 28.9 3.5
    endloop
  endfacet
  facet normal -0 0 1
    outer loop
      vertex -46.4 19.5 3.5
      vertex -30.4 14.5 3.5
      vertex -35 28.9 3.5
    endloop
  endfacet
  facet normal -0 0 1
    outer loop
      vertex -46.4 -1.5 3.5
      vertex -27.4 -14 3.5
      vertex -34.9 9 3.5
    endloop
  endfacet
  facet normal 0 0 1
    outer loop
      vertex -46.4 -19.5 3.5
      vertex -27.4 -14 3.5
      vertex -46.4 -16.5 3.5
    endloop
  endfacet
  facet normal -0 0 1
    outer loop
      vertex -46.4 16.5 3.5
      vertex -30.4 14.5 3.5
      vertex -46.4 19.5 3.5
    endloop
  endfacet
  facet normal 0 0 1
    outer loop
      vertex -2.5 -6.032 3.5
      vertex -3.59999 -10.5 3.5
      vertex -2.5 -10.5 3.5
    endloop
  endfacet
  facet normal 0 0 1
    outer loop
      vertex -15.751 -22.4774 3.5
      vertex -3.59999 -13.5 3.5
      vertex -3.59999 -10.5 3.5
    endloop
  endfacet
  facet normal 0 0 1
    outer loop
      vertex -27.4 -14 3.5
      vertex -3.59999 -10.5 3.5
      vertex -2.5 -6.032 3.5
    endloop
  endfacet
  facet normal 0 0 1
    outer loop
      vertex -3.59999 -13.5 3.5
      vertex -15.751 -22.4774 3.5
      vertex -15.2101 -23.4142 3.5
    endloop
  endfacet
  facet normal 0 0 1
    outer loop
      vertex -3.59999 -10.5 3.5
      vertex -27.4 -14 3.5
      vertex -15.751 -22.4774 3.5
    endloop
  endfacet
  facet normal 0 0 1
    outer loop
      vertex -15.751 -22.4774 3.5
      vertex -27.4 -14 3.5
      vertex -18.349 -23.9774 3.5
    endloop
  endfacet
  facet normal 0 0 1
    outer loop
      vertex -18.349 -23.9774 3.5
      vertex -27.4 -14 3.5
      vertex -26.5 -30 3.5
    endloop
  endfacet
  facet normal -0 0 1
    outer loop
      vertex -32 -28.9 3.5
      vertex -26.5 -30 3.5
      vertex -27.4 -14 3.5
    endloop
  endfacet
  facet normal 0 0 1
    outer loop
      vertex -26.5 -30 3.5
      vertex -32 -28.9 3.5
      vertex -32 -30 3.5
    endloop
  endfacet
  facet normal -0 0 1
    outer loop
      vertex -3.59999 -13.5 3.5
      vertex -2.5 -16 3.5
      vertex -2.5 -13.5 3.5
    endloop
  endfacet
  facet normal 0 0 1
    outer loop
      vertex -2.5 -16 3.5
      vertex -3.59999 -13.5 3.5
      vertex -15.2101 -23.4142 3.5
    endloop
  endfacet
  facet normal 0 0 1
    outer loop
      vertex -17.8014 -24.9258 3.5
      vertex -18.349 -23.9774 3.5
      vertex -26.5 -30 3.5
    endloop
  endfacet
  facet normal -0 0 1
    outer loop
      vertex -47.5 -1.5 3.5
      vertex -46.4 -16.5 3.5
      vertex -46.4 -1.5 3.5
    endloop
  endfacet
  facet normal 0 0 1
    outer loop
      vertex -46.4 -16.5 3.5
      vertex -47.5 -1.5 3.5
      vertex -47.5 -16.5 3.5
    endloop
  endfacet
  facet normal -0 0 1
    outer loop
      vertex -47.5 16.5 3.5
      vertex -46.4 1.5 3.5
      vertex -46.4 16.5 3.5
    endloop
  endfacet
  facet normal 0 0 1
    outer loop
      vertex -46.4 1.5 3.5
      vertex -47.5 16.5 3.5
      vertex -47.5 1.5 3.5
    endloop
  endfacet
  facet normal -0 0 1
    outer loop
      vertex -40 30 3.5
      vertex -35 28.9 3.5
      vertex -35 30 3.5
    endloop
  endfacet
  facet normal 0 0 1
    outer loop
      vertex -46.4 -1.5 3.5
      vertex -34.9 9 3.5
      vertex -46.4 1.5 3.5
    endloop
  endfacet
  facet normal 0 0 1
    outer loop
      vertex -35 28.9 3.5
      vertex -40 30 3.5
      vertex -46.4 19.5 3.5
    endloop
  endfacet
  facet normal 0 0 1
    outer loop
      vertex -27.4 -14 3.5
      vertex -46.4 -1.5 3.5
      vertex -46.4 -16.5 3.5
    endloop
  endfacet
  facet normal 0 0 1
    outer loop
      vertex -30.4 14.5 3.5
      vertex -46.4 16.5 3.5
      vertex -34.9 9 3.5
    endloop
  endfacet
  facet normal -0 0 1
    outer loop
      vertex -47.5 24 3.5
      vertex -46.4 19.5 3.5
      vertex -40 30 3.5
    endloop
  endfacet
  facet normal 0 0 1
    outer loop
      vertex -46.4 19.5 3.5
      vertex -47.5 24 3.5
      vertex -47.5 19.5 3.5
    endloop
  endfacet
  facet normal 0 0 1
    outer loop
      vertex -34.9 9 3.5
      vertex -46.4 16.5 3.5
      vertex -46.4 1.5 3.5
    endloop
  endfacet
  facet normal 0 0 1
    outer loop
      vertex -27.4 -14 3.5
      vertex -35 -28.9 3.5
      vertex -32 -28.9 3.5
    endloop
  endfacet
  facet normal 0 0 1
    outer loop
      vertex -27.4 -14 3.5
      vertex -46.4 -19.5 3.5
      vertex -35 -28.9 3.5
    endloop
  endfacet
  facet normal 0 -0 1
    outer loop
      vertex -40 -30 3.5
      vertex -35 -28.9 3.5
      vertex -46.4 -19.5 3.5
    endloop
  endfacet
  facet normal 0 0 1
    outer loop
      vertex -35 -28.9 3.5
      vertex -40 -30 3.5
      vertex -35 -30 3.5
    endloop
  endfacet
  facet normal 0 0 1
    outer loop
      vertex -47.5 -24 3.5
      vertex -46.4 -19.5 3.5
      vertex -47.5 -19.5 3.5
    endloop
  endfacet
  facet normal 0 0 1
    outer loop
      vertex -46.4 -19.5 3.5
      vertex -47.5 -24 3.5
      vertex -40 -30 3.5
    endloop
  endfacet
  facet normal -0.624695 -0.780869 0
    outer loop
      vertex -47.5 -24 0
      vertex -40 -30 3.5
      vertex -47.5 -24 3.5
    endloop
  endfacet
  facet normal -0.624695 -0.780869 -0
    outer loop
      vertex -40 -30 3.5
      vertex -47.5 -24 0
      vertex -40 -30 0
    endloop
  endfacet
  facet normal 0 -1 0
    outer loop
      vertex -32 -30 0
      vertex -26.5 -30 3.5
      vertex -32 -30 3.5
    endloop
  endfacet
  facet normal 0 -1 -0
    outer loop
      vertex -26.5 -30 3.5
      vertex -32 -30 0
      vertex -26.5 -30 0
    endloop
  endfacet
  facet normal 0 -1 0
    outer loop
      vertex -40 -30 0
      vertex -35 -30 3.5
      vertex -40 -30 3.5
    endloop
  endfacet
  facet normal 0 -1 -0
    outer loop
      vertex -35 -30 3.5
      vertex -40 -30 0
      vertex -35 -30 0
    endloop
  endfacet
  facet normal 0.503872 -0.863778 0
    outer loop
      vertex -26.5 -30 0
      vertex -17.8014 -24.9258 3.5
      vertex -26.5 -30 3.5
    endloop
  endfacet
  facet normal 0.503872 -0.863778 0
    outer loop
      vertex -17.8014 -24.9258 3.5
      vertex -26.5 -30 0
      vertex -17.8014 -24.9258 0
    endloop
  endfacet
  facet normal 0.50387 -0.86378 0
    outer loop
      vertex -15.2101 -23.4142 0
      vertex -2.5 -16 3.5
      vertex -15.2101 -23.4142 3.5
    endloop
  endfacet
  facet normal 0.50387 -0.86378 0
    outer loop
      vertex -2.5 -16 3.5
      vertex -15.2101 -23.4142 0
      vertex -2.5 -16 0
    endloop
  endfacet
  facet normal 1 -0 0
    outer loop
      vertex -2.5 -16 3.5
      vertex -2.5 -13.5 0
      vertex -2.5 -13.5 3.5
    endloop
  endfacet
  facet normal 1 0 0
    outer loop
      vertex -2.5 -13.5 0
      vertex -2.5 -16 3.5
      vertex -2.5 -16 0
    endloop
  endfacet
  facet normal 1 -0 0
    outer loop
      vertex -2.5 13.5 3.5
      vertex -2.5 16 0
      vertex -2.5 16 3.5
    endloop
  endfacet
  facet normal 1 0 0
    outer loop
      vertex -2.5 16 0
      vertex -2.5 13.5 3.5
      vertex -2.5 13.5 0
    endloop
  endfacet
  facet normal 1 0 0
    outer loop
      vertex -2.5 -6.032 3.5
      vertex -2.5 -10.5 3.5
      vertex -2.5 -6.032 2
    endloop
  endfacet
  facet normal 1 0 0
    outer loop
      vertex -2.5 6.03036 2
      vertex -2.5 10.5 3.5
      vertex -2.5 6.03036 3.5
    endloop
  endfacet
  facet normal 1 0 0
    outer loop
      vertex -2.5 10.5 3.5
      vertex -2.5 6.03036 2
      vertex -2.5 10.5 0
    endloop
  endfacet
  facet normal 1 -0 0
    outer loop
      vertex -2.5 -6.032 2
      vertex -2.5 10.5 0
      vertex -2.5 6.03036 2
    endloop
  endfacet
  facet normal 1 0 0
    outer loop
      vertex -2.5 -6.032 2
      vertex -2.5 -10.5 0
      vertex -2.5 10.5 0
    endloop
  endfacet
  facet normal 1 0 0
    outer loop
      vertex -2.5 -10.5 0
      vertex -2.5 -6.032 2
      vertex -2.5 -10.5 3.5
    endloop
  endfacet
  facet normal 0.503872 0.863778 -0
    outer loop
      vertex -17.8014 24.9258 0
      vertex -26.5 30 3.5
      vertex -17.8014 24.9258 3.5
    endloop
  endfacet
  facet normal 0.503872 0.863778 0
    outer loop
      vertex -26.5 30 3.5
      vertex -17.8014 24.9258 0
      vertex -26.5 30 0
    endloop
  endfacet
  facet normal 0.50387 0.86378 -0
    outer loop
      vertex -2.5 16 0
      vertex -15.2101 23.4142 3.5
      vertex -2.5 16 3.5
    endloop
  endfacet
  facet normal 0.50387 0.86378 0
    outer loop
      vertex -15.2101 23.4142 3.5
      vertex -2.5 16 0
      vertex -15.2101 23.4142 0
    endloop
  endfacet
  facet normal -0.304776 0.952424 0
    outer loop
      vertex -2.5 -6.032 2
      vertex -27.4 -14 3.5
      vertex -2.5 -6.032 3.5
    endloop
  endfacet
  facet normal -0.304776 0.952424 0
    outer loop
      vertex -27.4 -14 3.5
      vertex -2.5 -6.032 2
      vertex -27.4 -14 2
    endloop
  endfacet
  facet normal 0.95073 0.310021 0
    outer loop
      vertex -27.4 -14 3.5
      vertex -34.9 9 2
      vertex -34.9 9 3.5
    endloop
  endfacet
  facet normal 0.95073 0.310021 0
    outer loop
      vertex -34.9 9 2
      vertex -27.4 -14 3.5
      vertex -27.4 -14 2
    endloop
  endfacet
  facet normal 0.773957 -0.633238 0
    outer loop
      vertex -34.9 9 3.5
      vertex -30.4 14.5 2
      vertex -30.4 14.5 3.5
    endloop
  endfacet
  facet normal 0.773957 -0.633238 0
    outer loop
      vertex -30.4 14.5 2
      vertex -34.9 9 3.5
      vertex -34.9 9 2
    endloop
  endfacet
  facet normal -0.290482 -0.956881 0
    outer loop
      vertex -30.4 14.5 2
      vertex -2.5 6.03036 3.5
      vertex -30.4 14.5 3.5
    endloop
  endfacet
  facet normal -0.290482 -0.956881 -0
    outer loop
      vertex -2.5 6.03036 3.5
      vertex -30.4 14.5 2
      vertex -2.5 6.03036 2
    endloop
  endfacet
  facet normal 0 0 1
    outer loop
      vertex -2.5 6.03036 2
      vertex -27.4 -14 2
      vertex -2.5 -6.032 2
    endloop
  endfacet
  facet normal 0 0 1
    outer loop
      vertex -30.4 14.5 2
      vertex -27.4 -14 2
      vertex -2.5 6.03036 2
    endloop
  endfacet
  facet normal 0 0 1
    outer loop
      vertex -27.4 -14 2
      vertex -30.4 14.5 2
      vertex -34.9 9 2
    endloop
  endfacet
  facet normal 0 1 0
    outer loop
      vertex -2.5 -13.5 3.5
      vertex -3.59999 -13.5 1.60001
      vertex -3.59999 -13.5 3.5
    endloop
  endfacet
  facet normal 0 1 -0
    outer loop
      vertex -2.5 -13.5 0
      vertex -3.59999 -13.5 1.60001
      vertex -2.5 -13.5 3.5
    endloop
  endfacet
  facet normal 0 1 0
    outer loop
      vertex -2.5 -13.5 0
      vertex -4.59999 -13.5 0.600006
      vertex -3.59999 -13.5 1.60001
    endloop
  endfacet
  facet normal 0 1 0
    outer loop
      vertex -4.59999 -13.5 0.600006
      vertex -2.5 -13.5 0
      vertex -4.59999 -13.5 0
    endloop
  endfacet
  facet normal 0 -1 0
    outer loop
      vertex -3.59999 -10.5 1.60001
      vertex -2.5 -10.5 3.5
      vertex -3.59999 -10.5 3.5
    endloop
  endfacet
  facet normal 0 -1 0
    outer loop
      vertex -2.5 -10.5 0
      vertex -4.59999 -10.5 0.600006
      vertex -4.59999 -10.5 0
    endloop
  endfacet
  facet normal 0 -1 0
    outer loop
      vertex -3.59999 -10.5 1.60001
      vertex -2.5 -10.5 0
      vertex -2.5 -10.5 3.5
    endloop
  endfacet
  facet normal 0 -1 0
    outer loop
      vertex -4.59999 -10.5 0.600006
      vertex -2.5 -10.5 0
      vertex -3.59999 -10.5 1.60001
    endloop
  endfacet
  facet normal 1 -0 0
    outer loop
      vertex -3.59999 -13.5 3.5
      vertex -3.59999 -10.5 1.60001
      vertex -3.59999 -10.5 3.5
    endloop
  endfacet
  facet normal 1 0 0
    outer loop
      vertex -3.59999 -10.5 1.60001
      vertex -3.59999 -13.5 3.5
      vertex -3.59999 -13.5 1.60001
    endloop
  endfacet
  facet normal 0.707108 0 -0.707105
    outer loop
      vertex -3.59999 -13.5 1.60001
      vertex -4.59999 -10.5 0.600006
      vertex -3.59999 -10.5 1.60001
    endloop
  endfacet
  facet normal 0.707108 0 -0.707105
    outer loop
      vertex -4.59999 -10.5 0.600006
      vertex -3.59999 -13.5 1.60001
      vertex -4.59999 -13.5 0.600006
    endloop
  endfacet
  facet normal 1 -0 0
    outer loop
      vertex -4.59999 -13.5 0.600006
      vertex -4.59999 -10.5 0
      vertex -4.59999 -10.5 0.600006
    endloop
  endfacet
  facet normal 1 0 0
    outer loop
      vertex -4.59999 -10.5 0
      vertex -4.59999 -13.5 0.600006
      vertex -4.59999 -13.5 0
    endloop
  endfacet
  facet normal 0 1 0
    outer loop
      vertex -2.5 10.5 3.5
      vertex -3.59999 10.5 1.60001
      vertex -3.59999 10.5 3.5
    endloop
  endfacet
  facet normal 0 1 -0
    outer loop
      vertex -2.5 10.5 0
      vertex -3.59999 10.5 1.60001
      vertex -2.5 10.5 3.5
    endloop
  endfacet
  facet normal 0 1 0
    outer loop
      vertex -2.5 10.5 0
      vertex -4.59999 10.5 0.600006
      vertex -3.59999 10.5 1.60001
    endloop
  endfacet
  facet normal 0 1 0
    outer loop
      vertex -4.59999 10.5 0.600006
      vertex -2.5 10.5 0
      vertex -4.59999 10.5 0
    endloop
  endfacet
  facet normal 0 -1 0
    outer loop
      vertex -3.59999 13.5 1.60001
      vertex -2.5 13.5 3.5
      vertex -3.59999 13.5 3.5
    endloop
  endfacet
  facet normal 0 -1 0
    outer loop
      vertex -2.5 13.5 0
      vertex -4.59999 13.5 0.600006
      vertex -4.59999 13.5 0
    endloop
  endfacet
  facet normal 0 -1 0
    outer loop
      vertex -3.59999 13.5 1.60001
      vertex -2.5 13.5 0
      vertex -2.5 13.5 3.5
    endloop
  endfacet
  facet normal 0 -1 0
    outer loop
      vertex -4.59999 13.5 0.600006
      vertex -2.5 13.5 0
      vertex -3.59999 13.5 1.60001
    endloop
  endfacet
  facet normal 1 -0 0
    outer loop
      vertex -3.59999 10.5 3.5
      vertex -3.59999 13.5 1.60001
      vertex -3.59999 13.5 3.5
    endloop
  endfacet
  facet normal 1 0 0
    outer loop
      vertex -3.59999 13.5 1.60001
      vertex -3.59999 10.5 3.5
      vertex -3.59999 10.5 1.60001
    endloop
  endfacet
  facet normal 0.707108 0 -0.707105
    outer loop
      vertex -3.59999 10.5 1.60001
      vertex -4.59999 13.5 0.600006
      vertex -3.59999 13.5 1.60001
    endloop
  endfacet
  facet normal 0.707108 0 -0.707105
    outer loop
      vertex -4.59999 13.5 0.600006
      vertex -3.59999 10.5 1.60001
      vertex -4.59999 10.5 0.600006
    endloop
  endfacet
  facet normal 1 -0 0
    outer loop
      vertex -4.59999 10.5 0.600006
      vertex -4.59999 13.5 0
      vertex -4.59999 13.5 0.600006
    endloop
  endfacet
  facet normal 1 0 0
    outer loop
      vertex -4.59999 13.5 0
      vertex -4.59999 10.5 0.600006
      vertex -4.59999 10.5 0
    endloop
  endfacet
  facet normal 0 -1 0
    outer loop
      vertex -47.5 -16.5 3.5
      vertex -46.4 -16.5 1.60001
      vertex -46.4 -16.5 3.5
    endloop
  endfacet
  facet normal 0 -1 0
    outer loop
      vertex -47.5 -16.5 0
      vertex -46.4 -16.5 1.60001
      vertex -47.5 -16.5 3.5
    endloop
  endfacet
  facet normal 0 -1 0
    outer loop
      vertex -47.5 -16.5 0
      vertex -45.4 -16.5 0.600006
      vertex -46.4 -16.5 1.60001
    endloop
  endfacet
  facet normal 0 -1 -0
    outer loop
      vertex -45.4 -16.5 0.600006
      vertex -47.5 -16.5 0
      vertex -45.4 -16.5 0
    endloop
  endfacet
  facet normal 0 1 -0
    outer loop
      vertex -46.4 -19.5 1.60001
      vertex -47.5 -19.5 3.5
      vertex -46.4 -19.5 3.5
    endloop
  endfacet
  facet normal 0 1 0
    outer loop
      vertex -47.5 -19.5 0
      vertex -45.4 -19.5 0.600006
      vertex -45.4 -19.5 0
    endloop
  endfacet
  facet normal 0 1 0
    outer loop
      vertex -46.4 -19.5 1.60001
      vertex -47.5 -19.5 0
      vertex -47.5 -19.5 3.5
    endloop
  endfacet
  facet normal 0 1 0
    outer loop
      vertex -45.4 -19.5 0.600006
      vertex -47.5 -19.5 0
      vertex -46.4 -19.5 1.60001
    endloop
  endfacet
  facet normal -1 0 0
    outer loop
      vertex -46.4 -19.5 1.60001
      vertex -46.4 -16.5 3.5
      vertex -46.4 -16.5 1.60001
    endloop
  endfacet
  facet normal -1 -0 0
    outer loop
      vertex -46.4 -16.5 3.5
      vertex -46.4 -19.5 1.60001
      vertex -46.4 -19.5 3.5
    endloop
  endfacet
  facet normal -0.707108 0 -0.707105
    outer loop
      vertex -45.4 -19.5 0.600006
      vertex -46.4 -16.5 1.60001
      vertex -45.4 -16.5 0.600006
    endloop
  endfacet
  facet normal -0.707108 -0 -0.707105
    outer loop
      vertex -46.4 -16.5 1.60001
      vertex -45.4 -19.5 0.600006
      vertex -46.4 -19.5 1.60001
    endloop
  endfacet
  facet normal -1 0 0
    outer loop
      vertex -45.4 -19.5 0
      vertex -45.4 -16.5 0.600006
      vertex -45.4 -16.5 0
    endloop
  endfacet
  facet normal -1 -0 0
    outer loop
      vertex -45.4 -16.5 0.600006
      vertex -45.4 -19.5 0
      vertex -45.4 -19.5 0.600006
    endloop
  endfacet
  facet normal 0 -1 0
    outer loop
      vertex -47.5 1.5 3.5
      vertex -46.4 1.5 1.60001
      vertex -46.4 1.5 3.5
    endloop
  endfacet
  facet normal 0 -1 0
    outer loop
      vertex -47.5 1.5 0
      vertex -46.4 1.5 1.60001
      vertex -47.5 1.5 3.5
    endloop
  endfacet
  facet normal 0 -1 0
    outer loop
      vertex -47.5 1.5 0
      vertex -45.4 1.5 0.600006
      vertex -46.4 1.5 1.60001
    endloop
  endfacet
  facet normal 0 -1 -0
    outer loop
      vertex -45.4 1.5 0.600006
      vertex -47.5 1.5 0
      vertex -45.4 1.5 0
    endloop
  endfacet
  facet normal 0 1 -0
    outer loop
      vertex -46.4 -1.5 1.60001
      vertex -47.5 -1.5 3.5
      vertex -46.4 -1.5 3.5
    endloop
  endfacet
  facet normal 0 1 0
    outer loop
      vertex -47.5 -1.5 0
      vertex -45.4 -1.5 0.600006
      vertex -45.4 -1.5 0
    endloop
  endfacet
  facet normal 0 1 0
    outer loop
      vertex -46.4 -1.5 1.60001
      vertex -47.5 -1.5 0
      vertex -47.5 -1.5 3.5
    endloop
  endfacet
  facet normal 0 1 0
    outer loop
      vertex -45.4 -1.5 0.600006
      vertex -47.5 -1.5 0
      vertex -46.4 -1.5 1.60001
    endloop
  endfacet
  facet normal -1 0 0
    outer loop
      vertex -46.4 -1.5 1.60001
      vertex -46.4 1.5 3.5
      vertex -46.4 1.5 1.60001
    endloop
  endfacet
  facet normal -1 -0 0
    outer loop
      vertex -46.4 1.5 3.5
      vertex -46.4 -1.5 1.60001
      vertex -46.4 -1.5 3.5
    endloop
  endfacet
  facet normal -0.707108 0 -0.707105
    outer loop
      vertex -45.4 -1.5 0.600006
      vertex -46.4 1.5 1.60001
      vertex -45.4 1.5 0.600006
    endloop
  endfacet
  facet normal -0.707108 -0 -0.707105
    outer loop
      vertex -46.4 1.5 1.60001
      vertex -45.4 -1.5 0.600006
      vertex -46.4 -1.5 1.60001
    endloop
  endfacet
  facet normal -1 0 0
    outer loop
      vertex -45.4 -1.5 0
      vertex -45.4 1.5 0.600006
      vertex -45.4 1.5 0
    endloop
  endfacet
  facet normal -1 -0 0
    outer loop
      vertex -45.4 1.5 0.600006
      vertex -45.4 -1.5 0
      vertex -45.4 -1.5 0.600006
    endloop
  endfacet
  facet normal 0 -1 0
    outer loop
      vertex -47.5 19.5 3.5
      vertex -46.4 19.5 1.60001
      vertex -46.4 19.5 3.5
    endloop
  endfacet
  facet normal 0 -1 0
    outer loop
      vertex -47.5 19.5 0
      vertex -46.4 19.5 1.60001
      vertex -47.5 19.5 3.5
    endloop
  endfacet
  facet normal 0 -1 0
    outer loop
      vertex -47.5 19.5 0
      vertex -45.4 19.5 0.600006
      vertex -46.4 19.5 1.60001
    endloop
  endfacet
  facet normal 0 -1 -0
    outer loop
      vertex -45.4 19.5 0.600006
      vertex -47.5 19.5 0
      vertex -45.4 19.5 0
    endloop
  endfacet
  facet normal 0 1 -0
    outer loop
      vertex -46.4 16.5 1.60001
      vertex -47.5 16.5 3.5
      vertex -46.4 16.5 3.5
    endloop
  endfacet
  facet normal 0 1 0
    outer loop
      vertex -47.5 16.5 0
      vertex -45.4 16.5 0.600006
      vertex -45.4 16.5 0
    endloop
  endfacet
  facet normal 0 1 0
    outer loop
      vertex -46.4 16.5 1.60001
      vertex -47.5 16.5 0
      vertex -47.5 16.5 3.5
    endloop
  endfacet
  facet normal 0 1 0
    outer loop
      vertex -45.4 16.5 0.600006
      vertex -47.5 16.5 0
      vertex -46.4 16.5 1.60001
    endloop
  endfacet
  facet normal -1 0 0
    outer loop
      vertex -46.4 16.5 1.60001
      vertex -46.4 19.5 3.5
      vertex -46.4 19.5 1.60001
    endloop
  endfacet
  facet normal -1 -0 0
    outer loop
      vertex -46.4 19.5 3.5
      vertex -46.4 16.5 1.60001
      vertex -46.4 16.5 3.5
    endloop
  endfacet
  facet normal -0.707108 0 -0.707105
    outer loop
      vertex -45.4 16.5 0.600006
      vertex -46.4 19.5 1.60001
      vertex -45.4 19.5 0.600006
    endloop
  endfacet
  facet normal -0.707108 -0 -0.707105
    outer loop
      vertex -46.4 19.5 1.60001
      vertex -45.4 16.5 0.600006
      vertex -46.4 16.5 1.60001
    endloop
  endfacet
  facet normal -1 0 0
    outer loop
      vertex -45.4 16.5 0
      vertex -45.4 19.5 0.600006
      vertex -45.4 19.5 0
    endloop
  endfacet
  facet normal -1 -0 0
    outer loop
      vertex -45.4 19.5 0.600006
      vertex -45.4 16.5 0
      vertex -45.4 16.5 0.600006
    endloop
  endfacet
  facet normal 1 0 0
    outer loop
      vertex -35 -28.9 3.5
      vertex -35 -30 3.5
      vertex -35 -28.9 1.60001
    endloop
  endfacet
  facet normal 1 0 0
    outer loop
      vertex -35 -30 0
      vertex -35 -27.9 0.600006
      vertex -35 -28.9 1.60001
    endloop
  endfacet
  facet normal 1 0 0
    outer loop
      vertex -35 -27.9 0.600006
      vertex -35 -30 0
      vertex -35 -27.9 0
    endloop
  endfacet
  facet normal 1 0 0
    outer loop
      vertex -35 -30 0
      vertex -35 -28.9 1.60001
      vertex -35 -30 3.5
    endloop
  endfacet
  facet normal -1 0 0
    outer loop
      vertex -32 -30 0
      vertex -32 -27.9 0.600006
      vertex -32 -27.9 0
    endloop
  endfacet
  facet normal -1 -0 0
    outer loop
      vertex -32 -27.9 0.600006
      vertex -32 -30 0
      vertex -32 -28.9 1.60001
    endloop
  endfacet
  facet normal -1 0 0
    outer loop
      vertex -32 -30 3.5
      vertex -32 -28.9 1.60001
      vertex -32 -30 0
    endloop
  endfacet
  facet normal -1 0 0
    outer loop
      vertex -32 -28.9 1.60001
      vertex -32 -30 3.5
      vertex -32 -28.9 3.5
    endloop
  endfacet
  facet normal 0 -1 0
    outer loop
      vertex -35 -28.9 1.60001
      vertex -32 -28.9 3.5
      vertex -35 -28.9 3.5
    endloop
  endfacet
  facet normal 0 -1 -0
    outer loop
      vertex -32 -28.9 3.5
      vertex -35 -28.9 1.60001
      vertex -32 -28.9 1.60001
    endloop
  endfacet
  facet normal 0 -0.707108 -0.707105
    outer loop
      vertex -35 -27.9 0.600006
      vertex -32 -28.9 1.60001
      vertex -35 -28.9 1.60001
    endloop
  endfacet
  facet normal 0 -0.707108 -0.707105
    outer loop
      vertex -32 -28.9 1.60001
      vertex -35 -27.9 0.600006
      vertex -32 -27.9 0.600006
    endloop
  endfacet
  facet normal 0 -1 0
    outer loop
      vertex -35 -27.9 0
      vertex -32 -27.9 0.600006
      vertex -35 -27.9 0.600006
    endloop
  endfacet
  facet normal 0 -1 -0
    outer loop
      vertex -32 -27.9 0.600006
      vertex -35 -27.9 0
      vertex -32 -27.9 0
    endloop
  endfacet
  facet normal -1 0 0
    outer loop
      vertex -32 30 0
      vertex -32 28.9 1.60001
      vertex -32 30 3.5
    endloop
  endfacet
  facet normal -1 0 0
    outer loop
      vertex -32 27.9 0.600006
      vertex -32 30 0
      vertex -32 27.9 0
    endloop
  endfacet
  facet normal -1 0 0
    outer loop
      vertex -32 30 0
      vertex -32 27.9 0.600006
      vertex -32 28.9 1.60001
    endloop
  endfacet
  facet normal -1 -0 0
    outer loop
      vertex -32 30 3.5
      vertex -32 28.9 1.60001
      vertex -32 28.9 3.5
    endloop
  endfacet
  facet normal 1 0 0
    outer loop
      vertex -35 28.9 1.60001
      vertex -35 30 3.5
      vertex -35 28.9 3.5
    endloop
  endfacet
  facet normal 1 0 0
    outer loop
      vertex -35 30 3.5
      vertex -35 28.9 1.60001
      vertex -35 30 0
    endloop
  endfacet
  facet normal 1 -0 0
    outer loop
      vertex -35 27.9 0.600006
      vertex -35 30 0
      vertex -35 28.9 1.60001
    endloop
  endfacet
  facet normal 1 0 0
    outer loop
      vertex -35 30 0
      vertex -35 27.9 0.600006
      vertex -35 27.9 0
    endloop
  endfacet
  facet normal 0 1 -0
    outer loop
      vertex -32 28.9 1.60001
      vertex -35 28.9 3.5
      vertex -32 28.9 3.5
    endloop
  endfacet
  facet normal 0 1 0
    outer loop
      vertex -35 28.9 3.5
      vertex -32 28.9 1.60001
      vertex -35 28.9 1.60001
    endloop
  endfacet
  facet normal 0 0.707108 -0.707105
    outer loop
      vertex -32 27.9 0.600006
      vertex -35 28.9 1.60001
      vertex -32 28.9 1.60001
    endloop
  endfacet
  facet normal 0 0.707108 -0.707105
    outer loop
      vertex -35 28.9 1.60001
      vertex -32 27.9 0.600006
      vertex -35 27.9 0.600006
    endloop
  endfacet
  facet normal 0 1 -0
    outer loop
      vertex -32 27.9 0
      vertex -35 27.9 0.600006
      vertex -32 27.9 0.600006
    endloop
  endfacet
  facet normal 0 1 0
    outer loop
      vertex -35 27.9 0.600006
      vertex -32 27.9 0
      vertex -35 27.9 0
    endloop
  endfacet
  facet normal 0.866017 0.500015 4.69818e-06
    outer loop
      vertex -18.349 -23.9774 1.60001
      vertex -18.2763 -24.1033 0
      vertex -18.849 -23.1114 0.600006
    endloop
  endfacet
  facet normal 0.866058 0.499943 1.2235e-05
    outer loop
      vertex -18.2763 -24.1033 0
      vertex -18.349 -23.9774 1.60001
      vertex -17.93 -24.7032 0
    endloop
  endfacet
  facet normal 0.866009 0.500028 0
    outer loop
      vertex -17.8014 -24.9258 3.5
      vertex -18.349 -23.9774 1.60001
      vertex -18.349 -23.9774 3.5
    endloop
  endfacet
  facet normal 0.866009 0.500028 -0
    outer loop
      vertex -17.8014 -24.9258 0
      vertex -18.349 -23.9774 1.60001
      vertex -17.8014 -24.9258 3.5
    endloop
  endfacet
  facet normal 0.865888 0.500239 -0.000166486
    outer loop
      vertex -18.349 -23.9774 1.60001
      vertex -17.8014 -24.9258 0
      vertex -17.93 -24.7032 0
    endloop
  endfacet
  facet normal 0.866015 0.500017 0
    outer loop
      vertex -18.849 -23.1114 0.600006
      vertex -18.2763 -24.1033 0
      vertex -18.849 -23.1114 0
    endloop
  endfacet
  facet normal -0.866063 -0.499936 -7.09572e-05
    outer loop
      vertex -15.2101 -23.4142 0
      vertex -15.751 -22.4774 1.60001
      vertex -15.3319 -23.2032 0
    endloop
  endfacet
  facet normal -0.86601 -0.500027 0
    outer loop
      vertex -15.751 -22.4774 1.60001
      vertex -15.2101 -23.4142 0
      vertex -15.2101 -23.4142 3.5
    endloop
  endfacet
  facet normal -0.86601 -0.500027 0
    outer loop
      vertex -15.751 -22.4774 1.60001
      vertex -15.2101 -23.4142 3.5
      vertex -15.751 -22.4774 3.5
    endloop
  endfacet
  facet normal -0.865992 -0.500058 -5.43139e-05
    outer loop
      vertex -15.6782 -22.6033 0
      vertex -15.751 -22.4774 1.60001
      vertex -16.251 -21.6114 0.600006
    endloop
  endfacet
  facet normal -0.866058 -0.499943 -6.63633e-05
    outer loop
      vertex -15.751 -22.4774 1.60001
      vertex -15.6782 -22.6033 0
      vertex -15.3319 -23.2032 0
    endloop
  endfacet
  facet normal -0.865978 -0.500083 0
    outer loop
      vertex -15.6782 -22.6033 0
      vertex -16.251 -21.6114 0.600006
      vertex -16.251 -21.6114 0
    endloop
  endfacet
  facet normal 0.500011 -0.866019 0
    outer loop
      vertex -18.349 -23.9774 1.60001
      vertex -15.751 -22.4774 3.5
      vertex -18.349 -23.9774 3.5
    endloop
  endfacet
  facet normal 0.500011 -0.866019 0
    outer loop
      vertex -15.751 -22.4774 3.5
      vertex -18.349 -23.9774 1.60001
      vertex -15.751 -22.4774 1.60001
    endloop
  endfacet
  facet normal 0.353566 -0.612376 -0.707098
    outer loop
      vertex -18.349 -23.9774 1.60001
      vertex -16.251 -21.6114 0.600006
      vertex -15.751 -22.4774 1.60001
    endloop
  endfacet
  facet normal 0.353566 -0.612376 -0.707098
    outer loop
      vertex -16.251 -21.6114 0.600006
      vertex -18.349 -23.9774 1.60001
      vertex -18.849 -23.1114 0.600006
    endloop
  endfacet
  facet normal 0.500011 -0.866019 0
    outer loop
      vertex -18.849 -23.1114 0
      vertex -16.251 -21.6114 0.600006
      vertex -18.849 -23.1114 0.600006
    endloop
  endfacet
  facet normal 0.500011 -0.866019 0
    outer loop
      vertex -16.251 -21.6114 0.600006
      vertex -18.849 -23.1114 0
      vertex -16.251 -21.6114 0
    endloop
  endfacet
  facet normal -0.866058 0.499943 -6.63633e-05
    outer loop
      vertex -15.6782 22.6033 0
      vertex -15.751 22.4774 1.60001
      vertex -15.3319 23.2032 0
    endloop
  endfacet
  facet normal -0.865992 0.500058 -5.43139e-05
    outer loop
      vertex -15.751 22.4774 1.60001
      vertex -15.6782 22.6033 0
      vertex -16.251 21.6114 0.600006
    endloop
  endfacet
  facet normal -0.866063 0.499936 -7.09572e-05
    outer loop
      vertex -15.751 22.4774 1.60001
      vertex -15.2101 23.4142 0
      vertex -15.3319 23.2032 0
    endloop
  endfacet
  facet normal -0.86601 0.500027 0
    outer loop
      vertex -15.2101 23.4142 0
      vertex -15.751 22.4774 1.60001
      vertex -15.2101 23.4142 3.5
    endloop
  endfacet
  facet normal -0.86601 0.500027 0
    outer loop
      vertex -15.2101 23.4142 3.5
      vertex -15.751 22.4774 1.60001
      vertex -15.751 22.4774 3.5
    endloop
  endfacet
  facet normal -0.865978 0.500083 0
    outer loop
      vertex -16.251 21.6114 0.600006
      vertex -15.6782 22.6033 0
      vertex -16.251 21.6114 0
    endloop
  endfacet
  facet normal 0.866009 -0.500028 0
    outer loop
      vertex -18.349 23.9774 1.60001
      vertex -17.8014 24.9258 0
      vertex -17.8014 24.9258 3.5
    endloop
  endfacet
  facet normal 0.866009 -0.500028 0
    outer loop
      vertex -18.349 23.9774 1.60001
      vertex -17.8014 24.9258 3.5
      vertex -18.349 23.9774 3.5
    endloop
  endfacet
  facet normal 0.865888 -0.500239 -0.000166486
    outer loop
      vertex -17.8014 24.9258 0
      vertex -18.349 23.9774 1.60001
      vertex -17.93 24.7032 0
    endloop
  endfacet
  facet normal 0.866058 -0.499943 1.2235e-05
    outer loop
      vertex -18.349 23.9774 1.60001
      vertex -18.2763 24.1033 0
      vertex -17.93 24.7032 0
    endloop
  endfacet
  facet normal 0.866017 -0.500015 4.69818e-06
    outer loop
      vertex -18.2763 24.1033 0
      vertex -18.349 23.9774 1.60001
      vertex -18.849 23.1114 0.600006
    endloop
  endfacet
  facet normal 0.866015 -0.500017 0
    outer loop
      vertex -18.2763 24.1033 0
      vertex -18.849 23.1114 0.600006
      vertex -18.849 23.1114 0
    endloop
  endfacet
  facet normal 0.500011 0.866019 -0
    outer loop
      vertex -15.751 22.4774 1.60001
      vertex -18.349 23.9774 3.5
      vertex -15.751 22.4774 3.5
    endloop
  endfacet
  facet normal 0.500011 0.866019 0
    outer loop
      vertex -18.349 23.9774 3.5
      vertex -15.751 22.4774 1.60001
      vertex -18.349 23.9774 1.60001
    endloop
  endfacet
  facet normal 0.353566 0.612376 -0.707098
    outer loop
      vertex -16.251 21.6114 0.600006
      vertex -18.349 23.9774 1.60001
      vertex -15.751 22.4774 1.60001
    endloop
  endfacet
  facet normal 0.353566 0.612376 -0.707098
    outer loop
      vertex -18.349 23.9774 1.60001
      vertex -16.251 21.6114 0.600006
      vertex -18.849 23.1114 0.600006
    endloop
  endfacet
  facet normal 0.500011 0.866019 -0
    outer loop
      vertex -16.251 21.6114 0
      vertex -18.849 23.1114 0.600006
      vertex -16.251 21.6114 0.600006
    endloop
  endfacet
  facet normal 0.500011 0.866019 0
    outer loop
      vertex -18.849 23.1114 0.600006
      vertex -16.251 21.6114 0
      vertex -18.849 23.1114 0
    endloop
  endfacet
endsolid OpenSCAD_Model
