<?xml version="1.0" encoding="utf-8"?>
<!-- Svg Vector Icons : http://www.onlinewebfonts.com/icon -->
<!DOCTYPE svg PUBLIC "-//W3C//DTD SVG 1.1//EN" "http://www.w3.org/Graphics/SVG/1.1/DTD/svg11.dtd">
<svg version="1.1" xmlns="http://www.w3.org/2000/svg" xmlns:xlink="http://www.w3.org/1999/xlink" x="0px" y="0px" viewBox="0 0 1000 1000" enable-background="new 0 0 1000 1000" xml:space="preserve">
<metadata> Svg Vector Icons : http://www.onlinewebfonts.com/icon </metadata>
<g><g><path d="M839.6,492.8c22.2,131.5-33.4,158-33.4,158s50.4-106.8-16.9-211c-26.6-41.2-42.9-102.1-35.5-125.6c-32.5,25.5-45.6,95.7-45.6,95.7s-35.7-72.1-29.8-168.3l-86.2,136.6c0,0,2.9-107.9-40.2-155.5c-43.2-47.6-121.4-88.9-43.2-212.7c0,0-201.1,116.4-117.2,326.2c66.7,166.6-95.7,42-36.4-100.9c0,0-113.1,31.8-72.7,212.7c0,0-67.1-19.1-61.8-98.4c0,0-53.9,120.6,2.7,244.4c0,0-62.5-3.1-53.6-111C47.6,661.5,125.8,990,492.9,990C824.4,990,962.1,742.3,839.6,492.8z"/></g><g></g><g></g><g></g><g></g><g></g><g></g><g></g><g></g><g></g><g></g><g></g><g></g><g></g><g></g><g></g></g>
</svg>