<?xml version="1.0" encoding="utf-8"?>
<!-- Svg Vector Icons : http://www.onlinewebfonts.com/icon -->
<!DOCTYPE svg PUBLIC "-//W3C//DTD SVG 1.1//EN" "http://www.w3.org/Graphics/SVG/1.1/DTD/svg11.dtd">
<svg version="1.1" xmlns="http://www.w3.org/2000/svg" xmlns:xlink="http://www.w3.org/1999/xlink" x="0px" y="0px" viewBox="0 0 1000 1000" enable-background="new 0 0 1000 1000" xml:space="preserve">
<metadata> Svg Vector Icons : http://www.onlinewebfonts.com/icon </metadata>
<g><path d="M316.1,990c0,0-518-118.2-103-712.8c0,0-23.7,86.6,12,208.7c0,0,304.1-213.5,173.5-475.9c0,0,221.3,44,343.5,391.7c0,0,47.1-52-13.2-214.5c0,0,264.5,184.6,212.2,476.2C895.2,919.4,636.2,990,636.2,990s195.2-282.9-111.9-572.3c0,0,48.3,82.5-86.6,256.7c0,0,14.5-103.7-29-142.6c0,0,26.6,65.1-108.2,196.8C198.4,828.2,316.1,990,316.1,990z"/></g>
</svg>