<?xml version="1.0" encoding="utf-8"?>
<!-- Svg Vector Icons : http://www.onlinewebfonts.com/icon -->
<!DOCTYPE svg PUBLIC "-//W3C//DTD SVG 1.1//EN" "http://www.w3.org/Graphics/SVG/1.1/DTD/svg11.dtd">
<svg version="1.1" xmlns="http://www.w3.org/2000/svg" xmlns:xlink="http://www.w3.org/1999/xlink" x="0px" y="0px" viewBox="0 0 1000 1000" enable-background="new 0 0 1000 1000" xml:space="preserve">
<metadata> Svg Vector Icons : http://www.onlinewebfonts.com/icon </metadata>
<g><g><g><g id="Icons_24_"><path d="M805.9,170.6c-1.5-47-5.8-104.1-50.6-129.1C704,12.8,647.5,47.6,576.1,91.7c-63.6,39.2-141.2,86.7-222.2,95.6v-19c22.8-15.6,37.7-41.8,37.7-71.5c0-47.9-38.8-86.8-86.8-86.8c-47.9,0-86.8,38.9-86.8,86.8c0,29.7,15,55.9,37.7,71.5v702c-34.7,3.4-61.8,32.3-61.8,67.9v24.1c0,15.3,12.4,27.8,27.7,27.8h234.2c15.3,0,27.7-12.4,27.7-27.8v-24.1c0-37.9-30.7-68.5-68.5-68.5h-0.4C709.3,735.6,810.5,315.4,805.9,170.6z M707.7,170.6c0,77.3-21.9,173.5-58.2,266.9V161.9c17.5-10.6,35.7-21.2,49.2-27.3c1.5-0.7,3.2-0.6,4.6,0.2c1.5,0.8,2.4,2.2,2.7,3.8C706.8,146,707.7,156.3,707.7,170.6z M418.2,275.2v484.9c-21.1,12.4-42.6,20.8-64.2,24.7V285.6C375.9,283.9,397.3,280.5,418.2,275.2z M450.9,737.5V265.4c23.2-7.9,45.3-17.5,66.6-27.8v433.4C496.2,696.7,473.9,719.3,450.9,737.5z M550.1,627.4V220.7c23.9-13,46.1-26.2,66.6-38.8v330.5C596.9,553.3,574.5,592.2,550.1,627.4z"/></g></g></g><g></g><g></g><g></g><g></g><g></g><g></g><g></g><g></g><g></g><g></g><g></g><g></g><g></g><g></g><g></g></g>
</svg>