<?xml version="1.0" encoding="utf-8"?>
<!-- Svg Vector Icons : http://www.onlinewebfonts.com/icon -->
<!DOCTYPE svg PUBLIC "-//W3C//DTD SVG 1.1//EN" "http://www.w3.org/Graphics/SVG/1.1/DTD/svg11.dtd">
<svg version="1.1" xmlns="http://www.w3.org/2000/svg" xmlns:xlink="http://www.w3.org/1999/xlink" x="0px" y="0px" viewBox="0 0 1000 1000" enable-background="new 0 0 1000 1000" xml:space="preserve">
<metadata> Svg Vector Icons : http://www.onlinewebfonts.com/icon </metadata>
<g><g transform="translate(0.000000,511.000000) scale(0.100000,-0.100000)"><path d="M6617.9,4455.5c-1623.3-305.4-3021.6-566.5-3102-582.6l-152.7-28.1V775v-3069.8l-188.9,84.4c-321.4,140.6-578.6,192.9-976.4,192.9c-634.8,0-1133.1-180.8-1502.7-550.5c-265.2-265.2-361.6-490.2-361.6-835.7c0-349.6,116.5-598.7,409.8-871.9C1113.2-4625.2,1583.3-4790,2198-4790c791.6,0,1486.7,365.7,1743.8,924.2l104.5,221V-1005v2635.8l112.5,24.1c345.6,72.3,4689.1,867.9,4733.3,867.9c48.2,0,56.3-325.5,56.3-1932.7c0-1828.2-4-1932.7-68.4-1900.5c-405.8,176.8-650.9,229-1056.7,233c-626.8,0-1105-164.8-1482.7-518.3c-289.3-269.2-385.7-494.2-385.7-884c4-373.7,52.2-490.2,333.5-791.6c341.5-365.6,771.5-546.4,1374.2-582.6c827.7-44.2,1575,305.4,1880.4,888l108.6,204.9l12,3889.4c8.1,3122,0,3885.5-40.2,3881.4C9595.2,5006,8241.2,4756.9,6617.9,4455.5z"/></g></g>
</svg>