<?xml version="1.0" encoding="utf-8"?>
<!-- Svg Vector Icons : http://www.onlinewebfonts.com/icon -->
<!DOCTYPE svg PUBLIC "-//W3C//DTD SVG 1.1//EN" "http://www.w3.org/Graphics/SVG/1.1/DTD/svg11.dtd">
<svg version="1.1" xmlns="http://www.w3.org/2000/svg" xmlns:xlink="http://www.w3.org/1999/xlink" x="0px" y="0px" viewBox="0 0 1000 1000" enable-background="new 0 0 1000 1000" xml:space="preserve">
<metadata> Svg Vector Icons : http://www.onlinewebfonts.com/icon </metadata>
<g><g transform="translate(0.000000,511.000000) scale(0.100000,-0.100000)"><path d="M4121.6,4952.3C2117.7,4588.7,506.9,2969.5,160.2,965.6c-80.3-456.6-80.3-1247.2,0-1708C511.1-2759,2126.1-4374,4151.2-4729.1c452.4-80.4,1247.1-80.4,1699.6,0C7360-4467,8700.2-3465,9397.8-2086.8c317.1,630,465,1209.1,494.6,1970.1c29.6,706-25.4,1133-207.2,1708c-558.1,1750.3-2037.8,3048.2-3830.3,3361C5419.5,5028.4,4544.4,5028.4,4121.6,4952.3z M5546.3,4233.6c397.4-93,731.4-291.7,1018.9-596.1c790.6-849.8,777.9-2088.5-38-2891.7c-443.9-439.7-904.7-634.2-1505.1-634.2c-600.3,0-1124.6-219.8-1534.6-651.1c-824.4-858.2-858.2-2211.1-80.3-3094.6l169.1-194.5l-164.9,71.9C1707.6-3046.5,646.4-1262.4,845.1,547C1081.9,2665.1,2836.4,4259,4958.7,4292.8C5132.1,4292.8,5398.3,4267.4,5546.3,4233.6z M5499.8-1731.7c253.7-164.9,342.4-583.5,177.6-849.8c-211.4-346.7-769.5-359.4-1006.2-25.4c-232.5,334-93,782.1,287.5,938.6C5089.8-1613.3,5368.8-1647.1,5499.8-1731.7z"/><path d="M4755.8,2732.8c-558.1-338.2-279-1192.2,367.8-1128.8c604.6,63.4,752.6,862.5,211.4,1137.3C5144.7,2842.7,4929.1,2838.5,4755.8,2732.8z"/></g></g>
</svg>