solid OpenSCAD_Model
  facet normal -1 0 0
    outer loop
      vertex 0 0 0
      vertex 0 7 5
      vertex 0 7 0
    endloop
  endfacet
  facet normal -1 -0 0
    outer loop
      vertex 0 7 5
      vertex 0 0 0
      vertex 0 0 5
    endloop
  endfacet
  facet normal 0 0 1
    outer loop
      vertex 20.8 7 5
      vertex 18.4 4.6 5
      vertex 20.8 0 5
    endloop
  endfacet
  facet normal 0 0 1
    outer loop
      vertex 20.8 7 5
      vertex 2.4 4.6 5
      vertex 18.4 4.6 5
    endloop
  endfacet
  facet normal 0 0 1
    outer loop
      vertex 2.4 4.6 5
      vertex 0 7 5
      vertex 2.4 2.4 5
    endloop
  endfacet
  facet normal -0 0 1
    outer loop
      vertex 0 7 5
      vertex 2.4 4.6 5
      vertex 20.8 7 5
    endloop
  endfacet
  facet normal -0 0 1
    outer loop
      vertex 18.4 2.4 5
      vertex 20.8 0 5
      vertex 18.4 4.6 5
    endloop
  endfacet
  facet normal -0 0 1
    outer loop
      vertex 2.4 2.4 5
      vertex 20.8 0 5
      vertex 18.4 2.4 5
    endloop
  endfacet
  facet normal 0 0 1
    outer loop
      vertex 2.4 2.4 5
      vertex 0 0 5
      vertex 20.8 0 5
    endloop
  endfacet
  facet normal 0 0 1
    outer loop
      vertex 0 0 5
      vertex 2.4 2.4 5
      vertex 0 7 5
    endloop
  endfacet
  facet normal 1 -0 0
    outer loop
      vertex 20.8 0 5
      vertex 20.8 7 0
      vertex 20.8 7 5
    endloop
  endfacet
  facet normal 1 0 0
    outer loop
      vertex 20.8 7 0
      vertex 20.8 0 5
      vertex 20.8 0 0
    endloop
  endfacet
  facet normal 0 1 -0
    outer loop
      vertex 20.8 7 0
      vertex 0 7 5
      vertex 20.8 7 5
    endloop
  endfacet
  facet normal 0 1 0
    outer loop
      vertex 0 7 5
      vertex 20.8 7 0
      vertex 0 7 0
    endloop
  endfacet
  facet normal 0 0 -1
    outer loop
      vertex 0 0 0
      vertex 20.8 7 0
      vertex 20.8 0 0
    endloop
  endfacet
  facet normal -0 0 -1
    outer loop
      vertex 20.8 7 0
      vertex 0 0 0
      vertex 0 7 0
    endloop
  endfacet
  facet normal 0 -1 0
    outer loop
      vertex 0 0 0
      vertex 20.8 0 5
      vertex 0 0 5
    endloop
  endfacet
  facet normal 0 -1 -0
    outer loop
      vertex 20.8 0 5
      vertex 0 0 0
      vertex 20.8 0 0
    endloop
  endfacet
  facet normal 0 -1 0
    outer loop
      vertex 3.9 4.6 1
      vertex 18.4 4.6 5
      vertex 2.4 4.6 5
    endloop
  endfacet
  facet normal 0 -1 0
    outer loop
      vertex 18.4 4.6 5
      vertex 3.9 4.6 1
      vertex 16.9 4.6 1
    endloop
  endfacet
  facet normal -0.936329 0 0.351123
    outer loop
      vertex 16.9 2.4 1
      vertex 18.4 4.6 5
      vertex 16.9 4.6 1
    endloop
  endfacet
  facet normal -0.936329 0 0.351123
    outer loop
      vertex 18.4 4.6 5
      vertex 16.9 2.4 1
      vertex 18.4 2.4 5
    endloop
  endfacet
  facet normal 0 1 -0
    outer loop
      vertex 16.9 2.4 1
      vertex 2.4 2.4 5
      vertex 18.4 2.4 5
    endloop
  endfacet
  facet normal 0 1 0
    outer loop
      vertex 2.4 2.4 5
      vertex 16.9 2.4 1
      vertex 3.9 2.4 1
    endloop
  endfacet
  facet normal 0.936329 -0 0.351123
    outer loop
      vertex 2.4 2.4 5
      vertex 3.9 4.6 1
      vertex 2.4 4.6 5
    endloop
  endfacet
  facet normal 0.936329 0 0.351123
    outer loop
      vertex 3.9 4.6 1
      vertex 2.4 2.4 5
      vertex 3.9 2.4 1
    endloop
  endfacet
  facet normal -0 0 1
    outer loop
      vertex 3.9 4.6 1
      vertex 16.9 2.4 1
      vertex 16.9 4.6 1
    endloop
  endfacet
  facet normal 0 0 1
    outer loop
      vertex 16.9 2.4 1
      vertex 3.9 4.6 1
      vertex 3.9 2.4 1
    endloop
  endfacet
endsolid OpenSCAD_Model
