solid OpenSCAD_Model
  facet normal 0 -0.965926 0.25882
    outer loop
      vertex 3.9 3.6 1
      vertex 18.2804 4.6718 5
      vertex 2.51963 4.6718 5
    endloop
  endfacet
  facet normal 0 -0.965926 0.25882
    outer loop
      vertex 18.2804 4.6718 5
      vertex 3.9 3.6 1
      vertex 16.9 3.6 1
    endloop
  endfacet
  facet normal -0.948681 0.0821467 0.305379
    outer loop
      vertex 16.9 3.6 1
      vertex 18.2623 4.46277 5
      vertex 18.2804 4.6718 5
    endloop
  endfacet
  facet normal -0.948686 0.0818435 0.305446
    outer loop
      vertex 18.2623 4.46277 5
      vertex 16.9 3.6 1
      vertex 16.9 1.47496 1.5694
    endloop
  endfacet
  facet normal -0.948681 0.0818169 0.305467
    outer loop
      vertex 18.0839 2.39419 5
      vertex 18.2623 4.46277 5
      vertex 16.9 1.47496 1.5694
    endloop
  endfacet
  facet normal 0.948683 0.0818292 0.305457
    outer loop
      vertex 2.53766 4.46277 5
      vertex 3.9 3.6 1
      vertex 2.51963 4.6718 5
    endloop
  endfacet
  facet normal 0.948683 0.0818457 0.305454
    outer loop
      vertex 3.9 3.6 1
      vertex 2.53766 4.46277 5
      vertex 3.9 1.47496 1.5694
    endloop
  endfacet
  facet normal -0 0.258818 0.965926
    outer loop
      vertex 3.9 3.6 1
      vertex 16.9 1.47496 1.5694
      vertex 16.9 3.6 1
    endloop
  endfacet
  facet normal 0 0.258818 0.965926
    outer loop
      vertex 16.9 1.47496 1.5694
      vertex 3.9 3.6 1
      vertex 3.9 1.47496 1.5694
    endloop
  endfacet
  facet normal 0 0.965926 -0.25882
    outer loop
      vertex 16.9 1.47496 1.5694
      vertex 2.71613 2.39419 5
      vertex 18.0839 2.39419 5
    endloop
  endfacet
  facet normal 0 0.965926 -0.25882
    outer loop
      vertex 2.71613 2.39419 5
      vertex 16.9 1.47496 1.5694
      vertex 3.9 1.47496 1.5694
    endloop
  endfacet
  facet normal 0.948684 0.0818492 0.305451
    outer loop
      vertex 2.71613 2.39419 5
      vertex 3.9 1.47496 1.5694
      vertex 2.53766 4.46277 5
    endloop
  endfacet
  facet normal 0 -0.965926 0.25882
    outer loop
      vertex 3.9 10.8 1
      vertex 18.2804 11.8718 5
      vertex 2.51963 11.8718 5
    endloop
  endfacet
  facet normal 0 -0.965926 0.25882
    outer loop
      vertex 18.2804 11.8718 5
      vertex 3.9 10.8 1
      vertex 16.9 10.8 1
    endloop
  endfacet
  facet normal -0.948681 0.0821585 0.305375
    outer loop
      vertex 16.9 10.8 1
      vertex 18.2623 11.6628 5
      vertex 18.2804 11.8718 5
    endloop
  endfacet
  facet normal -0.948686 0.0818434 0.305445
    outer loop
      vertex 18.2623 11.6628 5
      vertex 16.9 10.8 1
      vertex 16.9 8.67496 1.5694
    endloop
  endfacet
  facet normal -0.948681 0.0818157 0.305467
    outer loop
      vertex 18.0839 9.59419 5
      vertex 18.2623 11.6628 5
      vertex 16.9 8.67496 1.5694
    endloop
  endfacet
  facet normal 0.948683 0.0818409 0.305454
    outer loop
      vertex 2.53766 11.6628 5
      vertex 3.9 10.8 1
      vertex 2.51963 11.8718 5
    endloop
  endfacet
  facet normal 0.948683 0.0818455 0.305453
    outer loop
      vertex 3.9 10.8 1
      vertex 2.53766 11.6628 5
      vertex 3.9 8.67496 1.5694
    endloop
  endfacet
  facet normal -0 0.258818 0.965926
    outer loop
      vertex 3.9 10.8 1
      vertex 16.9 8.67496 1.5694
      vertex 16.9 10.8 1
    endloop
  endfacet
  facet normal 0 0.258818 0.965926
    outer loop
      vertex 16.9 8.67496 1.5694
      vertex 3.9 10.8 1
      vertex 3.9 8.67496 1.5694
    endloop
  endfacet
  facet normal 0 0.965926 -0.25882
    outer loop
      vertex 16.9 8.67496 1.5694
      vertex 2.71613 9.59419 5
      vertex 18.0839 9.59419 5
    endloop
  endfacet
  facet normal 0 0.965926 -0.25882
    outer loop
      vertex 2.71613 9.59419 5
      vertex 16.9 8.67496 1.5694
      vertex 3.9 8.67496 1.5694
    endloop
  endfacet
  facet normal 0.948684 0.081848 0.305451
    outer loop
      vertex 2.71613 9.59419 5
      vertex 3.9 8.67496 1.5694
      vertex 2.53766 11.6628 5
    endloop
  endfacet
  facet normal -1 0 0
    outer loop
      vertex 0 0 0
      vertex 0 14.2 5
      vertex 0 14.2 0
    endloop
  endfacet
  facet normal -1 -0 0
    outer loop
      vertex 0 14.2 5
      vertex 0 0 0
      vertex 0 0 5
    endloop
  endfacet
  facet normal 0 0 1
    outer loop
      vertex 18.0839 9.59419 5
      vertex 20.8 14.2 5
      vertex 18.2623 11.6628 5
    endloop
  endfacet
  facet normal 0 0 1
    outer loop
      vertex 20.8 14.2 5
      vertex 18.0839 9.59419 5
      vertex 18.2804 4.6718 5
    endloop
  endfacet
  facet normal -0 0 1
    outer loop
      vertex 2.71613 9.59419 5
      vertex 18.2804 4.6718 5
      vertex 18.0839 9.59419 5
    endloop
  endfacet
  facet normal 0 0 1
    outer loop
      vertex 2.71613 9.59419 5
      vertex 2.51963 4.6718 5
      vertex 18.2804 4.6718 5
    endloop
  endfacet
  facet normal 0 0 1
    outer loop
      vertex 0 14.2 5
      vertex 2.71613 9.59419 5
      vertex 2.53766 11.6628 5
    endloop
  endfacet
  facet normal 0 0 1
    outer loop
      vertex 0 14.2 5
      vertex 2.53766 11.6628 5
      vertex 2.51963 11.8718 5
    endloop
  endfacet
  facet normal 0 0 1
    outer loop
      vertex 18.2623 11.6628 5
      vertex 20.8 14.2 5
      vertex 18.2804 11.8718 5
    endloop
  endfacet
  facet normal 0 0 1
    outer loop
      vertex 20.8 14.2 5
      vertex 2.51963 11.8718 5
      vertex 18.2804 11.8718 5
    endloop
  endfacet
  facet normal 0 0 1
    outer loop
      vertex 2.71613 9.59419 5
      vertex 0 14.2 5
      vertex 2.51963 4.6718 5
    endloop
  endfacet
  facet normal -0 0 1
    outer loop
      vertex 0 14.2 5
      vertex 2.51963 11.8718 5
      vertex 20.8 14.2 5
    endloop
  endfacet
  facet normal 0 0 1
    outer loop
      vertex 20.8 14.2 5
      vertex 18.2804 4.6718 5
      vertex 20.8 0 5
    endloop
  endfacet
  facet normal -0 0 1
    outer loop
      vertex 18.2623 4.46277 5
      vertex 20.8 0 5
      vertex 18.2804 4.6718 5
    endloop
  endfacet
  facet normal -0 0 1
    outer loop
      vertex 18.0839 2.39419 5
      vertex 20.8 0 5
      vertex 18.2623 4.46277 5
    endloop
  endfacet
  facet normal -0 0 1
    outer loop
      vertex 2.71613 2.39419 5
      vertex 20.8 0 5
      vertex 18.0839 2.39419 5
    endloop
  endfacet
  facet normal 0 0 1
    outer loop
      vertex 0 0 5
      vertex 2.51963 4.6718 5
      vertex 0 14.2 5
    endloop
  endfacet
  facet normal 0 0 1
    outer loop
      vertex 2.51963 4.6718 5
      vertex 0 0 5
      vertex 2.53766 4.46277 5
    endloop
  endfacet
  facet normal 0 0 1
    outer loop
      vertex 2.71613 2.39419 5
      vertex 0 0 5
      vertex 20.8 0 5
    endloop
  endfacet
  facet normal 0 0 1
    outer loop
      vertex 2.53766 4.46277 5
      vertex 0 0 5
      vertex 2.71613 2.39419 5
    endloop
  endfacet
  facet normal 1 -0 0
    outer loop
      vertex 20.8 0 5
      vertex 20.8 14.2 0
      vertex 20.8 14.2 5
    endloop
  endfacet
  facet normal 1 0 0
    outer loop
      vertex 20.8 14.2 0
      vertex 20.8 0 5
      vertex 20.8 0 0
    endloop
  endfacet
  facet normal 0 0 -1
    outer loop
      vertex 0 0 0
      vertex 20.8 14.2 0
      vertex 20.8 0 0
    endloop
  endfacet
  facet normal -0 0 -1
    outer loop
      vertex 20.8 14.2 0
      vertex 0 0 0
      vertex 0 14.2 0
    endloop
  endfacet
  facet normal 0 -1 0
    outer loop
      vertex 0 0 0
      vertex 20.8 0 5
      vertex 0 0 5
    endloop
  endfacet
  facet normal 0 -1 -0
    outer loop
      vertex 20.8 0 5
      vertex 0 0 0
      vertex 20.8 0 0
    endloop
  endfacet
  facet normal 0 1 -0
    outer loop
      vertex 20.8 14.2 0
      vertex 0 14.2 5
      vertex 20.8 14.2 5
    endloop
  endfacet
  facet normal 0 1 0
    outer loop
      vertex 0 14.2 5
      vertex 20.8 14.2 0
      vertex 0 14.2 0
    endloop
  endfacet
endsolid OpenSCAD_Model
