solid OpenSCAD_Model
  facet normal 0 -0.965926 0.258818
    outer loop
      vertex 2.4 3.6 1
      vertex 18.4 4.73878 5.25
      vertex 2.4 4.73878 5.25
    endloop
  endfacet
  facet normal 0 -0.965926 0.258818
    outer loop
      vertex 18.4 4.73878 5.25
      vertex 2.4 3.6 1
      vertex 18.4 3.6 1
    endloop
  endfacet
  facet normal -1 0 0
    outer loop
      vertex 18.4 3.6 1
      vertex 18.4 2.46118 5.25
      vertex 18.4 4.73878 5.25
    endloop
  endfacet
  facet normal -1 0 -0
    outer loop
      vertex 18.4 2.46118 5.25
      vertex 18.4 3.6 1
      vertex 18.4 1.47496 1.5694
    endloop
  endfacet
  facet normal -0 0.258818 0.965926
    outer loop
      vertex 2.4 3.6 1
      vertex 18.4 1.47496 1.5694
      vertex 18.4 3.6 1
    endloop
  endfacet
  facet normal 0 0.258818 0.965926
    outer loop
      vertex 18.4 1.47496 1.5694
      vertex 2.4 3.6 1
      vertex 2.4 1.47496 1.5694
    endloop
  endfacet
  facet normal 1 -0 0
    outer loop
      vertex 2.4 2.46118 5.25
      vertex 2.4 3.6 1
      vertex 2.4 4.73878 5.25
    endloop
  endfacet
  facet normal 1 0 0
    outer loop
      vertex 2.4 3.6 1
      vertex 2.4 2.46118 5.25
      vertex 2.4 1.47496 1.5694
    endloop
  endfacet
  facet normal 0 0.965925 -0.258821
    outer loop
      vertex 18.4 1.47496 1.5694
      vertex 2.4 2.46118 5.25
      vertex 18.4 2.46118 5.25
    endloop
  endfacet
  facet normal 0 0.965925 -0.258821
    outer loop
      vertex 2.4 2.46118 5.25
      vertex 18.4 1.47496 1.5694
      vertex 2.4 1.47496 1.5694
    endloop
  endfacet
  facet normal 0 -0.965925 0.258822
    outer loop
      vertex 2.4 10.8 1
      vertex 18.4 11.9388 5.25
      vertex 2.4 11.9388 5.25
    endloop
  endfacet
  facet normal 0 -0.965925 0.258822
    outer loop
      vertex 18.4 11.9388 5.25
      vertex 2.4 10.8 1
      vertex 18.4 10.8 1
    endloop
  endfacet
  facet normal -1 0 0
    outer loop
      vertex 18.4 10.8 1
      vertex 18.4 9.66118 5.25
      vertex 18.4 11.9388 5.25
    endloop
  endfacet
  facet normal -1 0 -0
    outer loop
      vertex 18.4 9.66118 5.25
      vertex 18.4 10.8 1
      vertex 18.4 8.67496 1.5694
    endloop
  endfacet
  facet normal 1 -0 0
    outer loop
      vertex 2.4 9.66118 5.25
      vertex 2.4 10.8 1
      vertex 2.4 11.9388 5.25
    endloop
  endfacet
  facet normal 1 0 0
    outer loop
      vertex 2.4 10.8 1
      vertex 2.4 9.66118 5.25
      vertex 2.4 8.67496 1.5694
    endloop
  endfacet
  facet normal -0 0.258818 0.965926
    outer loop
      vertex 2.4 10.8 1
      vertex 18.4 8.67496 1.5694
      vertex 18.4 10.8 1
    endloop
  endfacet
  facet normal 0 0.258818 0.965926
    outer loop
      vertex 18.4 8.67496 1.5694
      vertex 2.4 10.8 1
      vertex 2.4 8.67496 1.5694
    endloop
  endfacet
  facet normal 0 0.965925 -0.258821
    outer loop
      vertex 18.4 8.67496 1.5694
      vertex 2.4 9.66118 5.25
      vertex 18.4 9.66118 5.25
    endloop
  endfacet
  facet normal 0 0.965925 -0.258821
    outer loop
      vertex 2.4 9.66118 5.25
      vertex 18.4 8.67496 1.5694
      vertex 2.4 8.67496 1.5694
    endloop
  endfacet
  facet normal -1 0 0
    outer loop
      vertex 0 0 0
      vertex 0 14.2 5.25
      vertex 0 14.2 0
    endloop
  endfacet
  facet normal -1 -0 0
    outer loop
      vertex 0 14.2 5.25
      vertex 0 0 0
      vertex 0 0 5.25
    endloop
  endfacet
  facet normal -0 0 1
    outer loop
      vertex 2.4 9.66118 5.25
      vertex 18.4 4.73878 5.25
      vertex 18.4 9.66118 5.25
    endloop
  endfacet
  facet normal 0 0 1
    outer loop
      vertex 18.4 4.73878 5.25
      vertex 2.4 9.66118 5.25
      vertex 2.4 4.73878 5.25
    endloop
  endfacet
  facet normal 0 0 1
    outer loop
      vertex 18.4 9.66118 5.25
      vertex 20.8 14.2 5.25
      vertex 18.4 11.9388 5.25
    endloop
  endfacet
  facet normal 0 0 1
    outer loop
      vertex 20.8 14.2 5.25
      vertex 2.4 11.9388 5.25
      vertex 18.4 11.9388 5.25
    endloop
  endfacet
  facet normal 0 0 1
    outer loop
      vertex 0 14.2 5.25
      vertex 2.4 9.66118 5.25
      vertex 2.4 11.9388 5.25
    endloop
  endfacet
  facet normal 0 0 1
    outer loop
      vertex 2.4 9.66118 5.25
      vertex 0 14.2 5.25
      vertex 2.4 4.73878 5.25
    endloop
  endfacet
  facet normal 0 0 1
    outer loop
      vertex 0 0 5.25
      vertex 2.4 4.73878 5.25
      vertex 0 14.2 5.25
    endloop
  endfacet
  facet normal -0 0 1
    outer loop
      vertex 0 14.2 5.25
      vertex 2.4 11.9388 5.25
      vertex 20.8 14.2 5.25
    endloop
  endfacet
  facet normal 0 0 1
    outer loop
      vertex 18.4 4.73878 5.25
      vertex 20.8 14.2 5.25
      vertex 18.4 9.66118 5.25
    endloop
  endfacet
  facet normal 0 0 1
    outer loop
      vertex 20.8 14.2 5.25
      vertex 18.4 4.73878 5.25
      vertex 20.8 0 5.25
    endloop
  endfacet
  facet normal -0 0 1
    outer loop
      vertex 18.4 2.46118 5.25
      vertex 20.8 0 5.25
      vertex 18.4 4.73878 5.25
    endloop
  endfacet
  facet normal -0 0 1
    outer loop
      vertex 2.4 2.46118 5.25
      vertex 20.8 0 5.25
      vertex 18.4 2.46118 5.25
    endloop
  endfacet
  facet normal 0 0 1
    outer loop
      vertex 2.4 2.46118 5.25
      vertex 0 0 5.25
      vertex 20.8 0 5.25
    endloop
  endfacet
  facet normal 0 0 1
    outer loop
      vertex 2.4 4.73878 5.25
      vertex 0 0 5.25
      vertex 2.4 2.46118 5.25
    endloop
  endfacet
  facet normal 1 -0 0
    outer loop
      vertex 20.8 0 5.25
      vertex 20.8 14.2 0
      vertex 20.8 14.2 5.25
    endloop
  endfacet
  facet normal 1 0 0
    outer loop
      vertex 20.8 14.2 0
      vertex 20.8 0 5.25
      vertex 20.8 0 0
    endloop
  endfacet
  facet normal 0 0 -1
    outer loop
      vertex 0 0 0
      vertex 20.8 14.2 0
      vertex 20.8 0 0
    endloop
  endfacet
  facet normal -0 0 -1
    outer loop
      vertex 20.8 14.2 0
      vertex 0 0 0
      vertex 0 14.2 0
    endloop
  endfacet
  facet normal 0 -1 0
    outer loop
      vertex 0 0 0
      vertex 20.8 0 5.25
      vertex 0 0 5.25
    endloop
  endfacet
  facet normal 0 -1 -0
    outer loop
      vertex 20.8 0 5.25
      vertex 0 0 0
      vertex 20.8 0 0
    endloop
  endfacet
  facet normal 0 1 -0
    outer loop
      vertex 20.8 14.2 0
      vertex 0 14.2 5.25
      vertex 20.8 14.2 5.25
    endloop
  endfacet
  facet normal 0 1 0
    outer loop
      vertex 0 14.2 5.25
      vertex 20.8 14.2 0
      vertex 0 14.2 0
    endloop
  endfacet
endsolid OpenSCAD_Model
