solid OpenSCAD_Model
  facet normal 0 0 -1
    outer loop
      vertex 8.00885 3.75 0
      vertex 8.90999 0.0887032 0
      vertex 8.55872 0.0499191 0
    endloop
  endfacet
  facet normal 0 0 -1
    outer loop
      vertex 9.95411 0.270927 0
      vertex 8.00885 3.75 0
      vertex 10.2978 0.353439 0
    endloop
  endfacet
  facet normal 0 0 -1
    outer loop
      vertex 9.25988 0.138496 0
      vertex 8.00885 3.75 0
      vertex 9.60804 0.199265 0
    endloop
  endfacet
  facet normal -0 0 -1
    outer loop
      vertex 9.95411 0.270927 0
      vertex 9.60804 0.199265 0
      vertex 8.00885 3.75 0
    endloop
  endfacet
  facet normal 0 0 -1
    outer loop
      vertex 10.6386 0.446686 0
      vertex 8.00885 3.75 0
      vertex 10.9764 0.55061 0
    endloop
  endfacet
  facet normal -0 0 -1
    outer loop
      vertex 10.6386 0.446686 0
      vertex 10.2978 0.353439 0
      vertex 8.00885 3.75 0
    endloop
  endfacet
  facet normal -0 0 -1
    outer loop
      vertex 9.25988 0.138496 0
      vertex 8.90999 0.0887032 0
      vertex 8.00885 3.75 0
    endloop
  endfacet
  facet normal -0 0 -1
    outer loop
      vertex 11.3108 0.665085 0
      vertex 10.9764 0.55061 0
      vertex 8.00885 3.75 0
    endloop
  endfacet
  facet normal 0 0 -1
    outer loop
      vertex 11.6414 0.790009 0
      vertex 8.00885 3.75 0
      vertex 11.9679 0.925255 0
    endloop
  endfacet
  facet normal -0 0 -1
    outer loop
      vertex 13.528 1.7513 0
      vertex 13.2267 1.56665 0
      vertex 8.00885 3.75 0
    endloop
  endfacet
  facet normal 0 0 -1
    outer loop
      vertex 12.29 1.07069 0
      vertex 8.00885 3.75 0
      vertex 12.6074 1.22617 0
    endloop
  endfacet
  facet normal -0 0 -1
    outer loop
      vertex 15 3.75 0
      vertex 13.528 1.7513 0
      vertex 8.00885 3.75 0
    endloop
  endfacet
  facet normal 0 0 -1
    outer loop
      vertex 12.9197 1.39154 0
      vertex 8.00885 3.75 0
      vertex 13.2267 1.56665 0
    endloop
  endfacet
  facet normal 0 0 -1
    outer loop
      vertex 8.00885 3.75 0
      vertex 12.9197 1.39154 0
      vertex 12.6074 1.22617 0
    endloop
  endfacet
  facet normal 0 0 -1
    outer loop
      vertex 11.9679 0.925255 0
      vertex 8.00885 3.75 0
      vertex 12.29 1.07069 0
    endloop
  endfacet
  facet normal -0 0 -1
    outer loop
      vertex 13.8234 1.94534 0
      vertex 13.528 1.7513 0
      vertex 15 3.75 0
    endloop
  endfacet
  facet normal -0 0 -1
    outer loop
      vertex 14.1126 2.14855 0
      vertex 13.8234 1.94534 0
      vertex 15 3.75 0
    endloop
  endfacet
  facet normal -0 0 -1
    outer loop
      vertex 14.3952 2.36076 0
      vertex 14.1126 2.14855 0
      vertex 15 3.75 0
    endloop
  endfacet
  facet normal -0 0 -1
    outer loop
      vertex 14.671 2.58172 0
      vertex 14.3952 2.36076 0
      vertex 15 3.75 0
    endloop
  endfacet
  facet normal -0 0 -1
    outer loop
      vertex 11.6414 0.790009 0
      vertex 11.3108 0.665085 0
      vertex 8.00885 3.75 0
    endloop
  endfacet
  facet normal -0 0 -1
    outer loop
      vertex 15 2.86606 0
      vertex 14.9398 2.81124 0
      vertex 15 3.75 0
    endloop
  endfacet
  facet normal 0 0 -1
    outer loop
      vertex 15 3.75 0
      vertex 14.9398 2.81124 0
      vertex 14.671 2.58172 0
    endloop
  endfacet
  facet normal 0 0 -1
    outer loop
      vertex 8.00885 3.75 0
      vertex 8.55872 0.0499191 0
      vertex 8.20639 0.0221901 0
    endloop
  endfacet
  facet normal 0 0 -1
    outer loop
      vertex 7.85337 0.00555038 0
      vertex 8.00885 3.75 0
      vertex 8.20639 0.0221901 0
    endloop
  endfacet
  facet normal -0 0 -1
    outer loop
      vertex 7.85337 0.00555038 0
      vertex 7.5 0 0
      vertex 8.00885 3.75 0
    endloop
  endfacet
  facet normal 0 0 -1
    outer loop
      vertex 6.44127 0.0499191 0
      vertex 6.09 0.0887032 0
      vertex 5.77336 3.75 0
    endloop
  endfacet
  facet normal -0 0 -1
    outer loop
      vertex 15.0625 14.2155 0
      vertex 8.00885 3.75 0
      vertex 11.7157 14.2155 0
    endloop
  endfacet
  facet normal -0 0 -1
    outer loop
      vertex 11.7157 14.2155 0
      vertex 2.93511 9.61082 0
      vertex 13.1567 23.6225 0
    endloop
  endfacet
  facet normal 0 0 -1
    outer loop
      vertex 11.7157 14.2155 0
      vertex 8.00885 3.75 0
      vertex 6.54727 9.61082 0
    endloop
  endfacet
  facet normal 0 0 -1
    outer loop
      vertex 0.0602303 2.81124 0
      vertex 0 2.86605 0
      vertex 0 3.75 0
    endloop
  endfacet
  facet normal 0 0 -1
    outer loop
      vertex 11.7157 14.2155 0
      vertex 6.54727 9.61082 0
      vertex 2.93511 9.61082 0
    endloop
  endfacet
  facet normal 0 0 -1
    outer loop
      vertex 8.00885 3.75 0
      vertex 5.77336 3.75 0
      vertex 6.54727 9.61082 0
    endloop
  endfacet
  facet normal 0 0 -1
    outer loop
      vertex 0.328972 2.58172 0
      vertex 0.0602303 2.81124 0
      vertex 0 3.75 0
    endloop
  endfacet
  facet normal 0 0 -1
    outer loop
      vertex 0.604786 2.36076 0
      vertex 0.328972 2.58172 0
      vertex 0 3.75 0
    endloop
  endfacet
  facet normal 0 0 -1
    outer loop
      vertex 0.887409 2.14855 0
      vertex 0.604786 2.36076 0
      vertex 0 3.75 0
    endloop
  endfacet
  facet normal 0 0 -1
    outer loop
      vertex 1.17656 1.94534 0
      vertex 0.887409 2.14855 0
      vertex 0 3.75 0
    endloop
  endfacet
  facet normal -0 0 -1
    outer loop
      vertex 5.77336 3.75 0
      vertex 1.17656 1.94534 0
      vertex 0 3.75 0
    endloop
  endfacet
  facet normal 0 0 -1
    outer loop
      vertex 5.77336 3.75 0
      vertex 1.47194 1.7513 0
      vertex 1.17656 1.94534 0
    endloop
  endfacet
  facet normal 0 0 -1
    outer loop
      vertex 5.77336 3.75 0
      vertex 1.77327 1.56665 0
      vertex 1.47194 1.7513 0
    endloop
  endfacet
  facet normal 0 0 -1
    outer loop
      vertex 5.77336 3.75 0
      vertex 2.08026 1.39154 0
      vertex 1.77327 1.56665 0
    endloop
  endfacet
  facet normal 0 0 -1
    outer loop
      vertex 5.77336 3.75 0
      vertex 2.3926 1.22617 0
      vertex 2.08026 1.39154 0
    endloop
  endfacet
  facet normal 0 0 -1
    outer loop
      vertex 5.77336 3.75 0
      vertex 2.70997 1.07069 0
      vertex 2.3926 1.22617 0
    endloop
  endfacet
  facet normal 0 0 -1
    outer loop
      vertex 5.77336 3.75 0
      vertex 3.03208 0.925255 0
      vertex 2.70997 1.07069 0
    endloop
  endfacet
  facet normal 0 0 -1
    outer loop
      vertex 5.77336 3.75 0
      vertex 3.35859 0.790009 0
      vertex 3.03208 0.925255 0
    endloop
  endfacet
  facet normal 0 0 -1
    outer loop
      vertex 5.77336 3.75 0
      vertex 3.6892 0.665085 0
      vertex 3.35859 0.790009 0
    endloop
  endfacet
  facet normal 0 0 -1
    outer loop
      vertex 5.77336 3.75 0
      vertex 4.02355 0.55061 0
      vertex 3.6892 0.665085 0
    endloop
  endfacet
  facet normal 0 0 -1
    outer loop
      vertex 5.77336 3.75 0
      vertex 4.36134 0.446686 0
      vertex 4.02355 0.55061 0
    endloop
  endfacet
  facet normal 0 0 -1
    outer loop
      vertex 5.77336 3.75 0
      vertex 4.70223 0.353439 0
      vertex 4.36134 0.446686 0
    endloop
  endfacet
  facet normal 0 0 -1
    outer loop
      vertex 5.77336 3.75 0
      vertex 5.04588 0.270927 0
      vertex 4.70223 0.353439 0
    endloop
  endfacet
  facet normal 0 0 -1
    outer loop
      vertex 5.77336 3.75 0
      vertex 5.39195 0.199265 0
      vertex 5.04588 0.270927 0
    endloop
  endfacet
  facet normal 0 0 -1
    outer loop
      vertex 5.77336 3.75 0
      vertex 5.7401 0.138496 0
      vertex 5.39195 0.199265 0
    endloop
  endfacet
  facet normal 0 -0 -1
    outer loop
      vertex 5.77336 3.75 0
      vertex 6.09 0.0887032 0
      vertex 5.7401 0.138496 0
    endloop
  endfacet
  facet normal 0 0 -1
    outer loop
      vertex 6.7936 0.0221901 0
      vertex 6.44127 0.0499191 0
      vertex 5.77336 3.75 0
    endloop
  endfacet
  facet normal -0 0 -1
    outer loop
      vertex 8.00885 3.75 0
      vertex 6.7936 0.0221901 0
      vertex 5.77336 3.75 0
    endloop
  endfacet
  facet normal 0 0 -1
    outer loop
      vertex 8.00885 3.75 0
      vertex 7.14662 0.00555038 0
      vertex 6.7936 0.0221901 0
    endloop
  endfacet
  facet normal 0 0 -1
    outer loop
      vertex 8.00885 3.75 0
      vertex 7.5 0 0
      vertex 7.14662 0.00555038 0
    endloop
  endfacet
  facet normal 0 -0 1
    outer loop
      vertex 8.55872 0.0499191 2
      vertex 8.90999 0.0887032 2
      vertex 8.00885 3.75 2
    endloop
  endfacet
  facet normal 0 0 1
    outer loop
      vertex 10.2978 0.353439 2
      vertex 8.00885 3.75 2
      vertex 9.95411 0.270927 2
    endloop
  endfacet
  facet normal 0 0 1
    outer loop
      vertex 9.60804 0.199265 2
      vertex 8.00885 3.75 2
      vertex 9.25988 0.138496 2
    endloop
  endfacet
  facet normal 0 0 1
    outer loop
      vertex 8.00885 3.75 2
      vertex 9.60804 0.199265 2
      vertex 9.95411 0.270927 2
    endloop
  endfacet
  facet normal 0 0 1
    outer loop
      vertex 10.9764 0.55061 2
      vertex 8.00885 3.75 2
      vertex 10.6386 0.446686 2
    endloop
  endfacet
  facet normal 0 0 1
    outer loop
      vertex 8.00885 3.75 2
      vertex 10.2978 0.353439 2
      vertex 10.6386 0.446686 2
    endloop
  endfacet
  facet normal 0 0 1
    outer loop
      vertex 8.00885 3.75 2
      vertex 8.90999 0.0887032 2
      vertex 9.25988 0.138496 2
    endloop
  endfacet
  facet normal 0 0 1
    outer loop
      vertex 8.00885 3.75 2
      vertex 10.9764 0.55061 2
      vertex 11.3108 0.665085 2
    endloop
  endfacet
  facet normal 0 0 1
    outer loop
      vertex 11.9679 0.925255 2
      vertex 8.00885 3.75 2
      vertex 11.6414 0.790009 2
    endloop
  endfacet
  facet normal 0 0 1
    outer loop
      vertex 8.00885 3.75 2
      vertex 13.2267 1.56665 2
      vertex 13.528 1.7513 2
    endloop
  endfacet
  facet normal 0 0 1
    outer loop
      vertex 12.6074 1.22617 2
      vertex 8.00885 3.75 2
      vertex 12.29 1.07069 2
    endloop
  endfacet
  facet normal -0 0 1
    outer loop
      vertex 8.00885 3.75 2
      vertex 13.528 1.7513 2
      vertex 15 3.75 2
    endloop
  endfacet
  facet normal 0 0 1
    outer loop
      vertex 13.2267 1.56665 2
      vertex 8.00885 3.75 2
      vertex 12.9197 1.39154 2
    endloop
  endfacet
  facet normal 0 -0 1
    outer loop
      vertex 12.6074 1.22617 2
      vertex 12.9197 1.39154 2
      vertex 8.00885 3.75 2
    endloop
  endfacet
  facet normal 0 0 1
    outer loop
      vertex 12.29 1.07069 2
      vertex 8.00885 3.75 2
      vertex 11.9679 0.925255 2
    endloop
  endfacet
  facet normal 0 0 1
    outer loop
      vertex 15 3.75 2
      vertex 13.528 1.7513 2
      vertex 13.8234 1.94534 2
    endloop
  endfacet
  facet normal 0 0 1
    outer loop
      vertex 15 3.75 2
      vertex 13.8234 1.94534 2
      vertex 14.1126 2.14855 2
    endloop
  endfacet
  facet normal 0 0 1
    outer loop
      vertex 15 3.75 2
      vertex 14.1126 2.14855 2
      vertex 14.3952 2.36076 2
    endloop
  endfacet
  facet normal 0 0 1
    outer loop
      vertex 15 3.75 2
      vertex 14.3952 2.36076 2
      vertex 14.671 2.58172 2
    endloop
  endfacet
  facet normal 0 0 1
    outer loop
      vertex 8.00885 3.75 2
      vertex 11.3108 0.665085 2
      vertex 11.6414 0.790009 2
    endloop
  endfacet
  facet normal 0 0 1
    outer loop
      vertex 15 3.75 2
      vertex 14.9398 2.81124 2
      vertex 15 2.86606 2
    endloop
  endfacet
  facet normal 0 0 1
    outer loop
      vertex 14.671 2.58172 2
      vertex 14.9398 2.81124 2
      vertex 15 3.75 2
    endloop
  endfacet
  facet normal 0 -0 1
    outer loop
      vertex 8.20639 0.0221901 2
      vertex 8.55872 0.0499191 2
      vertex 8.00885 3.75 2
    endloop
  endfacet
  facet normal 0 0 1
    outer loop
      vertex 8.20639 0.0221901 2
      vertex 8.00885 3.75 2
      vertex 7.85337 0.00555038 2
    endloop
  endfacet
  facet normal 0 0 1
    outer loop
      vertex 8.00885 3.75 2
      vertex 7.5 0 2
      vertex 7.85337 0.00555038 2
    endloop
  endfacet
  facet normal 0 0 1
    outer loop
      vertex 5.77336 3.75 2
      vertex 6.09 0.0887032 2
      vertex 6.44127 0.0499191 2
    endloop
  endfacet
  facet normal -0 0 1
    outer loop
      vertex 11.7157 14.2155 2
      vertex 8.00885 3.75 2
      vertex 15.0625 14.2155 2
    endloop
  endfacet
  facet normal 0 0 1
    outer loop
      vertex 13.1567 23.6225 2
      vertex 2.93511 9.61082 2
      vertex 11.7157 14.2155 2
    endloop
  endfacet
  facet normal -0 0 1
    outer loop
      vertex 6.54727 9.61082 2
      vertex 8.00885 3.75 2
      vertex 11.7157 14.2155 2
    endloop
  endfacet
  facet normal 0 0 1
    outer loop
      vertex 0 3.75 2
      vertex 0 2.86605 2
      vertex 0.0602303 2.81124 2
    endloop
  endfacet
  facet normal 0 0 1
    outer loop
      vertex 2.93511 9.61082 2
      vertex 6.54727 9.61082 2
      vertex 11.7157 14.2155 2
    endloop
  endfacet
  facet normal 0 0 1
    outer loop
      vertex 6.54727 9.61082 2
      vertex 5.77336 3.75 2
      vertex 8.00885 3.75 2
    endloop
  endfacet
  facet normal 0 0 1
    outer loop
      vertex 0 3.75 2
      vertex 0.0602303 2.81124 2
      vertex 0.328972 2.58172 2
    endloop
  endfacet
  facet normal 0 0 1
    outer loop
      vertex 0 3.75 2
      vertex 0.328972 2.58172 2
      vertex 0.604786 2.36076 2
    endloop
  endfacet
  facet normal 0 0 1
    outer loop
      vertex 0 3.75 2
      vertex 0.604786 2.36076 2
      vertex 0.887409 2.14855 2
    endloop
  endfacet
  facet normal 0 0 1
    outer loop
      vertex 0 3.75 2
      vertex 0.887409 2.14855 2
      vertex 1.17656 1.94534 2
    endloop
  endfacet
  facet normal -0 0 1
    outer loop
      vertex 0 3.75 2
      vertex 1.17656 1.94534 2
      vertex 5.77336 3.75 2
    endloop
  endfacet
  facet normal -0 0 1
    outer loop
      vertex 1.17656 1.94534 2
      vertex 1.47194 1.7513 2
      vertex 5.77336 3.75 2
    endloop
  endfacet
  facet normal -0 0 1
    outer loop
      vertex 1.47194 1.7513 2
      vertex 1.77327 1.56665 2
      vertex 5.77336 3.75 2
    endloop
  endfacet
  facet normal -0 0 1
    outer loop
      vertex 1.77327 1.56665 2
      vertex 2.08026 1.39154 2
      vertex 5.77336 3.75 2
    endloop
  endfacet
  facet normal -0 0 1
    outer loop
      vertex 2.08026 1.39154 2
      vertex 2.3926 1.22617 2
      vertex 5.77336 3.75 2
    endloop
  endfacet
  facet normal -0 0 1
    outer loop
      vertex 2.3926 1.22617 2
      vertex 2.70997 1.07069 2
      vertex 5.77336 3.75 2
    endloop
  endfacet
  facet normal -0 0 1
    outer loop
      vertex 2.70997 1.07069 2
      vertex 3.03208 0.925255 2
      vertex 5.77336 3.75 2
    endloop
  endfacet
  facet normal -0 0 1
    outer loop
      vertex 3.03208 0.925255 2
      vertex 3.35859 0.790009 2
      vertex 5.77336 3.75 2
    endloop
  endfacet
  facet normal -0 0 1
    outer loop
      vertex 3.35859 0.790009 2
      vertex 3.6892 0.665085 2
      vertex 5.77336 3.75 2
    endloop
  endfacet
  facet normal -0 0 1
    outer loop
      vertex 3.6892 0.665085 2
      vertex 4.02355 0.55061 2
      vertex 5.77336 3.75 2
    endloop
  endfacet
  facet normal -0 0 1
    outer loop
      vertex 4.02355 0.55061 2
      vertex 4.36134 0.446686 2
      vertex 5.77336 3.75 2
    endloop
  endfacet
  facet normal -0 0 1
    outer loop
      vertex 4.36134 0.446686 2
      vertex 4.70223 0.353439 2
      vertex 5.77336 3.75 2
    endloop
  endfacet
  facet normal -0 0 1
    outer loop
      vertex 4.70223 0.353439 2
      vertex 5.04588 0.270927 2
      vertex 5.77336 3.75 2
    endloop
  endfacet
  facet normal -0 0 1
    outer loop
      vertex 5.04588 0.270927 2
      vertex 5.39195 0.199265 2
      vertex 5.77336 3.75 2
    endloop
  endfacet
  facet normal -0 0 1
    outer loop
      vertex 5.39195 0.199265 2
      vertex 5.7401 0.138496 2
      vertex 5.77336 3.75 2
    endloop
  endfacet
  facet normal -0 0 1
    outer loop
      vertex 5.7401 0.138496 2
      vertex 6.09 0.0887032 2
      vertex 5.77336 3.75 2
    endloop
  endfacet
  facet normal 0 0 1
    outer loop
      vertex 5.77336 3.75 2
      vertex 6.44127 0.0499191 2
      vertex 6.7936 0.0221901 2
    endloop
  endfacet
  facet normal -0 0 1
    outer loop
      vertex 5.77336 3.75 2
      vertex 6.7936 0.0221901 2
      vertex 8.00885 3.75 2
    endloop
  endfacet
  facet normal -0 0 1
    outer loop
      vertex 6.7936 0.0221901 2
      vertex 7.14662 0.00555038 2
      vertex 8.00885 3.75 2
    endloop
  endfacet
  facet normal -0 0 1
    outer loop
      vertex 7.14662 0.00555038 2
      vertex 7.5 0 2
      vertex 8.00885 3.75 2
    endloop
  endfacet
  facet normal 0.0470831 -0.998891 0
    outer loop
      vertex 8.20639 0.0221901 0
      vertex 7.85337 0.00555038 2
      vertex 7.85337 0.00555038 0
    endloop
  endfacet
  facet normal 0.0470831 -0.998891 0
    outer loop
      vertex 8.20639 0.0221901 0
      vertex 8.20639 0.0221901 2
      vertex 7.85337 0.00555038 2
    endloop
  endfacet
  facet normal 0.0784592 -0.996917 0
    outer loop
      vertex 8.55872 0.0499191 0
      vertex 8.20639 0.0221901 2
      vertex 8.20639 0.0221901 0
    endloop
  endfacet
  facet normal 0.0784592 -0.996917 0
    outer loop
      vertex 8.55872 0.0499191 0
      vertex 8.55872 0.0499191 2
      vertex 8.20639 0.0221901 2
    endloop
  endfacet
  facet normal 0.109744 -0.99396 0
    outer loop
      vertex 8.90999 0.0887032 0
      vertex 8.55872 0.0499191 2
      vertex 8.55872 0.0499191 0
    endloop
  endfacet
  facet normal 0.109744 -0.99396 0
    outer loop
      vertex 8.90999 0.0887032 0
      vertex 8.90999 0.0887032 2
      vertex 8.55872 0.0499191 2
    endloop
  endfacet
  facet normal 0.14089 -0.990025 0
    outer loop
      vertex 9.25988 0.138496 0
      vertex 8.90999 0.0887032 2
      vertex 8.90999 0.0887032 0
    endloop
  endfacet
  facet normal 0.14089 -0.990025 0
    outer loop
      vertex 9.25988 0.138496 0
      vertex 9.25988 0.138496 2
      vertex 8.90999 0.0887032 2
    endloop
  endfacet
  facet normal 0.171944 -0.985107 0
    outer loop
      vertex 9.60804 0.199265 0
      vertex 9.25988 0.138496 2
      vertex 9.25988 0.138496 0
    endloop
  endfacet
  facet normal 0.171944 -0.985107 0
    outer loop
      vertex 9.60804 0.199265 0
      vertex 9.60804 0.199265 2
      vertex 9.25988 0.138496 2
    endloop
  endfacet
  facet normal 0.202772 -0.979226 0
    outer loop
      vertex 9.95411 0.270927 0
      vertex 9.60804 0.199265 2
      vertex 9.60804 0.199265 0
    endloop
  endfacet
  facet normal 0.202772 -0.979226 0
    outer loop
      vertex 9.95411 0.270927 0
      vertex 9.95411 0.270927 2
      vertex 9.60804 0.199265 2
    endloop
  endfacet
  facet normal 0.233444 -0.97237 0
    outer loop
      vertex 10.2978 0.353439 0
      vertex 9.95411 0.270927 2
      vertex 9.95411 0.270927 0
    endloop
  endfacet
  facet normal 0.233444 -0.97237 0
    outer loop
      vertex 10.2978 0.353439 0
      vertex 10.2978 0.353439 2
      vertex 9.95411 0.270927 2
    endloop
  endfacet
  facet normal 0.263912 -0.964547 0
    outer loop
      vertex 10.6386 0.446686 0
      vertex 10.2978 0.353439 2
      vertex 10.2978 0.353439 0
    endloop
  endfacet
  facet normal 0.263912 -0.964547 0
    outer loop
      vertex 10.6386 0.446686 0
      vertex 10.6386 0.446686 2
      vertex 10.2978 0.353439 2
    endloop
  endfacet
  facet normal 0.294048 -0.955791 0
    outer loop
      vertex 10.9764 0.55061 0
      vertex 10.6386 0.446686 2
      vertex 10.6386 0.446686 0
    endloop
  endfacet
  facet normal 0.294048 -0.955791 0
    outer loop
      vertex 10.9764 0.55061 0
      vertex 10.9764 0.55061 2
      vertex 10.6386 0.446686 2
    endloop
  endfacet
  facet normal 0.323878 -0.946099 0
    outer loop
      vertex 11.3108 0.665085 0
      vertex 10.9764 0.55061 2
      vertex 10.9764 0.55061 0
    endloop
  endfacet
  facet normal 0.323878 -0.946099 0
    outer loop
      vertex 11.3108 0.665085 0
      vertex 11.3108 0.665085 2
      vertex 10.9764 0.55061 2
    endloop
  endfacet
  facet normal 0.353477 -0.935443 0
    outer loop
      vertex 11.6414 0.790009 0
      vertex 11.3108 0.665085 2
      vertex 11.3108 0.665085 0
    endloop
  endfacet
  facet normal 0.353477 -0.935443 0
    outer loop
      vertex 11.6414 0.790009 0
      vertex 11.6414 0.790009 2
      vertex 11.3108 0.665085 2
    endloop
  endfacet
  facet normal 0.382696 -0.923874 0
    outer loop
      vertex 11.9679 0.925255 0
      vertex 11.6414 0.790009 2
      vertex 11.6414 0.790009 0
    endloop
  endfacet
  facet normal 0.382696 -0.923874 0
    outer loop
      vertex 11.9679 0.925255 0
      vertex 11.9679 0.925255 2
      vertex 11.6414 0.790009 2
    endloop
  endfacet
  facet normal 0.411517 -0.911402 0
    outer loop
      vertex 12.29 1.07069 0
      vertex 11.9679 0.925255 2
      vertex 11.9679 0.925255 0
    endloop
  endfacet
  facet normal 0.411517 -0.911402 0
    outer loop
      vertex 12.29 1.07069 0
      vertex 12.29 1.07069 2
      vertex 11.9679 0.925255 2
    endloop
  endfacet
  facet normal 0.43991 -0.898042 0
    outer loop
      vertex 12.6074 1.22617 0
      vertex 12.29 1.07069 2
      vertex 12.29 1.07069 0
    endloop
  endfacet
  facet normal 0.43991 -0.898042 0
    outer loop
      vertex 12.6074 1.22617 0
      vertex 12.6074 1.22617 2
      vertex 12.29 1.07069 2
    endloop
  endfacet
  facet normal 0.467964 -0.883747 0
    outer loop
      vertex 12.9197 1.39154 0
      vertex 12.6074 1.22617 2
      vertex 12.6074 1.22617 0
    endloop
  endfacet
  facet normal 0.467964 -0.883747 0
    outer loop
      vertex 12.9197 1.39154 0
      vertex 12.9197 1.39154 2
      vertex 12.6074 1.22617 2
    endloop
  endfacet
  facet normal 0.495459 -0.868631 0
    outer loop
      vertex 13.2267 1.56665 0
      vertex 12.9197 1.39154 2
      vertex 12.9197 1.39154 0
    endloop
  endfacet
  facet normal 0.495459 -0.868631 0
    outer loop
      vertex 13.2267 1.56665 0
      vertex 13.2267 1.56665 2
      vertex 12.9197 1.39154 2
    endloop
  endfacet
  facet normal 0.522526 -0.852624 0
    outer loop
      vertex 13.528 1.7513 0
      vertex 13.2267 1.56665 2
      vertex 13.2267 1.56665 0
    endloop
  endfacet
  facet normal 0.522526 -0.852624 0
    outer loop
      vertex 13.528 1.7513 0
      vertex 13.528 1.7513 2
      vertex 13.2267 1.56665 2
    endloop
  endfacet
  facet normal 0.54902 -0.835809 0
    outer loop
      vertex 13.8234 1.94534 0
      vertex 13.528 1.7513 2
      vertex 13.528 1.7513 0
    endloop
  endfacet
  facet normal 0.54902 -0.835809 0
    outer loop
      vertex 13.8234 1.94534 0
      vertex 13.8234 1.94534 2
      vertex 13.528 1.7513 2
    endloop
  endfacet
  facet normal 0.574924 -0.818207 0
    outer loop
      vertex 14.1126 2.14855 0
      vertex 13.8234 1.94534 2
      vertex 13.8234 1.94534 0
    endloop
  endfacet
  facet normal 0.574924 -0.818207 0
    outer loop
      vertex 14.1126 2.14855 0
      vertex 14.1126 2.14855 2
      vertex 13.8234 1.94534 2
    endloop
  endfacet
  facet normal 0.600471 -0.799647 0
    outer loop
      vertex 14.3952 2.36076 0
      vertex 14.1126 2.14855 2
      vertex 14.1126 2.14855 0
    endloop
  endfacet
  facet normal 0.600471 -0.799647 0
    outer loop
      vertex 14.3952 2.36076 0
      vertex 14.3952 2.36076 2
      vertex 14.1126 2.14855 2
    endloop
  endfacet
  facet normal 0.625247 -0.780427 0
    outer loop
      vertex 14.671 2.58172 0
      vertex 14.3952 2.36076 2
      vertex 14.3952 2.36076 0
    endloop
  endfacet
  facet normal 0.625247 -0.780427 0
    outer loop
      vertex 14.671 2.58172 0
      vertex 14.671 2.58172 2
      vertex 14.3952 2.36076 2
    endloop
  endfacet
  facet normal 0.649355 -0.760485 0
    outer loop
      vertex 14.9398 2.81124 0
      vertex 14.671 2.58172 2
      vertex 14.671 2.58172 0
    endloop
  endfacet
  facet normal 0.649355 -0.760485 0
    outer loop
      vertex 14.9398 2.81124 0
      vertex 14.9398 2.81124 2
      vertex 14.671 2.58172 2
    endloop
  endfacet
  facet normal 0.673296 -0.739373 0
    outer loop
      vertex 15 2.86606 0
      vertex 14.9398 2.81124 2
      vertex 14.9398 2.81124 0
    endloop
  endfacet
  facet normal 0.673296 -0.739373 0
    outer loop
      vertex 15 2.86606 0
      vertex 15 2.86606 2
      vertex 14.9398 2.81124 2
    endloop
  endfacet
  facet normal 1 0 0
    outer loop
      vertex 15 3.75 0
      vertex 15 2.86606 2
      vertex 15 2.86606 0
    endloop
  endfacet
  facet normal 1 0 -0
    outer loop
      vertex 15 3.75 0
      vertex 15 3.75 2
      vertex 15 2.86606 2
    endloop
  endfacet
  facet normal 0 1 0
    outer loop
      vertex 8.00885 3.75 0
      vertex 15 3.75 2
      vertex 15 3.75 0
    endloop
  endfacet
  facet normal 0 1 0
    outer loop
      vertex 8.00885 3.75 0
      vertex 8.00885 3.75 2
      vertex 15 3.75 2
    endloop
  endfacet
  facet normal 0.829237 -0.558898 0
    outer loop
      vertex 15.0625 14.2155 0
      vertex 8.00885 3.75 2
      vertex 8.00885 3.75 0
    endloop
  endfacet
  facet normal 0.829237 -0.558898 0
    outer loop
      vertex 15.0625 14.2155 0
      vertex 15.0625 14.2155 2
      vertex 8.00885 3.75 2
    endloop
  endfacet
  facet normal 0 1 0
    outer loop
      vertex 11.7157 14.2155 0
      vertex 15.0625 14.2155 2
      vertex 15.0625 14.2155 0
    endloop
  endfacet
  facet normal 0 1 0
    outer loop
      vertex 11.7157 14.2155 0
      vertex 11.7157 14.2155 2
      vertex 15.0625 14.2155 2
    endloop
  endfacet
  facet normal 0.98847 -0.151418 0
    outer loop
      vertex 13.1567 23.6225 0
      vertex 11.7157 14.2155 2
      vertex 11.7157 14.2155 0
    endloop
  endfacet
  facet normal 0.98847 -0.151418 0
    outer loop
      vertex 13.1567 23.6225 0
      vertex 13.1567 23.6225 2
      vertex 11.7157 14.2155 2
    endloop
  endfacet
  facet normal -0.807877 0.589351 0
    outer loop
      vertex 2.93511 9.61082 0
      vertex 13.1567 23.6225 2
      vertex 13.1567 23.6225 0
    endloop
  endfacet
  facet normal -0.807877 0.589351 0
    outer loop
      vertex 2.93511 9.61082 0
      vertex 2.93511 9.61082 2
      vertex 13.1567 23.6225 2
    endloop
  endfacet
  facet normal 0 -1 0
    outer loop
      vertex 6.54727 9.61082 0
      vertex 2.93511 9.61082 2
      vertex 2.93511 9.61082 0
    endloop
  endfacet
  facet normal 0 -1 0
    outer loop
      vertex 6.54727 9.61082 0
      vertex 6.54727 9.61082 2
      vertex 2.93511 9.61082 2
    endloop
  endfacet
  facet normal -0.991394 0.130912 0
    outer loop
      vertex 5.77336 3.75 0
      vertex 6.54727 9.61082 2
      vertex 6.54727 9.61082 0
    endloop
  endfacet
  facet normal -0.991394 0.130912 0
    outer loop
      vertex 5.77336 3.75 0
      vertex 5.77336 3.75 2
      vertex 6.54727 9.61082 2
    endloop
  endfacet
  facet normal 0 1 0
    outer loop
      vertex 0 3.75 0
      vertex 5.77336 3.75 2
      vertex 5.77336 3.75 0
    endloop
  endfacet
  facet normal 0 1 0
    outer loop
      vertex 0 3.75 0
      vertex 0 3.75 2
      vertex 5.77336 3.75 2
    endloop
  endfacet
  facet normal -1 0 0
    outer loop
      vertex 0 2.86605 0
      vertex 0 3.75 2
      vertex 0 3.75 0
    endloop
  endfacet
  facet normal -1 0 0
    outer loop
      vertex 0 2.86605 0
      vertex 0 2.86605 2
      vertex 0 3.75 2
    endloop
  endfacet
  facet normal -0.673044 -0.739603 0
    outer loop
      vertex 0.0602303 2.81124 0
      vertex 0 2.86605 2
      vertex 0 2.86605 0
    endloop
  endfacet
  facet normal -0.673044 -0.739603 0
    outer loop
      vertex 0.0602303 2.81124 0
      vertex 0.0602303 2.81124 2
      vertex 0 2.86605 2
    endloop
  endfacet
  facet normal -0.649436 -0.760416 0
    outer loop
      vertex 0.328972 2.58172 0
      vertex 0.0602303 2.81124 2
      vertex 0.0602303 2.81124 0
    endloop
  endfacet
  facet normal -0.649436 -0.760416 0
    outer loop
      vertex 0.328972 2.58172 0
      vertex 0.328972 2.58172 2
      vertex 0.0602303 2.81124 2
    endloop
  endfacet
  facet normal -0.625228 -0.780442 0
    outer loop
      vertex 0.604786 2.36076 0
      vertex 0.328972 2.58172 2
      vertex 0.328972 2.58172 0
    endloop
  endfacet
  facet normal -0.625228 -0.780442 0
    outer loop
      vertex 0.604786 2.36076 0
      vertex 0.604786 2.36076 2
      vertex 0.328972 2.58172 2
    endloop
  endfacet
  facet normal -0.600439 -0.79967 0
    outer loop
      vertex 0.887409 2.14855 0
      vertex 0.604786 2.36076 2
      vertex 0.604786 2.36076 0
    endloop
  endfacet
  facet normal -0.600439 -0.79967 0
    outer loop
      vertex 0.887409 2.14855 0
      vertex 0.887409 2.14855 2
      vertex 0.604786 2.36076 2
    endloop
  endfacet
  facet normal -0.574989 -0.818161 0
    outer loop
      vertex 1.17656 1.94534 0
      vertex 0.887409 2.14855 2
      vertex 0.887409 2.14855 0
    endloop
  endfacet
  facet normal -0.574989 -0.818161 0
    outer loop
      vertex 1.17656 1.94534 0
      vertex 1.17656 1.94534 2
      vertex 0.887409 2.14855 2
    endloop
  endfacet
  facet normal -0.549046 -0.835792 0
    outer loop
      vertex 1.47194 1.7513 0
      vertex 1.17656 1.94534 2
      vertex 1.17656 1.94534 0
    endloop
  endfacet
  facet normal -0.549046 -0.835792 0
    outer loop
      vertex 1.47194 1.7513 0
      vertex 1.47194 1.7513 2
      vertex 1.17656 1.94534 2
    endloop
  endfacet
  facet normal -0.522488 -0.852647 0
    outer loop
      vertex 1.77327 1.56665 0
      vertex 1.47194 1.7513 2
      vertex 1.47194 1.7513 0
    endloop
  endfacet
  facet normal -0.522488 -0.852647 0
    outer loop
      vertex 1.77327 1.56665 0
      vertex 1.77327 1.56665 2
      vertex 1.47194 1.7513 2
    endloop
  endfacet
  facet normal -0.495471 -0.868624 0
    outer loop
      vertex 2.08026 1.39154 0
      vertex 1.77327 1.56665 2
      vertex 1.77327 1.56665 0
    endloop
  endfacet
  facet normal -0.495471 -0.868624 0
    outer loop
      vertex 2.08026 1.39154 0
      vertex 2.08026 1.39154 2
      vertex 1.77327 1.56665 2
    endloop
  endfacet
  facet normal -0.467918 -0.883772 0
    outer loop
      vertex 2.3926 1.22617 0
      vertex 2.08026 1.39154 2
      vertex 2.08026 1.39154 0
    endloop
  endfacet
  facet normal -0.467918 -0.883772 0
    outer loop
      vertex 2.3926 1.22617 0
      vertex 2.3926 1.22617 2
      vertex 2.08026 1.39154 2
    endloop
  endfacet
  facet normal -0.439944 -0.898025 0
    outer loop
      vertex 2.70997 1.07069 0
      vertex 2.3926 1.22617 2
      vertex 2.3926 1.22617 0
    endloop
  endfacet
  facet normal -0.439944 -0.898025 0
    outer loop
      vertex 2.70997 1.07069 0
      vertex 2.70997 1.07069 2
      vertex 2.3926 1.22617 2
    endloop
  endfacet
  facet normal -0.411507 -0.911407 0
    outer loop
      vertex 3.03208 0.925255 0
      vertex 2.70997 1.07069 2
      vertex 2.70997 1.07069 0
    endloop
  endfacet
  facet normal -0.411507 -0.911407 0
    outer loop
      vertex 3.03208 0.925255 0
      vertex 3.03208 0.925255 2
      vertex 2.70997 1.07069 2
    endloop
  endfacet
  facet normal -0.382686 -0.923878 0
    outer loop
      vertex 3.35859 0.790009 0
      vertex 3.03208 0.925255 2
      vertex 3.03208 0.925255 0
    endloop
  endfacet
  facet normal -0.382686 -0.923878 0
    outer loop
      vertex 3.35859 0.790009 0
      vertex 3.35859 0.790009 2
      vertex 3.03208 0.925255 2
    endloop
  endfacet
  facet normal -0.353467 -0.935447 0
    outer loop
      vertex 3.6892 0.665085 0
      vertex 3.35859 0.790009 2
      vertex 3.35859 0.790009 0
    endloop
  endfacet
  facet normal -0.353467 -0.935447 0
    outer loop
      vertex 3.6892 0.665085 0
      vertex 3.6892 0.665085 2
      vertex 3.35859 0.790009 2
    endloop
  endfacet
  facet normal -0.323921 -0.946084 0
    outer loop
      vertex 4.02355 0.55061 0
      vertex 3.6892 0.665085 2
      vertex 3.6892 0.665085 0
    endloop
  endfacet
  facet normal -0.323921 -0.946084 0
    outer loop
      vertex 4.02355 0.55061 0
      vertex 4.02355 0.55061 2
      vertex 3.6892 0.665085 2
    endloop
  endfacet
  facet normal -0.294056 -0.955788 0
    outer loop
      vertex 4.36134 0.446686 0
      vertex 4.02355 0.55061 2
      vertex 4.02355 0.55061 0
    endloop
  endfacet
  facet normal -0.294056 -0.955788 0
    outer loop
      vertex 4.36134 0.446686 0
      vertex 4.36134 0.446686 2
      vertex 4.02355 0.55061 2
    endloop
  endfacet
  facet normal -0.263847 -0.964565 0
    outer loop
      vertex 4.70223 0.353439 0
      vertex 4.36134 0.446686 2
      vertex 4.36134 0.446686 0
    endloop
  endfacet
  facet normal -0.263847 -0.964565 0
    outer loop
      vertex 4.70223 0.353439 0
      vertex 4.70223 0.353439 2
      vertex 4.36134 0.446686 2
    endloop
  endfacet
  facet normal -0.233469 -0.972364 0
    outer loop
      vertex 5.04588 0.270927 0
      vertex 4.70223 0.353439 2
      vertex 4.70223 0.353439 0
    endloop
  endfacet
  facet normal -0.233469 -0.972364 0
    outer loop
      vertex 5.04588 0.270927 0
      vertex 5.04588 0.270927 2
      vertex 4.70223 0.353439 2
    endloop
  endfacet
  facet normal -0.202772 -0.979226 0
    outer loop
      vertex 5.39195 0.199265 0
      vertex 5.04588 0.270927 2
      vertex 5.04588 0.270927 0
    endloop
  endfacet
  facet normal -0.202772 -0.979226 0
    outer loop
      vertex 5.39195 0.199265 0
      vertex 5.39195 0.199265 2
      vertex 5.04588 0.270927 2
    endloop
  endfacet
  facet normal -0.171949 -0.985106 0
    outer loop
      vertex 5.7401 0.138496 0
      vertex 5.39195 0.199265 2
      vertex 5.39195 0.199265 0
    endloop
  endfacet
  facet normal -0.171949 -0.985106 0
    outer loop
      vertex 5.7401 0.138496 0
      vertex 5.7401 0.138496 2
      vertex 5.39195 0.199265 2
    endloop
  endfacet
  facet normal -0.140886 -0.990026 0
    outer loop
      vertex 6.09 0.0887032 0
      vertex 5.7401 0.138496 2
      vertex 5.7401 0.138496 0
    endloop
  endfacet
  facet normal -0.140886 -0.990026 0
    outer loop
      vertex 6.09 0.0887032 0
      vertex 6.09 0.0887032 2
      vertex 5.7401 0.138496 2
    endloop
  endfacet
  facet normal -0.109744 -0.99396 0
    outer loop
      vertex 6.44127 0.0499191 0
      vertex 6.09 0.0887032 2
      vertex 6.09 0.0887032 0
    endloop
  endfacet
  facet normal -0.109744 -0.99396 0
    outer loop
      vertex 6.44127 0.0499191 0
      vertex 6.44127 0.0499191 2
      vertex 6.09 0.0887032 2
    endloop
  endfacet
  facet normal -0.0784592 -0.996917 0
    outer loop
      vertex 6.7936 0.0221901 0
      vertex 6.44127 0.0499191 2
      vertex 6.44127 0.0499191 0
    endloop
  endfacet
  facet normal -0.0784592 -0.996917 0
    outer loop
      vertex 6.7936 0.0221901 0
      vertex 6.7936 0.0221901 2
      vertex 6.44127 0.0499191 2
    endloop
  endfacet
  facet normal -0.0470831 -0.998891 0
    outer loop
      vertex 7.14662 0.00555038 0
      vertex 6.7936 0.0221901 2
      vertex 6.7936 0.0221901 0
    endloop
  endfacet
  facet normal -0.0470831 -0.998891 0
    outer loop
      vertex 7.14662 0.00555038 0
      vertex 7.14662 0.00555038 2
      vertex 6.7936 0.0221901 2
    endloop
  endfacet
  facet normal -0.0157046 -0.999877 0
    outer loop
      vertex 7.5 0 0
      vertex 7.14662 0.00555038 2
      vertex 7.14662 0.00555038 0
    endloop
  endfacet
  facet normal -0.0157046 -0.999877 0
    outer loop
      vertex 7.5 0 0
      vertex 7.5 0 2
      vertex 7.14662 0.00555038 2
    endloop
  endfacet
  facet normal 0.0157051 -0.999877 0
    outer loop
      vertex 7.85337 0.00555038 0
      vertex 7.5 0 2
      vertex 7.5 0 0
    endloop
  endfacet
  facet normal 0.0157051 -0.999877 0
    outer loop
      vertex 7.85337 0.00555038 0
      vertex 7.85337 0.00555038 2
      vertex 7.5 0 2
    endloop
  endfacet
endsolid OpenSCAD_Model
