solid OpenSCAD_Model
  facet normal 0 0 -1
    outer loop
      vertex 7.69781 5 0
      vertex 8.58836 0.0665588 0
      vertex 8.12 0.118271 0
    endloop
  endfacet
  facet normal 0 -0 -1
    outer loop
      vertex 8.72969 12.8144 0
      vertex 10.6785 5 0
      vertex 7.69781 5 0
    endloop
  endfacet
  facet normal 0 0 -1
    outer loop
      vertex 9.05814 0.0295868 0
      vertex 7.69781 5 0
      vertex 10.6785 5 0
    endloop
  endfacet
  facet normal 0 0 -1
    outer loop
      vertex 9.52882 0.00740051 0
      vertex 9.05814 0.0295868 0
      vertex 10.6785 5 0
    endloop
  endfacet
  facet normal 0 0 -1
    outer loop
      vertex 10 0 0
      vertex 9.52882 0.00740051 0
      vertex 10.6785 5 0
    endloop
  endfacet
  facet normal -0 0 -1
    outer loop
      vertex 10.4712 0.00740051 0
      vertex 10 0 0
      vertex 10.6785 5 0
    endloop
  endfacet
  facet normal -0 0 -1
    outer loop
      vertex 10.9418 0.0295868 0
      vertex 10.4712 0.00740051 0
      vertex 10.6785 5 0
    endloop
  endfacet
  facet normal -0 0 -1
    outer loop
      vertex 11.4116 0.0665588 0
      vertex 10.9418 0.0295868 0
      vertex 10.6785 5 0
    endloop
  endfacet
  facet normal -0 0 -1
    outer loop
      vertex 11.88 0.118271 0
      vertex 11.4116 0.0665588 0
      vertex 10.6785 5 0
    endloop
  endfacet
  facet normal -0 0 -1
    outer loop
      vertex 12.3465 0.184662 0
      vertex 11.88 0.118271 0
      vertex 10.6785 5 0
    endloop
  endfacet
  facet normal -0 0 -1
    outer loop
      vertex 12.8107 0.265686 0
      vertex 12.3465 0.184662 0
      vertex 10.6785 5 0
    endloop
  endfacet
  facet normal -0 0 -1
    outer loop
      vertex 13.2721 0.361237 0
      vertex 12.8107 0.265686 0
      vertex 10.6785 5 0
    endloop
  endfacet
  facet normal -0 0 -1
    outer loop
      vertex 13.7303 0.471252 0
      vertex 13.2721 0.361237 0
      vertex 10.6785 5 0
    endloop
  endfacet
  facet normal -0 0 -1
    outer loop
      vertex 14.1849 0.595581 0
      vertex 13.7303 0.471252 0
      vertex 10.6785 5 0
    endloop
  endfacet
  facet normal 0 0 -1
    outer loop
      vertex 14.6353 0.734146 0
      vertex 10.6785 5 0
      vertex 15.0811 0.88678 0
    endloop
  endfacet
  facet normal -0 0 -1
    outer loop
      vertex 14.6353 0.734146 0
      vertex 14.1849 0.595581 0
      vertex 10.6785 5 0
    endloop
  endfacet
  facet normal 0 0 -1
    outer loop
      vertex 15.5219 1.05334 0
      vertex 10.6785 5 0
      vertex 15.9572 1.23367 0
    endloop
  endfacet
  facet normal 0 0 -1
    outer loop
      vertex 15.9572 1.23367 0
      vertex 10.6785 5 0
      vertex 16.3867 1.42758 0
    endloop
  endfacet
  facet normal 0 0 -1
    outer loop
      vertex 16.3867 1.42758 0
      vertex 10.6785 5 0
      vertex 16.8098 1.63489 0
    endloop
  endfacet
  facet normal 0 0 -1
    outer loop
      vertex 16.8098 1.63489 0
      vertex 10.6785 5 0
      vertex 17.2263 1.85539 0
    endloop
  endfacet
  facet normal 0 0 -1
    outer loop
      vertex 17.2263 1.85539 0
      vertex 10.6785 5 0
      vertex 17.6356 2.08887 0
    endloop
  endfacet
  facet normal 0 0 -1
    outer loop
      vertex 17.6356 2.08887 0
      vertex 10.6785 5 0
      vertex 18.0374 2.33507 0
    endloop
  endfacet
  facet normal 0 0 -1
    outer loop
      vertex 18.0374 2.33507 0
      vertex 10.6785 5 0
      vertex 20 5 0
    endloop
  endfacet
  facet normal 0 0 -1
    outer loop
      vertex 18.4312 2.59378 0
      vertex 20 5 0
      vertex 18.8168 2.86473 0
    endloop
  endfacet
  facet normal -0 0 -1
    outer loop
      vertex 18.4312 2.59378 0
      vertex 18.0374 2.33507 0
      vertex 20 5 0
    endloop
  endfacet
  facet normal 0 0 -1
    outer loop
      vertex 19.1936 3.14767 0
      vertex 20 5 0
      vertex 19.5614 3.44229 0
    endloop
  endfacet
  facet normal -0 0 -1
    outer loop
      vertex 19.1936 3.14767 0
      vertex 18.8168 2.86473 0
      vertex 20 5 0
    endloop
  endfacet
  facet normal -0 0 -1
    outer loop
      vertex 19.9197 3.74832 0
      vertex 19.5614 3.44229 0
      vertex 20 5 0
    endloop
  endfacet
  facet normal -0 0 -1
    outer loop
      vertex 20 3.82141 0
      vertex 19.9197 3.74832 0
      vertex 20 5 0
    endloop
  endfacet
  facet normal -0 0 -1
    outer loop
      vertex 15.5219 1.05334 0
      vertex 15.0811 0.88678 0
      vertex 10.6785 5 0
    endloop
  endfacet
  facet normal 0 0 -1
    outer loop
      vertex 9.05814 0.0295868 0
      vertex 8.58836 0.0665588 0
      vertex 7.69781 5 0
    endloop
  endfacet
  facet normal 0 -0 -1
    outer loop
      vertex 7.69781 5 0
      vertex 8.12 0.118271 0
      vertex 7.65347 0.184662 0
    endloop
  endfacet
  facet normal 0 0 -1
    outer loop
      vertex 10.6785 5 0
      vertex 15.6209 18.954 0
      vertex 20.0833 18.954 0
    endloop
  endfacet
  facet normal 0 0 -1
    outer loop
      vertex 3.91348 12.8144 0
      vertex 17.5422 31.4967 0
      vertex 15.6209 18.954 0
    endloop
  endfacet
  facet normal 0 0 -1
    outer loop
      vertex 0 5 0
      vertex 0.080307 3.74832 0
      vertex 0 3.8214 0
    endloop
  endfacet
  facet normal 0 0 -1
    outer loop
      vertex 10.6785 5 0
      vertex 8.72969 12.8144 0
      vertex 15.6209 18.954 0
    endloop
  endfacet
  facet normal 0 0 -1
    outer loop
      vertex 8.72969 12.8144 0
      vertex 3.91348 12.8144 0
      vertex 15.6209 18.954 0
    endloop
  endfacet
  facet normal 0 0 -1
    outer loop
      vertex 7.69781 5 0
      vertex 7.65347 0.184662 0
      vertex 7.45621 0.219101 0
    endloop
  endfacet
  facet normal 0 0 -1
    outer loop
      vertex 0 5 0
      vertex 0.438629 3.44229 0
      vertex 0.080307 3.74832 0
    endloop
  endfacet
  facet normal 0 0 -1
    outer loop
      vertex 0 5 0
      vertex 0.806381 3.14767 0
      vertex 0.438629 3.44229 0
    endloop
  endfacet
  facet normal 0 0 -1
    outer loop
      vertex 0 5 0
      vertex 1.18321 2.86473 0
      vertex 0.806381 3.14767 0
    endloop
  endfacet
  facet normal 0 0 -1
    outer loop
      vertex 0 5 0
      vertex 1.56874 2.59378 0
      vertex 1.18321 2.86473 0
    endloop
  endfacet
  facet normal 0 0 -1
    outer loop
      vertex 0 5 0
      vertex 7.69781 5 0
      vertex 1.56874 2.59378 0
    endloop
  endfacet
  facet normal 0 0 -1
    outer loop
      vertex 1.56874 2.59378 0
      vertex 7.69781 5 0
      vertex 1.96259 2.33507 0
    endloop
  endfacet
  facet normal 0 0 -1
    outer loop
      vertex 1.96259 2.33507 0
      vertex 7.69781 5 0
      vertex 2.36436 2.08887 0
    endloop
  endfacet
  facet normal 0 0 -1
    outer loop
      vertex 2.36436 2.08887 0
      vertex 7.69781 5 0
      vertex 2.77368 1.85539 0
    endloop
  endfacet
  facet normal 0 0 -1
    outer loop
      vertex 2.77368 1.85539 0
      vertex 7.69781 5 0
      vertex 3.19014 1.63489 0
    endloop
  endfacet
  facet normal 0 0 -1
    outer loop
      vertex 3.19014 1.63489 0
      vertex 7.69781 5 0
      vertex 3.6133 1.42758 0
    endloop
  endfacet
  facet normal 0 0 -1
    outer loop
      vertex 3.6133 1.42758 0
      vertex 7.69781 5 0
      vertex 4.04277 1.23367 0
    endloop
  endfacet
  facet normal 0 0 -1
    outer loop
      vertex 4.04277 1.23367 0
      vertex 7.69781 5 0
      vertex 4.47812 1.05334 0
    endloop
  endfacet
  facet normal 0 0 -1
    outer loop
      vertex 4.47812 1.05334 0
      vertex 7.69781 5 0
      vertex 4.91893 0.88678 0
    endloop
  endfacet
  facet normal 0 0 -1
    outer loop
      vertex 4.91893 0.88678 0
      vertex 7.69781 5 0
      vertex 5.36473 0.734146 0
    endloop
  endfacet
  facet normal 0 0 -1
    outer loop
      vertex 5.36473 0.734146 0
      vertex 7.69781 5 0
      vertex 5.81512 0.595581 0
    endloop
  endfacet
  facet normal 0 0 -1
    outer loop
      vertex 5.81512 0.595581 0
      vertex 7.69781 5 0
      vertex 6.26964 0.471252 0
    endloop
  endfacet
  facet normal 0 0 -1
    outer loop
      vertex 6.26964 0.471252 0
      vertex 7.69781 5 0
      vertex 6.72784 0.361237 0
    endloop
  endfacet
  facet normal 0 0 -1
    outer loop
      vertex 6.72784 0.361237 0
      vertex 7.69781 5 0
      vertex 7.07576 0.2892 0
    endloop
  endfacet
  facet normal 0 0 -1
    outer loop
      vertex 6.97154 -0.5 0
      vertex 7.07576 0.2892 0
      vertex 7.45621 0.219101 0
    endloop
  endfacet
  facet normal 0 0 -1
    outer loop
      vertex 7.07576 0.2892 0
      vertex 7.69781 5 0
      vertex 7.45621 0.219101 0
    endloop
  endfacet
  facet normal -0 -0 1
    outer loop
      vertex 8.12 0.118271 2
      vertex 8.58836 0.0665588 2
      vertex 7.69781 5 2
    endloop
  endfacet
  facet normal 0 0 1
    outer loop
      vertex 7.69781 5 2
      vertex 10.6785 5 2
      vertex 8.72969 12.8144 2
    endloop
  endfacet
  facet normal 0 0 1
    outer loop
      vertex 10.6785 5 2
      vertex 7.69781 5 2
      vertex 9.05814 0.0295868 2
    endloop
  endfacet
  facet normal 0 0 1
    outer loop
      vertex 10.6785 5 2
      vertex 9.05814 0.0295868 2
      vertex 9.52882 0.00740051 2
    endloop
  endfacet
  facet normal 0 0 1
    outer loop
      vertex 10.6785 5 2
      vertex 9.52882 0.00740051 2
      vertex 10 0 2
    endloop
  endfacet
  facet normal 0 0 1
    outer loop
      vertex 10.6785 5 2
      vertex 10 0 2
      vertex 10.4712 0.00740051 2
    endloop
  endfacet
  facet normal 0 0 1
    outer loop
      vertex 10.6785 5 2
      vertex 10.4712 0.00740051 2
      vertex 10.9418 0.0295868 2
    endloop
  endfacet
  facet normal 0 0 1
    outer loop
      vertex 10.6785 5 2
      vertex 10.9418 0.0295868 2
      vertex 11.4116 0.0665588 2
    endloop
  endfacet
  facet normal 0 0 1
    outer loop
      vertex 10.6785 5 2
      vertex 11.4116 0.0665588 2
      vertex 11.88 0.118271 2
    endloop
  endfacet
  facet normal 0 0 1
    outer loop
      vertex 10.6785 5 2
      vertex 11.88 0.118271 2
      vertex 12.3465 0.184662 2
    endloop
  endfacet
  facet normal 0 0 1
    outer loop
      vertex 10.6785 5 2
      vertex 12.3465 0.184662 2
      vertex 12.8107 0.265686 2
    endloop
  endfacet
  facet normal 0 0 1
    outer loop
      vertex 10.6785 5 2
      vertex 12.8107 0.265686 2
      vertex 13.2721 0.361237 2
    endloop
  endfacet
  facet normal 0 0 1
    outer loop
      vertex 10.6785 5 2
      vertex 13.2721 0.361237 2
      vertex 13.7303 0.471252 2
    endloop
  endfacet
  facet normal 0 0 1
    outer loop
      vertex 10.6785 5 2
      vertex 13.7303 0.471252 2
      vertex 14.1849 0.595581 2
    endloop
  endfacet
  facet normal 0 0 1
    outer loop
      vertex 15.0811 0.88678 2
      vertex 10.6785 5 2
      vertex 14.6353 0.734146 2
    endloop
  endfacet
  facet normal 0 0 1
    outer loop
      vertex 10.6785 5 2
      vertex 14.1849 0.595581 2
      vertex 14.6353 0.734146 2
    endloop
  endfacet
  facet normal 0 0 1
    outer loop
      vertex 15.9572 1.23367 2
      vertex 10.6785 5 2
      vertex 15.5219 1.05334 2
    endloop
  endfacet
  facet normal 0 0 1
    outer loop
      vertex 16.3867 1.42758 2
      vertex 10.6785 5 2
      vertex 15.9572 1.23367 2
    endloop
  endfacet
  facet normal 0 0 1
    outer loop
      vertex 16.8098 1.63489 2
      vertex 10.6785 5 2
      vertex 16.3867 1.42758 2
    endloop
  endfacet
  facet normal 0 0 1
    outer loop
      vertex 17.2263 1.85539 2
      vertex 10.6785 5 2
      vertex 16.8098 1.63489 2
    endloop
  endfacet
  facet normal 0 0 1
    outer loop
      vertex 17.6356 2.08887 2
      vertex 10.6785 5 2
      vertex 17.2263 1.85539 2
    endloop
  endfacet
  facet normal 0 0 1
    outer loop
      vertex 18.0374 2.33507 2
      vertex 10.6785 5 2
      vertex 17.6356 2.08887 2
    endloop
  endfacet
  facet normal 0 0 1
    outer loop
      vertex 20 5 2
      vertex 10.6785 5 2
      vertex 18.0374 2.33507 2
    endloop
  endfacet
  facet normal 0 -0 1
    outer loop
      vertex 18.8168 2.86473 2
      vertex 20 5 2
      vertex 18.4312 2.59378 2
    endloop
  endfacet
  facet normal 0 0 1
    outer loop
      vertex 20 5 2
      vertex 18.0374 2.33507 2
      vertex 18.4312 2.59378 2
    endloop
  endfacet
  facet normal 0 -0 1
    outer loop
      vertex 19.5614 3.44229 2
      vertex 20 5 2
      vertex 19.1936 3.14767 2
    endloop
  endfacet
  facet normal 0 0 1
    outer loop
      vertex 20 5 2
      vertex 18.8168 2.86473 2
      vertex 19.1936 3.14767 2
    endloop
  endfacet
  facet normal 0 0 1
    outer loop
      vertex 20 5 2
      vertex 19.5614 3.44229 2
      vertex 19.9197 3.74832 2
    endloop
  endfacet
  facet normal 0 0 1
    outer loop
      vertex 20 5 2
      vertex 19.9197 3.74832 2
      vertex 20 3.82141 2
    endloop
  endfacet
  facet normal 0 0 1
    outer loop
      vertex 10.6785 5 2
      vertex 15.0811 0.88678 2
      vertex 15.5219 1.05334 2
    endloop
  endfacet
  facet normal 0 0 1
    outer loop
      vertex 7.69781 5 2
      vertex 8.58836 0.0665588 2
      vertex 9.05814 0.0295868 2
    endloop
  endfacet
  facet normal -0 0 1
    outer loop
      vertex 7.65347 0.184662 2
      vertex 8.12 0.118271 2
      vertex 7.69781 5 2
    endloop
  endfacet
  facet normal 0 0 1
    outer loop
      vertex 20.0833 18.954 2
      vertex 15.6209 18.954 2
      vertex 10.6785 5 2
    endloop
  endfacet
  facet normal 0 -0 1
    outer loop
      vertex 15.6209 18.954 2
      vertex 17.5422 31.4967 2
      vertex 3.91348 12.8144 2
    endloop
  endfacet
  facet normal -0 0 1
    outer loop
      vertex 0 3.8214 2
      vertex 0.080307 3.74832 2
      vertex 0 5 2
    endloop
  endfacet
  facet normal 0 0 1
    outer loop
      vertex 15.6209 18.954 2
      vertex 8.72969 12.8144 2
      vertex 10.6785 5 2
    endloop
  endfacet
  facet normal 0 0 1
    outer loop
      vertex 15.6209 18.954 2
      vertex 3.91348 12.8144 2
      vertex 8.72969 12.8144 2
    endloop
  endfacet
  facet normal -0 0 1
    outer loop
      vertex 7.45621 0.219101 2
      vertex 7.65347 0.184662 2
      vertex 7.69781 5 2
    endloop
  endfacet
  facet normal -0 -0 1
    outer loop
      vertex 0.080307 3.74832 2
      vertex 0.438629 3.44229 2
      vertex 0 5 2
    endloop
  endfacet
  facet normal -0 -0 1
    outer loop
      vertex 0.438629 3.44229 2
      vertex 0.806381 3.14767 2
      vertex 0 5 2
    endloop
  endfacet
  facet normal -0 -0 1
    outer loop
      vertex 0.806381 3.14767 2
      vertex 1.18321 2.86473 2
      vertex 0 5 2
    endloop
  endfacet
  facet normal -0 -0 1
    outer loop
      vertex 1.18321 2.86473 2
      vertex 1.56874 2.59378 2
      vertex 0 5 2
    endloop
  endfacet
  facet normal 0 -0 1
    outer loop
      vertex 1.56874 2.59378 2
      vertex 7.69781 5 2
      vertex 0 5 2
    endloop
  endfacet
  facet normal 0 -0 1
    outer loop
      vertex 1.96259 2.33507 2
      vertex 7.69781 5 2
      vertex 1.56874 2.59378 2
    endloop
  endfacet
  facet normal 0 -0 1
    outer loop
      vertex 2.36436 2.08887 2
      vertex 7.69781 5 2
      vertex 1.96259 2.33507 2
    endloop
  endfacet
  facet normal 0 -0 1
    outer loop
      vertex 2.77368 1.85539 2
      vertex 7.69781 5 2
      vertex 2.36436 2.08887 2
    endloop
  endfacet
  facet normal 0 -0 1
    outer loop
      vertex 3.19014 1.63489 2
      vertex 7.69781 5 2
      vertex 2.77368 1.85539 2
    endloop
  endfacet
  facet normal 0 -0 1
    outer loop
      vertex 3.6133 1.42758 2
      vertex 7.69781 5 2
      vertex 3.19014 1.63489 2
    endloop
  endfacet
  facet normal 0 -0 1
    outer loop
      vertex 4.04277 1.23367 2
      vertex 7.69781 5 2
      vertex 3.6133 1.42758 2
    endloop
  endfacet
  facet normal 0 -0 1
    outer loop
      vertex 4.47812 1.05334 2
      vertex 7.69781 5 2
      vertex 4.04277 1.23367 2
    endloop
  endfacet
  facet normal 0 -0 1
    outer loop
      vertex 4.91893 0.88678 2
      vertex 7.69781 5 2
      vertex 4.47812 1.05334 2
    endloop
  endfacet
  facet normal 0 -0 1
    outer loop
      vertex 5.36473 0.734146 2
      vertex 7.69781 5 2
      vertex 4.91893 0.88678 2
    endloop
  endfacet
  facet normal 0 -0 1
    outer loop
      vertex 5.81512 0.595581 2
      vertex 7.69781 5 2
      vertex 5.36473 0.734146 2
    endloop
  endfacet
  facet normal 0 -0 1
    outer loop
      vertex 6.26964 0.471252 2
      vertex 7.69781 5 2
      vertex 5.81512 0.595581 2
    endloop
  endfacet
  facet normal 0 -0 1
    outer loop
      vertex 6.72784 0.361237 2
      vertex 7.69781 5 2
      vertex 6.26964 0.471252 2
    endloop
  endfacet
  facet normal 0 -0 1
    outer loop
      vertex 7.07576 0.2892 2
      vertex 7.69781 5 2
      vertex 6.72784 0.361237 2
    endloop
  endfacet
  facet normal 0 0 1
    outer loop
      vertex 7.45621 0.219101 2
      vertex 7.07576 0.2892 2
      vertex 6.97154 -0.5 2
    endloop
  endfacet
  facet normal 0 -0 1
    outer loop
      vertex 7.45621 0.219101 2
      vertex 7.69781 5 2
      vertex 7.07576 0.2892 2
    endloop
  endfacet
  facet normal -0.171985 -0.985099 0
    outer loop
      vertex 7.65347 0.184662 0
      vertex 7.45621 0.219101 2
      vertex 7.45621 0.219101 0
    endloop
  endfacet
  facet normal -0.171985 -0.985099 0
    outer loop
      vertex 7.65347 0.184662 0
      vertex 7.65347 0.184662 2
      vertex 7.45621 0.219101 2
    endloop
  endfacet
  facet normal -0.140889 -0.990025 0
    outer loop
      vertex 8.12 0.118271 0
      vertex 7.65347 0.184662 2
      vertex 7.65347 0.184662 0
    endloop
  endfacet
  facet normal -0.140889 -0.990025 0
    outer loop
      vertex 8.12 0.118271 0
      vertex 8.12 0.118271 2
      vertex 7.65347 0.184662 2
    endloop
  endfacet
  facet normal -0.109744 -0.99396 0
    outer loop
      vertex 8.58836 0.0665588 0
      vertex 8.12 0.118271 2
      vertex 8.12 0.118271 0
    endloop
  endfacet
  facet normal -0.109744 -0.99396 0
    outer loop
      vertex 8.58836 0.0665588 0
      vertex 8.58836 0.0665588 2
      vertex 8.12 0.118271 2
    endloop
  endfacet
  facet normal -0.0784581 -0.996917 0
    outer loop
      vertex 9.05814 0.0295868 0
      vertex 8.58836 0.0665588 2
      vertex 8.58836 0.0665588 0
    endloop
  endfacet
  facet normal -0.0784581 -0.996917 0
    outer loop
      vertex 9.05814 0.0295868 0
      vertex 9.05814 0.0295868 2
      vertex 8.58836 0.0665588 2
    endloop
  endfacet
  facet normal -0.0470844 -0.998891 0
    outer loop
      vertex 9.52882 0.00740051 0
      vertex 9.05814 0.0295868 2
      vertex 9.05814 0.0295868 0
    endloop
  endfacet
  facet normal -0.0470844 -0.998891 0
    outer loop
      vertex 9.52882 0.00740051 0
      vertex 9.52882 0.00740051 2
      vertex 9.05814 0.0295868 2
    endloop
  endfacet
  facet normal -0.0157044 -0.999877 0
    outer loop
      vertex 10 0 0
      vertex 9.52882 0.00740051 2
      vertex 9.52882 0.00740051 0
    endloop
  endfacet
  facet normal -0.0157044 -0.999877 0
    outer loop
      vertex 10 0 0
      vertex 10 0 2
      vertex 9.52882 0.00740051 2
    endloop
  endfacet
  facet normal 0.0157037 -0.999877 0
    outer loop
      vertex 10.4712 0.00740051 0
      vertex 10 0 2
      vertex 10 0 0
    endloop
  endfacet
  facet normal 0.0157037 -0.999877 0
    outer loop
      vertex 10.4712 0.00740051 0
      vertex 10.4712 0.00740051 2
      vertex 10 0 2
    endloop
  endfacet
  facet normal 0.0470924 -0.998891 0
    outer loop
      vertex 10.9418 0.0295868 0
      vertex 10.4712 0.00740051 2
      vertex 10.4712 0.00740051 0
    endloop
  endfacet
  facet normal 0.0470924 -0.998891 0
    outer loop
      vertex 10.9418 0.0295868 0
      vertex 10.9418 0.0295868 2
      vertex 10.4712 0.00740051 2
    endloop
  endfacet
  facet normal 0.0784547 -0.996918 0
    outer loop
      vertex 11.4116 0.0665588 0
      vertex 10.9418 0.0295868 2
      vertex 10.9418 0.0295868 0
    endloop
  endfacet
  facet normal 0.0784547 -0.996918 0
    outer loop
      vertex 11.4116 0.0665588 0
      vertex 11.4116 0.0665588 2
      vertex 10.9418 0.0295868 2
    endloop
  endfacet
  facet normal 0.109735 -0.993961 0
    outer loop
      vertex 11.88 0.118271 0
      vertex 11.4116 0.0665588 2
      vertex 11.4116 0.0665588 0
    endloop
  endfacet
  facet normal 0.109735 -0.993961 0
    outer loop
      vertex 11.88 0.118271 0
      vertex 11.88 0.118271 2
      vertex 11.4116 0.0665588 2
    endloop
  endfacet
  facet normal 0.140898 -0.990024 0
    outer loop
      vertex 12.3465 0.184662 0
      vertex 11.88 0.118271 2
      vertex 11.88 0.118271 0
    endloop
  endfacet
  facet normal 0.140898 -0.990024 0
    outer loop
      vertex 12.3465 0.184662 0
      vertex 12.3465 0.184662 2
      vertex 11.88 0.118271 2
    endloop
  endfacet
  facet normal 0.171946 -0.985106 0
    outer loop
      vertex 12.8107 0.265686 0
      vertex 12.3465 0.184662 2
      vertex 12.3465 0.184662 0
    endloop
  endfacet
  facet normal 0.171946 -0.985106 0
    outer loop
      vertex 12.8107 0.265686 0
      vertex 12.8107 0.265686 2
      vertex 12.3465 0.184662 2
    endloop
  endfacet
  facet normal 0.202787 -0.979223 0
    outer loop
      vertex 13.2721 0.361237 0
      vertex 12.8107 0.265686 2
      vertex 12.8107 0.265686 0
    endloop
  endfacet
  facet normal 0.202787 -0.979223 0
    outer loop
      vertex 13.2721 0.361237 0
      vertex 13.2721 0.361237 2
      vertex 12.8107 0.265686 2
    endloop
  endfacet
  facet normal 0.233467 -0.972365 0
    outer loop
      vertex 13.7303 0.471252 0
      vertex 13.2721 0.361237 2
      vertex 13.2721 0.361237 0
    endloop
  endfacet
  facet normal 0.233467 -0.972365 0
    outer loop
      vertex 13.7303 0.471252 0
      vertex 13.7303 0.471252 2
      vertex 13.2721 0.361237 2
    endloop
  endfacet
  facet normal 0.263803 -0.964577 0
    outer loop
      vertex 14.1849 0.595581 0
      vertex 13.7303 0.471252 2
      vertex 13.7303 0.471252 0
    endloop
  endfacet
  facet normal 0.263803 -0.964577 0
    outer loop
      vertex 14.1849 0.595581 0
      vertex 14.1849 0.595581 2
      vertex 13.7303 0.471252 2
    endloop
  endfacet
  facet normal 0.294048 -0.955791 0
    outer loop
      vertex 14.6353 0.734146 0
      vertex 14.1849 0.595581 2
      vertex 14.1849 0.595581 0
    endloop
  endfacet
  facet normal 0.294048 -0.955791 0
    outer loop
      vertex 14.6353 0.734146 0
      vertex 14.6353 0.734146 2
      vertex 14.1849 0.595581 2
    endloop
  endfacet
  facet normal 0.323922 -0.946084 0
    outer loop
      vertex 15.0811 0.88678 0
      vertex 14.6353 0.734146 2
      vertex 14.6353 0.734146 0
    endloop
  endfacet
  facet normal 0.323922 -0.946084 0
    outer loop
      vertex 15.0811 0.88678 0
      vertex 15.0811 0.88678 2
      vertex 14.6353 0.734146 2
    endloop
  endfacet
  facet normal 0.353467 -0.935447 0
    outer loop
      vertex 15.5219 1.05334 0
      vertex 15.0811 0.88678 2
      vertex 15.0811 0.88678 0
    endloop
  endfacet
  facet normal 0.353467 -0.935447 0
    outer loop
      vertex 15.5219 1.05334 0
      vertex 15.5219 1.05334 2
      vertex 15.0811 0.88678 2
    endloop
  endfacet
  facet normal 0.382725 -0.923862 0
    outer loop
      vertex 15.9572 1.23367 0
      vertex 15.5219 1.05334 2
      vertex 15.5219 1.05334 0
    endloop
  endfacet
  facet normal 0.382725 -0.923862 0
    outer loop
      vertex 15.9572 1.23367 0
      vertex 15.9572 1.23367 2
      vertex 15.5219 1.05334 2
    endloop
  endfacet
  facet normal 0.411485 -0.911417 0
    outer loop
      vertex 16.3867 1.42758 0
      vertex 15.9572 1.23367 2
      vertex 15.9572 1.23367 0
    endloop
  endfacet
  facet normal 0.411485 -0.911417 0
    outer loop
      vertex 16.3867 1.42758 0
      vertex 16.3867 1.42758 2
      vertex 15.9572 1.23367 2
    endloop
  endfacet
  facet normal 0.44 -0.897998 0
    outer loop
      vertex 16.8098 1.63489 0
      vertex 16.3867 1.42758 2
      vertex 16.3867 1.42758 0
    endloop
  endfacet
  facet normal 0.44 -0.897998 0
    outer loop
      vertex 16.8098 1.63489 0
      vertex 16.8098 1.63489 2
      vertex 16.3867 1.42758 2
    endloop
  endfacet
  facet normal 0.467888 -0.883788 0
    outer loop
      vertex 17.2263 1.85539 0
      vertex 16.8098 1.63489 2
      vertex 16.8098 1.63489 0
    endloop
  endfacet
  facet normal 0.467888 -0.883788 0
    outer loop
      vertex 17.2263 1.85539 0
      vertex 17.2263 1.85539 2
      vertex 16.8098 1.63489 2
    endloop
  endfacet
  facet normal 0.49549 -0.868614 0
    outer loop
      vertex 17.6356 2.08887 0
      vertex 17.2263 1.85539 2
      vertex 17.2263 1.85539 0
    endloop
  endfacet
  facet normal 0.49549 -0.868614 0
    outer loop
      vertex 17.6356 2.08887 0
      vertex 17.6356 2.08887 2
      vertex 17.2263 1.85539 2
    endloop
  endfacet
  facet normal 0.522463 -0.852662 0
    outer loop
      vertex 18.0374 2.33507 0
      vertex 17.6356 2.08887 2
      vertex 17.6356 2.08887 0
    endloop
  endfacet
  facet normal 0.522463 -0.852662 0
    outer loop
      vertex 18.0374 2.33507 0
      vertex 18.0374 2.33507 2
      vertex 17.6356 2.08887 2
    endloop
  endfacet
  facet normal 0.54907 -0.835776 0
    outer loop
      vertex 18.4312 2.59378 0
      vertex 18.0374 2.33507 2
      vertex 18.0374 2.33507 0
    endloop
  endfacet
  facet normal 0.54907 -0.835776 0
    outer loop
      vertex 18.4312 2.59378 0
      vertex 18.4312 2.59378 2
      vertex 18.0374 2.33507 2
    endloop
  endfacet
  facet normal 0.574928 -0.818204 0
    outer loop
      vertex 18.8168 2.86473 0
      vertex 18.4312 2.59378 2
      vertex 18.4312 2.59378 0
    endloop
  endfacet
  facet normal 0.574928 -0.818204 0
    outer loop
      vertex 18.8168 2.86473 0
      vertex 18.8168 2.86473 2
      vertex 18.4312 2.59378 2
    endloop
  endfacet
  facet normal 0.600462 -0.799654 0
    outer loop
      vertex 19.1936 3.14767 0
      vertex 18.8168 2.86473 2
      vertex 18.8168 2.86473 0
    endloop
  endfacet
  facet normal 0.600462 -0.799654 0
    outer loop
      vertex 19.1936 3.14767 0
      vertex 19.1936 3.14767 2
      vertex 18.8168 2.86473 2
    endloop
  endfacet
  facet normal 0.625187 -0.780475 0
    outer loop
      vertex 19.5614 3.44229 0
      vertex 19.1936 3.14767 2
      vertex 19.1936 3.14767 0
    endloop
  endfacet
  facet normal 0.625187 -0.780475 0
    outer loop
      vertex 19.5614 3.44229 0
      vertex 19.5614 3.44229 2
      vertex 19.1936 3.14767 2
    endloop
  endfacet
  facet normal 0.649464 -0.760392 0
    outer loop
      vertex 19.9197 3.74832 0
      vertex 19.5614 3.44229 2
      vertex 19.5614 3.44229 0
    endloop
  endfacet
  facet normal 0.649464 -0.760392 0
    outer loop
      vertex 19.9197 3.74832 0
      vertex 19.9197 3.74832 2
      vertex 19.5614 3.44229 2
    endloop
  endfacet
  facet normal 0.673126 -0.739527 0
    outer loop
      vertex 20 3.82141 0
      vertex 19.9197 3.74832 2
      vertex 19.9197 3.74832 0
    endloop
  endfacet
  facet normal 0.673126 -0.739527 0
    outer loop
      vertex 20 3.82141 0
      vertex 20 3.82141 2
      vertex 19.9197 3.74832 2
    endloop
  endfacet
  facet normal 1 0 0
    outer loop
      vertex 20 5 0
      vertex 20 3.82141 2
      vertex 20 3.82141 0
    endloop
  endfacet
  facet normal 1 0 -0
    outer loop
      vertex 20 5 0
      vertex 20 5 2
      vertex 20 3.82141 2
    endloop
  endfacet
  facet normal 0 1 0
    outer loop
      vertex 10.6785 5 0
      vertex 20 5 2
      vertex 20 5 0
    endloop
  endfacet
  facet normal 0 1 0
    outer loop
      vertex 10.6785 5 0
      vertex 10.6785 5 2
      vertex 20 5 2
    endloop
  endfacet
  facet normal 0.829238 -0.558895 0
    outer loop
      vertex 20.0833 18.954 0
      vertex 10.6785 5 2
      vertex 10.6785 5 0
    endloop
  endfacet
  facet normal 0.829238 -0.558895 0
    outer loop
      vertex 20.0833 18.954 0
      vertex 20.0833 18.954 2
      vertex 10.6785 5 2
    endloop
  endfacet
  facet normal 0 1 0
    outer loop
      vertex 15.6209 18.954 0
      vertex 20.0833 18.954 2
      vertex 20.0833 18.954 0
    endloop
  endfacet
  facet normal 0 1 0
    outer loop
      vertex 15.6209 18.954 0
      vertex 15.6209 18.954 2
      vertex 20.0833 18.954 2
    endloop
  endfacet
  facet normal 0.98847 -0.151415 0
    outer loop
      vertex 17.5422 31.4967 0
      vertex 15.6209 18.954 2
      vertex 15.6209 18.954 0
    endloop
  endfacet
  facet normal 0.98847 -0.151415 0
    outer loop
      vertex 17.5422 31.4967 0
      vertex 17.5422 31.4967 2
      vertex 15.6209 18.954 2
    endloop
  endfacet
  facet normal -0.80788 0.589347 0
    outer loop
      vertex 3.91348 12.8144 0
      vertex 17.5422 31.4967 2
      vertex 17.5422 31.4967 0
    endloop
  endfacet
  facet normal -0.80788 0.589347 0
    outer loop
      vertex 3.91348 12.8144 0
      vertex 3.91348 12.8144 2
      vertex 17.5422 31.4967 2
    endloop
  endfacet
  facet normal 0 -1 0
    outer loop
      vertex 8.72969 12.8144 0
      vertex 3.91348 12.8144 2
      vertex 3.91348 12.8144 0
    endloop
  endfacet
  facet normal 0 -1 0
    outer loop
      vertex 8.72969 12.8144 0
      vertex 8.72969 12.8144 2
      vertex 3.91348 12.8144 2
    endloop
  endfacet
  facet normal -0.991394 0.130912 0
    outer loop
      vertex 7.69781 5 0
      vertex 8.72969 12.8144 2
      vertex 8.72969 12.8144 0
    endloop
  endfacet
  facet normal -0.991394 0.130912 0
    outer loop
      vertex 7.69781 5 0
      vertex 7.69781 5 2
      vertex 8.72969 12.8144 2
    endloop
  endfacet
  facet normal 0 1 0
    outer loop
      vertex 0 5 0
      vertex 7.69781 5 2
      vertex 7.69781 5 0
    endloop
  endfacet
  facet normal 0 1 0
    outer loop
      vertex 0 5 0
      vertex 0 5 2
      vertex 7.69781 5 2
    endloop
  endfacet
  facet normal -1 0 0
    outer loop
      vertex 0 3.8214 0
      vertex 0 5 2
      vertex 0 5 0
    endloop
  endfacet
  facet normal -1 0 0
    outer loop
      vertex 0 3.8214 0
      vertex 0 3.8214 2
      vertex 0 5 2
    endloop
  endfacet
  facet normal -0.673044 -0.739602 0
    outer loop
      vertex 0.080307 3.74832 0
      vertex 0 3.8214 2
      vertex 0 3.8214 0
    endloop
  endfacet
  facet normal -0.673044 -0.739602 0
    outer loop
      vertex 0.080307 3.74832 0
      vertex 0.080307 3.74832 2
      vertex 0 3.8214 2
    endloop
  endfacet
  facet normal -0.649441 -0.760412 0
    outer loop
      vertex 0.438629 3.44229 0
      vertex 0.080307 3.74832 2
      vertex 0.080307 3.74832 0
    endloop
  endfacet
  facet normal -0.649441 -0.760412 0
    outer loop
      vertex 0.438629 3.44229 0
      vertex 0.438629 3.44229 2
      vertex 0.080307 3.74832 2
    endloop
  endfacet
  facet normal -0.625236 -0.780435 0
    outer loop
      vertex 0.806381 3.14767 0
      vertex 0.438629 3.44229 2
      vertex 0.438629 3.44229 0
    endloop
  endfacet
  facet normal -0.625236 -0.780435 0
    outer loop
      vertex 0.806381 3.14767 0
      vertex 0.806381 3.14767 2
      vertex 0.438629 3.44229 2
    endloop
  endfacet
  facet normal -0.600432 -0.799676 0
    outer loop
      vertex 1.18321 2.86473 0
      vertex 0.806381 3.14767 2
      vertex 0.806381 3.14767 0
    endloop
  endfacet
  facet normal -0.600432 -0.799676 0
    outer loop
      vertex 1.18321 2.86473 0
      vertex 1.18321 2.86473 2
      vertex 0.806381 3.14767 2
    endloop
  endfacet
  facet normal -0.574998 -0.818155 0
    outer loop
      vertex 1.56874 2.59378 0
      vertex 1.18321 2.86473 2
      vertex 1.18321 2.86473 0
    endloop
  endfacet
  facet normal -0.574998 -0.818155 0
    outer loop
      vertex 1.56874 2.59378 0
      vertex 1.56874 2.59378 2
      vertex 1.18321 2.86473 2
    endloop
  endfacet
  facet normal -0.549021 -0.835808 0
    outer loop
      vertex 1.96259 2.33507 0
      vertex 1.56874 2.59378 2
      vertex 1.56874 2.59378 0
    endloop
  endfacet
  facet normal -0.549021 -0.835808 0
    outer loop
      vertex 1.96259 2.33507 0
      vertex 1.96259 2.33507 2
      vertex 1.56874 2.59378 2
    endloop
  endfacet
  facet normal -0.522491 -0.852645 0
    outer loop
      vertex 2.36436 2.08887 0
      vertex 1.96259 2.33507 2
      vertex 1.96259 2.33507 0
    endloop
  endfacet
  facet normal -0.522491 -0.852645 0
    outer loop
      vertex 2.36436 2.08887 0
      vertex 2.36436 2.08887 2
      vertex 1.96259 2.33507 2
    endloop
  endfacet
  facet normal -0.495471 -0.868624 0
    outer loop
      vertex 2.77368 1.85539 0
      vertex 2.36436 2.08887 2
      vertex 2.36436 2.08887 0
    endloop
  endfacet
  facet normal -0.495471 -0.868624 0
    outer loop
      vertex 2.77368 1.85539 0
      vertex 2.77368 1.85539 2
      vertex 2.36436 2.08887 2
    endloop
  endfacet
  facet normal -0.467923 -0.883769 0
    outer loop
      vertex 3.19014 1.63489 0
      vertex 2.77368 1.85539 2
      vertex 2.77368 1.85539 0
    endloop
  endfacet
  facet normal -0.467923 -0.883769 0
    outer loop
      vertex 3.19014 1.63489 0
      vertex 3.19014 1.63489 2
      vertex 2.77368 1.85539 2
    endloop
  endfacet
  facet normal -0.43995 -0.898022 0
    outer loop
      vertex 3.6133 1.42758 0
      vertex 3.19014 1.63489 2
      vertex 3.19014 1.63489 0
    endloop
  endfacet
  facet normal -0.43995 -0.898022 0
    outer loop
      vertex 3.6133 1.42758 0
      vertex 3.6133 1.42758 2
      vertex 3.19014 1.63489 2
    endloop
  endfacet
  facet normal -0.411509 -0.911406 0
    outer loop
      vertex 4.04277 1.23367 0
      vertex 3.6133 1.42758 2
      vertex 3.6133 1.42758 0
    endloop
  endfacet
  facet normal -0.411509 -0.911406 0
    outer loop
      vertex 4.04277 1.23367 0
      vertex 4.04277 1.23367 2
      vertex 3.6133 1.42758 2
    endloop
  endfacet
  facet normal -0.382687 -0.923878 0
    outer loop
      vertex 4.47812 1.05334 0
      vertex 4.04277 1.23367 2
      vertex 4.04277 1.23367 0
    endloop
  endfacet
  facet normal -0.382687 -0.923878 0
    outer loop
      vertex 4.47812 1.05334 0
      vertex 4.47812 1.05334 2
      vertex 4.04277 1.23367 2
    endloop
  endfacet
  facet normal -0.35346 -0.93545 0
    outer loop
      vertex 4.91893 0.88678 0
      vertex 4.47812 1.05334 2
      vertex 4.47812 1.05334 0
    endloop
  endfacet
  facet normal -0.35346 -0.93545 0
    outer loop
      vertex 4.91893 0.88678 0
      vertex 4.91893 0.88678 2
      vertex 4.47812 1.05334 2
    endloop
  endfacet
  facet normal -0.323922 -0.946084 0
    outer loop
      vertex 5.36473 0.734146 0
      vertex 4.91893 0.88678 2
      vertex 4.91893 0.88678 0
    endloop
  endfacet
  facet normal -0.323922 -0.946084 0
    outer loop
      vertex 5.36473 0.734146 0
      vertex 5.36473 0.734146 2
      vertex 4.91893 0.88678 2
    endloop
  endfacet
  facet normal -0.294054 -0.955789 0
    outer loop
      vertex 5.81512 0.595581 0
      vertex 5.36473 0.734146 2
      vertex 5.36473 0.734146 0
    endloop
  endfacet
  facet normal -0.294054 -0.955789 0
    outer loop
      vertex 5.81512 0.595581 0
      vertex 5.81512 0.595581 2
      vertex 5.36473 0.734146 2
    endloop
  endfacet
  facet normal -0.263846 -0.964565 0
    outer loop
      vertex 6.26964 0.471252 0
      vertex 5.81512 0.595581 2
      vertex 5.81512 0.595581 0
    endloop
  endfacet
  facet normal -0.263846 -0.964565 0
    outer loop
      vertex 6.26964 0.471252 0
      vertex 6.26964 0.471252 2
      vertex 5.81512 0.595581 2
    endloop
  endfacet
  facet normal -0.233467 -0.972365 0
    outer loop
      vertex 6.72784 0.361237 0
      vertex 6.26964 0.471252 2
      vertex 6.26964 0.471252 0
    endloop
  endfacet
  facet normal -0.233467 -0.972365 0
    outer loop
      vertex 6.72784 0.361237 0
      vertex 6.72784 0.361237 2
      vertex 6.26964 0.471252 2
    endloop
  endfacet
  facet normal -0.20275 -0.979231 0
    outer loop
      vertex 7.07576 0.2892 0
      vertex 6.72784 0.361237 2
      vertex 6.72784 0.361237 0
    endloop
  endfacet
  facet normal -0.20275 -0.979231 0
    outer loop
      vertex 7.07576 0.2892 0
      vertex 7.07576 0.2892 2
      vertex 6.72784 0.361237 2
    endloop
  endfacet
  facet normal -0.991393 0.130921 0
    outer loop
      vertex 6.97154 -0.5 0
      vertex 7.07576 0.2892 2
      vertex 7.07576 0.2892 0
    endloop
  endfacet
  facet normal -0.991393 0.130921 0
    outer loop
      vertex 6.97154 -0.5 0
      vertex 6.97154 -0.5 2
      vertex 7.07576 0.2892 2
    endloop
  endfacet
  facet normal 0.829235 -0.5589 0
    outer loop
      vertex 7.45621 0.219101 0
      vertex 6.97154 -0.5 2
      vertex 6.97154 -0.5 0
    endloop
  endfacet
  facet normal 0.829235 -0.5589 0
    outer loop
      vertex 7.45621 0.219101 0
      vertex 7.45621 0.219101 2
      vertex 6.97154 -0.5 2
    endloop
  endfacet
endsolid OpenSCAD_Model
