solid OpenSCAD_Model
  facet normal 0 0 -1
    outer loop
      vertex 2.93511 9.61082 0
      vertex 13.1567 23.6225 0
      vertex 11.7157 14.2155 0
    endloop
  endfacet
  facet normal 0 0 -1
    outer loop
      vertex 8.00885 3.75 0
      vertex 15 3.75 0
      vertex 13.5 0 0
    endloop
  endfacet
  facet normal -0 0 -1
    outer loop
      vertex 8.00885 3.75 0
      vertex 1.5 0 0
      vertex 5.77336 3.75 0
    endloop
  endfacet
  facet normal 0 0 -1
    outer loop
      vertex 8.00885 3.75 0
      vertex 11.7157 14.2155 0
      vertex 15.0625 14.2155 0
    endloop
  endfacet
  facet normal 0 0 -1
    outer loop
      vertex 8.00885 3.75 0
      vertex 6.54727 9.61082 0
      vertex 11.7157 14.2155 0
    endloop
  endfacet
  facet normal 0 0 -1
    outer loop
      vertex 6.54727 9.61082 0
      vertex 2.93511 9.61082 0
      vertex 11.7157 14.2155 0
    endloop
  endfacet
  facet normal 0 0 -1
    outer loop
      vertex 8.00885 3.75 0
      vertex 5.77336 3.75 0
      vertex 6.54727 9.61082 0
    endloop
  endfacet
  facet normal 0 0 -1
    outer loop
      vertex 1.5 0 0
      vertex 0 3.75 0
      vertex 5.77336 3.75 0
    endloop
  endfacet
  facet normal 0 0 -1
    outer loop
      vertex 13.5 0 0
      vertex 1.5 0 0
      vertex 8.00885 3.75 0
    endloop
  endfacet
  facet normal 0 -0 1
    outer loop
      vertex 11.7157 14.2155 2
      vertex 13.1567 23.6225 2
      vertex 2.93511 9.61082 2
    endloop
  endfacet
  facet normal 0 -0 1
    outer loop
      vertex 13.5 0 2
      vertex 15 3.75 2
      vertex 8.00885 3.75 2
    endloop
  endfacet
  facet normal -0 0 1
    outer loop
      vertex 5.77336 3.75 2
      vertex 1.5 0 2
      vertex 8.00885 3.75 2
    endloop
  endfacet
  facet normal 0 0 1
    outer loop
      vertex 15.0625 14.2155 2
      vertex 11.7157 14.2155 2
      vertex 8.00885 3.75 2
    endloop
  endfacet
  facet normal 0 0 1
    outer loop
      vertex 11.7157 14.2155 2
      vertex 6.54727 9.61082 2
      vertex 8.00885 3.75 2
    endloop
  endfacet
  facet normal 0 0 1
    outer loop
      vertex 11.7157 14.2155 2
      vertex 2.93511 9.61082 2
      vertex 6.54727 9.61082 2
    endloop
  endfacet
  facet normal 0 0 1
    outer loop
      vertex 6.54727 9.61082 2
      vertex 5.77336 3.75 2
      vertex 8.00885 3.75 2
    endloop
  endfacet
  facet normal 0 0 1
    outer loop
      vertex 5.77336 3.75 2
      vertex 0 3.75 2
      vertex 1.5 0 2
    endloop
  endfacet
  facet normal 0 0 1
    outer loop
      vertex 8.00885 3.75 2
      vertex 1.5 0 2
      vertex 13.5 0 2
    endloop
  endfacet
  facet normal 0 1 0
    outer loop
      vertex 8.00885 3.75 0
      vertex 15 3.75 2
      vertex 15 3.75 0
    endloop
  endfacet
  facet normal 0 1 0
    outer loop
      vertex 8.00885 3.75 0
      vertex 8.00885 3.75 2
      vertex 15 3.75 2
    endloop
  endfacet
  facet normal 0.829237 -0.558898 0
    outer loop
      vertex 15.0625 14.2155 0
      vertex 8.00885 3.75 2
      vertex 8.00885 3.75 0
    endloop
  endfacet
  facet normal 0.829237 -0.558898 0
    outer loop
      vertex 15.0625 14.2155 0
      vertex 15.0625 14.2155 2
      vertex 8.00885 3.75 2
    endloop
  endfacet
  facet normal 0 1 0
    outer loop
      vertex 11.7157 14.2155 0
      vertex 15.0625 14.2155 2
      vertex 15.0625 14.2155 0
    endloop
  endfacet
  facet normal 0 1 0
    outer loop
      vertex 11.7157 14.2155 0
      vertex 11.7157 14.2155 2
      vertex 15.0625 14.2155 2
    endloop
  endfacet
  facet normal 0.98847 -0.151418 0
    outer loop
      vertex 13.1567 23.6225 0
      vertex 11.7157 14.2155 2
      vertex 11.7157 14.2155 0
    endloop
  endfacet
  facet normal 0.98847 -0.151418 0
    outer loop
      vertex 13.1567 23.6225 0
      vertex 13.1567 23.6225 2
      vertex 11.7157 14.2155 2
    endloop
  endfacet
  facet normal -0.807877 0.589351 0
    outer loop
      vertex 2.93511 9.61082 0
      vertex 13.1567 23.6225 2
      vertex 13.1567 23.6225 0
    endloop
  endfacet
  facet normal -0.807877 0.589351 0
    outer loop
      vertex 2.93511 9.61082 0
      vertex 2.93511 9.61082 2
      vertex 13.1567 23.6225 2
    endloop
  endfacet
  facet normal 0 -1 0
    outer loop
      vertex 6.54727 9.61082 0
      vertex 2.93511 9.61082 2
      vertex 2.93511 9.61082 0
    endloop
  endfacet
  facet normal 0 -1 0
    outer loop
      vertex 6.54727 9.61082 0
      vertex 6.54727 9.61082 2
      vertex 2.93511 9.61082 2
    endloop
  endfacet
  facet normal -0.991394 0.130912 0
    outer loop
      vertex 5.77336 3.75 0
      vertex 6.54727 9.61082 2
      vertex 6.54727 9.61082 0
    endloop
  endfacet
  facet normal -0.991394 0.130912 0
    outer loop
      vertex 5.77336 3.75 0
      vertex 5.77336 3.75 2
      vertex 6.54727 9.61082 2
    endloop
  endfacet
  facet normal 0 1 0
    outer loop
      vertex 0 3.75 0
      vertex 5.77336 3.75 2
      vertex 5.77336 3.75 0
    endloop
  endfacet
  facet normal 0 1 0
    outer loop
      vertex 0 3.75 0
      vertex 0 3.75 2
      vertex 5.77336 3.75 2
    endloop
  endfacet
  facet normal -0.928477 -0.371391 0
    outer loop
      vertex 1.5 0 0
      vertex 0 3.75 2
      vertex 0 3.75 0
    endloop
  endfacet
  facet normal -0.928477 -0.371391 0
    outer loop
      vertex 1.5 0 0
      vertex 1.5 0 2
      vertex 0 3.75 2
    endloop
  endfacet
  facet normal 0 -1 0
    outer loop
      vertex 13.5 0 0
      vertex 1.5 0 2
      vertex 1.5 0 0
    endloop
  endfacet
  facet normal 0 -1 0
    outer loop
      vertex 13.5 0 0
      vertex 13.5 0 2
      vertex 1.5 0 2
    endloop
  endfacet
  facet normal 0.928477 -0.371391 0
    outer loop
      vertex 15 3.75 0
      vertex 13.5 0 2
      vertex 13.5 0 0
    endloop
  endfacet
  facet normal 0.928477 -0.371391 0
    outer loop
      vertex 15 3.75 0
      vertex 15 3.75 2
      vertex 13.5 0 2
    endloop
  endfacet
endsolid OpenSCAD_Model
