solid OpenSCAD_Model
  facet normal 0 0 -1
    outer loop
      vertex 3.7469 20.5642 0
      vertex 4.51944 19.0233 0
      vertex 4.11478 18.8597 0
    endloop
  endfacet
  facet normal 0 0 -1
    outer loop
      vertex 9.29982 3.75 0
      vertex 15 3.75 0
      vertex 13.5 0 0
    endloop
  endfacet
  facet normal 0 -0 -1
    outer loop
      vertex 6.92302 22.5139 0
      vertex 7.71442 22.5139 0
      vertex 6.50965 22.1653 0
    endloop
  endfacet
  facet normal 0 0 -1
    outer loop
      vertex 3.68884 5.31528 0
      vertex 5.25523 6.18609 0
      vertex 4.37624 4.61887 0
    endloop
  endfacet
  facet normal 0 0 -1
    outer loop
      vertex 11.8808 20.2019 0
      vertex 15.6986 13.113 0
      vertex 15.331 12.1303 0
    endloop
  endfacet
  facet normal 0 0 -1
    outer loop
      vertex 11.8808 20.2019 0
      vertex 12.3817 20.0501 0
      vertex 15.6986 13.113 0
    endloop
  endfacet
  facet normal -0 -0 -1
    outer loop
      vertex 13.3873 19.8018 0
      vertex 16.2835 15.1477 0
      vertex 12.8844 19.9169 0
    endloop
  endfacet
  facet normal -0 0 -1
    outer loop
      vertex 16.6504 17.2637 0
      vertex 16.4956 16.1964 0
      vertex 14.387 19.6232 0
    endloop
  endfacet
  facet normal -0 0 -1
    outer loop
      vertex 16.7454 18.3481 0
      vertex 16.6504 17.2637 0
      vertex 15.3683 19.5091 0
    endloop
  endfacet
  facet normal -0 0 -1
    outer loop
      vertex 16.7776 19.4479 0
      vertex 16.7454 18.3481 0
      vertex 16.3183 19.4545 0
    endloop
  endfacet
  facet normal -0 -0 -1
    outer loop
      vertex 16.3183 19.4545 0
      vertex 16.7454 18.3481 0
      vertex 15.848 19.4747 0
    endloop
  endfacet
  facet normal -0 -0 -1
    outer loop
      vertex 15.848 19.4747 0
      vertex 16.7454 18.3481 0
      vertex 15.3683 19.5091 0
    endloop
  endfacet
  facet normal -0 -0 -1
    outer loop
      vertex 15.3683 19.5091 0
      vertex 16.6504 17.2637 0
      vertex 14.8808 19.5584 0
    endloop
  endfacet
  facet normal -0 -0 -1
    outer loop
      vertex 14.8808 19.5584 0
      vertex 16.6504 17.2637 0
      vertex 14.387 19.6232 0
    endloop
  endfacet
  facet normal -0 -0 -1
    outer loop
      vertex 14.387 19.6232 0
      vertex 16.4956 16.1964 0
      vertex 13.8887 19.7041 0
    endloop
  endfacet
  facet normal 0 0 -1
    outer loop
      vertex 13.8887 19.7041 0
      vertex 16.4956 16.1964 0
      vertex 16.2835 15.1477 0
    endloop
  endfacet
  facet normal 0 0 -1
    outer loop
      vertex 13.3873 19.8018 0
      vertex 13.8887 19.7041 0
      vertex 16.2835 15.1477 0
    endloop
  endfacet
  facet normal 0 0 -1
    outer loop
      vertex 12.8844 19.9169 0
      vertex 16.2835 15.1477 0
      vertex 16.017 14.1194 0
    endloop
  endfacet
  facet normal 0 0 -1
    outer loop
      vertex 12.3817 20.0501 0
      vertex 12.8844 19.9169 0
      vertex 16.017 14.1194 0
    endloop
  endfacet
  facet normal 0 0 -1
    outer loop
      vertex 15.6986 13.113 0
      vertex 12.3817 20.0501 0
      vertex 16.017 14.1194 0
    endloop
  endfacet
  facet normal 0 0 -1
    outer loop
      vertex 11.3832 20.3731 0
      vertex 11.8808 20.2019 0
      vertex 15.331 12.1303 0
    endloop
  endfacet
  facet normal 0 0 -1
    outer loop
      vertex 6.92302 22.5139 0
      vertex 7.31871 22.8875 0
      vertex 7.71442 22.5139 0
    endloop
  endfacet
  facet normal 0 -0 -1
    outer loop
      vertex 4.23298 20.7759 0
      vertex 4.51944 19.0233 0
      vertex 3.7469 20.5642 0
    endloop
  endfacet
  facet normal 0 0 -1
    outer loop
      vertex 3.25423 20.3731 0
      vertex 3.7469 20.5642 0
      vertex 4.11478 18.8597 0
    endloop
  endfacet
  facet normal -0 0 -1
    outer loop
      vertex 4.92477 19.2015 0
      vertex 4.51944 19.0233 0
      vertex 4.23298 20.7759 0
    endloop
  endfacet
  facet normal -0 0 -1
    outer loop
      vertex 6.13557 19.8306 0
      vertex 5.7338 19.6046 0
      vertex 5.17921 21.2635 0
    endloop
  endfacet
  facet normal -0 0 -1
    outer loop
      vertex 5.32988 19.3951 0
      vertex 4.92477 19.2015 0
      vertex 4.23298 20.7759 0
    endloop
  endfacet
  facet normal 0 0 -1
    outer loop
      vertex 2.75666 20.2019 0
      vertex 3.31129 18.5742 0
      vertex 2.91436 18.4511 0
    endloop
  endfacet
  facet normal 0 0 -1
    outer loop
      vertex 5.7338 19.6046 0
      vertex 4.71095 21.0088 0
      vertex 5.17921 21.2635 0
    endloop
  endfacet
  facet normal 0 0 -1
    outer loop
      vertex 5.63614 21.5408 0
      vertex 6.92897 20.3346 0
      vertex 6.53428 20.0737 0
    endloop
  endfacet
  facet normal 0 0 -1
    outer loop
      vertex 2.75666 20.2019 0
      vertex 3.71175 18.7103 0
      vertex 3.31129 18.5742 0
    endloop
  endfacet
  facet normal 0 0 -1
    outer loop
      vertex 6.92897 20.3346 0
      vertex 5.63614 21.5408 0
      vertex 6.08014 21.8412 0
    endloop
  endfacet
  facet normal 0 0 -1
    outer loop
      vertex 2.3908 6.82157 0
      vertex 1.78562 7.62819 0
      vertex 3.29827 8.48694 0
    endloop
  endfacet
  facet normal 0 0 -1
    outer loop
      vertex 1.78562 7.62819 0
      vertex 1.21326 8.46827 0
      vertex 2.84429 9.13113 0
    endloop
  endfacet
  facet normal 0 -0 -1
    outer loop
      vertex 7.71442 22.5139 0
      vertex 8.12782 22.1653 0
      vertex 6.50965 22.1653 0
    endloop
  endfacet
  facet normal -0 0 -1
    outer loop
      vertex 2.40935 9.80168 0
      vertex 0.676483 9.34015 0
      vertex 1.99602 10.498 0
    endloop
  endfacet
  facet normal -0 0 -1
    outer loop
      vertex -0.237019 16.9195 0
      vertex -1.85817 16.1964 0
      vertex -2.01299 17.2637 0
    endloop
  endfacet
  facet normal -0 0 -1
    outer loop
      vertex 1.99602 10.498 0
      vertex 0.177898 10.2422 0
      vertex 1.60668 11.2193 0
    endloop
  endfacet
  facet normal 0 0 -1
    outer loop
      vertex 1.60668 11.2193 0
      vertex 0.177898 10.2422 0
      vertex -0.279682 11.1728 0
    endloop
  endfacet
  facet normal 0 0 -1
    outer loop
      vertex -0.279682 11.1728 0
      vertex -0.693569 12.1303 0
      vertex 1.24386 11.9652 0
    endloop
  endfacet
  facet normal 0 0 -1
    outer loop
      vertex 0.659225 17.9474 0
      vertex 0.250431 19.6232 0
      vertex 0.748787 19.7041 0
    endloop
  endfacet
  facet normal 0 0 -1
    outer loop
      vertex 0.60775 13.5279 0
      vertex -0.693569 12.1303 0
      vertex -1.06107 13.113 0
    endloop
  endfacet
  facet normal 0 -0 -1
    outer loop
      vertex 0.339397 14.3434 0
      vertex 0.60775 13.5279 0
      vertex -1.06107 13.113 0
    endloop
  endfacet
  facet normal 0 0 -1
    outer loop
      vertex -1.64608 15.1477 0
      vertex 0.107494 15.181 0
      vertex -1.37948 14.1194 0
    endloop
  endfacet
  facet normal 0 0 -1
    outer loop
      vertex 2.40935 9.80168 0
      vertex 1.21326 8.46827 0
      vertex 0.676483 9.34015 0
    endloop
  endfacet
  facet normal -0 0 -1
    outer loop
      vertex 3.29827 8.48694 0
      vertex 1.78562 7.62819 0
      vertex 2.84429 9.13113 0
    endloop
  endfacet
  facet normal 0 -0 -1
    outer loop
      vertex 0.107494 15.181 0
      vertex 0.339397 14.3434 0
      vertex -1.37948 14.1194 0
    endloop
  endfacet
  facet normal -0 0 -1
    outer loop
      vertex 3.76884 7.86971 0
      vertex 2.3908 6.82157 0
      vertex 3.29827 8.48694 0
    endloop
  endfacet
  facet normal 0 0 -1
    outer loop
      vertex -1.64608 15.1477 0
      vertex -1.85817 16.1964 0
      vertex -0.085453 16.0399 0
    endloop
  endfacet
  facet normal 0 -0 -1
    outer loop
      vertex -0.34465 17.8193 0
      vertex -0.237019 16.9195 0
      vertex -2.01299 17.2637 0
    endloop
  endfacet
  facet normal 0 0 -1
    outer loop
      vertex -2.10788 18.3481 0
      vertex -1.21056 19.4747 0
      vertex -0.34465 17.8193 0
    endloop
  endfacet
  facet normal 0 0 -1
    outer loop
      vertex -2.10788 18.3481 0
      vertex -1.68083 19.4545 0
      vertex -1.21056 19.4747 0
    endloop
  endfacet
  facet normal 0 0 -1
    outer loop
      vertex -2.10788 18.3481 0
      vertex -2.14013 19.4479 0
      vertex -1.68083 19.4545 0
    endloop
  endfacet
  facet normal 0 0 -1
    outer loop
      vertex 2.75666 20.2019 0
      vertex 3.25423 20.3731 0
      vertex 3.71175 18.7103 0
    endloop
  endfacet
  facet normal 0 0 -1
    outer loop
      vertex 3.02613 6.05003 0
      vertex 2.3908 6.82157 0
      vertex 4.25351 7.28006 0
    endloop
  endfacet
  facet normal -0 0 -1
    outer loop
      vertex 4.74981 6.71865 0
      vertex 3.02613 6.05003 0
      vertex 4.25351 7.28006 0
    endloop
  endfacet
  facet normal 0 0 -1
    outer loop
      vertex 4.74981 6.71865 0
      vertex 3.68884 5.31528 0
      vertex 3.02613 6.05003 0
    endloop
  endfacet
  facet normal 0 0 -1
    outer loop
      vertex 5.76735 5.68298 0
      vertex 5.08567 3.96253 0
      vertex 4.37624 4.61887 0
    endloop
  endfacet
  facet normal -0 0 -1
    outer loop
      vertex 6.2836 5.20999 0
      vertex 5.08567 3.96253 0
      vertex 5.76735 5.68298 0
    endloop
  endfacet
  facet normal 0 0 -1
    outer loop
      vertex 5.08567 3.96253 0
      vertex 6.2836 5.20999 0
      vertex 5.33762 3.75 0
    endloop
  endfacet
  facet normal 0 0 -1
    outer loop
      vertex 10.2612 4.61887 0
      vertex 9.55177 3.96253 0
      vertex 7.31871 4.35673 0
    endloop
  endfacet
  facet normal -0 0 -1
    outer loop
      vertex 7.31871 4.35673 0
      vertex 5.33762 3.75 0
      vertex 6.80158 4.76769 0
    endloop
  endfacet
  facet normal 0 0 -1
    outer loop
      vertex 7.31871 4.35673 0
      vertex 9.55177 3.96253 0
      vertex 9.29982 3.75 0
    endloop
  endfacet
  facet normal 0 0 -1
    outer loop
      vertex 5.33762 3.75 0
      vertex 7.31871 4.35673 0
      vertex 9.29982 3.75 0
    endloop
  endfacet
  facet normal 0 0 -1
    outer loop
      vertex 1.5 0 0
      vertex 5.33762 3.75 0
      vertex 9.29982 3.75 0
    endloop
  endfacet
  facet normal 0 0 -1
    outer loop
      vertex 1.5 0 0
      vertex 0 3.75 0
      vertex 5.33762 3.75 0
    endloop
  endfacet
  facet normal 0 0 -1
    outer loop
      vertex 13.5 0 0
      vertex 1.5 0 0
      vertex 9.29982 3.75 0
    endloop
  endfacet
  facet normal 0 0 -1
    outer loop
      vertex 5.33762 3.75 0
      vertex 6.2836 5.20999 0
      vertex 6.80158 4.76769 0
    endloop
  endfacet
  facet normal 0 -0 -1
    outer loop
      vertex 5.25523 6.18609 0
      vertex 5.76735 5.68298 0
      vertex 4.37624 4.61887 0
    endloop
  endfacet
  facet normal 0 -0 -1
    outer loop
      vertex 4.74981 6.71865 0
      vertex 5.25523 6.18609 0
      vertex 3.68884 5.31528 0
    endloop
  endfacet
  facet normal 0 0 -1
    outer loop
      vertex 2.3908 6.82157 0
      vertex 3.76884 7.86971 0
      vertex 4.25351 7.28006 0
    endloop
  endfacet
  facet normal 0 0 -1
    outer loop
      vertex 2.52187 18.3401 0
      vertex 2.25574 20.0501 0
      vertex 2.91436 18.4511 0
    endloop
  endfacet
  facet normal -0 0 -1
    outer loop
      vertex 2.84429 9.13113 0
      vertex 1.21326 8.46827 0
      vertex 2.40935 9.80168 0
    endloop
  endfacet
  facet normal 0 0 -1
    outer loop
      vertex 2.13479 18.2408 0
      vertex 1.75304 19.9169 0
      vertex 2.52187 18.3401 0
    endloop
  endfacet
  facet normal 0 0 -1
    outer loop
      vertex 1.99602 10.498 0
      vertex 0.676483 9.34015 0
      vertex 0.177898 10.2422 0
    endloop
  endfacet
  facet normal 0 0 -1
    outer loop
      vertex 1.75405 18.1525 0
      vertex 1.25019 19.8018 0
      vertex 1.75304 19.9169 0
    endloop
  endfacet
  facet normal 0 0 -1
    outer loop
      vertex 1.38058 18.0745 0
      vertex 0.748787 19.7041 0
      vertex 1.25019 19.8018 0
    endloop
  endfacet
  facet normal 0 0 -1
    outer loop
      vertex -0.279682 11.1728 0
      vertex 1.24386 11.9652 0
      vertex 1.60668 11.2193 0
    endloop
  endfacet
  facet normal 0 -0 -1
    outer loop
      vertex 0.748787 19.7041 0
      vertex 1.01531 18.0064 0
      vertex 0.659225 17.9474 0
    endloop
  endfacet
  facet normal 0 0 -1
    outer loop
      vertex -0.693569 12.1303 0
      vertex 0.910057 12.7349 0
      vertex 1.24386 11.9652 0
    endloop
  endfacet
  facet normal -0 0 -1
    outer loop
      vertex 0.910057 12.7349 0
      vertex -0.693569 12.1303 0
      vertex 0.60775 13.5279 0
    endloop
  endfacet
  facet normal -0 0 -1
    outer loop
      vertex 4.11478 18.8597 0
      vertex 3.71175 18.7103 0
      vertex 3.25423 20.3731 0
    endloop
  endfacet
  facet normal 0 0 -1
    outer loop
      vertex -1.37948 14.1194 0
      vertex 0.339397 14.3434 0
      vertex -1.06107 13.113 0
    endloop
  endfacet
  facet normal 0 -0 -1
    outer loop
      vertex 0.250431 19.6232 0
      vertex 0.313248 17.897 0
      vertex -0.243301 19.5584 0
    endloop
  endfacet
  facet normal 0 0 -1
    outer loop
      vertex -0.243301 19.5584 0
      vertex 0.313248 17.897 0
      vertex -0.0217094 17.8544 0
    endloop
  endfacet
  facet normal -0 0 -1
    outer loop
      vertex -0.0217094 17.8544 0
      vertex -0.34465 17.8193 0
      vertex -0.243301 19.5584 0
    endloop
  endfacet
  facet normal -0 0 -1
    outer loop
      vertex 0.107494 15.181 0
      vertex -1.64608 15.1477 0
      vertex -0.085453 16.0399 0
    endloop
  endfacet
  facet normal 0 0 -1
    outer loop
      vertex -0.085453 16.0399 0
      vertex -1.85817 16.1964 0
      vertex -0.237019 16.9195 0
    endloop
  endfacet
  facet normal 0 0 -1
    outer loop
      vertex -2.01299 17.2637 0
      vertex -2.10788 18.3481 0
      vertex -0.34465 17.8193 0
    endloop
  endfacet
  facet normal 0 0 -1
    outer loop
      vertex -0.243301 19.5584 0
      vertex -0.34465 17.8193 0
      vertex -0.730831 19.5091 0
    endloop
  endfacet
  facet normal 0 0 -1
    outer loop
      vertex -0.34465 17.8193 0
      vertex -1.21056 19.4747 0
      vertex -0.730831 19.5091 0
    endloop
  endfacet
  facet normal 0 0 -1
    outer loop
      vertex 0.313248 17.897 0
      vertex 0.250431 19.6232 0
      vertex 0.659225 17.9474 0
    endloop
  endfacet
  facet normal 0 0 -1
    outer loop
      vertex 0.748787 19.7041 0
      vertex 1.38058 18.0745 0
      vertex 1.01531 18.0064 0
    endloop
  endfacet
  facet normal 0 0 -1
    outer loop
      vertex 1.25019 19.8018 0
      vertex 1.75405 18.1525 0
      vertex 1.38058 18.0745 0
    endloop
  endfacet
  facet normal 0 0 -1
    outer loop
      vertex 1.75304 19.9169 0
      vertex 2.13479 18.2408 0
      vertex 1.75405 18.1525 0
    endloop
  endfacet
  facet normal 0 0 -1
    outer loop
      vertex 2.52187 18.3401 0
      vertex 1.75304 19.9169 0
      vertex 2.25574 20.0501 0
    endloop
  endfacet
  facet normal 0 0 -1
    outer loop
      vertex 2.91436 18.4511 0
      vertex 2.25574 20.0501 0
      vertex 2.75666 20.2019 0
    endloop
  endfacet
  facet normal 0 -0 -1
    outer loop
      vertex 4.71095 21.0088 0
      vertex 5.32988 19.3951 0
      vertex 4.23298 20.7759 0
    endloop
  endfacet
  facet normal -0 0 -1
    outer loop
      vertex 10.4045 20.7759 0
      vertex 7.31871 20.6139 0
      vertex 9.92649 21.0088 0
    endloop
  endfacet
  facet normal 0 0 -1
    outer loop
      vertex 4.71095 21.0088 0
      vertex 5.7338 19.6046 0
      vertex 5.32988 19.3951 0
    endloop
  endfacet
  facet normal 0 -0 -1
    outer loop
      vertex 5.63614 21.5408 0
      vertex 6.13557 19.8306 0
      vertex 5.17921 21.2635 0
    endloop
  endfacet
  facet normal 0 -0 -1
    outer loop
      vertex 9.0013 21.5408 0
      vertex 9.45822 21.2635 0
      vertex 7.31871 20.6139 0
    endloop
  endfacet
  facet normal 0 0 -1
    outer loop
      vertex 7.31871 20.6139 0
      vertex 9.45822 21.2635 0
      vertex 9.92649 21.0088 0
    endloop
  endfacet
  facet normal 0 0 -1
    outer loop
      vertex 5.63614 21.5408 0
      vertex 6.53428 20.0737 0
      vertex 6.13557 19.8306 0
    endloop
  endfacet
  facet normal -0 0 -1
    outer loop
      vertex 7.31871 20.6139 0
      vertex 6.92897 20.3346 0
      vertex 6.08014 21.8412 0
    endloop
  endfacet
  facet normal 0 -0 -1
    outer loop
      vertex 6.50965 22.1653 0
      vertex 7.31871 20.6139 0
      vertex 6.08014 21.8412 0
    endloop
  endfacet
  facet normal 0 0 -1
    outer loop
      vertex 6.50965 22.1653 0
      vertex 8.12782 22.1653 0
      vertex 7.31871 20.6139 0
    endloop
  endfacet
  facet normal -0 0 -1
    outer loop
      vertex 9.0013 21.5408 0
      vertex 7.31871 20.6139 0
      vertex 8.5573 21.8412 0
    endloop
  endfacet
  facet normal 0 0 -1
    outer loop
      vertex 7.31871 20.6139 0
      vertex 8.12782 22.1653 0
      vertex 8.5573 21.8412 0
    endloop
  endfacet
  facet normal 0 -0 -1
    outer loop
      vertex 10.4045 20.7759 0
      vertex 10.8906 20.5642 0
      vertex 7.31871 20.6139 0
    endloop
  endfacet
  facet normal -0 -0 -1
    outer loop
      vertex 10.8906 20.5642 0
      vertex 11.3832 20.3731 0
      vertex 7.31871 20.6139 0
    endloop
  endfacet
  facet normal -0 -0 -1
    outer loop
      vertex 11.3832 20.3731 0
      vertex 14.9171 11.1728 0
      vertex 7.31871 20.6139 0
    endloop
  endfacet
  facet normal -0 0 -1
    outer loop
      vertex 15.331 12.1303 0
      vertex 14.9171 11.1728 0
      vertex 11.3832 20.3731 0
    endloop
  endfacet
  facet normal -0 0 -1
    outer loop
      vertex 14.9171 11.1728 0
      vertex 14.4595 10.2422 0
      vertex 7.31871 20.6139 0
    endloop
  endfacet
  facet normal -0 0 -1
    outer loop
      vertex 14.4595 10.2422 0
      vertex 13.961 9.34015 0
      vertex 7.31871 20.6139 0
    endloop
  endfacet
  facet normal -0 0 -1
    outer loop
      vertex 13.961 9.34015 0
      vertex 13.4242 8.46827 0
      vertex 7.31871 20.6139 0
    endloop
  endfacet
  facet normal -0 0 -1
    outer loop
      vertex 13.4242 8.46827 0
      vertex 12.8518 7.62819 0
      vertex 7.31871 20.6139 0
    endloop
  endfacet
  facet normal -0 0 -1
    outer loop
      vertex 12.8518 7.62819 0
      vertex 7.31871 4.35673 0
      vertex 7.31871 20.6139 0
    endloop
  endfacet
  facet normal -0 0 -1
    outer loop
      vertex 12.2466 6.82157 0
      vertex 7.31871 4.35673 0
      vertex 12.8518 7.62819 0
    endloop
  endfacet
  facet normal -0 0 -1
    outer loop
      vertex 11.6113 6.05003 0
      vertex 7.31871 4.35673 0
      vertex 12.2466 6.82157 0
    endloop
  endfacet
  facet normal -0 0 -1
    outer loop
      vertex 10.9486 5.31528 0
      vertex 7.31871 4.35673 0
      vertex 11.6113 6.05003 0
    endloop
  endfacet
  facet normal -0 0 -1
    outer loop
      vertex 10.2612 4.61887 0
      vertex 7.31871 4.35673 0
      vertex 10.9486 5.31528 0
    endloop
  endfacet
  facet normal 0 -0 1
    outer loop
      vertex 4.11478 18.8597 2
      vertex 4.51944 19.0233 2
      vertex 3.7469 20.5642 2
    endloop
  endfacet
  facet normal 0 -0 1
    outer loop
      vertex 13.5 0 2
      vertex 15 3.75 2
      vertex 9.29982 3.75 2
    endloop
  endfacet
  facet normal 0 0 1
    outer loop
      vertex 6.50965 22.1653 2
      vertex 7.71442 22.5139 2
      vertex 6.92302 22.5139 2
    endloop
  endfacet
  facet normal 0 -0 1
    outer loop
      vertex 4.37624 4.61887 2
      vertex 5.25523 6.18609 2
      vertex 3.68884 5.31528 2
    endloop
  endfacet
  facet normal 0 -0 1
    outer loop
      vertex 15.331 12.1303 2
      vertex 15.6986 13.113 2
      vertex 11.8808 20.2019 2
    endloop
  endfacet
  facet normal 0 0 1
    outer loop
      vertex 15.6986 13.113 2
      vertex 12.3817 20.0501 2
      vertex 11.8808 20.2019 2
    endloop
  endfacet
  facet normal 0 0 1
    outer loop
      vertex 12.8844 19.9169 2
      vertex 16.2835 15.1477 2
      vertex 13.3873 19.8018 2
    endloop
  endfacet
  facet normal 0 0 1
    outer loop
      vertex 14.387 19.6232 2
      vertex 16.4956 16.1964 2
      vertex 16.6504 17.2637 2
    endloop
  endfacet
  facet normal 0 0 1
    outer loop
      vertex 15.3683 19.5091 2
      vertex 16.6504 17.2637 2
      vertex 16.7454 18.3481 2
    endloop
  endfacet
  facet normal 0 0 1
    outer loop
      vertex 16.3183 19.4545 2
      vertex 16.7454 18.3481 2
      vertex 16.7776 19.4479 2
    endloop
  endfacet
  facet normal 0 0 1
    outer loop
      vertex 15.848 19.4747 2
      vertex 16.7454 18.3481 2
      vertex 16.3183 19.4545 2
    endloop
  endfacet
  facet normal 0 0 1
    outer loop
      vertex 15.3683 19.5091 2
      vertex 16.7454 18.3481 2
      vertex 15.848 19.4747 2
    endloop
  endfacet
  facet normal 0 0 1
    outer loop
      vertex 14.8808 19.5584 2
      vertex 16.6504 17.2637 2
      vertex 15.3683 19.5091 2
    endloop
  endfacet
  facet normal 0 0 1
    outer loop
      vertex 14.387 19.6232 2
      vertex 16.6504 17.2637 2
      vertex 14.8808 19.5584 2
    endloop
  endfacet
  facet normal 0 0 1
    outer loop
      vertex 13.8887 19.7041 2
      vertex 16.4956 16.1964 2
      vertex 14.387 19.6232 2
    endloop
  endfacet
  facet normal 0 -0 1
    outer loop
      vertex 16.2835 15.1477 2
      vertex 16.4956 16.1964 2
      vertex 13.8887 19.7041 2
    endloop
  endfacet
  facet normal 0 0 1
    outer loop
      vertex 16.2835 15.1477 2
      vertex 13.8887 19.7041 2
      vertex 13.3873 19.8018 2
    endloop
  endfacet
  facet normal 0 -0 1
    outer loop
      vertex 16.017 14.1194 2
      vertex 16.2835 15.1477 2
      vertex 12.8844 19.9169 2
    endloop
  endfacet
  facet normal 0 0 1
    outer loop
      vertex 16.017 14.1194 2
      vertex 12.8844 19.9169 2
      vertex 12.3817 20.0501 2
    endloop
  endfacet
  facet normal 0 0 1
    outer loop
      vertex 16.017 14.1194 2
      vertex 12.3817 20.0501 2
      vertex 15.6986 13.113 2
    endloop
  endfacet
  facet normal 0 0 1
    outer loop
      vertex 15.331 12.1303 2
      vertex 11.8808 20.2019 2
      vertex 11.3832 20.3731 2
    endloop
  endfacet
  facet normal 0 0 1
    outer loop
      vertex 7.71442 22.5139 2
      vertex 7.31871 22.8875 2
      vertex 6.92302 22.5139 2
    endloop
  endfacet
  facet normal -0 0 1
    outer loop
      vertex 3.7469 20.5642 2
      vertex 4.51944 19.0233 2
      vertex 4.23298 20.7759 2
    endloop
  endfacet
  facet normal 0 0 1
    outer loop
      vertex 4.11478 18.8597 2
      vertex 3.7469 20.5642 2
      vertex 3.25423 20.3731 2
    endloop
  endfacet
  facet normal 0 0 1
    outer loop
      vertex 4.23298 20.7759 2
      vertex 4.51944 19.0233 2
      vertex 4.92477 19.2015 2
    endloop
  endfacet
  facet normal 0 0 1
    outer loop
      vertex 5.17921 21.2635 2
      vertex 5.7338 19.6046 2
      vertex 6.13557 19.8306 2
    endloop
  endfacet
  facet normal 0 0 1
    outer loop
      vertex 4.23298 20.7759 2
      vertex 4.92477 19.2015 2
      vertex 5.32988 19.3951 2
    endloop
  endfacet
  facet normal 0 -0 1
    outer loop
      vertex 2.91436 18.4511 2
      vertex 3.31129 18.5742 2
      vertex 2.75666 20.2019 2
    endloop
  endfacet
  facet normal 0 0 1
    outer loop
      vertex 5.17921 21.2635 2
      vertex 4.71095 21.0088 2
      vertex 5.7338 19.6046 2
    endloop
  endfacet
  facet normal 0 -0 1
    outer loop
      vertex 6.53428 20.0737 2
      vertex 6.92897 20.3346 2
      vertex 5.63614 21.5408 2
    endloop
  endfacet
  facet normal 0 -0 1
    outer loop
      vertex 3.31129 18.5742 2
      vertex 3.71175 18.7103 2
      vertex 2.75666 20.2019 2
    endloop
  endfacet
  facet normal 0 0 1
    outer loop
      vertex 6.08014 21.8412 2
      vertex 5.63614 21.5408 2
      vertex 6.92897 20.3346 2
    endloop
  endfacet
  facet normal 0 0 1
    outer loop
      vertex 3.29827 8.48694 2
      vertex 1.78562 7.62819 2
      vertex 2.3908 6.82157 2
    endloop
  endfacet
  facet normal 0 0 1
    outer loop
      vertex 2.84429 9.13113 2
      vertex 1.21326 8.46827 2
      vertex 1.78562 7.62819 2
    endloop
  endfacet
  facet normal 0 0 1
    outer loop
      vertex 6.50965 22.1653 2
      vertex 8.12782 22.1653 2
      vertex 7.71442 22.5139 2
    endloop
  endfacet
  facet normal 0 0 1
    outer loop
      vertex 1.99602 10.498 2
      vertex 0.676483 9.34015 2
      vertex 2.40935 9.80168 2
    endloop
  endfacet
  facet normal 0 0 1
    outer loop
      vertex -2.01299 17.2637 2
      vertex -1.85817 16.1964 2
      vertex -0.237019 16.9195 2
    endloop
  endfacet
  facet normal 0 0 1
    outer loop
      vertex 1.60668 11.2193 2
      vertex 0.177898 10.2422 2
      vertex 1.99602 10.498 2
    endloop
  endfacet
  facet normal -0 0 1
    outer loop
      vertex -0.279682 11.1728 2
      vertex 0.177898 10.2422 2
      vertex 1.60668 11.2193 2
    endloop
  endfacet
  facet normal 0 0 1
    outer loop
      vertex 1.24386 11.9652 2
      vertex -0.693569 12.1303 2
      vertex -0.279682 11.1728 2
    endloop
  endfacet
  facet normal 0 0 1
    outer loop
      vertex 0.748787 19.7041 2
      vertex 0.250431 19.6232 2
      vertex 0.659225 17.9474 2
    endloop
  endfacet
  facet normal -0 0 1
    outer loop
      vertex -1.06107 13.113 2
      vertex -0.693569 12.1303 2
      vertex 0.60775 13.5279 2
    endloop
  endfacet
  facet normal 0 0 1
    outer loop
      vertex -1.06107 13.113 2
      vertex 0.60775 13.5279 2
      vertex 0.339397 14.3434 2
    endloop
  endfacet
  facet normal 0 -0 1
    outer loop
      vertex -1.37948 14.1194 2
      vertex 0.107494 15.181 2
      vertex -1.64608 15.1477 2
    endloop
  endfacet
  facet normal -0 0 1
    outer loop
      vertex 0.676483 9.34015 2
      vertex 1.21326 8.46827 2
      vertex 2.40935 9.80168 2
    endloop
  endfacet
  facet normal 0 0 1
    outer loop
      vertex 2.84429 9.13113 2
      vertex 1.78562 7.62819 2
      vertex 3.29827 8.48694 2
    endloop
  endfacet
  facet normal 0 0 1
    outer loop
      vertex -1.37948 14.1194 2
      vertex 0.339397 14.3434 2
      vertex 0.107494 15.181 2
    endloop
  endfacet
  facet normal 0 0 1
    outer loop
      vertex 3.29827 8.48694 2
      vertex 2.3908 6.82157 2
      vertex 3.76884 7.86971 2
    endloop
  endfacet
  facet normal 0 0 1
    outer loop
      vertex -0.085453 16.0399 2
      vertex -1.85817 16.1964 2
      vertex -1.64608 15.1477 2
    endloop
  endfacet
  facet normal -0 0 1
    outer loop
      vertex -2.01299 17.2637 2
      vertex -0.237019 16.9195 2
      vertex -0.34465 17.8193 2
    endloop
  endfacet
  facet normal 0 0 1
    outer loop
      vertex -0.34465 17.8193 2
      vertex -1.21056 19.4747 2
      vertex -2.10788 18.3481 2
    endloop
  endfacet
  facet normal 0 0 1
    outer loop
      vertex -1.21056 19.4747 2
      vertex -1.68083 19.4545 2
      vertex -2.10788 18.3481 2
    endloop
  endfacet
  facet normal 0 0 1
    outer loop
      vertex -1.68083 19.4545 2
      vertex -2.14013 19.4479 2
      vertex -2.10788 18.3481 2
    endloop
  endfacet
  facet normal 0 0 1
    outer loop
      vertex 3.71175 18.7103 2
      vertex 3.25423 20.3731 2
      vertex 2.75666 20.2019 2
    endloop
  endfacet
  facet normal 0 0 1
    outer loop
      vertex 4.25351 7.28006 2
      vertex 2.3908 6.82157 2
      vertex 3.02613 6.05003 2
    endloop
  endfacet
  facet normal 0 0 1
    outer loop
      vertex 4.25351 7.28006 2
      vertex 3.02613 6.05003 2
      vertex 4.74981 6.71865 2
    endloop
  endfacet
  facet normal -0 0 1
    outer loop
      vertex 3.02613 6.05003 2
      vertex 3.68884 5.31528 2
      vertex 4.74981 6.71865 2
    endloop
  endfacet
  facet normal -0 0 1
    outer loop
      vertex 4.37624 4.61887 2
      vertex 5.08567 3.96253 2
      vertex 5.76735 5.68298 2
    endloop
  endfacet
  facet normal 0 0 1
    outer loop
      vertex 5.76735 5.68298 2
      vertex 5.08567 3.96253 2
      vertex 6.2836 5.20999 2
    endloop
  endfacet
  facet normal 0 -0 1
    outer loop
      vertex 5.33762 3.75 2
      vertex 6.2836 5.20999 2
      vertex 5.08567 3.96253 2
    endloop
  endfacet
  facet normal -0 0 1
    outer loop
      vertex 7.31871 4.35673 2
      vertex 9.55177 3.96253 2
      vertex 10.2612 4.61887 2
    endloop
  endfacet
  facet normal 0 0 1
    outer loop
      vertex 6.80158 4.76769 2
      vertex 5.33762 3.75 2
      vertex 7.31871 4.35673 2
    endloop
  endfacet
  facet normal 0 -0 1
    outer loop
      vertex 9.29982 3.75 2
      vertex 9.55177 3.96253 2
      vertex 7.31871 4.35673 2
    endloop
  endfacet
  facet normal 0 0 1
    outer loop
      vertex 9.29982 3.75 2
      vertex 7.31871 4.35673 2
      vertex 5.33762 3.75 2
    endloop
  endfacet
  facet normal 0 0 1
    outer loop
      vertex 9.29982 3.75 2
      vertex 5.33762 3.75 2
      vertex 1.5 0 2
    endloop
  endfacet
  facet normal 0 0 1
    outer loop
      vertex 5.33762 3.75 2
      vertex 0 3.75 2
      vertex 1.5 0 2
    endloop
  endfacet
  facet normal 0 0 1
    outer loop
      vertex 9.29982 3.75 2
      vertex 1.5 0 2
      vertex 13.5 0 2
    endloop
  endfacet
  facet normal 0 0 1
    outer loop
      vertex 6.80158 4.76769 2
      vertex 6.2836 5.20999 2
      vertex 5.33762 3.75 2
    endloop
  endfacet
  facet normal 0 0 1
    outer loop
      vertex 4.37624 4.61887 2
      vertex 5.76735 5.68298 2
      vertex 5.25523 6.18609 2
    endloop
  endfacet
  facet normal 0 0 1
    outer loop
      vertex 3.68884 5.31528 2
      vertex 5.25523 6.18609 2
      vertex 4.74981 6.71865 2
    endloop
  endfacet
  facet normal 0 0 1
    outer loop
      vertex 4.25351 7.28006 2
      vertex 3.76884 7.86971 2
      vertex 2.3908 6.82157 2
    endloop
  endfacet
  facet normal 0 0 1
    outer loop
      vertex 2.91436 18.4511 2
      vertex 2.25574 20.0501 2
      vertex 2.52187 18.3401 2
    endloop
  endfacet
  facet normal 0 0 1
    outer loop
      vertex 2.40935 9.80168 2
      vertex 1.21326 8.46827 2
      vertex 2.84429 9.13113 2
    endloop
  endfacet
  facet normal 0 0 1
    outer loop
      vertex 2.52187 18.3401 2
      vertex 1.75304 19.9169 2
      vertex 2.13479 18.2408 2
    endloop
  endfacet
  facet normal -0 0 1
    outer loop
      vertex 0.177898 10.2422 2
      vertex 0.676483 9.34015 2
      vertex 1.99602 10.498 2
    endloop
  endfacet
  facet normal 0 0 1
    outer loop
      vertex 1.75304 19.9169 2
      vertex 1.25019 19.8018 2
      vertex 1.75405 18.1525 2
    endloop
  endfacet
  facet normal 0 0 1
    outer loop
      vertex 1.25019 19.8018 2
      vertex 0.748787 19.7041 2
      vertex 1.38058 18.0745 2
    endloop
  endfacet
  facet normal 0 0 1
    outer loop
      vertex 1.60668 11.2193 2
      vertex 1.24386 11.9652 2
      vertex -0.279682 11.1728 2
    endloop
  endfacet
  facet normal 0 0 1
    outer loop
      vertex 0.659225 17.9474 2
      vertex 1.01531 18.0064 2
      vertex 0.748787 19.7041 2
    endloop
  endfacet
  facet normal 0 0 1
    outer loop
      vertex 1.24386 11.9652 2
      vertex 0.910057 12.7349 2
      vertex -0.693569 12.1303 2
    endloop
  endfacet
  facet normal 0 0 1
    outer loop
      vertex 0.60775 13.5279 2
      vertex -0.693569 12.1303 2
      vertex 0.910057 12.7349 2
    endloop
  endfacet
  facet normal 0 0 1
    outer loop
      vertex 3.25423 20.3731 2
      vertex 3.71175 18.7103 2
      vertex 4.11478 18.8597 2
    endloop
  endfacet
  facet normal 0 -0 1
    outer loop
      vertex -1.06107 13.113 2
      vertex 0.339397 14.3434 2
      vertex -1.37948 14.1194 2
    endloop
  endfacet
  facet normal -0 0 1
    outer loop
      vertex -0.243301 19.5584 2
      vertex 0.313248 17.897 2
      vertex 0.250431 19.6232 2
    endloop
  endfacet
  facet normal 0 -0 1
    outer loop
      vertex -0.0217094 17.8544 2
      vertex 0.313248 17.897 2
      vertex -0.243301 19.5584 2
    endloop
  endfacet
  facet normal 0 0 1
    outer loop
      vertex -0.243301 19.5584 2
      vertex -0.34465 17.8193 2
      vertex -0.0217094 17.8544 2
    endloop
  endfacet
  facet normal 0 0 1
    outer loop
      vertex -0.085453 16.0399 2
      vertex -1.64608 15.1477 2
      vertex 0.107494 15.181 2
    endloop
  endfacet
  facet normal 0 0 1
    outer loop
      vertex -0.237019 16.9195 2
      vertex -1.85817 16.1964 2
      vertex -0.085453 16.0399 2
    endloop
  endfacet
  facet normal 0 0 1
    outer loop
      vertex -0.34465 17.8193 2
      vertex -2.10788 18.3481 2
      vertex -2.01299 17.2637 2
    endloop
  endfacet
  facet normal -0 0 1
    outer loop
      vertex -0.730831 19.5091 2
      vertex -0.34465 17.8193 2
      vertex -0.243301 19.5584 2
    endloop
  endfacet
  facet normal 0 0 1
    outer loop
      vertex -0.730831 19.5091 2
      vertex -1.21056 19.4747 2
      vertex -0.34465 17.8193 2
    endloop
  endfacet
  facet normal 0 0 1
    outer loop
      vertex 0.659225 17.9474 2
      vertex 0.250431 19.6232 2
      vertex 0.313248 17.897 2
    endloop
  endfacet
  facet normal 0 -0 1
    outer loop
      vertex 1.01531 18.0064 2
      vertex 1.38058 18.0745 2
      vertex 0.748787 19.7041 2
    endloop
  endfacet
  facet normal 0 -0 1
    outer loop
      vertex 1.38058 18.0745 2
      vertex 1.75405 18.1525 2
      vertex 1.25019 19.8018 2
    endloop
  endfacet
  facet normal 0 -0 1
    outer loop
      vertex 1.75405 18.1525 2
      vertex 2.13479 18.2408 2
      vertex 1.75304 19.9169 2
    endloop
  endfacet
  facet normal 0 0 1
    outer loop
      vertex 2.25574 20.0501 2
      vertex 1.75304 19.9169 2
      vertex 2.52187 18.3401 2
    endloop
  endfacet
  facet normal 0 0 1
    outer loop
      vertex 2.75666 20.2019 2
      vertex 2.25574 20.0501 2
      vertex 2.91436 18.4511 2
    endloop
  endfacet
  facet normal -0 0 1
    outer loop
      vertex 4.23298 20.7759 2
      vertex 5.32988 19.3951 2
      vertex 4.71095 21.0088 2
    endloop
  endfacet
  facet normal 0 0 1
    outer loop
      vertex 9.92649 21.0088 2
      vertex 7.31871 20.6139 2
      vertex 10.4045 20.7759 2
    endloop
  endfacet
  facet normal 0 -0 1
    outer loop
      vertex 5.32988 19.3951 2
      vertex 5.7338 19.6046 2
      vertex 4.71095 21.0088 2
    endloop
  endfacet
  facet normal -0 0 1
    outer loop
      vertex 5.17921 21.2635 2
      vertex 6.13557 19.8306 2
      vertex 5.63614 21.5408 2
    endloop
  endfacet
  facet normal 0 0 1
    outer loop
      vertex 7.31871 20.6139 2
      vertex 9.45822 21.2635 2
      vertex 9.0013 21.5408 2
    endloop
  endfacet
  facet normal 0 0 1
    outer loop
      vertex 9.92649 21.0088 2
      vertex 9.45822 21.2635 2
      vertex 7.31871 20.6139 2
    endloop
  endfacet
  facet normal 0 -0 1
    outer loop
      vertex 6.13557 19.8306 2
      vertex 6.53428 20.0737 2
      vertex 5.63614 21.5408 2
    endloop
  endfacet
  facet normal 0 0 1
    outer loop
      vertex 6.08014 21.8412 2
      vertex 6.92897 20.3346 2
      vertex 7.31871 20.6139 2
    endloop
  endfacet
  facet normal -0 0 1
    outer loop
      vertex 6.08014 21.8412 2
      vertex 7.31871 20.6139 2
      vertex 6.50965 22.1653 2
    endloop
  endfacet
  facet normal 0 -0 1
    outer loop
      vertex 7.31871 20.6139 2
      vertex 8.12782 22.1653 2
      vertex 6.50965 22.1653 2
    endloop
  endfacet
  facet normal 0 0 1
    outer loop
      vertex 8.5573 21.8412 2
      vertex 7.31871 20.6139 2
      vertex 9.0013 21.5408 2
    endloop
  endfacet
  facet normal 0 0 1
    outer loop
      vertex 8.5573 21.8412 2
      vertex 8.12782 22.1653 2
      vertex 7.31871 20.6139 2
    endloop
  endfacet
  facet normal -0 0 1
    outer loop
      vertex 7.31871 20.6139 2
      vertex 10.8906 20.5642 2
      vertex 10.4045 20.7759 2
    endloop
  endfacet
  facet normal 0 0 1
    outer loop
      vertex 7.31871 20.6139 2
      vertex 11.3832 20.3731 2
      vertex 10.8906 20.5642 2
    endloop
  endfacet
  facet normal 0 0 1
    outer loop
      vertex 7.31871 20.6139 2
      vertex 14.9171 11.1728 2
      vertex 11.3832 20.3731 2
    endloop
  endfacet
  facet normal 0 0 1
    outer loop
      vertex 11.3832 20.3731 2
      vertex 14.9171 11.1728 2
      vertex 15.331 12.1303 2
    endloop
  endfacet
  facet normal 0 0 1
    outer loop
      vertex 7.31871 20.6139 2
      vertex 14.4595 10.2422 2
      vertex 14.9171 11.1728 2
    endloop
  endfacet
  facet normal 0 0 1
    outer loop
      vertex 7.31871 20.6139 2
      vertex 13.961 9.34015 2
      vertex 14.4595 10.2422 2
    endloop
  endfacet
  facet normal 0 0 1
    outer loop
      vertex 7.31871 20.6139 2
      vertex 13.4242 8.46827 2
      vertex 13.961 9.34015 2
    endloop
  endfacet
  facet normal 0 0 1
    outer loop
      vertex 7.31871 20.6139 2
      vertex 12.8518 7.62819 2
      vertex 13.4242 8.46827 2
    endloop
  endfacet
  facet normal 0 0 1
    outer loop
      vertex 7.31871 20.6139 2
      vertex 7.31871 4.35673 2
      vertex 12.8518 7.62819 2
    endloop
  endfacet
  facet normal 0 0 1
    outer loop
      vertex 12.8518 7.62819 2
      vertex 7.31871 4.35673 2
      vertex 12.2466 6.82157 2
    endloop
  endfacet
  facet normal 0 0 1
    outer loop
      vertex 12.2466 6.82157 2
      vertex 7.31871 4.35673 2
      vertex 11.6113 6.05003 2
    endloop
  endfacet
  facet normal 0 0 1
    outer loop
      vertex 11.6113 6.05003 2
      vertex 7.31871 4.35673 2
      vertex 10.9486 5.31528 2
    endloop
  endfacet
  facet normal 0 0 1
    outer loop
      vertex 10.9486 5.31528 2
      vertex 7.31871 4.35673 2
      vertex 10.2612 4.61887 2
    endloop
  endfacet
  facet normal 0 1 0
    outer loop
      vertex 9.29982 3.75 0
      vertex 15 3.75 2
      vertex 15 3.75 0
    endloop
  endfacet
  facet normal 0 1 0
    outer loop
      vertex 9.29982 3.75 0
      vertex 9.29982 3.75 2
      vertex 15 3.75 2
    endloop
  endfacet
  facet normal 0.644777 -0.76437 0
    outer loop
      vertex 9.55177 3.96253 0
      vertex 9.29982 3.75 2
      vertex 9.29982 3.75 0
    endloop
  endfacet
  facet normal 0.644777 -0.76437 0
    outer loop
      vertex 9.55177 3.96253 0
      vertex 9.55177 3.96253 2
      vertex 9.29982 3.75 2
    endloop
  endfacet
  facet normal 0.679107 -0.734039 0
    outer loop
      vertex 10.2612 4.61887 0
      vertex 9.55177 3.96253 2
      vertex 9.55177 3.96253 0
    endloop
  endfacet
  facet normal 0.679107 -0.734039 0
    outer loop
      vertex 10.2612 4.61887 0
      vertex 10.2612 4.61887 2
      vertex 9.55177 3.96253 2
    endloop
  endfacet
  facet normal 0.711696 -0.702488 0
    outer loop
      vertex 10.9486 5.31528 0
      vertex 10.2612 4.61887 2
      vertex 10.2612 4.61887 0
    endloop
  endfacet
  facet normal 0.711696 -0.702488 0
    outer loop
      vertex 10.9486 5.31528 0
      vertex 10.9486 5.31528 2
      vertex 10.2612 4.61887 2
    endloop
  endfacet
  facet normal 0.742578 -0.66976 0
    outer loop
      vertex 11.6113 6.05003 0
      vertex 10.9486 5.31528 2
      vertex 10.9486 5.31528 0
    endloop
  endfacet
  facet normal 0.742578 -0.66976 0
    outer loop
      vertex 11.6113 6.05003 0
      vertex 11.6113 6.05003 2
      vertex 10.9486 5.31528 2
    endloop
  endfacet
  facet normal 0.771972 -0.635656 0
    outer loop
      vertex 12.2466 6.82157 0
      vertex 11.6113 6.05003 2
      vertex 11.6113 6.05003 0
    endloop
  endfacet
  facet normal 0.771972 -0.635656 0
    outer loop
      vertex 12.2466 6.82157 0
      vertex 12.2466 6.82157 2
      vertex 11.6113 6.05003 2
    endloop
  endfacet
  facet normal 0.799888 -0.600149 0
    outer loop
      vertex 12.8518 7.62819 0
      vertex 12.2466 6.82157 2
      vertex 12.2466 6.82157 0
    endloop
  endfacet
  facet normal 0.799888 -0.600149 0
    outer loop
      vertex 12.8518 7.62819 0
      vertex 12.8518 7.62819 2
      vertex 12.2466 6.82157 2
    endloop
  endfacet
  facet normal 0.826402 -0.56308 0
    outer loop
      vertex 13.4242 8.46827 0
      vertex 12.8518 7.62819 2
      vertex 12.8518 7.62819 0
    endloop
  endfacet
  facet normal 0.826402 -0.56308 0
    outer loop
      vertex 13.4242 8.46827 0
      vertex 13.4242 8.46827 2
      vertex 12.8518 7.62819 2
    endloop
  endfacet
  facet normal 0.851546 -0.524281 0
    outer loop
      vertex 13.961 9.34015 0
      vertex 13.4242 8.46827 2
      vertex 13.4242 8.46827 0
    endloop
  endfacet
  facet normal 0.851546 -0.524281 0
    outer loop
      vertex 13.961 9.34015 0
      vertex 13.961 9.34015 2
      vertex 13.4242 8.46827 2
    endloop
  endfacet
  facet normal 0.875242 -0.483685 0
    outer loop
      vertex 14.4595 10.2422 0
      vertex 13.961 9.34015 2
      vertex 13.961 9.34015 0
    endloop
  endfacet
  facet normal 0.875242 -0.483685 0
    outer loop
      vertex 14.4595 10.2422 0
      vertex 14.4595 10.2422 2
      vertex 13.961 9.34015 2
    endloop
  endfacet
  facet normal 0.897378 -0.441264 0
    outer loop
      vertex 14.9171 11.1728 0
      vertex 14.4595 10.2422 2
      vertex 14.4595 10.2422 0
    endloop
  endfacet
  facet normal 0.897378 -0.441264 0
    outer loop
      vertex 14.9171 11.1728 0
      vertex 14.9171 11.1728 2
      vertex 14.4595 10.2422 2
    endloop
  endfacet
  facet normal 0.917911 -0.396787 0
    outer loop
      vertex 15.331 12.1303 0
      vertex 14.9171 11.1728 2
      vertex 14.9171 11.1728 0
    endloop
  endfacet
  facet normal 0.917911 -0.396787 0
    outer loop
      vertex 15.331 12.1303 0
      vertex 15.331 12.1303 2
      vertex 14.9171 11.1728 2
    endloop
  endfacet
  facet normal 0.936615 -0.350361 0
    outer loop
      vertex 15.6986 13.113 0
      vertex 15.331 12.1303 2
      vertex 15.331 12.1303 0
    endloop
  endfacet
  facet normal 0.936615 -0.350361 0
    outer loop
      vertex 15.6986 13.113 0
      vertex 15.6986 13.113 2
      vertex 15.331 12.1303 2
    endloop
  endfacet
  facet normal 0.953422 -0.301639 0
    outer loop
      vertex 16.017 14.1194 0
      vertex 15.6986 13.113 2
      vertex 15.6986 13.113 0
    endloop
  endfacet
  facet normal 0.953422 -0.301639 0
    outer loop
      vertex 16.017 14.1194 0
      vertex 16.017 14.1194 2
      vertex 15.6986 13.113 2
    endloop
  endfacet
  facet normal 0.968019 -0.250877 0
    outer loop
      vertex 16.2835 15.1477 0
      vertex 16.017 14.1194 2
      vertex 16.017 14.1194 0
    endloop
  endfacet
  facet normal 0.968019 -0.250877 0
    outer loop
      vertex 16.2835 15.1477 0
      vertex 16.2835 15.1477 2
      vertex 16.017 14.1194 2
    endloop
  endfacet
  facet normal 0.980154 -0.198237 0
    outer loop
      vertex 16.4956 16.1964 0
      vertex 16.2835 15.1477 2
      vertex 16.2835 15.1477 0
    endloop
  endfacet
  facet normal 0.980154 -0.198237 0
    outer loop
      vertex 16.4956 16.1964 0
      vertex 16.4956 16.1964 2
      vertex 16.2835 15.1477 2
    endloop
  endfacet
  facet normal 0.989645 -0.143537 0
    outer loop
      vertex 16.6504 17.2637 0
      vertex 16.4956 16.1964 2
      vertex 16.4956 16.1964 0
    endloop
  endfacet
  facet normal 0.989645 -0.143537 0
    outer loop
      vertex 16.6504 17.2637 0
      vertex 16.6504 17.2637 2
      vertex 16.4956 16.1964 2
    endloop
  endfacet
  facet normal 0.996185 -0.0872718 0
    outer loop
      vertex 16.7454 18.3481 0
      vertex 16.6504 17.2637 2
      vertex 16.6504 17.2637 0
    endloop
  endfacet
  facet normal 0.996185 -0.0872718 0
    outer loop
      vertex 16.7454 18.3481 0
      vertex 16.7454 18.3481 2
      vertex 16.6504 17.2637 2
    endloop
  endfacet
  facet normal 0.999572 -0.0292655 0
    outer loop
      vertex 16.7776 19.4479 0
      vertex 16.7454 18.3481 2
      vertex 16.7454 18.3481 0
    endloop
  endfacet
  facet normal 0.999572 -0.0292655 0
    outer loop
      vertex 16.7776 19.4479 0
      vertex 16.7776 19.4479 2
      vertex 16.7454 18.3481 2
    endloop
  endfacet
  facet normal 0.0143682 0.999897 0
    outer loop
      vertex 16.3183 19.4545 0
      vertex 16.7776 19.4479 2
      vertex 16.7776 19.4479 0
    endloop
  endfacet
  facet normal 0.0143682 0.999897 -0
    outer loop
      vertex 16.3183 19.4545 0
      vertex 16.3183 19.4545 2
      vertex 16.7776 19.4479 2
    endloop
  endfacet
  facet normal 0.0429117 0.999079 0
    outer loop
      vertex 15.848 19.4747 0
      vertex 16.3183 19.4545 2
      vertex 16.3183 19.4545 0
    endloop
  endfacet
  facet normal 0.0429117 0.999079 -0
    outer loop
      vertex 15.848 19.4747 0
      vertex 15.848 19.4747 2
      vertex 16.3183 19.4545 2
    endloop
  endfacet
  facet normal 0.0715278 0.997439 0
    outer loop
      vertex 15.3683 19.5091 0
      vertex 15.848 19.4747 2
      vertex 15.848 19.4747 0
    endloop
  endfacet
  facet normal 0.0715278 0.997439 -0
    outer loop
      vertex 15.3683 19.5091 0
      vertex 15.3683 19.5091 2
      vertex 15.848 19.4747 2
    endloop
  endfacet
  facet normal 0.100615 0.994925 0
    outer loop
      vertex 14.8808 19.5584 0
      vertex 15.3683 19.5091 2
      vertex 15.3683 19.5091 0
    endloop
  endfacet
  facet normal 0.100615 0.994925 -0
    outer loop
      vertex 14.8808 19.5584 0
      vertex 14.8808 19.5584 2
      vertex 15.3683 19.5091 2
    endloop
  endfacet
  facet normal 0.130112 0.991499 0
    outer loop
      vertex 14.387 19.6232 0
      vertex 14.8808 19.5584 2
      vertex 14.8808 19.5584 0
    endloop
  endfacet
  facet normal 0.130112 0.991499 -0
    outer loop
      vertex 14.387 19.6232 0
      vertex 14.387 19.6232 2
      vertex 14.8808 19.5584 2
    endloop
  endfacet
  facet normal 0.160254 0.987076 0
    outer loop
      vertex 13.8887 19.7041 0
      vertex 14.387 19.6232 2
      vertex 14.387 19.6232 0
    endloop
  endfacet
  facet normal 0.160254 0.987076 -0
    outer loop
      vertex 13.8887 19.7041 0
      vertex 13.8887 19.7041 2
      vertex 14.387 19.6232 2
    endloop
  endfacet
  facet normal 0.191257 0.98154 0
    outer loop
      vertex 13.3873 19.8018 0
      vertex 13.8887 19.7041 2
      vertex 13.8887 19.7041 0
    endloop
  endfacet
  facet normal 0.191257 0.98154 -0
    outer loop
      vertex 13.3873 19.8018 0
      vertex 13.3873 19.8018 2
      vertex 13.8887 19.7041 2
    endloop
  endfacet
  facet normal 0.223104 0.974795 0
    outer loop
      vertex 12.8844 19.9169 0
      vertex 13.3873 19.8018 2
      vertex 13.3873 19.8018 0
    endloop
  endfacet
  facet normal 0.223104 0.974795 -0
    outer loop
      vertex 12.8844 19.9169 0
      vertex 12.8844 19.9169 2
      vertex 13.3873 19.8018 2
    endloop
  endfacet
  facet normal 0.25613 0.966642 0
    outer loop
      vertex 12.3817 20.0501 0
      vertex 12.8844 19.9169 2
      vertex 12.8844 19.9169 0
    endloop
  endfacet
  facet normal 0.25613 0.966642 -0
    outer loop
      vertex 12.3817 20.0501 0
      vertex 12.3817 20.0501 2
      vertex 12.8844 19.9169 2
    endloop
  endfacet
  facet normal 0.290029 0.957018 0
    outer loop
      vertex 11.8808 20.2019 0
      vertex 12.3817 20.0501 2
      vertex 12.3817 20.0501 0
    endloop
  endfacet
  facet normal 0.290029 0.957018 -0
    outer loop
      vertex 11.8808 20.2019 0
      vertex 11.8808 20.2019 2
      vertex 12.3817 20.0501 2
    endloop
  endfacet
  facet normal 0.325335 0.945599 0
    outer loop
      vertex 11.3832 20.3731 0
      vertex 11.8808 20.2019 2
      vertex 11.8808 20.2019 0
    endloop
  endfacet
  facet normal 0.325335 0.945599 -0
    outer loop
      vertex 11.3832 20.3731 0
      vertex 11.3832 20.3731 2
      vertex 11.8808 20.2019 2
    endloop
  endfacet
  facet normal 0.361679 0.932303 0
    outer loop
      vertex 10.8906 20.5642 0
      vertex 11.3832 20.3731 2
      vertex 11.3832 20.3731 0
    endloop
  endfacet
  facet normal 0.361679 0.932303 -0
    outer loop
      vertex 10.8906 20.5642 0
      vertex 10.8906 20.5642 2
      vertex 11.3832 20.3731 2
    endloop
  endfacet
  facet normal 0.399285 0.916827 0
    outer loop
      vertex 10.4045 20.7759 0
      vertex 10.8906 20.5642 2
      vertex 10.8906 20.5642 0
    endloop
  endfacet
  facet normal 0.399285 0.916827 -0
    outer loop
      vertex 10.4045 20.7759 0
      vertex 10.4045 20.7759 2
      vertex 10.8906 20.5642 2
    endloop
  endfacet
  facet normal 0.438005 0.898973 0
    outer loop
      vertex 9.92649 21.0088 0
      vertex 10.4045 20.7759 2
      vertex 10.4045 20.7759 0
    endloop
  endfacet
  facet normal 0.438005 0.898973 -0
    outer loop
      vertex 9.92649 21.0088 0
      vertex 9.92649 21.0088 2
      vertex 10.4045 20.7759 2
    endloop
  endfacet
  facet normal 0.477811 0.878463 0
    outer loop
      vertex 9.45822 21.2635 0
      vertex 9.92649 21.0088 2
      vertex 9.92649 21.0088 0
    endloop
  endfacet
  facet normal 0.477811 0.878463 -0
    outer loop
      vertex 9.45822 21.2635 0
      vertex 9.45822 21.2635 2
      vertex 9.92649 21.0088 2
    endloop
  endfacet
  facet normal 0.51882 0.854884 0
    outer loop
      vertex 9.0013 21.5408 0
      vertex 9.45822 21.2635 2
      vertex 9.45822 21.2635 0
    endloop
  endfacet
  facet normal 0.51882 0.854884 -0
    outer loop
      vertex 9.0013 21.5408 0
      vertex 9.0013 21.5408 2
      vertex 9.45822 21.2635 2
    endloop
  endfacet
  facet normal 0.56037 0.828243 0
    outer loop
      vertex 8.5573 21.8412 0
      vertex 9.0013 21.5408 2
      vertex 9.0013 21.5408 0
    endloop
  endfacet
  facet normal 0.56037 0.828243 -0
    outer loop
      vertex 8.5573 21.8412 0
      vertex 8.5573 21.8412 2
      vertex 9.0013 21.5408 2
    endloop
  endfacet
  facet normal 0.602364 0.798221 0
    outer loop
      vertex 8.12782 22.1653 0
      vertex 8.5573 21.8412 2
      vertex 8.5573 21.8412 0
    endloop
  endfacet
  facet normal 0.602364 0.798221 -0
    outer loop
      vertex 8.12782 22.1653 0
      vertex 8.12782 22.1653 2
      vertex 8.5573 21.8412 2
    endloop
  endfacet
  facet normal 0.644648 0.764479 0
    outer loop
      vertex 7.71442 22.5139 0
      vertex 8.12782 22.1653 2
      vertex 8.12782 22.1653 0
    endloop
  endfacet
  facet normal 0.644648 0.764479 -0
    outer loop
      vertex 7.71442 22.5139 0
      vertex 7.71442 22.5139 2
      vertex 8.12782 22.1653 2
    endloop
  endfacet
  facet normal 0.686501 0.727129 0
    outer loop
      vertex 7.31871 22.8875 0
      vertex 7.71442 22.5139 2
      vertex 7.71442 22.5139 0
    endloop
  endfacet
  facet normal 0.686501 0.727129 -0
    outer loop
      vertex 7.31871 22.8875 0
      vertex 7.31871 22.8875 2
      vertex 7.71442 22.5139 2
    endloop
  endfacet
  facet normal -0.686519 0.727111 0
    outer loop
      vertex 6.92302 22.5139 0
      vertex 7.31871 22.8875 2
      vertex 7.31871 22.8875 0
    endloop
  endfacet
  facet normal -0.686519 0.727111 0
    outer loop
      vertex 6.92302 22.5139 0
      vertex 6.92302 22.5139 2
      vertex 7.31871 22.8875 2
    endloop
  endfacet
  facet normal -0.644675 0.764456 0
    outer loop
      vertex 6.50965 22.1653 0
      vertex 6.92302 22.5139 2
      vertex 6.92302 22.5139 0
    endloop
  endfacet
  facet normal -0.644675 0.764456 0
    outer loop
      vertex 6.50965 22.1653 0
      vertex 6.50965 22.1653 2
      vertex 6.92302 22.5139 2
    endloop
  endfacet
  facet normal -0.602338 0.798241 0
    outer loop
      vertex 6.08014 21.8412 0
      vertex 6.50965 22.1653 2
      vertex 6.50965 22.1653 0
    endloop
  endfacet
  facet normal -0.602338 0.798241 0
    outer loop
      vertex 6.08014 21.8412 0
      vertex 6.08014 21.8412 2
      vertex 6.50965 22.1653 2
    endloop
  endfacet
  facet normal -0.56037 0.828243 0
    outer loop
      vertex 5.63614 21.5408 0
      vertex 6.08014 21.8412 2
      vertex 6.08014 21.8412 0
    endloop
  endfacet
  facet normal -0.56037 0.828243 0
    outer loop
      vertex 5.63614 21.5408 0
      vertex 5.63614 21.5408 2
      vertex 6.08014 21.8412 2
    endloop
  endfacet
  facet normal -0.518812 0.854889 0
    outer loop
      vertex 5.17921 21.2635 0
      vertex 5.63614 21.5408 2
      vertex 5.63614 21.5408 0
    endloop
  endfacet
  facet normal -0.518812 0.854889 0
    outer loop
      vertex 5.17921 21.2635 0
      vertex 5.17921 21.2635 2
      vertex 5.63614 21.5408 2
    endloop
  endfacet
  facet normal -0.477819 0.878458 0
    outer loop
      vertex 4.71095 21.0088 0
      vertex 5.17921 21.2635 2
      vertex 5.17921 21.2635 0
    endloop
  endfacet
  facet normal -0.477819 0.878458 0
    outer loop
      vertex 4.71095 21.0088 0
      vertex 4.71095 21.0088 2
      vertex 5.17921 21.2635 2
    endloop
  endfacet
  facet normal -0.438035 0.898958 0
    outer loop
      vertex 4.23298 20.7759 0
      vertex 4.71095 21.0088 2
      vertex 4.71095 21.0088 0
    endloop
  endfacet
  facet normal -0.438035 0.898958 0
    outer loop
      vertex 4.23298 20.7759 0
      vertex 4.23298 20.7759 2
      vertex 4.71095 21.0088 2
    endloop
  endfacet
  facet normal -0.399298 0.916821 0
    outer loop
      vertex 3.7469 20.5642 0
      vertex 4.23298 20.7759 2
      vertex 4.23298 20.7759 0
    endloop
  endfacet
  facet normal -0.399298 0.916821 0
    outer loop
      vertex 3.7469 20.5642 0
      vertex 3.7469 20.5642 2
      vertex 4.23298 20.7759 2
    endloop
  endfacet
  facet normal -0.361634 0.93232 0
    outer loop
      vertex 3.25423 20.3731 0
      vertex 3.7469 20.5642 2
      vertex 3.7469 20.5642 0
    endloop
  endfacet
  facet normal -0.361634 0.93232 0
    outer loop
      vertex 3.25423 20.3731 0
      vertex 3.25423 20.3731 2
      vertex 3.7469 20.5642 2
    endloop
  endfacet
  facet normal -0.325352 0.945593 0
    outer loop
      vertex 2.75666 20.2019 0
      vertex 3.25423 20.3731 2
      vertex 3.25423 20.3731 0
    endloop
  endfacet
  facet normal -0.325352 0.945593 0
    outer loop
      vertex 2.75666 20.2019 0
      vertex 2.75666 20.2019 2
      vertex 3.25423 20.3731 2
    endloop
  endfacet
  facet normal -0.290018 0.957021 0
    outer loop
      vertex 2.25574 20.0501 0
      vertex 2.75666 20.2019 2
      vertex 2.75666 20.2019 0
    endloop
  endfacet
  facet normal -0.290018 0.957021 0
    outer loop
      vertex 2.25574 20.0501 0
      vertex 2.25574 20.0501 2
      vertex 2.75666 20.2019 2
    endloop
  endfacet
  facet normal -0.25613 0.966642 0
    outer loop
      vertex 1.75304 19.9169 0
      vertex 2.25574 20.0501 2
      vertex 2.25574 20.0501 0
    endloop
  endfacet
  facet normal -0.25613 0.966642 0
    outer loop
      vertex 1.75304 19.9169 0
      vertex 1.75304 19.9169 2
      vertex 2.25574 20.0501 2
    endloop
  endfacet
  facet normal -0.223125 0.97479 0
    outer loop
      vertex 1.25019 19.8018 0
      vertex 1.75304 19.9169 2
      vertex 1.75304 19.9169 0
    endloop
  endfacet
  facet normal -0.223125 0.97479 0
    outer loop
      vertex 1.25019 19.8018 0
      vertex 1.25019 19.8018 2
      vertex 1.75304 19.9169 2
    endloop
  endfacet
  facet normal -0.191256 0.98154 0
    outer loop
      vertex 0.748787 19.7041 0
      vertex 1.25019 19.8018 2
      vertex 1.25019 19.8018 0
    endloop
  endfacet
  facet normal -0.191256 0.98154 0
    outer loop
      vertex 0.748787 19.7041 0
      vertex 0.748787 19.7041 2
      vertex 1.25019 19.8018 2
    endloop
  endfacet
  facet normal -0.160236 0.987079 0
    outer loop
      vertex 0.250431 19.6232 0
      vertex 0.748787 19.7041 2
      vertex 0.748787 19.7041 0
    endloop
  endfacet
  facet normal -0.160236 0.987079 0
    outer loop
      vertex 0.250431 19.6232 0
      vertex 0.250431 19.6232 2
      vertex 0.748787 19.7041 2
    endloop
  endfacet
  facet normal -0.130129 0.991497 0
    outer loop
      vertex -0.243301 19.5584 0
      vertex 0.250431 19.6232 2
      vertex 0.250431 19.6232 0
    endloop
  endfacet
  facet normal -0.130129 0.991497 0
    outer loop
      vertex -0.243301 19.5584 0
      vertex -0.243301 19.5584 2
      vertex 0.250431 19.6232 2
    endloop
  endfacet
  facet normal -0.100609 0.994926 0
    outer loop
      vertex -0.730831 19.5091 0
      vertex -0.243301 19.5584 2
      vertex -0.243301 19.5584 0
    endloop
  endfacet
  facet normal -0.100609 0.994926 0
    outer loop
      vertex -0.730831 19.5091 0
      vertex -0.730831 19.5091 2
      vertex -0.243301 19.5584 2
    endloop
  endfacet
  facet normal -0.0715235 0.997439 0
    outer loop
      vertex -1.21056 19.4747 0
      vertex -0.730831 19.5091 2
      vertex -0.730831 19.5091 0
    endloop
  endfacet
  facet normal -0.0715235 0.997439 0
    outer loop
      vertex -1.21056 19.4747 0
      vertex -1.21056 19.4747 2
      vertex -0.730831 19.5091 2
    endloop
  endfacet
  facet normal -0.0429145 0.999079 0
    outer loop
      vertex -1.68083 19.4545 0
      vertex -1.21056 19.4747 2
      vertex -1.21056 19.4747 0
    endloop
  endfacet
  facet normal -0.0429145 0.999079 0
    outer loop
      vertex -1.68083 19.4545 0
      vertex -1.68083 19.4545 2
      vertex -1.21056 19.4747 2
    endloop
  endfacet
  facet normal -0.0143682 0.999897 0
    outer loop
      vertex -2.14013 19.4479 0
      vertex -1.68083 19.4545 2
      vertex -1.68083 19.4545 0
    endloop
  endfacet
  facet normal -0.0143682 0.999897 0
    outer loop
      vertex -2.14013 19.4479 0
      vertex -2.14013 19.4479 2
      vertex -1.68083 19.4545 2
    endloop
  endfacet
  facet normal -0.99957 -0.0293109 0
    outer loop
      vertex -2.10788 18.3481 0
      vertex -2.14013 19.4479 2
      vertex -2.14013 19.4479 0
    endloop
  endfacet
  facet normal -0.99957 -0.0293109 0
    outer loop
      vertex -2.10788 18.3481 0
      vertex -2.10788 18.3481 2
      vertex -2.14013 19.4479 2
    endloop
  endfacet
  facet normal -0.996193 -0.0871715 0
    outer loop
      vertex -2.01299 17.2637 0
      vertex -2.10788 18.3481 2
      vertex -2.10788 18.3481 0
    endloop
  endfacet
  facet normal -0.996193 -0.0871715 0
    outer loop
      vertex -2.01299 17.2637 0
      vertex -2.01299 17.2637 2
      vertex -2.10788 18.3481 2
    endloop
  endfacet
  facet normal -0.989642 -0.143555 0
    outer loop
      vertex -1.85817 16.1964 0
      vertex -2.01299 17.2637 2
      vertex -2.01299 17.2637 0
    endloop
  endfacet
  facet normal -0.989642 -0.143555 0
    outer loop
      vertex -1.85817 16.1964 0
      vertex -1.85817 16.1964 2
      vertex -2.01299 17.2637 2
    endloop
  endfacet
  facet normal -0.980156 -0.198228 0
    outer loop
      vertex -1.64608 15.1477 0
      vertex -1.85817 16.1964 2
      vertex -1.85817 16.1964 0
    endloop
  endfacet
  facet normal -0.980156 -0.198228 0
    outer loop
      vertex -1.64608 15.1477 0
      vertex -1.64608 15.1477 2
      vertex -1.85817 16.1964 2
    endloop
  endfacet
  facet normal -0.967996 -0.250965 0
    outer loop
      vertex -1.37948 14.1194 0
      vertex -1.64608 15.1477 2
      vertex -1.64608 15.1477 0
    endloop
  endfacet
  facet normal -0.967996 -0.250965 0
    outer loop
      vertex -1.37948 14.1194 0
      vertex -1.37948 14.1194 2
      vertex -1.64608 15.1477 2
    endloop
  endfacet
  facet normal -0.953419 -0.301648 0
    outer loop
      vertex -1.06107 13.113 0
      vertex -1.37948 14.1194 2
      vertex -1.37948 14.1194 0
    endloop
  endfacet
  facet normal -0.953419 -0.301648 0
    outer loop
      vertex -1.06107 13.113 0
      vertex -1.06107 13.113 2
      vertex -1.37948 14.1194 2
    endloop
  endfacet
  facet normal -0.936646 -0.350278 0
    outer loop
      vertex -0.693569 12.1303 0
      vertex -1.06107 13.113 2
      vertex -1.06107 13.113 0
    endloop
  endfacet
  facet normal -0.936646 -0.350278 0
    outer loop
      vertex -0.693569 12.1303 0
      vertex -0.693569 12.1303 2
      vertex -1.06107 13.113 2
    endloop
  endfacet
  facet normal -0.917915 -0.396776 0
    outer loop
      vertex -0.279682 11.1728 0
      vertex -0.693569 12.1303 2
      vertex -0.693569 12.1303 0
    endloop
  endfacet
  facet normal -0.917915 -0.396776 0
    outer loop
      vertex -0.279682 11.1728 0
      vertex -0.279682 11.1728 2
      vertex -0.693569 12.1303 2
    endloop
  endfacet
  facet normal -0.897385 -0.441248 0
    outer loop
      vertex 0.177898 10.2422 0
      vertex -0.279682 11.1728 2
      vertex -0.279682 11.1728 0
    endloop
  endfacet
  facet normal -0.897385 -0.441248 0
    outer loop
      vertex 0.177898 10.2422 0
      vertex 0.177898 10.2422 2
      vertex -0.279682 11.1728 2
    endloop
  endfacet
  facet normal -0.875207 -0.483748 0
    outer loop
      vertex 0.676483 9.34015 0
      vertex 0.177898 10.2422 2
      vertex 0.177898 10.2422 0
    endloop
  endfacet
  facet normal -0.875207 -0.483748 0
    outer loop
      vertex 0.676483 9.34015 0
      vertex 0.676483 9.34015 2
      vertex 0.177898 10.2422 2
    endloop
  endfacet
  facet normal -0.851556 -0.524264 0
    outer loop
      vertex 1.21326 8.46827 0
      vertex 0.676483 9.34015 2
      vertex 0.676483 9.34015 0
    endloop
  endfacet
  facet normal -0.851556 -0.524264 0
    outer loop
      vertex 1.21326 8.46827 0
      vertex 1.21326 8.46827 2
      vertex 0.676483 9.34015 2
    endloop
  endfacet
  facet normal -0.82642 -0.563054 0
    outer loop
      vertex 1.78562 7.62819 0
      vertex 1.21326 8.46827 2
      vertex 1.21326 8.46827 0
    endloop
  endfacet
  facet normal -0.82642 -0.563054 0
    outer loop
      vertex 1.78562 7.62819 0
      vertex 1.78562 7.62819 2
      vertex 1.21326 8.46827 2
    endloop
  endfacet
  facet normal -0.799898 -0.600136 0
    outer loop
      vertex 2.3908 6.82157 0
      vertex 1.78562 7.62819 2
      vertex 1.78562 7.62819 0
    endloop
  endfacet
  facet normal -0.799898 -0.600136 0
    outer loop
      vertex 2.3908 6.82157 0
      vertex 2.3908 6.82157 2
      vertex 1.78562 7.62819 2
    endloop
  endfacet
  facet normal -0.771958 -0.635674 0
    outer loop
      vertex 3.02613 6.05003 0
      vertex 2.3908 6.82157 2
      vertex 2.3908 6.82157 0
    endloop
  endfacet
  facet normal -0.771958 -0.635674 0
    outer loop
      vertex 3.02613 6.05003 0
      vertex 3.02613 6.05003 2
      vertex 2.3908 6.82157 2
    endloop
  endfacet
  facet normal -0.742573 -0.669766 0
    outer loop
      vertex 3.68884 5.31528 0
      vertex 3.02613 6.05003 2
      vertex 3.02613 6.05003 0
    endloop
  endfacet
  facet normal -0.742573 -0.669766 0
    outer loop
      vertex 3.68884 5.31528 0
      vertex 3.68884 5.31528 2
      vertex 3.02613 6.05003 2
    endloop
  endfacet
  facet normal -0.711696 -0.702488 0
    outer loop
      vertex 4.37624 4.61887 0
      vertex 3.68884 5.31528 2
      vertex 3.68884 5.31528 0
    endloop
  endfacet
  facet normal -0.711696 -0.702488 0
    outer loop
      vertex 4.37624 4.61887 0
      vertex 4.37624 4.61887 2
      vertex 3.68884 5.31528 2
    endloop
  endfacet
  facet normal -0.679107 -0.734039 0
    outer loop
      vertex 5.08567 3.96253 0
      vertex 4.37624 4.61887 2
      vertex 4.37624 4.61887 0
    endloop
  endfacet
  facet normal -0.679107 -0.734039 0
    outer loop
      vertex 5.08567 3.96253 0
      vertex 5.08567 3.96253 2
      vertex 4.37624 4.61887 2
    endloop
  endfacet
  facet normal -0.644777 -0.76437 0
    outer loop
      vertex 5.33762 3.75 0
      vertex 5.08567 3.96253 2
      vertex 5.08567 3.96253 0
    endloop
  endfacet
  facet normal -0.644777 -0.76437 0
    outer loop
      vertex 5.33762 3.75 0
      vertex 5.33762 3.75 2
      vertex 5.08567 3.96253 2
    endloop
  endfacet
  facet normal 0 1 0
    outer loop
      vertex 0 3.75 0
      vertex 5.33762 3.75 2
      vertex 5.33762 3.75 0
    endloop
  endfacet
  facet normal 0 1 0
    outer loop
      vertex 0 3.75 0
      vertex 0 3.75 2
      vertex 5.33762 3.75 2
    endloop
  endfacet
  facet normal -0.928477 -0.371391 0
    outer loop
      vertex 1.5 0 0
      vertex 0 3.75 2
      vertex 0 3.75 0
    endloop
  endfacet
  facet normal -0.928477 -0.371391 0
    outer loop
      vertex 1.5 0 0
      vertex 1.5 0 2
      vertex 0 3.75 2
    endloop
  endfacet
  facet normal 0 -1 0
    outer loop
      vertex 13.5 0 0
      vertex 1.5 0 2
      vertex 1.5 0 0
    endloop
  endfacet
  facet normal 0 -1 0
    outer loop
      vertex 13.5 0 0
      vertex 13.5 0 2
      vertex 1.5 0 2
    endloop
  endfacet
  facet normal 0.928477 -0.371391 0
    outer loop
      vertex 15 3.75 0
      vertex 13.5 0 2
      vertex 13.5 0 0
    endloop
  endfacet
  facet normal 0.928477 -0.371391 0
    outer loop
      vertex 15 3.75 0
      vertex 15 3.75 2
      vertex 13.5 0 2
    endloop
  endfacet
  facet normal 0.649366 0.760476 -0
    outer loop
      vertex 6.2836 5.20999 0
      vertex 6.2836 5.20999 2
      vertex 6.80158 4.76769 0
    endloop
  endfacet
  facet normal 0.649366 0.760476 0
    outer loop
      vertex 6.80158 4.76769 2
      vertex 6.80158 4.76769 0
      vertex 6.2836 5.20999 2
    endloop
  endfacet
  facet normal 0.675539 0.737324 -0
    outer loop
      vertex 5.76735 5.68298 0
      vertex 5.76735 5.68298 2
      vertex 6.2836 5.20999 0
    endloop
  endfacet
  facet normal 0.675539 0.737324 0
    outer loop
      vertex 6.2836 5.20999 2
      vertex 6.2836 5.20999 0
      vertex 5.76735 5.68298 2
    endloop
  endfacet
  facet normal 0.700804 0.713354 -0
    outer loop
      vertex 5.25523 6.18609 0
      vertex 5.25523 6.18609 2
      vertex 5.76735 5.68298 0
    endloop
  endfacet
  facet normal 0.700804 0.713354 0
    outer loop
      vertex 5.76735 5.68298 2
      vertex 5.76735 5.68298 0
      vertex 5.25523 6.18609 2
    endloop
  endfacet
  facet normal 0.725348 0.688383 -0
    outer loop
      vertex 4.74981 6.71865 0
      vertex 4.74981 6.71865 2
      vertex 5.25523 6.18609 0
    endloop
  endfacet
  facet normal 0.725348 0.688383 0
    outer loop
      vertex 5.25523 6.18609 2
      vertex 5.25523 6.18609 0
      vertex 4.74981 6.71865 2
    endloop
  endfacet
  facet normal 0.749216 0.662325 -0
    outer loop
      vertex 4.25351 7.28006 0
      vertex 4.25351 7.28006 2
      vertex 4.74981 6.71865 0
    endloop
  endfacet
  facet normal 0.749216 0.662325 0
    outer loop
      vertex 4.74981 6.71865 2
      vertex 4.74981 6.71865 0
      vertex 4.25351 7.28006 2
    endloop
  endfacet
  facet normal 0.772524 0.634986 -0
    outer loop
      vertex 3.76884 7.86971 0
      vertex 3.76884 7.86971 2
      vertex 4.25351 7.28006 0
    endloop
  endfacet
  facet normal 0.772524 0.634986 0
    outer loop
      vertex 4.25351 7.28006 2
      vertex 4.25351 7.28006 0
      vertex 3.76884 7.86971 2
    endloop
  endfacet
  facet normal 0.795246 0.606287 -0
    outer loop
      vertex 3.29827 8.48694 0
      vertex 3.29827 8.48694 2
      vertex 3.76884 7.86971 0
    endloop
  endfacet
  facet normal 0.795246 0.606287 0
    outer loop
      vertex 3.76884 7.86971 2
      vertex 3.76884 7.86971 0
      vertex 3.29827 8.48694 2
    endloop
  endfacet
  facet normal 0.817411 0.576054 -0
    outer loop
      vertex 2.84429 9.13113 0
      vertex 2.84429 9.13113 2
      vertex 3.29827 8.48694 0
    endloop
  endfacet
  facet normal 0.817411 0.576054 0
    outer loop
      vertex 3.29827 8.48694 2
      vertex 3.29827 8.48694 0
      vertex 2.84429 9.13113 2
    endloop
  endfacet
  facet normal 0.838968 0.544181 -0
    outer loop
      vertex 2.40935 9.80168 0
      vertex 2.40935 9.80168 2
      vertex 2.84429 9.13113 0
    endloop
  endfacet
  facet normal 0.838968 0.544181 0
    outer loop
      vertex 2.84429 9.13113 2
      vertex 2.84429 9.13113 0
      vertex 2.40935 9.80168 2
    endloop
  endfacet
  facet normal 0.859914 0.510438 -0
    outer loop
      vertex 1.99602 10.498 0
      vertex 1.99602 10.498 2
      vertex 2.40935 9.80168 0
    endloop
  endfacet
  facet normal 0.859914 0.510438 0
    outer loop
      vertex 2.40935 9.80168 2
      vertex 2.40935 9.80168 0
      vertex 1.99602 10.498 2
    endloop
  endfacet
  facet normal 0.879988 0.474996 -0
    outer loop
      vertex 1.60668 11.2193 0
      vertex 1.60668 11.2193 2
      vertex 1.99602 10.498 0
    endloop
  endfacet
  facet normal 0.879988 0.474996 0
    outer loop
      vertex 1.99602 10.498 2
      vertex 1.99602 10.498 0
      vertex 1.60668 11.2193 2
    endloop
  endfacet
  facet normal 0.899259 0.437417 -0
    outer loop
      vertex 1.24386 11.9652 0
      vertex 1.24386 11.9652 2
      vertex 1.60668 11.2193 0
    endloop
  endfacet
  facet normal 0.899259 0.437417 0
    outer loop
      vertex 1.60668 11.2193 2
      vertex 1.60668 11.2193 0
      vertex 1.24386 11.9652 2
    endloop
  endfacet
  facet normal 0.91744 0.397875 -0
    outer loop
      vertex 0.910057 12.7349 0
      vertex 0.910057 12.7349 2
      vertex 1.24386 11.9652 0
    endloop
  endfacet
  facet normal 0.91744 0.397875 0
    outer loop
      vertex 1.24386 11.9652 2
      vertex 1.24386 11.9652 0
      vertex 0.910057 12.7349 2
    endloop
  endfacet
  facet normal 0.934405 0.356213 -0
    outer loop
      vertex 0.60775 13.5279 0
      vertex 0.60775 13.5279 2
      vertex 0.910057 12.7349 0
    endloop
  endfacet
  facet normal 0.934405 0.356213 0
    outer loop
      vertex 0.910057 12.7349 2
      vertex 0.910057 12.7349 0
      vertex 0.60775 13.5279 2
    endloop
  endfacet
  facet normal 0.949892 0.312577 -0
    outer loop
      vertex 0.339397 14.3434 0
      vertex 0.339397 14.3434 2
      vertex 0.60775 13.5279 0
    endloop
  endfacet
  facet normal 0.949892 0.312577 0
    outer loop
      vertex 0.60775 13.5279 2
      vertex 0.60775 13.5279 0
      vertex 0.339397 14.3434 2
    endloop
  endfacet
  facet normal 0.963744 0.266828 -0
    outer loop
      vertex 0.107494 15.181 0
      vertex 0.107494 15.181 2
      vertex 0.339397 14.3434 0
    endloop
  endfacet
  facet normal 0.963744 0.266828 0
    outer loop
      vertex 0.339397 14.3434 2
      vertex 0.339397 14.3434 0
      vertex 0.107494 15.181 2
    endloop
  endfacet
  facet normal 0.975684 0.219182 -0
    outer loop
      vertex -0.085453 16.0399 0
      vertex -0.085453 16.0399 2
      vertex 0.107494 15.181 0
    endloop
  endfacet
  facet normal 0.975684 0.219182 0
    outer loop
      vertex 0.107494 15.181 2
      vertex 0.107494 15.181 0
      vertex -0.085453 16.0399 2
    endloop
  endfacet
  facet normal 0.985477 0.16981 -0
    outer loop
      vertex -0.237019 16.9195 0
      vertex -0.237019 16.9195 2
      vertex -0.085453 16.0399 0
    endloop
  endfacet
  facet normal 0.985477 0.16981 0
    outer loop
      vertex -0.085453 16.0399 2
      vertex -0.085453 16.0399 0
      vertex -0.237019 16.9195 2
    endloop
  endfacet
  facet normal 0.992922 0.11877 -0
    outer loop
      vertex -0.34465 17.8193 0
      vertex -0.34465 17.8193 2
      vertex -0.237019 16.9195 0
    endloop
  endfacet
  facet normal 0.992922 0.11877 0
    outer loop
      vertex -0.237019 16.9195 2
      vertex -0.237019 16.9195 0
      vertex -0.34465 17.8193 2
    endloop
  endfacet
  facet normal 0.108052 -0.994145 0
    outer loop
      vertex -0.0217094 17.8544 0
      vertex -0.0217094 17.8544 2
      vertex -0.34465 17.8193 0
    endloop
  endfacet
  facet normal 0.108052 -0.994145 0
    outer loop
      vertex -0.34465 17.8193 2
      vertex -0.34465 17.8193 0
      vertex -0.0217094 17.8544 2
    endloop
  endfacet
  facet normal 0.126164 -0.992009 0
    outer loop
      vertex 0.313248 17.897 0
      vertex 0.313248 17.897 2
      vertex -0.0217094 17.8544 0
    endloop
  endfacet
  facet normal 0.126164 -0.992009 0
    outer loop
      vertex -0.0217094 17.8544 2
      vertex -0.0217094 17.8544 0
      vertex 0.313248 17.897 2
    endloop
  endfacet
  facet normal 0.144153 -0.989555 0
    outer loop
      vertex 0.659225 17.9474 0
      vertex 0.659225 17.9474 2
      vertex 0.313248 17.897 0
    endloop
  endfacet
  facet normal 0.144153 -0.989555 0
    outer loop
      vertex 0.313248 17.897 2
      vertex 0.313248 17.897 0
      vertex 0.659225 17.9474 2
    endloop
  endfacet
  facet normal 0.163462 -0.98655 0
    outer loop
      vertex 1.01531 18.0064 0
      vertex 1.01531 18.0064 2
      vertex 0.659225 17.9474 0
    endloop
  endfacet
  facet normal 0.163462 -0.98655 0
    outer loop
      vertex 0.659225 17.9474 2
      vertex 0.659225 17.9474 0
      vertex 1.01531 18.0064 2
    endloop
  endfacet
  facet normal 0.183279 -0.983061 0
    outer loop
      vertex 1.38058 18.0745 0
      vertex 1.38058 18.0745 2
      vertex 1.01531 18.0064 0
    endloop
  endfacet
  facet normal 0.183279 -0.983061 0
    outer loop
      vertex 1.01531 18.0064 2
      vertex 1.01531 18.0064 0
      vertex 1.38058 18.0745 2
    endloop
  endfacet
  facet normal 0.204441 -0.978879 0
    outer loop
      vertex 1.75405 18.1525 0
      vertex 1.75405 18.1525 2
      vertex 1.38058 18.0745 0
    endloop
  endfacet
  facet normal 0.204441 -0.978879 0
    outer loop
      vertex 1.38058 18.0745 2
      vertex 1.38058 18.0745 0
      vertex 1.75405 18.1525 2
    endloop
  endfacet
  facet normal 0.225921 -0.974146 0
    outer loop
      vertex 2.13479 18.2408 0
      vertex 2.13479 18.2408 2
      vertex 1.75405 18.1525 0
    endloop
  endfacet
  facet normal 0.225921 -0.974146 0
    outer loop
      vertex 1.75405 18.1525 2
      vertex 1.75405 18.1525 0
      vertex 2.13479 18.2408 2
    endloop
  endfacet
  facet normal 0.24849 -0.968635 0
    outer loop
      vertex 2.52187 18.3401 0
      vertex 2.52187 18.3401 2
      vertex 2.13479 18.2408 0
    endloop
  endfacet
  facet normal 0.24849 -0.968635 0
    outer loop
      vertex 2.13479 18.2408 2
      vertex 2.13479 18.2408 0
      vertex 2.52187 18.3401 2
    endloop
  endfacet
  facet normal 0.272136 -0.962259 0
    outer loop
      vertex 2.91436 18.4511 0
      vertex 2.91436 18.4511 2
      vertex 2.52187 18.3401 0
    endloop
  endfacet
  facet normal 0.272136 -0.962259 0
    outer loop
      vertex 2.52187 18.3401 2
      vertex 2.52187 18.3401 0
      vertex 2.91436 18.4511 2
    endloop
  endfacet
  facet normal 0.296212 -0.955122 0
    outer loop
      vertex 3.31129 18.5742 0
      vertex 3.31129 18.5742 2
      vertex 2.91436 18.4511 0
    endloop
  endfacet
  facet normal 0.296212 -0.955122 0
    outer loop
      vertex 2.91436 18.4511 2
      vertex 2.91436 18.4511 0
      vertex 3.31129 18.5742 2
    endloop
  endfacet
  facet normal 0.321783 -0.946813 0
    outer loop
      vertex 3.71175 18.7103 0
      vertex 3.71175 18.7103 2
      vertex 3.31129 18.5742 0
    endloop
  endfacet
  facet normal 0.321783 -0.946813 0
    outer loop
      vertex 3.31129 18.5742 2
      vertex 3.31129 18.5742 0
      vertex 3.71175 18.7103 2
    endloop
  endfacet
  facet normal 0.34758 -0.93765 0
    outer loop
      vertex 4.11478 18.8597 0
      vertex 4.11478 18.8597 2
      vertex 3.71175 18.7103 0
    endloop
  endfacet
  facet normal 0.34758 -0.93765 0
    outer loop
      vertex 3.71175 18.7103 2
      vertex 3.71175 18.7103 0
      vertex 4.11478 18.8597 2
    endloop
  endfacet
  facet normal 0.374817 -0.927099 0
    outer loop
      vertex 4.51944 19.0233 0
      vertex 4.51944 19.0233 2
      vertex 4.11478 18.8597 0
    endloop
  endfacet
  facet normal 0.374817 -0.927099 0
    outer loop
      vertex 4.11478 18.8597 2
      vertex 4.11478 18.8597 0
      vertex 4.51944 19.0233 2
    endloop
  endfacet
  facet normal 0.402464 -0.915436 0
    outer loop
      vertex 4.92477 19.2015 0
      vertex 4.92477 19.2015 2
      vertex 4.51944 19.0233 0
    endloop
  endfacet
  facet normal 0.402464 -0.915436 0
    outer loop
      vertex 4.51944 19.0233 2
      vertex 4.51944 19.0233 0
      vertex 4.92477 19.2015 2
    endloop
  endfacet
  facet normal 0.431187 -0.902263 0
    outer loop
      vertex 5.32988 19.3951 0
      vertex 5.32988 19.3951 2
      vertex 4.92477 19.2015 0
    endloop
  endfacet
  facet normal 0.431187 -0.902263 0
    outer loop
      vertex 4.92477 19.2015 2
      vertex 4.92477 19.2015 0
      vertex 5.32988 19.3951 2
    endloop
  endfacet
  facet normal 0.460421 -0.887701 0
    outer loop
      vertex 5.7338 19.6046 0
      vertex 5.7338 19.6046 2
      vertex 5.32988 19.3951 0
    endloop
  endfacet
  facet normal 0.460421 -0.887701 0
    outer loop
      vertex 5.32988 19.3951 2
      vertex 5.32988 19.3951 0
      vertex 5.7338 19.6046 2
    endloop
  endfacet
  facet normal 0.490268 -0.871571 0
    outer loop
      vertex 6.13557 19.8306 0
      vertex 6.13557 19.8306 2
      vertex 5.7338 19.6046 0
    endloop
  endfacet
  facet normal 0.490268 -0.871571 0
    outer loop
      vertex 5.7338 19.6046 2
      vertex 5.7338 19.6046 0
      vertex 6.13557 19.8306 2
    endloop
  endfacet
  facet normal 0.520583 -0.853811 0
    outer loop
      vertex 6.53428 20.0737 0
      vertex 6.53428 20.0737 2
      vertex 6.13557 19.8306 0
    endloop
  endfacet
  facet normal 0.520583 -0.853811 0
    outer loop
      vertex 6.13557 19.8306 2
      vertex 6.13557 19.8306 0
      vertex 6.53428 20.0737 2
    endloop
  endfacet
  facet normal 0.551438 -0.834216 0
    outer loop
      vertex 6.92897 20.3346 0
      vertex 6.92897 20.3346 2
      vertex 6.53428 20.0737 0
    endloop
  endfacet
  facet normal 0.551438 -0.834216 0
    outer loop
      vertex 6.53428 20.0737 2
      vertex 6.53428 20.0737 0
      vertex 6.92897 20.3346 2
    endloop
  endfacet
  facet normal 0.5825 -0.812831 0
    outer loop
      vertex 7.31871 20.6139 0
      vertex 7.31871 20.6139 2
      vertex 6.92897 20.3346 0
    endloop
  endfacet
  facet normal 0.5825 -0.812831 0
    outer loop
      vertex 6.92897 20.3346 2
      vertex 6.92897 20.3346 0
      vertex 7.31871 20.6139 2
    endloop
  endfacet
  facet normal -1 0 0
    outer loop
      vertex 7.31871 4.35673 0
      vertex 7.31871 4.35673 2
      vertex 7.31871 20.6139 0
    endloop
  endfacet
  facet normal -1 -0 -0
    outer loop
      vertex 7.31871 20.6139 2
      vertex 7.31871 20.6139 0
      vertex 7.31871 4.35673 2
    endloop
  endfacet
  facet normal 0.622159 0.782891 -0
    outer loop
      vertex 6.80158 4.76769 0
      vertex 6.80158 4.76769 2
      vertex 7.31871 4.35673 0
    endloop
  endfacet
  facet normal 0.622159 0.782891 0
    outer loop
      vertex 7.31871 4.35673 2
      vertex 7.31871 4.35673 0
      vertex 6.80158 4.76769 2
    endloop
  endfacet
endsolid OpenSCAD_Model
