<svg id="Layer_1" data-name="Layer 1" xmlns="http://www.w3.org/2000/svg" viewBox="0 0 483.49 471.34"><title>D&amp;amp;D</title><path d="M120.36,594.21c-.65-.61-.94-.85-1.19-1.13-.83-.92-1.61-1.88-2.47-2.77-8.87-9.33-15.25-20.24-20.27-32A142.68,142.68,0,0,1,87,524.88,173.91,173.91,0,0,1,85,506a137.87,137.87,0,0,1,1-24.79,132.33,132.33,0,0,1,9.64-35.26,10.79,10.79,0,0,0,.58-1.52.76.76,0,0,0-.27-.58.73.73,0,0,0-.62-.14,18.08,18.08,0,0,0-1.77,1.11L77.11,456.19c-.63.44-1.27.85-2,1.3-.38-1,.19-1.62.45-2.3a181.15,181.15,0,0,1,9.83-21.27,214.38,214.38,0,0,1,26.82-38.37c4.06-4.68,8.34-9.16,12.53-13.72.46-.5,1-.94,1.56-1.48a7.92,7.92,0,0,1,2.92,5.91,23.34,23.34,0,0,1-.24,5.08q-1.5,9.17-3.21,18.29a121.9,121.9,0,0,0-1.9,17.76c0,.12.12.25.26.53a10.37,10.37,0,0,0,.86-.69c13.37-13.6,28.9-24.25,45.49-33.46a91.57,91.57,0,0,1,10.72-5c.41-.17.84-.27,1.41-.44a3.61,3.61,0,0,1-.8,2,71.22,71.22,0,0,0-6.77,16.49,67.82,67.82,0,0,0-2,11.66c0,.46,0,.92,0,1.35.51.47.89.06,1.25-.16,2.05-1.23,4.07-2.54,6.15-3.73,3.62-2.08,7.22-4.22,10.94-6.1,7.58-3.83,15.37-3.64,23.22-.89.14,0,.23.19.36.3.17.56-.29.82-.58,1.13-1.41,1.54-2.85,3.06-4.27,4.59a137.43,137.43,0,0,0-20.23,27.68,101,101,0,0,0-11.26,33,79.31,79.31,0,0,0,.31,28.41c2.7,13.08,8.5,24.53,18.27,33.76A48.89,48.89,0,0,0,223.7,551,51.64,51.64,0,0,0,253,547a92.61,92.61,0,0,0,20.84-13,122.11,122.11,0,0,0,23.2-24.9c2.91-4.1,5.55-8.39,8.3-12.6.42-.63.82-1.28,1.26-2a8.68,8.68,0,0,1,3,1.87q5.27,4.38,10.52,8.79,12.38,10.37,24.74,20.74c.59.49,1.19,1,1.73,1.54a2.56,2.56,0,0,1,.63,3q-.25.64-.57,1.26a236.86,236.86,0,0,1-22.95,37.07,152.85,152.85,0,0,1-32,31.48,127.4,127.4,0,0,1-49,21.32,124,124,0,0,1-36.26,2.19,118.74,118.74,0,0,1-58.85-21.44,112.73,112.73,0,0,1-16.08-13.67,92.22,92.22,0,0,1-8.18-9.79c-.87-1.19-1.74-2.37-2.65-3.53a7.76,7.76,0,0,0-1.17-.94,3.72,3.72,0,0,0-.31,1c0,1.08.15,2.16.23,3.24q.5,7.07,1,14.14C120.38,593.11,120.36,593.41,120.36,594.21Z" transform="translate(-75.03 -160.97)"/><path d="M475.08,596.63a9,9,0,0,0,2.58,2.87,27,27,0,0,0,7.06,4A55.21,55.21,0,0,0,497,606.72a85.33,85.33,0,0,0,21.3.6c.69-.07,1.38-.08,2-.11.34.52,0,.77-.26,1a48.39,48.39,0,0,1-10.77,9.46,88.2,88.2,0,0,1-27.6,12.41A76.71,76.71,0,0,1,456.14,632a71.38,71.38,0,0,1-18.77-4.06,59.55,59.55,0,0,1-27.73-21.74,68.54,68.54,0,0,1-11.88-29.44c-.17-1.06-.35-2.13-.55-3.35a7.3,7.3,0,0,0-1.28.58,16,16,0,0,0-5,6,27.84,27.84,0,0,0-2.78,12.12A52.58,52.58,0,0,0,392,612.44c.75,1.95,1.68,3.82,2.52,5.73l.95,2.12a15.21,15.21,0,0,1-1.75-.42,47.59,47.59,0,0,1-20.28-14.26,45.64,45.64,0,0,1-10.94-29c-.1-3.71,0-7.44.19-11.14.31-6.35.38-12.69.27-19A32,32,0,0,0,353.43,524a51.71,51.71,0,0,0-3.93-3.61q-21.71-18-43.45-36a60.59,60.59,0,0,1-9.87-10.12,39.89,39.89,0,0,1-8.39-24.6,20.56,20.56,0,0,0-6.12-14.83,51.08,51.08,0,0,0-4.33-3.85c-2.94-2.39-6-4.69-8.89-7.1a34.15,34.15,0,0,1-3.74-3.47c-5.88-6.5-7.25-14-4.62-22.24a2.21,2.21,0,0,1,.18-.42c.08-.13.17-.25.36-.5a7.46,7.46,0,0,1,.6,1c.42,1,.78,2,1.21,3a20.26,20.26,0,0,0,16,12.71c2.58.47,5.22.65,7.83,1l7.84.91.46.06c6.22,1.16,10.32,4.72,12,10.86.66,2.38,1.06,4.83,1.61,7.24.4,1.74.81,3.47,1.31,5.18,1.22,4.2,4.14,6.42,8.41,6.85,2.93.29,5.86.47,8.8.57a39,39,0,0,1,15.1,3.26,42,42,0,0,1,9.37,6l53,43.77a38.72,38.72,0,0,0,7.92,5.24,24.55,24.55,0,0,0,10.5,2.59,21.8,21.8,0,0,0,17.7-8.19,22.24,22.24,0,0,0,5.07-18.87c-.19-1.13-.36-2.27-.58-3.63a6.33,6.33,0,0,1,1.16.3,24.14,24.14,0,0,1,7,5.66A41,41,0,0,1,460.67,496a47,47,0,0,1,1.79,27.84,36.68,36.68,0,0,1-9.46,17c-.41.43-.8.89-1.16,1.3.24.59.68.5,1,.54,11.09,1.51,21.77.2,31.89-4.77a38.68,38.68,0,0,0,9.93-6.78c6.29-6.09,8.62-13.59,7.91-22.16-.68-8.35-4.57-15-11-20.16a49.29,49.29,0,0,0-8.22-5.23c-.82-.42-1.61-.91-2.39-1.41a6.9,6.9,0,0,1-.92-1,7.46,7.46,0,0,1,1.1-.18c3.71.22,7.44.23,11.12.71,13.07,1.68,25.14,6,35.34,14.57a56.9,56.9,0,0,1,19.36,31.22c3.16,13.51,1,26.3-5.88,38.29a58.72,58.72,0,0,1-24.29,23,70.25,70.25,0,0,1-22.82,7.49,73,73,0,0,1-16.91.4Z" transform="translate(-75.03 -160.97)"/><path d="M226.72,463.34c2-2.6,4.33-5,6.5-7.47s4.41-5,6.49-7.35c-.14-.88-.59-1.1-1.19-1.09a11.18,11.18,0,0,0-1.15.11c-4,.53-8,1.09-12,1.59a6.27,6.27,0,0,1-3.11,0,3,3,0,0,1,.29-1c.65-.77,1.36-1.48,2.06-2.21a30.24,30.24,0,0,0,8-14.94,27.51,27.51,0,0,0,0-12c-1.79-7.64-6.46-12.91-13.52-16.09a38.92,38.92,0,0,0-32,.61,5.83,5.83,0,0,1-2.68,1c-.53-.53-.23-.94-.05-1.35a56.62,56.62,0,0,1,9.22-14.43,67.44,67.44,0,0,1,17.52-14c.66-.38,1.3-.81,1.95-1.22.05,0,.05-.14.13-.35-.56-.19-1.11-.42-1.67-.57L193.84,368c-.57-.15-1.12-.38-1.72-.58.43-.89,1.22-1.12,1.86-1.51a81.11,81.11,0,0,1,18.94-8.11,132,132,0,0,1,14.71-3.33c.91-.15,1.81-.34,3.27-.62a11.18,11.18,0,0,0-1.64-.38c-3.48-.1-7-.32-10.44-.23a80,80,0,0,0-20.37,3.11,72.42,72.42,0,0,0-28,15.56,8.94,8.94,0,0,0-.91,1s0,.13,0,.38c3.15.73,6.42,1.21,9.66,1.81l10,1.84a60.72,60.72,0,0,1-6.35,2.56c-1.93.82-3.89,1.55-5.8,2.38s-3.95,1.78-5.9,2.72-3.74,1.86-5.58,2.85-3.8,2.1-5.66,3.2-3.58,2.16-5.34,3.29-3.62,2.38-5.4,3.62-3.41,2.41-5.09,3.67-3.44,2.62-5.14,4-3.22,2.6-4.88,3.95a2.09,2.09,0,0,1-.05-1.87c.49-2.19,1.05-4.37,1.54-6.56a46.55,46.55,0,0,0,1.18-13.82,23.26,23.26,0,0,0-1.33-6.11,16,16,0,0,0-7.95-9,25.22,25.22,0,0,0-8.18-2.46,54.61,54.61,0,0,0-11.36-.21q-5.2.34-10.43.61c-.82,0-1.65,0-2.43,0-.17-.67.29-.8.56-1A160.88,160.88,0,0,1,118.21,354c5.92-3.2,11.82-6.44,17.67-9.78a87.84,87.84,0,0,0,7.57-4.95,17.49,17.49,0,0,0,3.18-3,6.23,6.23,0,0,0,.84-7.36,16.86,16.86,0,0,0-2-3.12c-2.3-2.71-4.64-5.4-7.09-8-2.6-2.75-5.35-5.37-8.06-8-.65-.64-1.41-1.19-2.12-1.79l-.89-.76c2-.58,11.75-.8,17-.25,5.6.58,11.18,1.36,17,2.09-.28-.74-.44-1.3-.69-1.82a51.32,51.32,0,0,1-4.16-12.52,42.74,42.74,0,0,1,.39-17.52,9.88,9.88,0,0,1,.59-1.5,2.68,2.68,0,0,1,.71.36,3.6,3.6,0,0,1,.49.77c4,7.64,9.69,13.76,16.42,19A143.5,143.5,0,0,0,190.56,306c6.47,3.81,13,7.56,19.42,11.4a75.46,75.46,0,0,1,15.76,12.18c.92.94,1.78,1.94,2.68,2.9.3.33.63.65,1.22,1.24a6.29,6.29,0,0,0-.17-1.39c-.56-1.28-1.1-2.56-1.77-3.78a54,54,0,0,0-12.82-15.47c-1.77-1.5-3.66-2.86-5.49-4.28-.56-.42-1.14-.81-1.68-1.25a6.9,6.9,0,0,1-2.56-4,96.18,96.18,0,0,1-1.93-11.44,80.08,80.08,0,0,1,6.12-39.27,25.62,25.62,0,0,1,1.76-3.26,3.84,3.84,0,0,1,.85-.72c.71.52.48,1.19.5,1.76a56.92,56.92,0,0,0,5.13,21.07,73.71,73.71,0,0,0,9.19,14.75,149.64,149.64,0,0,0,14.85,16c3.7,3.52,7.4,7.05,11.28,10.37a300.3,300.3,0,0,1,30.75,30.62,24.26,24.26,0,0,0,3.53,3.4,13.32,13.32,0,0,0-.52-1.42A85.51,85.51,0,0,0,274,326.59a186.32,186.32,0,0,0-13.59-13.66c-6.49-6-13-12-19.49-17.91a19.38,19.38,0,0,1-6.49-13.46,55.09,55.09,0,0,1,2.21-20.89c.7-2.13,1.62-4.18,2.48-6.25.12-.29.48-.48.7-.69.72.45.58,1,.62,1.54a56.6,56.6,0,0,0,2.7,13.63,65.38,65.38,0,0,0,9.19,17.38A121.2,121.2,0,0,0,267,302.71c5.93,5.66,12,11.19,17.92,16.88a177.27,177.27,0,0,1,23.25,27.1,45,45,0,0,1,7.15,16.25,46.43,46.43,0,0,1,.58,14.78c0,.31-.08.62-.11.92a1.9,1.9,0,0,0,.1.4c.34.2.78.48,1.23.74,1,.57,2.06,1.08,3,1.72a12.38,12.38,0,0,1,5.63,9.19c.06.53.1,1.07.16,1.77a8.17,8.17,0,0,0,1.33-.31,23.24,23.24,0,0,0,8.5-5.94c1.25-1.37,2.34-2.88,3.5-4.33.33-.4.65-.82,1-1.29.6.42.54,1,.67,1.47a10.69,10.69,0,0,1,.21,1.38,40.43,40.43,0,0,1-.94,14.29,63.23,63.23,0,0,1-12.12,25.59,34.21,34.21,0,0,1-9.25,8.37A9,9,0,0,1,316,433a8.82,8.82,0,0,1-.05-1.2c.12-1.15.27-2.31.41-3.46a19.08,19.08,0,0,0-.52-7.37,16.45,16.45,0,0,0-10.2-11.27A50.52,50.52,0,0,0,294.85,407a51.39,51.39,0,0,0-9.27-.51c-1.84,0-3.68,0-5.69,0,.2-.67.3-1.19.5-1.67.84-2,1.76-4,2.54-6,.66-1.73,1.24-3.5,1.73-5.29a9.76,9.76,0,0,0,.24-2.76,4.91,4.91,0,0,0-3.2-4.69,12.58,12.58,0,0,0-2.89-.83,84.14,84.14,0,0,0-26.36-.27l-21.55,3.38a4.78,4.78,0,0,0-2.32.8,1.1,1.1,0,0,0,.06.31.23.23,0,0,0,.15.14l19.52,2.74c.07,0,.13.07.33.19a7.39,7.39,0,0,1-.24,1.23q-1.83,4.89-3.71,9.76a31.8,31.8,0,0,0-1.93,9.28,12.44,12.44,0,0,0,.22,3.45,4.22,4.22,0,0,0,4.77,3.47,23.1,23.1,0,0,0,3-.58c1-.24,2.09-.51,3.32-.81a5.56,5.56,0,0,1,0,1.2,109.29,109.29,0,0,0-1.9,11.21,15.77,15.77,0,0,0,.22,4.85,5.41,5.41,0,0,0,4.23,4.43,21.21,21.21,0,0,0,7.15.23c.76-.06,1.52-.41,2.33,0a5.31,5.31,0,0,1-.87,2.81,22,22,0,0,1-3.71,5,43.29,43.29,0,0,1-7.5,6.21,56.92,56.92,0,0,1-23.15,9.1c-1.29.19-2.59.25-3.9.37Zm38.22-112a4.62,4.62,0,0,0,0,.9,28.52,28.52,0,0,0,6,13.88A19.39,19.39,0,0,0,283.71,373a15.7,15.7,0,0,0,2.06,0C284.57,365.35,272.47,352.78,264.94,351.34Z" transform="translate(-75.03 -160.97)"/><path d="M150.38,301.68a9.73,9.73,0,0,1-1.28-.68,30.38,30.38,0,0,1-6.26-6.5,54.84,54.84,0,0,1-7.36-14.69,93.18,93.18,0,0,1-4.39-20.38,105.39,105.39,0,0,1-.38-17.85,73.39,73.39,0,0,1,4.57-22.2,41.81,41.81,0,0,1,5-9.4,11.1,11.1,0,0,1,.89-1.06c.09-.09.28-.09.57-.17,1.3,5.54,2,11.19,3.35,17a4.87,4.87,0,0,0,.9-2.05A117.34,117.34,0,0,1,154,203.19a101.28,101.28,0,0,1,28.79-34.76c.47-.37,1-.68,1.72-1.16-.06.69-.07,1.12-.15,1.54-.8,4.34-1.62,8.68-2.42,13-.08.44-.27,1,.2,1.29s1-.09,1.41-.44c.57-.52,1.14-1,1.7-1.58a69.36,69.36,0,0,1,26.3-15.7,83.09,83.09,0,0,1,22.74-4.25,98.75,98.75,0,0,1,31.52,3.09c24,6.55,41.48,21.13,52.62,43.33A90.93,90.93,0,0,1,327,234.65a89,89,0,0,1,.39,23.85,114.24,114.24,0,0,1-8.5,31.25A143.6,143.6,0,0,1,304,317.23c-1.12,1.57-2.3,3.11-3.47,4.65-.32.42-.71.78-1.13,1.24a4.89,4.89,0,0,1-.82-.51q-10.32-9.54-20.61-19.1a167.37,167.37,0,0,1-16.32-17.15c-1.06-1.32-2.08-2.68-3.16-4.07.33-.61.59-1.15.91-1.67A63.76,63.76,0,0,0,268,258.21c1.59-9,1.58-18-1.16-26.88A41.81,41.81,0,0,0,259.25,217a30,30,0,0,0-21.83-11.29A38.36,38.36,0,0,0,223.85,207a32.06,32.06,0,0,0-16.91,11.66,42.76,42.76,0,0,0-9.05,31.09c.2,2.15.52,4.3.85,6.44a13.26,13.26,0,0,1-.14,5.06,103.37,103.37,0,0,0-2.83,27.87c.12,2.86.47,5.7.71,8.56.07.91.12,1.82.17,2.65-.84.53-1.34,0-1.84-.26a74.7,74.7,0,0,1-36.26-41.81c-.45-1.23-.87-2.48-1.32-3.71-.09-.26-.23-.51-.38-.83-1.25,1.53-2.09,3.48-4,8.93a62,62,0,0,0-2.63,9.62,83.14,83.14,0,0,0-1.31,9.65,75.4,75.4,0,0,0,.12,10C149.3,295.08,149.9,298.26,150.38,301.68Z" transform="translate(-75.03 -160.97)"/><path d="M373.35,464.31c-.77-.54-1.56-1-2.28-1.6q-4.87-3.94-9.71-7.93c-2.4-2-4.75-4-7.2-5.87a51.07,51.07,0,0,0-12.36-7.28c-.28-.11-.54-.29-.94-.5a7.48,7.48,0,0,1,.5-1.47,16.36,16.36,0,0,1,1.19-1.71,279.23,279.23,0,0,1,24.83-29.14c15.16-15.38,32.09-28.41,51.35-38.29A124.85,124.85,0,0,1,456,358.09a9.4,9.4,0,0,0,2.67-.76c-.74,0-1.47-.1-2.21-.11a87.77,87.77,0,0,0-23.86,3.1,143,143,0,0,0-25.55,9.75,151.82,151.82,0,0,0-43.12,31.05c-.53.55-1.08,1.06-1.86,1.82a5.25,5.25,0,0,1,.09-1.2,126.62,126.62,0,0,1,12.34-25.17A123.15,123.15,0,0,1,395,352.08a134.7,134.7,0,0,1,17.72-13.79c.45.49.12.81-.06,1.12-1.38,2.42-2.74,4.85-4.17,7.24a11.32,11.32,0,0,0-1.3,7.57,7.6,7.6,0,0,0,7.26-1c4.44-3.36,8.82-6.81,13.24-10.2,3.87-3,7.69-6,11.66-8.83a61.4,61.4,0,0,1,17.11-8.7c1.92-.59,3.88-1.07,5.83-1.53a4.7,4.7,0,0,1,2.92,0c.25.55-.13.73-.44.94A124.66,124.66,0,0,0,453.12,334c-.24.2-.44.44-.68.63-1.65,1.32-1.89,3.1-1.66,5a2.3,2.3,0,0,0,1.68,2,6.9,6.9,0,0,0,4.12.17c1.42-.37,2.83-.77,4.24-1.19,4.22-1.27,8.42-2.65,12.67-3.8a78.31,78.31,0,0,1,48.8,2.49,95.39,95.39,0,0,1,23.27,12.42c4.12,3,8.13,6.19,12.19,9.3a8,8,0,0,1,.68.64,19.91,19.91,0,0,1,0,4.22c-.62,0-1.08,0-1.52,0a108.09,108.09,0,0,0-42.38,4.94c-4,1.25-7.86,2.82-11.79,4.26a25.09,25.09,0,0,0-5.9,3.18,31.16,31.16,0,0,1-3.15,2,5.6,5.6,0,0,1-5.36.07,16.64,16.64,0,0,1-2.22-1.25,30.85,30.85,0,0,0-11.53-4.69c-12.62-2.8-24.77-1.19-36.5,4a56,56,0,0,0-19.79,14.68,258.25,258.25,0,0,0-31.61,45.77c-4.16,7.6-8,15.37-11.59,23.27C374.7,462.91,374.55,463.81,373.35,464.31Z" transform="translate(-75.03 -160.97)"/></svg>