solid OpenSCAD_Model
  facet normal -0 0 -1
    outer loop
      vertex 12.037 10 0
      vertex 4 6.5 0
      vertex 4.27899 10 0
    endloop
  endfacet
  facet normal 0 -0 -1
    outer loop
      vertex 4 6.5 0
      vertex 4 0 0
      vertex 2 1.5 0
    endloop
  endfacet
  facet normal 0 0 -1
    outer loop
      vertex 0 33 0
      vertex 4.27899 21.3 0
      vertex 4.27899 18.8 0
    endloop
  endfacet
  facet normal -0 -0 -1
    outer loop
      vertex 16.1473 17.0812 0
      vertex 16.444 15.599 0
      vertex 15.2572 18.14 0
    endloop
  endfacet
  facet normal 0 0 -1
    outer loop
      vertex 0.5 1.5 0
      vertex 2 1.5 0
      vertex 0.5 0 0
    endloop
  endfacet
  facet normal 0 0 -1
    outer loop
      vertex 0.5 0 0
      vertex 2 1.5 0
      vertex 4 0 0
    endloop
  endfacet
  facet normal 0 0 -1
    outer loop
      vertex 14.322 21.788 0
      vertex 15.09 22.7775 0
      vertex 14.77 22.2306 0
    endloop
  endfacet
  facet normal 0 0 -1
    outer loop
      vertex 2 6.5 0
      vertex 4 6.5 0
      vertex 2 1.5 0
    endloop
  endfacet
  facet normal -0 -0 -1
    outer loop
      vertex 22.5 1.5 0
      vertex 22.5 0 0
      vertex 21 1.5 0
    endloop
  endfacet
  facet normal 0 0 -1
    outer loop
      vertex 23 33 0
      vertex 18.9849 16.3132 0
      vertex 18.7535 17.148 0
    endloop
  endfacet
  facet normal 0 -0 -1
    outer loop
      vertex 17.95 24.495 0
      vertex 23 33 0
      vertex 17.8906 23.6809 0
    endloop
  endfacet
  facet normal 0 0 -1
    outer loop
      vertex 19 6.5 0
      vertex 21 1.5 0
      vertex 19 0 0
    endloop
  endfacet
  facet normal 0 -0 -1
    outer loop
      vertex 21 1.5 0
      vertex 22.5 0 0
      vertex 19 0 0
    endloop
  endfacet
  facet normal 0 0 -1
    outer loop
      vertex 19 6.5 0
      vertex 21 6.5 0
      vertex 21 1.5 0
    endloop
  endfacet
  facet normal -0 0 -1
    outer loop
      vertex 14.736 12.5722 0
      vertex 13.952 12.296 0
      vertex 16.3762 14.7759 0
    endloop
  endfacet
  facet normal 0 0 -1
    outer loop
      vertex 23 6.5 0
      vertex 19.062 15.396 0
      vertex 18.9849 16.3132 0
    endloop
  endfacet
  facet normal 0 0 -1
    outer loop
      vertex 4 6.5 0
      vertex 2 6.5 0
      vertex 4.27899 10 0
    endloop
  endfacet
  facet normal 0 0 -1
    outer loop
      vertex 18.5975 13.1245 0
      vertex 18.9459 14.1894 0
      vertex 23 6.5 0
    endloop
  endfacet
  facet normal 0 0 -1
    outer loop
      vertex 13.7443 21.4467 0
      vertex 15.09 22.7775 0
      vertex 14.322 21.788 0
    endloop
  endfacet
  facet normal 0 0 -1
    outer loop
      vertex 13.7443 21.4467 0
      vertex 15.282 23.4286 0
      vertex 15.09 22.7775 0
    endloop
  endfacet
  facet normal -0 0 -1
    outer loop
      vertex 13.7443 21.4467 0
      vertex 13.3174 21.3 0
      vertex 15.282 23.4286 0
    endloop
  endfacet
  facet normal -0 0 -1
    outer loop
      vertex 15.282 23.4286 0
      vertex 13.3174 21.3 0
      vertex 15.346 24.184 0
    endloop
  endfacet
  facet normal -0 -0 -1
    outer loop
      vertex 14.7509 26.0084 0
      vertex 15.0815 25.5105 0
      vertex 14.288 26.396 0
    endloop
  endfacet
  facet normal 0 0 -1
    outer loop
      vertex 14.288 26.396 0
      vertex 15.0815 25.5105 0
      vertex 15.2799 24.9024 0
    endloop
  endfacet
  facet normal 0 0 -1
    outer loop
      vertex 13.6997 26.6869 0
      vertex 14.288 26.396 0
      vertex 15.2799 24.9024 0
    endloop
  endfacet
  facet normal 0 0 -1
    outer loop
      vertex 15.346 24.184 0
      vertex 13.6997 26.6869 0
      vertex 15.2799 24.9024 0
    endloop
  endfacet
  facet normal 0 0 -1
    outer loop
      vertex 15.346 24.184 0
      vertex 12.9927 26.8947 0
      vertex 13.6997 26.6869 0
    endloop
  endfacet
  facet normal 0 0 -1
    outer loop
      vertex 11.223 29.136 0
      vertex 4.27899 29.136 0
      vertex 0 33 0
    endloop
  endfacet
  facet normal -0 0 -1
    outer loop
      vertex 15.346 24.184 0
      vertex 13.3174 21.3 0
      vertex 12.9927 26.8947 0
    endloop
  endfacet
  facet normal -0 -0 -1
    outer loop
      vertex 12.9927 26.8947 0
      vertex 13.3174 21.3 0
      vertex 12.1672 27.0194 0
    endloop
  endfacet
  facet normal -0 -0 -1
    outer loop
      vertex 12.1672 27.0194 0
      vertex 13.3174 21.3 0
      vertex 11.223 27.061 0
    endloop
  endfacet
  facet normal -0 0 -1
    outer loop
      vertex 11.223 27.061 0
      vertex 6.86899 21.3 0
      vertex 6.86899 27.061 0
    endloop
  endfacet
  facet normal 0 0 -1
    outer loop
      vertex 2 6.5 0
      vertex 0 6.5 0
      vertex 4.27899 10 0
    endloop
  endfacet
  facet normal 0 0 -1
    outer loop
      vertex 13.3174 21.3 0
      vertex 6.86899 21.3 0
      vertex 11.223 27.061 0
    endloop
  endfacet
  facet normal 0 0 -1
    outer loop
      vertex 4.27899 21.3 0
      vertex 0 33 0
      vertex 4.27899 29.136 0
    endloop
  endfacet
  facet normal -0 0 -1
    outer loop
      vertex 4.27899 18.8 0
      vertex 0 6.5 0
      vertex 0 33 0
    endloop
  endfacet
  facet normal 0 0 -1
    outer loop
      vertex 11.223 29.136 0
      vertex 0 33 0
      vertex 23 33 0
    endloop
  endfacet
  facet normal 0 0 -1
    outer loop
      vertex 14.1661 28.8459 0
      vertex 11.223 29.136 0
      vertex 23 33 0
    endloop
  endfacet
  facet normal 0 0 -1
    outer loop
      vertex 23 33 0
      vertex 16.2682 27.9757 0
      vertex 14.1661 28.8459 0
    endloop
  endfacet
  facet normal 0 0 -1
    outer loop
      vertex 23 33 0
      vertex 17.5296 26.5254 0
      vertex 16.2682 27.9757 0
    endloop
  endfacet
  facet normal 0 0 -1
    outer loop
      vertex 23 33 0
      vertex 17.95 24.495 0
      vertex 17.5296 26.5254 0
    endloop
  endfacet
  facet normal 0 -0 -1
    outer loop
      vertex 17.7125 22.9347 0
      vertex 18.3679 17.9002 0
      vertex 17.4156 22.2564 0
    endloop
  endfacet
  facet normal 0 0 -1
    outer loop
      vertex 17.4156 22.2564 0
      vertex 18.3679 17.9002 0
      vertex 17.828 18.57 0
    endloop
  endfacet
  facet normal 0 0 -1
    outer loop
      vertex 17.5512 18.8 0
      vertex 17.4156 22.2564 0
      vertex 17.828 18.57 0
    endloop
  endfacet
  facet normal -0 0 -1
    outer loop
      vertex 13.3174 21.3 0
      vertex 6.86899 18.8 0
      vertex 6.86899 21.3 0
    endloop
  endfacet
  facet normal 0 -0 -1
    outer loop
      vertex 12.037 10 0
      vertex 19 6.5 0
      vertex 4 6.5 0
    endloop
  endfacet
  facet normal -0 0 -1
    outer loop
      vertex 4.27899 10 0
      vertex 0 6.5 0
      vertex 4.27899 18.8 0
    endloop
  endfacet
  facet normal 0 0 -1
    outer loop
      vertex 4.27899 18.8 0
      vertex 4.27899 21.3 0
      vertex 6.86899 18.8 0
    endloop
  endfacet
  facet normal 0 0 -1
    outer loop
      vertex 6.86899 12.075 0
      vertex 6.86899 18.8 0
      vertex 11.901 12.075 0
    endloop
  endfacet
  facet normal 0 0 -1
    outer loop
      vertex 6.86899 18.8 0
      vertex 4.27899 21.3 0
      vertex 6.86899 21.3 0
    endloop
  endfacet
  facet normal -0 0 -1
    outer loop
      vertex 16.444 15.599 0
      vertex 13.952 12.296 0
      vertex 13.5311 18.8 0
    endloop
  endfacet
  facet normal 0 0 -1
    outer loop
      vertex 16.3762 14.7759 0
      vertex 16.1727 14.0615 0
      vertex 14.736 12.5722 0
    endloop
  endfacet
  facet normal 0 0 -1
    outer loop
      vertex 16.1727 14.0615 0
      vertex 15.8337 13.4559 0
      vertex 15.359 12.959 0
    endloop
  endfacet
  facet normal 0 0 -1
    outer loop
      vertex 14.736 12.5722 0
      vertex 16.1727 14.0615 0
      vertex 15.359 12.959 0
    endloop
  endfacet
  facet normal 0 0 -1
    outer loop
      vertex 16.444 15.599 0
      vertex 16.3762 14.7759 0
      vertex 13.952 12.296 0
    endloop
  endfacet
  facet normal 0 -0 -1
    outer loop
      vertex 18.0169 12.2014 0
      vertex 19 6.5 0
      vertex 17.204 11.42 0
    endloop
  endfacet
  facet normal 0 0 -1
    outer loop
      vertex 13.5311 18.8 0
      vertex 13.7738 18.7752 0
      vertex 15.2572 18.14 0
    endloop
  endfacet
  facet normal 0 0 -1
    outer loop
      vertex 21 6.5 0
      vertex 18.0169 12.2014 0
      vertex 18.5975 13.1245 0
    endloop
  endfacet
  facet normal 0 0 -1
    outer loop
      vertex 16.444 15.599 0
      vertex 13.5311 18.8 0
      vertex 15.2572 18.14 0
    endloop
  endfacet
  facet normal 0 0 -1
    outer loop
      vertex 21 6.5 0
      vertex 18.5975 13.1245 0
      vertex 23 6.5 0
    endloop
  endfacet
  facet normal 0 0 -1
    outer loop
      vertex 17.5512 18.8 0
      vertex 16.6575 21.3 0
      vertex 17 21.646 0
    endloop
  endfacet
  facet normal 0 0 -1
    outer loop
      vertex 23 6.5 0
      vertex 18.9459 14.1894 0
      vertex 19.062 15.396 0
    endloop
  endfacet
  facet normal 0 -0 -1
    outer loop
      vertex 13.5311 18.8 0
      vertex 13.952 12.296 0
      vertex 13.007 12.1302 0
    endloop
  endfacet
  facet normal 0 0 -1
    outer loop
      vertex 11.901 12.075 0
      vertex 13.5311 18.8 0
      vertex 13.007 12.1302 0
    endloop
  endfacet
  facet normal 0 0 -1
    outer loop
      vertex 18.7535 17.148 0
      vertex 18.3679 17.9002 0
      vertex 17.8906 23.6809 0
    endloop
  endfacet
  facet normal 0 0 -1
    outer loop
      vertex 11.901 12.075 0
      vertex 6.86899 18.8 0
      vertex 13.5311 18.8 0
    endloop
  endfacet
  facet normal 0 0 -1
    outer loop
      vertex 18.3679 17.9002 0
      vertex 17.7125 22.9347 0
      vertex 17.8906 23.6809 0
    endloop
  endfacet
  facet normal 0 0 -1
    outer loop
      vertex 13.5311 18.8 0
      vertex 6.86899 18.8 0
      vertex 13.3174 21.3 0
    endloop
  endfacet
  facet normal 0 -0 -1
    outer loop
      vertex 17.4156 22.2564 0
      vertex 17.5512 18.8 0
      vertex 17 21.646 0
    endloop
  endfacet
  facet normal 0 0 -1
    outer loop
      vertex 13.3174 21.3 0
      vertex 16.6575 21.3 0
      vertex 13.5311 18.8 0
    endloop
  endfacet
  facet normal 0 -0 -1
    outer loop
      vertex 16.6575 21.3 0
      vertex 17.5512 18.8 0
      vertex 13.5311 18.8 0
    endloop
  endfacet
  facet normal 0 0 -1
    outer loop
      vertex 23 33 0
      vertex 18.7535 17.148 0
      vertex 17.8906 23.6809 0
    endloop
  endfacet
  facet normal 0 0 -1
    outer loop
      vertex 23 6.5 0
      vertex 18.9849 16.3132 0
      vertex 23 33 0
    endloop
  endfacet
  facet normal 0 0 -1
    outer loop
      vertex 21 6.5 0
      vertex 19 6.5 0
      vertex 18.0169 12.2014 0
    endloop
  endfacet
  facet normal 0 0 -1
    outer loop
      vertex 16.1843 10.7987 0
      vertex 17.204 11.42 0
      vertex 19 6.5 0
    endloop
  endfacet
  facet normal 0 0 -1
    outer loop
      vertex 14.9832 10.355 0
      vertex 16.1843 10.7987 0
      vertex 19 6.5 0
    endloop
  endfacet
  facet normal 0 0 -1
    outer loop
      vertex 12.037 10 0
      vertex 13.6008 10.0887 0
      vertex 19 6.5 0
    endloop
  endfacet
  facet normal 0 0 -1
    outer loop
      vertex 13.6008 10.0887 0
      vertex 14.9832 10.355 0
      vertex 19 6.5 0
    endloop
  endfacet
  facet normal -0 0 1
    outer loop
      vertex 4.27899 10 1.5
      vertex 4 6.5 1.5
      vertex 12.037 10 1.5
    endloop
  endfacet
  facet normal -0 0 1
    outer loop
      vertex 2 1.5 1.5
      vertex 4 0 1.5
      vertex 4 6.5 1.5
    endloop
  endfacet
  facet normal 0 -0 1
    outer loop
      vertex 4.27899 18.8 1.5
      vertex 4.27899 21.3 1.5
      vertex 0 33 1.5
    endloop
  endfacet
  facet normal 0 0 1
    outer loop
      vertex 15.2572 18.14 1.5
      vertex 16.444 15.599 1.5
      vertex 16.1473 17.0812 1.5
    endloop
  endfacet
  facet normal 0 0 1
    outer loop
      vertex 0.5 0 1.5
      vertex 2 1.5 1.5
      vertex 0.5 1.5 1.5
    endloop
  endfacet
  facet normal 0 0 1
    outer loop
      vertex 4 0 1.5
      vertex 2 1.5 1.5
      vertex 0.5 0 1.5
    endloop
  endfacet
  facet normal 0 -0 1
    outer loop
      vertex 14.77 22.2306 1.5
      vertex 15.09 22.7775 1.5
      vertex 14.322 21.788 1.5
    endloop
  endfacet
  facet normal 0 0 1
    outer loop
      vertex 2 1.5 1.5
      vertex 4 6.5 1.5
      vertex 2 6.5 1.5
    endloop
  endfacet
  facet normal -0 0 1
    outer loop
      vertex 21 1.5 1.5
      vertex 22.5 0 1.5
      vertex 22.5 1.5 1.5
    endloop
  endfacet
  facet normal -0 0 1
    outer loop
      vertex 18.7535 17.148 1.5
      vertex 18.9849 16.3132 1.5
      vertex 23 33 1.5
    endloop
  endfacet
  facet normal 0 0 1
    outer loop
      vertex 17.8906 23.6809 1.5
      vertex 23 33 1.5
      vertex 17.95 24.495 1.5
    endloop
  endfacet
  facet normal 0 0 1
    outer loop
      vertex 19 0 1.5
      vertex 21 1.5 1.5
      vertex 19 6.5 1.5
    endloop
  endfacet
  facet normal 0 0 1
    outer loop
      vertex 19 0 1.5
      vertex 22.5 0 1.5
      vertex 21 1.5 1.5
    endloop
  endfacet
  facet normal 0 -0 1
    outer loop
      vertex 21 1.5 1.5
      vertex 21 6.5 1.5
      vertex 19 6.5 1.5
    endloop
  endfacet
  facet normal 0 0 1
    outer loop
      vertex 16.3762 14.7759 1.5
      vertex 13.952 12.296 1.5
      vertex 14.736 12.5722 1.5
    endloop
  endfacet
  facet normal 0 0 1
    outer loop
      vertex 18.9849 16.3132 1.5
      vertex 19.062 15.396 1.5
      vertex 23 6.5 1.5
    endloop
  endfacet
  facet normal 0 0 1
    outer loop
      vertex 4.27899 10 1.5
      vertex 2 6.5 1.5
      vertex 4 6.5 1.5
    endloop
  endfacet
  facet normal 0 0 1
    outer loop
      vertex 23 6.5 1.5
      vertex 18.9459 14.1894 1.5
      vertex 18.5975 13.1245 1.5
    endloop
  endfacet
  facet normal 0 -0 1
    outer loop
      vertex 14.322 21.788 1.5
      vertex 15.09 22.7775 1.5
      vertex 13.7443 21.4467 1.5
    endloop
  endfacet
  facet normal 0 -0 1
    outer loop
      vertex 15.09 22.7775 1.5
      vertex 15.282 23.4286 1.5
      vertex 13.7443 21.4467 1.5
    endloop
  endfacet
  facet normal 0 0 1
    outer loop
      vertex 15.282 23.4286 1.5
      vertex 13.3174 21.3 1.5
      vertex 13.7443 21.4467 1.5
    endloop
  endfacet
  facet normal 0 0 1
    outer loop
      vertex 15.346 24.184 1.5
      vertex 13.3174 21.3 1.5
      vertex 15.282 23.4286 1.5
    endloop
  endfacet
  facet normal 0 0 1
    outer loop
      vertex 14.288 26.396 1.5
      vertex 15.0815 25.5105 1.5
      vertex 14.7509 26.0084 1.5
    endloop
  endfacet
  facet normal 0 0 1
    outer loop
      vertex 15.2799 24.9024 1.5
      vertex 15.0815 25.5105 1.5
      vertex 14.288 26.396 1.5
    endloop
  endfacet
  facet normal 0 0 1
    outer loop
      vertex 15.2799 24.9024 1.5
      vertex 14.288 26.396 1.5
      vertex 13.6997 26.6869 1.5
    endloop
  endfacet
  facet normal 0 0 1
    outer loop
      vertex 15.2799 24.9024 1.5
      vertex 13.6997 26.6869 1.5
      vertex 15.346 24.184 1.5
    endloop
  endfacet
  facet normal 0 0 1
    outer loop
      vertex 13.6997 26.6869 1.5
      vertex 12.9927 26.8947 1.5
      vertex 15.346 24.184 1.5
    endloop
  endfacet
  facet normal 0 0 1
    outer loop
      vertex 0 33 1.5
      vertex 4.27899 29.136 1.5
      vertex 11.223 29.136 1.5
    endloop
  endfacet
  facet normal 0 0 1
    outer loop
      vertex 12.9927 26.8947 1.5
      vertex 13.3174 21.3 1.5
      vertex 15.346 24.184 1.5
    endloop
  endfacet
  facet normal 0 0 1
    outer loop
      vertex 12.1672 27.0194 1.5
      vertex 13.3174 21.3 1.5
      vertex 12.9927 26.8947 1.5
    endloop
  endfacet
  facet normal 0 0 1
    outer loop
      vertex 11.223 27.061 1.5
      vertex 13.3174 21.3 1.5
      vertex 12.1672 27.0194 1.5
    endloop
  endfacet
  facet normal -0 0 1
    outer loop
      vertex 6.86899 27.061 1.5
      vertex 6.86899 21.3 1.5
      vertex 11.223 27.061 1.5
    endloop
  endfacet
  facet normal 0 0 1
    outer loop
      vertex 4.27899 10 1.5
      vertex 0 6.5 1.5
      vertex 2 6.5 1.5
    endloop
  endfacet
  facet normal 0 0 1
    outer loop
      vertex 11.223 27.061 1.5
      vertex 6.86899 21.3 1.5
      vertex 13.3174 21.3 1.5
    endloop
  endfacet
  facet normal 0 0 1
    outer loop
      vertex 4.27899 29.136 1.5
      vertex 0 33 1.5
      vertex 4.27899 21.3 1.5
    endloop
  endfacet
  facet normal 0 0 1
    outer loop
      vertex 0 33 1.5
      vertex 0 6.5 1.5
      vertex 4.27899 18.8 1.5
    endloop
  endfacet
  facet normal 0 0 1
    outer loop
      vertex 23 33 1.5
      vertex 0 33 1.5
      vertex 11.223 29.136 1.5
    endloop
  endfacet
  facet normal 0 0 1
    outer loop
      vertex 23 33 1.5
      vertex 11.223 29.136 1.5
      vertex 14.1661 28.8459 1.5
    endloop
  endfacet
  facet normal -0 0 1
    outer loop
      vertex 14.1661 28.8459 1.5
      vertex 16.2682 27.9757 1.5
      vertex 23 33 1.5
    endloop
  endfacet
  facet normal -0 0 1
    outer loop
      vertex 16.2682 27.9757 1.5
      vertex 17.5296 26.5254 1.5
      vertex 23 33 1.5
    endloop
  endfacet
  facet normal -0 0 1
    outer loop
      vertex 17.5296 26.5254 1.5
      vertex 17.95 24.495 1.5
      vertex 23 33 1.5
    endloop
  endfacet
  facet normal -0 0 1
    outer loop
      vertex 17.4156 22.2564 1.5
      vertex 18.3679 17.9002 1.5
      vertex 17.7125 22.9347 1.5
    endloop
  endfacet
  facet normal -0 -0 1
    outer loop
      vertex 17.828 18.57 1.5
      vertex 18.3679 17.9002 1.5
      vertex 17.4156 22.2564 1.5
    endloop
  endfacet
  facet normal 0 0 1
    outer loop
      vertex 17.828 18.57 1.5
      vertex 17.4156 22.2564 1.5
      vertex 17.5512 18.8 1.5
    endloop
  endfacet
  facet normal -0 0 1
    outer loop
      vertex 6.86899 21.3 1.5
      vertex 6.86899 18.8 1.5
      vertex 13.3174 21.3 1.5
    endloop
  endfacet
  facet normal 0 0 1
    outer loop
      vertex 4 6.5 1.5
      vertex 19 6.5 1.5
      vertex 12.037 10 1.5
    endloop
  endfacet
  facet normal 0 0 1
    outer loop
      vertex 4.27899 18.8 1.5
      vertex 0 6.5 1.5
      vertex 4.27899 10 1.5
    endloop
  endfacet
  facet normal 0 0 1
    outer loop
      vertex 6.86899 18.8 1.5
      vertex 4.27899 21.3 1.5
      vertex 4.27899 18.8 1.5
    endloop
  endfacet
  facet normal 0 0 1
    outer loop
      vertex 11.901 12.075 1.5
      vertex 6.86899 18.8 1.5
      vertex 6.86899 12.075 1.5
    endloop
  endfacet
  facet normal 0 0 1
    outer loop
      vertex 6.86899 21.3 1.5
      vertex 4.27899 21.3 1.5
      vertex 6.86899 18.8 1.5
    endloop
  endfacet
  facet normal 0 0 1
    outer loop
      vertex 13.5311 18.8 1.5
      vertex 13.952 12.296 1.5
      vertex 16.444 15.599 1.5
    endloop
  endfacet
  facet normal 0 0 1
    outer loop
      vertex 14.736 12.5722 1.5
      vertex 16.1727 14.0615 1.5
      vertex 16.3762 14.7759 1.5
    endloop
  endfacet
  facet normal 0 0 1
    outer loop
      vertex 15.359 12.959 1.5
      vertex 15.8337 13.4559 1.5
      vertex 16.1727 14.0615 1.5
    endloop
  endfacet
  facet normal 0 -0 1
    outer loop
      vertex 15.359 12.959 1.5
      vertex 16.1727 14.0615 1.5
      vertex 14.736 12.5722 1.5
    endloop
  endfacet
  facet normal 0 0 1
    outer loop
      vertex 13.952 12.296 1.5
      vertex 16.3762 14.7759 1.5
      vertex 16.444 15.599 1.5
    endloop
  endfacet
  facet normal -0 0 1
    outer loop
      vertex 17.204 11.42 1.5
      vertex 19 6.5 1.5
      vertex 18.0169 12.2014 1.5
    endloop
  endfacet
  facet normal 0 0 1
    outer loop
      vertex 15.2572 18.14 1.5
      vertex 13.7738 18.7752 1.5
      vertex 13.5311 18.8 1.5
    endloop
  endfacet
  facet normal 0 0 1
    outer loop
      vertex 18.5975 13.1245 1.5
      vertex 18.0169 12.2014 1.5
      vertex 21 6.5 1.5
    endloop
  endfacet
  facet normal 0 0 1
    outer loop
      vertex 15.2572 18.14 1.5
      vertex 13.5311 18.8 1.5
      vertex 16.444 15.599 1.5
    endloop
  endfacet
  facet normal 0 0 1
    outer loop
      vertex 23 6.5 1.5
      vertex 18.5975 13.1245 1.5
      vertex 21 6.5 1.5
    endloop
  endfacet
  facet normal 0 0 1
    outer loop
      vertex 17 21.646 1.5
      vertex 16.6575 21.3 1.5
      vertex 17.5512 18.8 1.5
    endloop
  endfacet
  facet normal 0 0 1
    outer loop
      vertex 19.062 15.396 1.5
      vertex 18.9459 14.1894 1.5
      vertex 23 6.5 1.5
    endloop
  endfacet
  facet normal 0 0 1
    outer loop
      vertex 13.007 12.1302 1.5
      vertex 13.952 12.296 1.5
      vertex 13.5311 18.8 1.5
    endloop
  endfacet
  facet normal 0 -0 1
    outer loop
      vertex 13.007 12.1302 1.5
      vertex 13.5311 18.8 1.5
      vertex 11.901 12.075 1.5
    endloop
  endfacet
  facet normal 0 0 1
    outer loop
      vertex 17.8906 23.6809 1.5
      vertex 18.3679 17.9002 1.5
      vertex 18.7535 17.148 1.5
    endloop
  endfacet
  facet normal 0 0 1
    outer loop
      vertex 13.5311 18.8 1.5
      vertex 6.86899 18.8 1.5
      vertex 11.901 12.075 1.5
    endloop
  endfacet
  facet normal 0 0 1
    outer loop
      vertex 17.8906 23.6809 1.5
      vertex 17.7125 22.9347 1.5
      vertex 18.3679 17.9002 1.5
    endloop
  endfacet
  facet normal 0 0 1
    outer loop
      vertex 13.3174 21.3 1.5
      vertex 6.86899 18.8 1.5
      vertex 13.5311 18.8 1.5
    endloop
  endfacet
  facet normal -0 0 1
    outer loop
      vertex 17 21.646 1.5
      vertex 17.5512 18.8 1.5
      vertex 17.4156 22.2564 1.5
    endloop
  endfacet
  facet normal 0 -0 1
    outer loop
      vertex 13.5311 18.8 1.5
      vertex 16.6575 21.3 1.5
      vertex 13.3174 21.3 1.5
    endloop
  endfacet
  facet normal 0 0 1
    outer loop
      vertex 13.5311 18.8 1.5
      vertex 17.5512 18.8 1.5
      vertex 16.6575 21.3 1.5
    endloop
  endfacet
  facet normal -0 0 1
    outer loop
      vertex 17.8906 23.6809 1.5
      vertex 18.7535 17.148 1.5
      vertex 23 33 1.5
    endloop
  endfacet
  facet normal 0 0 1
    outer loop
      vertex 23 33 1.5
      vertex 18.9849 16.3132 1.5
      vertex 23 6.5 1.5
    endloop
  endfacet
  facet normal 0 0 1
    outer loop
      vertex 18.0169 12.2014 1.5
      vertex 19 6.5 1.5
      vertex 21 6.5 1.5
    endloop
  endfacet
  facet normal 0 0 1
    outer loop
      vertex 19 6.5 1.5
      vertex 17.204 11.42 1.5
      vertex 16.1843 10.7987 1.5
    endloop
  endfacet
  facet normal 0 0 1
    outer loop
      vertex 19 6.5 1.5
      vertex 16.1843 10.7987 1.5
      vertex 14.9832 10.355 1.5
    endloop
  endfacet
  facet normal 0 0 1
    outer loop
      vertex 19 6.5 1.5
      vertex 13.6008 10.0887 1.5
      vertex 12.037 10 1.5
    endloop
  endfacet
  facet normal 0 0 1
    outer loop
      vertex 19 6.5 1.5
      vertex 14.9832 10.355 1.5
      vertex 13.6008 10.0887 1.5
    endloop
  endfacet
  facet normal -1 0 0
    outer loop
      vertex 0 6.5 0
      vertex 0 33 1.5
      vertex 0 33 0
    endloop
  endfacet
  facet normal -1 0 0
    outer loop
      vertex 0 6.5 0
      vertex 0 6.5 1.5
      vertex 0 33 1.5
    endloop
  endfacet
  facet normal 0 -1 0
    outer loop
      vertex 2 6.5 0
      vertex 0 6.5 1.5
      vertex 0 6.5 0
    endloop
  endfacet
  facet normal 0 -1 0
    outer loop
      vertex 2 6.5 0
      vertex 2 6.5 1.5
      vertex 0 6.5 1.5
    endloop
  endfacet
  facet normal -1 0 0
    outer loop
      vertex 2 1.5 0
      vertex 2 6.5 1.5
      vertex 2 6.5 0
    endloop
  endfacet
  facet normal -1 0 0
    outer loop
      vertex 2 1.5 0
      vertex 2 1.5 1.5
      vertex 2 6.5 1.5
    endloop
  endfacet
  facet normal 0 1 0
    outer loop
      vertex 0.5 1.5 0
      vertex 2 1.5 1.5
      vertex 2 1.5 0
    endloop
  endfacet
  facet normal 0 1 0
    outer loop
      vertex 0.5 1.5 0
      vertex 0.5 1.5 1.5
      vertex 2 1.5 1.5
    endloop
  endfacet
  facet normal -1 0 0
    outer loop
      vertex 0.5 0 0
      vertex 0.5 1.5 1.5
      vertex 0.5 1.5 0
    endloop
  endfacet
  facet normal -1 0 0
    outer loop
      vertex 0.5 0 0
      vertex 0.5 0 1.5
      vertex 0.5 1.5 1.5
    endloop
  endfacet
  facet normal 0 -1 0
    outer loop
      vertex 4 0 0
      vertex 0.5 0 1.5
      vertex 0.5 0 0
    endloop
  endfacet
  facet normal 0 -1 0
    outer loop
      vertex 4 0 0
      vertex 4 0 1.5
      vertex 0.5 0 1.5
    endloop
  endfacet
  facet normal 1 0 0
    outer loop
      vertex 4 6.5 0
      vertex 4 0 1.5
      vertex 4 0 0
    endloop
  endfacet
  facet normal 1 0 -0
    outer loop
      vertex 4 6.5 0
      vertex 4 6.5 1.5
      vertex 4 0 1.5
    endloop
  endfacet
  facet normal 0 -1 0
    outer loop
      vertex 19 6.5 0
      vertex 4 6.5 1.5
      vertex 4 6.5 0
    endloop
  endfacet
  facet normal 0 -1 0
    outer loop
      vertex 19 6.5 0
      vertex 19 6.5 1.5
      vertex 4 6.5 1.5
    endloop
  endfacet
  facet normal -1 0 0
    outer loop
      vertex 19 0 0
      vertex 19 6.5 1.5
      vertex 19 6.5 0
    endloop
  endfacet
  facet normal -1 0 0
    outer loop
      vertex 19 0 0
      vertex 19 0 1.5
      vertex 19 6.5 1.5
    endloop
  endfacet
  facet normal 0 -1 0
    outer loop
      vertex 22.5 0 0
      vertex 19 0 1.5
      vertex 19 0 0
    endloop
  endfacet
  facet normal 0 -1 0
    outer loop
      vertex 22.5 0 0
      vertex 22.5 0 1.5
      vertex 19 0 1.5
    endloop
  endfacet
  facet normal 1 0 0
    outer loop
      vertex 22.5 1.5 0
      vertex 22.5 0 1.5
      vertex 22.5 0 0
    endloop
  endfacet
  facet normal 1 0 -0
    outer loop
      vertex 22.5 1.5 0
      vertex 22.5 1.5 1.5
      vertex 22.5 0 1.5
    endloop
  endfacet
  facet normal 0 1 0
    outer loop
      vertex 21 1.5 0
      vertex 22.5 1.5 1.5
      vertex 22.5 1.5 0
    endloop
  endfacet
  facet normal 0 1 0
    outer loop
      vertex 21 1.5 0
      vertex 21 1.5 1.5
      vertex 22.5 1.5 1.5
    endloop
  endfacet
  facet normal 1 0 0
    outer loop
      vertex 21 6.5 0
      vertex 21 1.5 1.5
      vertex 21 1.5 0
    endloop
  endfacet
  facet normal 1 0 -0
    outer loop
      vertex 21 6.5 0
      vertex 21 6.5 1.5
      vertex 21 1.5 1.5
    endloop
  endfacet
  facet normal 0 -1 0
    outer loop
      vertex 23 6.5 0
      vertex 21 6.5 1.5
      vertex 21 6.5 0
    endloop
  endfacet
  facet normal 0 -1 0
    outer loop
      vertex 23 6.5 0
      vertex 23 6.5 1.5
      vertex 21 6.5 1.5
    endloop
  endfacet
  facet normal 1 0 0
    outer loop
      vertex 23 33 0
      vertex 23 6.5 1.5
      vertex 23 6.5 0
    endloop
  endfacet
  facet normal 1 0 -0
    outer loop
      vertex 23 33 0
      vertex 23 33 1.5
      vertex 23 6.5 1.5
    endloop
  endfacet
  facet normal 0 1 0
    outer loop
      vertex 0 33 0
      vertex 23 33 1.5
      vertex 23 33 0
    endloop
  endfacet
  facet normal 0 1 0
    outer loop
      vertex 0 33 0
      vertex 0 33 1.5
      vertex 23 33 1.5
    endloop
  endfacet
  facet normal 0.324987 -0.945719 0
    outer loop
      vertex 13.7443 21.4467 0
      vertex 13.7443 21.4467 1.5
      vertex 13.3174 21.3 0
    endloop
  endfacet
  facet normal 0.324987 -0.945719 0
    outer loop
      vertex 13.3174 21.3 1.5
      vertex 13.3174 21.3 0
      vertex 13.7443 21.4467 1.5
    endloop
  endfacet
  facet normal 0.508654 -0.860971 0
    outer loop
      vertex 14.322 21.788 0
      vertex 14.322 21.788 1.5
      vertex 13.7443 21.4467 0
    endloop
  endfacet
  facet normal 0.508654 -0.860971 0
    outer loop
      vertex 13.7443 21.4467 1.5
      vertex 13.7443 21.4467 0
      vertex 14.322 21.788 1.5
    endloop
  endfacet
  facet normal 0.702806 -0.711381 0
    outer loop
      vertex 14.77 22.2306 0
      vertex 14.77 22.2306 1.5
      vertex 14.322 21.788 0
    endloop
  endfacet
  facet normal 0.702806 -0.711381 0
    outer loop
      vertex 14.322 21.788 1.5
      vertex 14.322 21.788 0
      vertex 14.77 22.2306 1.5
    endloop
  endfacet
  facet normal 0.863108 -0.505019 0
    outer loop
      vertex 15.09 22.7775 0
      vertex 15.09 22.7775 1.5
      vertex 14.77 22.2306 0
    endloop
  endfacet
  facet normal 0.863108 -0.505019 0
    outer loop
      vertex 14.77 22.2306 1.5
      vertex 14.77 22.2306 0
      vertex 15.09 22.7775 1.5
    endloop
  endfacet
  facet normal 0.959166 -0.282844 0
    outer loop
      vertex 15.282 23.4286 0
      vertex 15.282 23.4286 1.5
      vertex 15.09 22.7775 0
    endloop
  endfacet
  facet normal 0.959166 -0.282844 0
    outer loop
      vertex 15.09 22.7775 1.5
      vertex 15.09 22.7775 0
      vertex 15.282 23.4286 1.5
    endloop
  endfacet
  facet normal 0.99643 -0.0844209 0
    outer loop
      vertex 15.346 24.184 0
      vertex 15.346 24.184 1.5
      vertex 15.282 23.4286 0
    endloop
  endfacet
  facet normal 0.99643 -0.0844209 0
    outer loop
      vertex 15.282 23.4286 1.5
      vertex 15.282 23.4286 0
      vertex 15.346 24.184 1.5
    endloop
  endfacet
  facet normal 0.995794 0.091623 -0
    outer loop
      vertex 15.2799 24.9024 0
      vertex 15.2799 24.9024 1.5
      vertex 15.346 24.184 0
    endloop
  endfacet
  facet normal 0.995794 0.091623 0
    outer loop
      vertex 15.346 24.184 1.5
      vertex 15.346 24.184 0
      vertex 15.2799 24.9024 1.5
    endloop
  endfacet
  facet normal 0.950681 0.310171 -0
    outer loop
      vertex 15.0815 25.5105 0
      vertex 15.0815 25.5105 1.5
      vertex 15.2799 24.9024 0
    endloop
  endfacet
  facet normal 0.950681 0.310171 0
    outer loop
      vertex 15.2799 24.9024 1.5
      vertex 15.2799 24.9024 0
      vertex 15.0815 25.5105 1.5
    endloop
  endfacet
  facet normal 0.833079 0.553155 -0
    outer loop
      vertex 14.7509 26.0084 0
      vertex 14.7509 26.0084 1.5
      vertex 15.0815 25.5105 0
    endloop
  endfacet
  facet normal 0.833079 0.553155 0
    outer loop
      vertex 15.0815 25.5105 1.5
      vertex 15.0815 25.5105 0
      vertex 14.7509 26.0084 1.5
    endloop
  endfacet
  facet normal 0.641991 0.766712 -0
    outer loop
      vertex 14.288 26.396 0
      vertex 14.288 26.396 1.5
      vertex 14.7509 26.0084 0
    endloop
  endfacet
  facet normal 0.641991 0.766712 0
    outer loop
      vertex 14.7509 26.0084 1.5
      vertex 14.7509 26.0084 0
      vertex 14.288 26.396 1.5
    endloop
  endfacet
  facet normal 0.443248 0.896399 -0
    outer loop
      vertex 13.6997 26.6869 0
      vertex 13.6997 26.6869 1.5
      vertex 14.288 26.396 0
    endloop
  endfacet
  facet normal 0.443248 0.896399 0
    outer loop
      vertex 14.288 26.396 1.5
      vertex 14.288 26.396 0
      vertex 13.6997 26.6869 1.5
    endloop
  endfacet
  facet normal 0.28199 0.959417 -0
    outer loop
      vertex 12.9927 26.8947 0
      vertex 12.9927 26.8947 1.5
      vertex 13.6997 26.6869 0
    endloop
  endfacet
  facet normal 0.28199 0.959417 0
    outer loop
      vertex 13.6997 26.6869 1.5
      vertex 13.6997 26.6869 0
      vertex 12.9927 26.8947 1.5
    endloop
  endfacet
  facet normal 0.149365 0.988782 -0
    outer loop
      vertex 12.1672 27.0194 0
      vertex 12.1672 27.0194 1.5
      vertex 12.9927 26.8947 0
    endloop
  endfacet
  facet normal 0.149365 0.988782 0
    outer loop
      vertex 12.9927 26.8947 1.5
      vertex 12.9927 26.8947 0
      vertex 12.1672 27.0194 1.5
    endloop
  endfacet
  facet normal 0.0440158 0.999031 -0
    outer loop
      vertex 11.223 27.061 0
      vertex 11.223 27.061 1.5
      vertex 12.1672 27.0194 0
    endloop
  endfacet
  facet normal 0.0440158 0.999031 0
    outer loop
      vertex 12.1672 27.0194 1.5
      vertex 12.1672 27.0194 0
      vertex 11.223 27.061 1.5
    endloop
  endfacet
  facet normal 0 1 0
    outer loop
      vertex 6.86899 27.061 0
      vertex 6.86899 27.061 1.5
      vertex 11.223 27.061 0
    endloop
  endfacet
  facet normal 0 1 0
    outer loop
      vertex 11.223 27.061 1.5
      vertex 11.223 27.061 0
      vertex 6.86899 27.061 1.5
    endloop
  endfacet
  facet normal -1 0 0
    outer loop
      vertex 6.86899 21.3 0
      vertex 6.86899 21.3 1.5
      vertex 6.86899 27.061 0
    endloop
  endfacet
  facet normal -1 -0 -0
    outer loop
      vertex 6.86899 27.061 1.5
      vertex 6.86899 27.061 0
      vertex 6.86899 21.3 1.5
    endloop
  endfacet
  facet normal 0 1 0
    outer loop
      vertex 4.27899 21.3 0
      vertex 4.27899 21.3 1.5
      vertex 6.86899 21.3 0
    endloop
  endfacet
  facet normal 0 1 0
    outer loop
      vertex 6.86899 21.3 1.5
      vertex 6.86899 21.3 0
      vertex 4.27899 21.3 1.5
    endloop
  endfacet
  facet normal 1 0 -0
    outer loop
      vertex 4.27899 29.136 0
      vertex 4.27899 29.136 1.5
      vertex 4.27899 21.3 0
    endloop
  endfacet
  facet normal 1 -0 0
    outer loop
      vertex 4.27899 21.3 1.5
      vertex 4.27899 21.3 0
      vertex 4.27899 29.136 1.5
    endloop
  endfacet
  facet normal 0 -1 0
    outer loop
      vertex 11.223 29.136 0
      vertex 11.223 29.136 1.5
      vertex 4.27899 29.136 0
    endloop
  endfacet
  facet normal 0 -1 0
    outer loop
      vertex 4.27899 29.136 1.5
      vertex 4.27899 29.136 0
      vertex 11.223 29.136 1.5
    endloop
  endfacet
  facet normal -0.0980941 -0.995177 0
    outer loop
      vertex 14.1661 28.8459 0
      vertex 14.1661 28.8459 1.5
      vertex 11.223 29.136 0
    endloop
  endfacet
  facet normal -0.0980941 -0.995177 -0
    outer loop
      vertex 11.223 29.136 1.5
      vertex 11.223 29.136 0
      vertex 14.1661 28.8459 1.5
    endloop
  endfacet
  facet normal -0.382489 -0.92396 0
    outer loop
      vertex 16.2682 27.9757 0
      vertex 16.2682 27.9757 1.5
      vertex 14.1661 28.8459 0
    endloop
  endfacet
  facet normal -0.382489 -0.92396 -0
    outer loop
      vertex 14.1661 28.8459 1.5
      vertex 14.1661 28.8459 0
      vertex 16.2682 27.9757 1.5
    endloop
  endfacet
  facet normal -0.754536 -0.656259 0
    outer loop
      vertex 17.5296 26.5254 0
      vertex 17.5296 26.5254 1.5
      vertex 16.2682 27.9757 0
    endloop
  endfacet
  facet normal -0.754536 -0.656259 -0
    outer loop
      vertex 16.2682 27.9757 1.5
      vertex 16.2682 27.9757 0
      vertex 17.5296 26.5254 1.5
    endloop
  endfacet
  facet normal -0.97923 -0.202752 0
    outer loop
      vertex 17.95 24.495 0
      vertex 17.95 24.495 1.5
      vertex 17.5296 26.5254 0
    endloop
  endfacet
  facet normal -0.97923 -0.202752 -0
    outer loop
      vertex 17.5296 26.5254 1.5
      vertex 17.5296 26.5254 0
      vertex 17.95 24.495 1.5
    endloop
  endfacet
  facet normal -0.997349 0.0727706 0
    outer loop
      vertex 17.8906 23.6809 0
      vertex 17.8906 23.6809 1.5
      vertex 17.95 24.495 0
    endloop
  endfacet
  facet normal -0.997349 0.0727706 0
    outer loop
      vertex 17.95 24.495 1.5
      vertex 17.95 24.495 0
      vertex 17.8906 23.6809 1.5
    endloop
  endfacet
  facet normal -0.972679 0.232155 0
    outer loop
      vertex 17.7125 22.9347 0
      vertex 17.7125 22.9347 1.5
      vertex 17.8906 23.6809 0
    endloop
  endfacet
  facet normal -0.972679 0.232155 0
    outer loop
      vertex 17.8906 23.6809 1.5
      vertex 17.8906 23.6809 0
      vertex 17.7125 22.9347 1.5
    endloop
  endfacet
  facet normal -0.916086 0.400982 0
    outer loop
      vertex 17.4156 22.2564 0
      vertex 17.4156 22.2564 1.5
      vertex 17.7125 22.9347 0
    endloop
  endfacet
  facet normal -0.916086 0.400982 0
    outer loop
      vertex 17.7125 22.9347 1.5
      vertex 17.7125 22.9347 0
      vertex 17.4156 22.2564 1.5
    endloop
  endfacet
  facet normal -0.826594 0.562799 0
    outer loop
      vertex 17 21.646 0
      vertex 17 21.646 1.5
      vertex 17.4156 22.2564 0
    endloop
  endfacet
  facet normal -0.826594 0.562799 0
    outer loop
      vertex 17.4156 22.2564 1.5
      vertex 17.4156 22.2564 0
      vertex 17 21.646 1.5
    endloop
  endfacet
  facet normal -0.710692 0.703503 0
    outer loop
      vertex 16.6575 21.3 0
      vertex 16.6575 21.3 1.5
      vertex 17 21.646 0
    endloop
  endfacet
  facet normal -0.710692 0.703503 0
    outer loop
      vertex 17 21.646 1.5
      vertex 17 21.646 0
      vertex 16.6575 21.3 1.5
    endloop
  endfacet
  facet normal 0 1 0
    outer loop
      vertex 13.3174 21.3 0
      vertex 13.3174 21.3 1.5
      vertex 16.6575 21.3 0
    endloop
  endfacet
  facet normal 0 1 0
    outer loop
      vertex 16.6575 21.3 1.5
      vertex 16.6575 21.3 0
      vertex 13.3174 21.3 1.5
    endloop
  endfacet
  facet normal 1 0 -0
    outer loop
      vertex 4.27899 18.8 0
      vertex 4.27899 18.8 1.5
      vertex 4.27899 10 0
    endloop
  endfacet
  facet normal 1 -0 0
    outer loop
      vertex 4.27899 10 1.5
      vertex 4.27899 10 0
      vertex 4.27899 18.8 1.5
    endloop
  endfacet
  facet normal 0 -1 0
    outer loop
      vertex 6.86899 18.8 0
      vertex 6.86899 18.8 1.5
      vertex 4.27899 18.8 0
    endloop
  endfacet
  facet normal 0 -1 0
    outer loop
      vertex 4.27899 18.8 1.5
      vertex 4.27899 18.8 0
      vertex 6.86899 18.8 1.5
    endloop
  endfacet
  facet normal -1 0 0
    outer loop
      vertex 6.86899 12.075 0
      vertex 6.86899 12.075 1.5
      vertex 6.86899 18.8 0
    endloop
  endfacet
  facet normal -1 -0 -0
    outer loop
      vertex 6.86899 18.8 1.5
      vertex 6.86899 18.8 0
      vertex 6.86899 12.075 1.5
    endloop
  endfacet
  facet normal 0 -1 0
    outer loop
      vertex 11.901 12.075 0
      vertex 11.901 12.075 1.5
      vertex 6.86899 12.075 0
    endloop
  endfacet
  facet normal 0 -1 0
    outer loop
      vertex 6.86899 12.075 1.5
      vertex 6.86899 12.075 0
      vertex 11.901 12.075 1.5
    endloop
  endfacet
  facet normal 0.0498475 -0.998757 0
    outer loop
      vertex 13.007 12.1302 0
      vertex 13.007 12.1302 1.5
      vertex 11.901 12.075 0
    endloop
  endfacet
  facet normal 0.0498475 -0.998757 0
    outer loop
      vertex 11.901 12.075 1.5
      vertex 11.901 12.075 0
      vertex 13.007 12.1302 1.5
    endloop
  endfacet
  facet normal 0.17281 -0.984955 0
    outer loop
      vertex 13.952 12.296 0
      vertex 13.952 12.296 1.5
      vertex 13.007 12.1302 0
    endloop
  endfacet
  facet normal 0.17281 -0.984955 0
    outer loop
      vertex 13.007 12.1302 1.5
      vertex 13.007 12.1302 0
      vertex 13.952 12.296 1.5
    endloop
  endfacet
  facet normal 0.332279 -0.943181 0
    outer loop
      vertex 14.736 12.5722 0
      vertex 14.736 12.5722 1.5
      vertex 13.952 12.296 0
    endloop
  endfacet
  facet normal 0.332279 -0.943181 0
    outer loop
      vertex 13.952 12.296 1.5
      vertex 13.952 12.296 0
      vertex 14.736 12.5722 1.5
    endloop
  endfacet
  facet normal 0.527471 -0.849573 0
    outer loop
      vertex 15.359 12.959 0
      vertex 15.359 12.959 1.5
      vertex 14.736 12.5722 0
    endloop
  endfacet
  facet normal 0.527471 -0.849573 0
    outer loop
      vertex 14.736 12.5722 1.5
      vertex 14.736 12.5722 0
      vertex 15.359 12.959 1.5
    endloop
  endfacet
  facet normal 0.723075 -0.69077 0
    outer loop
      vertex 15.8337 13.4559 0
      vertex 15.8337 13.4559 1.5
      vertex 15.359 12.959 0
    endloop
  endfacet
  facet normal 0.723075 -0.69077 0
    outer loop
      vertex 15.359 12.959 1.5
      vertex 15.359 12.959 0
      vertex 15.8337 13.4559 1.5
    endloop
  endfacet
  facet normal 0.87259 -0.488454 0
    outer loop
      vertex 16.1727 14.0615 0
      vertex 16.1727 14.0615 1.5
      vertex 15.8337 13.4559 0
    endloop
  endfacet
  facet normal 0.87259 -0.488454 0
    outer loop
      vertex 15.8337 13.4559 1.5
      vertex 15.8337 13.4559 0
      vertex 16.1727 14.0615 1.5
    endloop
  endfacet
  facet normal 0.961742 -0.273956 0
    outer loop
      vertex 16.3762 14.7759 0
      vertex 16.3762 14.7759 1.5
      vertex 16.1727 14.0615 0
    endloop
  endfacet
  facet normal 0.961742 -0.273956 0
    outer loop
      vertex 16.1727 14.0615 1.5
      vertex 16.1727 14.0615 0
      vertex 16.3762 14.7759 1.5
    endloop
  endfacet
  facet normal 0.996625 -0.0820935 0
    outer loop
      vertex 16.444 15.599 0
      vertex 16.444 15.599 1.5
      vertex 16.3762 14.7759 0
    endloop
  endfacet
  facet normal 0.996625 -0.0820935 0
    outer loop
      vertex 16.3762 14.7759 1.5
      vertex 16.3762 14.7759 0
      vertex 16.444 15.599 1.5
    endloop
  endfacet
  facet normal 0.980548 0.196282 -0
    outer loop
      vertex 16.1473 17.0812 0
      vertex 16.1473 17.0812 1.5
      vertex 16.444 15.599 0
    endloop
  endfacet
  facet normal 0.980548 0.196282 0
    outer loop
      vertex 16.444 15.599 1.5
      vertex 16.444 15.599 0
      vertex 16.1473 17.0812 1.5
    endloop
  endfacet
  facet normal 0.765453 0.643492 -0
    outer loop
      vertex 15.2572 18.14 0
      vertex 15.2572 18.14 1.5
      vertex 16.1473 17.0812 0
    endloop
  endfacet
  facet normal 0.765453 0.643492 0
    outer loop
      vertex 16.1473 17.0812 1.5
      vertex 16.1473 17.0812 0
      vertex 15.2572 18.14 1.5
    endloop
  endfacet
  facet normal 0.393635 0.919267 -0
    outer loop
      vertex 13.7738 18.7752 0
      vertex 13.7738 18.7752 1.5
      vertex 15.2572 18.14 0
    endloop
  endfacet
  facet normal 0.393635 0.919267 0
    outer loop
      vertex 15.2572 18.14 1.5
      vertex 15.2572 18.14 0
      vertex 13.7738 18.7752 1.5
    endloop
  endfacet
  facet normal 0.101654 0.99482 -0
    outer loop
      vertex 13.5311 18.8 0
      vertex 13.5311 18.8 1.5
      vertex 13.7738 18.7752 0
    endloop
  endfacet
  facet normal 0.101654 0.99482 0
    outer loop
      vertex 13.7738 18.7752 1.5
      vertex 13.7738 18.7752 0
      vertex 13.5311 18.8 1.5
    endloop
  endfacet
  facet normal 0 -1 0
    outer loop
      vertex 17.5512 18.8 0
      vertex 17.5512 18.8 1.5
      vertex 13.5311 18.8 0
    endloop
  endfacet
  facet normal 0 -1 0
    outer loop
      vertex 13.5311 18.8 1.5
      vertex 13.5311 18.8 0
      vertex 17.5512 18.8 1.5
    endloop
  endfacet
  facet normal -0.639091 -0.769132 0
    outer loop
      vertex 17.828 18.57 0
      vertex 17.828 18.57 1.5
      vertex 17.5512 18.8 0
    endloop
  endfacet
  facet normal -0.639091 -0.769132 -0
    outer loop
      vertex 17.5512 18.8 1.5
      vertex 17.5512 18.8 0
      vertex 17.828 18.57 1.5
    endloop
  endfacet
  facet normal -0.778561 -0.627568 0
    outer loop
      vertex 18.3679 17.9002 0
      vertex 18.3679 17.9002 1.5
      vertex 17.828 18.57 0
    endloop
  endfacet
  facet normal -0.778561 -0.627568 -0
    outer loop
      vertex 17.828 18.57 1.5
      vertex 17.828 18.57 0
      vertex 18.3679 17.9002 1.5
    endloop
  endfacet
  facet normal -0.889886 -0.456182 0
    outer loop
      vertex 18.7535 17.148 0
      vertex 18.7535 17.148 1.5
      vertex 18.3679 17.9002 0
    endloop
  endfacet
  facet normal -0.889886 -0.456182 -0
    outer loop
      vertex 18.3679 17.9002 1.5
      vertex 18.3679 17.9002 0
      vertex 18.7535 17.148 1.5
    endloop
  endfacet
  facet normal -0.963663 -0.26712 0
    outer loop
      vertex 18.9849 16.3132 0
      vertex 18.9849 16.3132 1.5
      vertex 18.7535 17.148 0
    endloop
  endfacet
  facet normal -0.963663 -0.26712 -0
    outer loop
      vertex 18.7535 17.148 1.5
      vertex 18.7535 17.148 0
      vertex 18.9849 16.3132 1.5
    endloop
  endfacet
  facet normal -0.996486 -0.0837648 0
    outer loop
      vertex 19.062 15.396 0
      vertex 19.062 15.396 1.5
      vertex 18.9849 16.3132 0
    endloop
  endfacet
  facet normal -0.996486 -0.0837648 -0
    outer loop
      vertex 18.9849 16.3132 1.5
      vertex 18.9849 16.3132 0
      vertex 19.062 15.396 1.5
    endloop
  endfacet
  facet normal -0.995403 0.0957784 0
    outer loop
      vertex 18.9459 14.1894 0
      vertex 18.9459 14.1894 1.5
      vertex 19.062 15.396 0
    endloop
  endfacet
  facet normal -0.995403 0.0957784 0
    outer loop
      vertex 19.062 15.396 1.5
      vertex 19.062 15.396 0
      vertex 18.9459 14.1894 1.5
    endloop
  endfacet
  facet normal -0.950427 0.310948 0
    outer loop
      vertex 18.5975 13.1245 0
      vertex 18.5975 13.1245 1.5
      vertex 18.9459 14.1894 0
    endloop
  endfacet
  facet normal -0.950427 0.310948 0
    outer loop
      vertex 18.9459 14.1894 1.5
      vertex 18.9459 14.1894 0
      vertex 18.5975 13.1245 1.5
    endloop
  endfacet
  facet normal -0.846485 0.532412 0
    outer loop
      vertex 18.0169 12.2014 0
      vertex 18.0169 12.2014 1.5
      vertex 18.5975 13.1245 0
    endloop
  endfacet
  facet normal -0.846485 0.532412 0
    outer loop
      vertex 18.5975 13.1245 1.5
      vertex 18.5975 13.1245 0
      vertex 18.0169 12.2014 1.5
    endloop
  endfacet
  facet normal -0.693001 0.720937 0
    outer loop
      vertex 17.204 11.42 0
      vertex 17.204 11.42 1.5
      vertex 18.0169 12.2014 0
    endloop
  endfacet
  facet normal -0.693001 0.720937 0
    outer loop
      vertex 18.0169 12.2014 1.5
      vertex 18.0169 12.2014 0
      vertex 17.204 11.42 1.5
    endloop
  endfacet
  facet normal -0.520322 0.85397 0
    outer loop
      vertex 16.1843 10.7987 0
      vertex 16.1843 10.7987 1.5
      vertex 17.204 11.42 0
    endloop
  endfacet
  facet normal -0.520322 0.85397 0
    outer loop
      vertex 17.204 11.42 1.5
      vertex 17.204 11.42 0
      vertex 16.1843 10.7987 1.5
    endloop
  endfacet
  facet normal -0.346523 0.938041 0
    outer loop
      vertex 14.9832 10.355 0
      vertex 14.9832 10.355 1.5
      vertex 16.1843 10.7987 0
    endloop
  endfacet
  facet normal -0.346523 0.938041 0
    outer loop
      vertex 16.1843 10.7987 1.5
      vertex 16.1843 10.7987 0
      vertex 14.9832 10.355 1.5
    endloop
  endfacet
  facet normal -0.189158 0.981947 0
    outer loop
      vertex 13.6008 10.0887 0
      vertex 13.6008 10.0887 1.5
      vertex 14.9832 10.355 0
    endloop
  endfacet
  facet normal -0.189158 0.981947 0
    outer loop
      vertex 14.9832 10.355 1.5
      vertex 14.9832 10.355 0
      vertex 13.6008 10.0887 1.5
    endloop
  endfacet
  facet normal -0.0566298 0.998395 0
    outer loop
      vertex 12.037 10 0
      vertex 12.037 10 1.5
      vertex 13.6008 10.0887 0
    endloop
  endfacet
  facet normal -0.0566298 0.998395 0
    outer loop
      vertex 13.6008 10.0887 1.5
      vertex 13.6008 10.0887 0
      vertex 12.037 10 1.5
    endloop
  endfacet
  facet normal 0 1 0
    outer loop
      vertex 4.27899 10 0
      vertex 4.27899 10 1.5
      vertex 12.037 10 0
    endloop
  endfacet
  facet normal 0 1 0
    outer loop
      vertex 12.037 10 1.5
      vertex 12.037 10 0
      vertex 4.27899 10 1.5
    endloop
  endfacet
endsolid OpenSCAD_Model
