<?xml version="1.0" encoding="utf-8"?>
<!-- Svg Vector Icons : http://www.onlinewebfonts.com/icon -->
<!DOCTYPE svg PUBLIC "-//W3C//DTD SVG 1.1//EN" "http://www.w3.org/Graphics/SVG/1.1/DTD/svg11.dtd">
<svg version="1.1" xmlns="http://www.w3.org/2000/svg" xmlns:xlink="http://www.w3.org/1999/xlink" x="0px" y="0px" viewBox="0 0 1000 1000" enable-background="new 0 0 1000 1000" xml:space="preserve">
<metadata> Svg Vector Icons : http://www.onlinewebfonts.com/icon </metadata>
<g><g><g><path d="M549.1,310c-65-200.7,26.8-300,26.8-300S274.6,154.8,185.3,545.1c-37.5-54-70.3-83.6-66.6-73.9C159,575.6,68,622.3,69.2,732.4c1.2,110,191.1,235.9,191.1,235.9c0-0.1,0-0.1,0.1-0.2c7.5,5.5,15.4,10.7,23.7,15.6c-7.1-8.4-13.7-17-19.9-25.8c-20.6-29.4-35-60.4-35.4-90.3c-0.6-58.9,25.1-99.7,43-141c15.5-35.7,25.2-71.8,6.5-120.2c-2.9-7.6,16.9,9.2,43.8,43.2C374.6,507.4,426.3,384,426.3,384s1.3,193.8,67,318c61.7,116.6,58,176.4,58,176.4C663.5,771.2,701,600.9,701,600.9c40.8,36,64.2,81.6,77.4,127.5c27.8,96.6-29.6,193.7-30.9,203.1c-0.5,3.9-1.5,7.6-2.4,11.3c-3.9,17.6-11,33.4-20.7,47.2c10.5-6.7,20.5-14.1,30.1-21.9c0,0.1,0,0.1,0.1,0.2c0,0,175-125.9,176.2-236c1.2-110-89.9-156.8-49.6-261.2c3.5-9-23.1,16.1-55.2,63.6c-31.8-98-52.1-177.3-158.4-270.9c0,0,19.6,213.1-93.2,367.4C574.4,631.3,614.1,510.7,549.1,310z"/></g></g><g></g><g></g><g></g><g></g><g></g><g></g><g></g><g></g><g></g><g></g><g></g><g></g><g></g><g></g><g></g></g>
</svg>